<?xml version="1.0" encoding="UTF-8" standalone="no"?>
<!-- Created with Inkscape (http://www.inkscape.org/) -->

<svg
     xmlns:dc="http://purl.org/dc/elements/1.1/"
     xmlns:cc="http://creativecommons.org/ns#"
     xmlns:rdf="http://www.w3.org/1999/02/22-rdf-syntax-ns#"
     xmlns:svg="http://www.w3.org/2000/svg"
     xmlns="http://www.w3.org/2000/svg"
     xmlns:sodipodi="http://sodipodi.sourceforge.net/DTD/sodipodi-0.dtd"
     xmlns:inkscape="http://www.inkscape.org/namespaces/inkscape"
     width="177.10899mm"
     height="21.261488mm"
     viewBox="0 0 177.10899 21.261488"
     version="1.1"
     id="svg36310"
     inkscape:version="0.92.3 (2405546, 2018-03-11)"
     sodipodi:docname="MB0032Text.svg">
    <defs
         id="defs36304" />
    <sodipodi:namedview
         id="base"
         pagecolor="#ffffff"
         bordercolor="#666666"
         borderopacity="1.0"
         inkscape:pageopacity="0.0"
         inkscape:pageshadow="2"
         inkscape:zoom="0.35"
         inkscape:cx="611.4329"
         inkscape:cy="774.63607"
         inkscape:document-units="mm"
         inkscape:current-layer="layer1"
         showgrid="false"
         fit-margin-top="0"
         fit-margin-left="0"
         fit-margin-right="0"
         fit-margin-bottom="0"
         showborder="false" />
    <metadata
         id="metadata36307">
        <rdf:RDF>
            <cc:Work
                 rdf:about="">
                <dc:format>image/svg+xml</dc:format>
                <dc:type
                     rdf:resource="http://purl.org/dc/dcmitype/StillImage" />
                <dc:title></dc:title>
            </cc:Work>
        </rdf:RDF>
    </metadata>
    <g
         inkscape:label="Layer 1"
         inkscape:groupmode="layer"
         id="layer1"
         transform="translate(209.39996,-332.52763)">
        <g
             style="stroke-width:0.17739455"
             id="g12081"
             transform="matrix(5.6368284,0,0,5.6374743,377.58508,-868.01462)">
            <g
                 transform="matrix(1.6616397,0,0,-1.6628302,-104.13392,216.66722)"
                 id="g422227"
                 style="stroke-width:0.03764863">
                <path
                     inkscape:connector-curvature="0"
                     id="path422229"
                     style="fill:#bdbcbc;fill-opacity:1;fill-rule:nonzero;stroke:none;stroke-width:0.03764863"
                     d="m 0,0 v 2.221 h 0.671 l 0.403,-1.515 0.399,1.515 h 0.672 v -2.221 h -0.416 v 1.748 l -0.442,-1.748 h -0.432 l -0.439,1.748 v -1.748 z" />
            </g>
            <g
                 transform="matrix(1.6616397,0,0,-1.6628302,-99.082511,215.05628)"
                 id="g422231"
                 style="stroke-width:0.03764863">
                <path
                     inkscape:connector-curvature="0"
                     id="path422233"
                     style="fill:#bdbcbc;fill-opacity:1;fill-rule:nonzero;stroke:none;stroke-width:0.03764863"
                     d="m 0,0 v -0.594 h 0.415 c 0.161,0 0.264,0.004 0.308,0.013 0.066,0.013 0.121,0.042 0.163,0.089 0.042,0.047 0.062,0.11 0.062,0.188 0,0.068 -0.015,0.124 -0.049,0.17 -0.032,0.047 -0.079,0.08 -0.139,0.102 -0.062,0.021 -0.194,0.032 -0.398,0.032 z m 0,0.883 v -0.514 h 0.294 c 0.175,0 0.283,0.003 0.325,0.008 0.077,0.009 0.138,0.035 0.182,0.079 0.044,0.044 0.065,0.102 0.065,0.174 0,0.068 -0.018,0.124 -0.056,0.167 -0.039,0.043 -0.094,0.069 -0.169,0.078 -0.044,0.005 -0.172,0.008 -0.383,0.008 z m -0.448,0.369 h 0.887 c 0.176,0 0.307,-0.007 0.393,-0.022 0.087,-0.014 0.164,-0.044 0.232,-0.091 0.069,-0.046 0.125,-0.109 0.17,-0.186 0.046,-0.077 0.069,-0.164 0.069,-0.26 0,-0.103 -0.029,-0.199 -0.084,-0.286 -0.056,-0.087 -0.132,-0.152 -0.229,-0.195 0.136,-0.04 0.24,-0.107 0.313,-0.202 0.072,-0.095 0.109,-0.206 0.109,-0.334 0,-0.102 -0.023,-0.199 -0.07,-0.295 -0.047,-0.096 -0.112,-0.172 -0.193,-0.229 -0.082,-0.057 -0.181,-0.092 -0.3,-0.105 -0.076,-0.008 -0.255,-0.014 -0.541,-0.016 h -0.756 z" />
            </g>
            <g
                 transform="matrix(1.6616397,0,0,-1.6628302,-95.067853,213.54611)"
                 id="g422235"
                 style="stroke-width:0.03764863">
                <path
                     inkscape:connector-curvature="0"
                     id="path422237"
                     style="fill:#bdbcbc;fill-opacity:1;fill-rule:nonzero;stroke:none;stroke-width:0.03764863"
                     d="m 0,0 c -0.052,0 -0.098,-0.016 -0.138,-0.049 -0.04,-0.033 -0.071,-0.092 -0.093,-0.177 -0.03,-0.11 -0.044,-0.295 -0.044,-0.555 0,-0.261 0.012,-0.44 0.039,-0.537 0.026,-0.098 0.059,-0.162 0.099,-0.195 0.04,-0.032 0.085,-0.049 0.137,-0.049 0.052,0 0.098,0.017 0.138,0.049 0.041,0.034 0.072,0.092 0.093,0.177 0.03,0.109 0.044,0.294 0.044,0.555 0,0.26 -0.012,0.439 -0.039,0.537 -0.026,0.098 -0.059,0.162 -0.098,0.195 -0.04,0.033 -0.086,0.049 -0.138,0.049 m 0,0.354 c 0.215,0 0.384,-0.078 0.505,-0.231 0.144,-0.182 0.217,-0.483 0.217,-0.904 0,-0.42 -0.074,-0.722 -0.219,-0.906 -0.12,-0.152 -0.288,-0.227 -0.503,-0.227 -0.216,0 -0.391,0.083 -0.522,0.249 -0.132,0.166 -0.199,0.462 -0.199,0.889 0,0.418 0.073,0.718 0.218,0.902 0.12,0.151 0.288,0.228 0.503,0.228" />
            </g>
            <g
                 transform="matrix(1.6616397,0,0,-1.6628302,-92.200685,213.54611)"
                 id="g422239"
                 style="stroke-width:0.03764863">
                <path
                     inkscape:connector-curvature="0"
                     id="path422241"
                     style="fill:#bdbcbc;fill-opacity:1;fill-rule:nonzero;stroke:none;stroke-width:0.03764863"
                     d="m 0,0 c -0.052,0 -0.098,-0.016 -0.138,-0.049 -0.041,-0.033 -0.072,-0.092 -0.093,-0.177 -0.03,-0.11 -0.044,-0.295 -0.044,-0.555 0,-0.261 0.012,-0.44 0.039,-0.537 0.026,-0.098 0.059,-0.162 0.099,-0.195 0.039,-0.032 0.085,-0.049 0.137,-0.049 0.052,0 0.098,0.017 0.138,0.049 0.041,0.034 0.072,0.092 0.093,0.177 0.03,0.109 0.044,0.294 0.044,0.555 0,0.26 -0.012,0.439 -0.039,0.537 -0.026,0.098 -0.059,0.162 -0.099,0.195 -0.039,0.033 -0.085,0.049 -0.137,0.049 m 0,0.354 c 0.215,0 0.383,-0.078 0.505,-0.231 0.143,-0.182 0.216,-0.483 0.216,-0.904 0,-0.42 -0.073,-0.722 -0.218,-0.906 -0.12,-0.152 -0.288,-0.227 -0.503,-0.227 -0.216,0 -0.391,0.083 -0.522,0.249 -0.133,0.166 -0.199,0.462 -0.199,0.889 0,0.418 0.073,0.718 0.218,0.902 0.12,0.151 0.288,0.228 0.503,0.228" />
            </g>
            <g
                 transform="matrix(1.6616397,0,0,-1.6628302,-90.555144,215.68633)"
                 id="g422243"
                 style="stroke-width:0.03764863">
                <path
                     inkscape:connector-curvature="0"
                     id="path422245"
                     style="fill:#bdbcbc;fill-opacity:1;fill-rule:nonzero;stroke:none;stroke-width:0.03764863"
                     d="m 0,0 0.412,0.05 c 0.014,-0.106 0.049,-0.186 0.107,-0.241 0.057,-0.056 0.127,-0.083 0.209,-0.083 0.087,0 0.162,0.033 0.221,0.099 0.061,0.068 0.091,0.157 0.091,0.271 0,0.106 -0.029,0.191 -0.087,0.254 -0.057,0.062 -0.128,0.093 -0.21,0.093 -0.055,0 -0.12,-0.01 -0.196,-0.031 l 0.048,0.347 c 0.114,-0.003 0.202,0.021 0.262,0.075 0.061,0.053 0.092,0.123 0.092,0.211 0,0.075 -0.022,0.135 -0.067,0.179 -0.044,0.045 -0.104,0.066 -0.177,0.066 -0.073,0 -0.135,-0.024 -0.186,-0.075 -0.052,-0.051 -0.083,-0.124 -0.094,-0.222 l -0.393,0.068 c 0.028,0.133 0.069,0.241 0.123,0.321 0.056,0.08 0.132,0.143 0.231,0.189 0.098,0.046 0.209,0.07 0.331,0.07 0.209,0 0.377,-0.068 0.503,-0.201 0.104,-0.109 0.156,-0.232 0.156,-0.369 0,-0.195 -0.106,-0.35 -0.319,-0.467 0.127,-0.027 0.228,-0.088 0.304,-0.183 0.076,-0.095 0.115,-0.21 0.115,-0.344 0,-0.195 -0.072,-0.361 -0.213,-0.498 -0.143,-0.138 -0.321,-0.206 -0.533,-0.206 -0.201,0 -0.367,0.058 -0.5,0.173 -0.131,0.116 -0.209,0.267 -0.23,0.454" />
            </g>
            <g
                 transform="matrix(1.6616397,0,0,-1.6628302,-85.273312,216.00959)"
                 id="g422247"
                 style="stroke-width:0.03764863">
                <path
                     inkscape:connector-curvature="0"
                     id="path422249"
                     style="fill:#bdbcbc;fill-opacity:1;fill-rule:nonzero;stroke:none;stroke-width:0.03764863"
                     d="m 0,0 v -0.396 h -1.492 c 0.015,0.15 0.064,0.292 0.145,0.425 0.081,0.135 0.241,0.312 0.479,0.533 0.192,0.179 0.309,0.3 0.352,0.364 0.059,0.088 0.088,0.175 0.088,0.261 0,0.094 -0.025,0.167 -0.076,0.218 -0.051,0.051 -0.121,0.076 -0.211,0.076 -0.089,0 -0.16,-0.026 -0.212,-0.08 -0.052,-0.053 -0.083,-0.142 -0.092,-0.266 l -0.423,0.043 c 0.025,0.233 0.104,0.402 0.238,0.504 0.133,0.102 0.3,0.153 0.5,0.153 0.219,0 0.391,-0.06 0.517,-0.178 0.125,-0.118 0.187,-0.264 0.187,-0.44 0,-0.101 -0.018,-0.196 -0.054,-0.286 -0.036,-0.09 -0.092,-0.185 -0.171,-0.284 -0.05,-0.066 -0.144,-0.16 -0.278,-0.283 -0.135,-0.124 -0.22,-0.205 -0.256,-0.246 -0.035,-0.04 -0.064,-0.079 -0.087,-0.118 z" />
            </g>
            <path
                 inkscape:connector-curvature="0"
                 id="path422251"
                 style="fill:#bdbcbc;fill-opacity:1;fill-rule:nonzero;stroke:none;stroke-width:0.06258087"
                 d="m -84.644035,215.95953 h 0.707843 v 0.70835 h -0.707843 z" />
            <g
                 transform="matrix(1.6616397,0,0,-1.6628302,-82.167527,213.54611)"
                 id="g422253"
                 style="stroke-width:0.03764863">
                <path
                     inkscape:connector-curvature="0"
                     id="path422255"
                     style="fill:#bdbcbc;fill-opacity:1;fill-rule:nonzero;stroke:none;stroke-width:0.03764863"
                     d="m 0,0 c -0.052,0 -0.098,-0.016 -0.138,-0.049 -0.04,-0.033 -0.072,-0.092 -0.093,-0.177 -0.03,-0.11 -0.044,-0.295 -0.044,-0.555 0,-0.261 0.012,-0.44 0.039,-0.537 0.026,-0.098 0.059,-0.162 0.099,-0.195 0.04,-0.032 0.085,-0.049 0.137,-0.049 0.052,0 0.098,0.017 0.138,0.049 0.041,0.034 0.072,0.092 0.093,0.177 0.03,0.109 0.044,0.294 0.044,0.555 0,0.26 -0.012,0.439 -0.039,0.537 -0.026,0.098 -0.059,0.162 -0.099,0.195 -0.039,0.033 -0.085,0.049 -0.137,0.049 m 0,0.354 c 0.215,0 0.384,-0.078 0.505,-0.231 0.143,-0.182 0.216,-0.483 0.216,-0.904 0,-0.42 -0.073,-0.722 -0.218,-0.906 -0.12,-0.152 -0.288,-0.227 -0.503,-0.227 -0.216,0 -0.391,0.083 -0.522,0.249 -0.133,0.166 -0.199,0.462 -0.199,0.889 0,0.418 0.073,0.718 0.218,0.902 0.12,0.151 0.288,0.228 0.503,0.228" />
            </g>
            <g
                 transform="matrix(1.6616397,0,0,-1.6628302,-78.686719,216.66722)"
                 id="g422257"
                 style="stroke-width:0.03764863">
                <path
                     inkscape:connector-curvature="0"
                     id="path422259"
                     style="fill:#bdbcbc;fill-opacity:1;fill-rule:nonzero;stroke:none;stroke-width:0.03764863"
                     d="m 0,0 h -0.426 v 1.604 c -0.155,-0.145 -0.338,-0.252 -0.55,-0.322 v 0.386 c 0.112,0.036 0.233,0.105 0.363,0.207 0.131,0.102 0.219,0.22 0.268,0.355 h 0.345 z" />
            </g>
            <path
                 inkscape:connector-curvature="0"
                 id="path422261"
                 style="fill:#bdbcbc;fill-opacity:1;fill-rule:nonzero;stroke:none;stroke-width:0.06258087"
                 d="m -77.477386,215.95953 h 0.707843 v 0.70835 h -0.707843 z" />
            <g
                 transform="matrix(1.6616397,0,0,-1.6628302,-74.084799,215.20574)"
                 id="g422263"
                 style="stroke-width:0.03764863">
                <path
                     inkscape:connector-curvature="0"
                     id="path422265"
                     style="fill:#bdbcbc;fill-opacity:1;fill-rule:nonzero;stroke:none;stroke-width:0.03764863"
                     d="m 0,0 -0.306,0.824 -0.3,-0.824 z m 0.825,-0.879 h -0.487 l -0.194,0.505 h -0.888 l -0.183,-0.505 h -0.475 l 0.864,2.221 h 0.475 z" />
            </g>
        </g>
    </g>
</svg>
