<?xml version="1.0" encoding="UTF-8" standalone="no"?>
<!-- Created with Inkscape (http://www.inkscape.org/) -->

<svg
   xmlns:dc="http://purl.org/dc/elements/1.1/"
   xmlns:cc="http://creativecommons.org/ns#"
   xmlns:rdf="http://www.w3.org/1999/02/22-rdf-syntax-ns#"
   xmlns:svg="http://www.w3.org/2000/svg"
   xmlns="http://www.w3.org/2000/svg"
   xmlns:sodipodi="http://sodipodi.sourceforge.net/DTD/sodipodi-0.dtd"
   xmlns:inkscape="http://www.inkscape.org/namespaces/inkscape"
   width="168.804mm"
   height="122.67043mm"
   viewBox="0 0 168.804 122.67043"
   version="1.1"
   id="svg6603"
   sodipodi:docname="MB0032.svg"
   inkscape:version="0.92.3 (2405546, 2018-03-11)">
  <defs
     id="defs6597">
    <clipPath
       clipPathUnits="userSpaceOnUse"
       id="clipPath422001">
      <path
         d="m 0,426.197 h 539.583 v -426.197 h -539.583 z"
         id="path421999"
         inkscape:connector-curvature="0" />
    </clipPath>
  </defs>
  <sodipodi:namedview
     id="base"
     pagecolor="#ffffff"
     bordercolor="#666666"
     borderopacity="1.0"
     inkscape:pageopacity="0.0"
     inkscape:pageshadow="2"
     inkscape:zoom="1.4247663"
     inkscape:cx="232.31881"
     inkscape:cy="231.81814"
     inkscape:document-units="mm"
     inkscape:current-layer="layer1"
     showgrid="false"
     fit-margin-top="0"
     fit-margin-left="0"
     fit-margin-right="0"
     fit-margin-bottom="0"
     showborder="false"
     showguides="false" />
  <metadata
     id="metadata6600">
    <rdf:RDF>
      <cc:Work
         rdf:about="">
        <dc:format>image/svg+xml</dc:format>
        <dc:type
           rdf:resource="http://purl.org/dc/dcmitype/StillImage" />
        <dc:title />
      </cc:Work>
    </rdf:RDF>
  </metadata>
  <g
     inkscape:label="Layer 1"
     inkscape:groupmode="layer"
     id="layer1"
     transform="translate(122.8252,-97.84829)">
    <g
       style="stroke-width:0.08647335"
       id="g422011"
       transform="matrix(4.0779186,0,0,-4.0813078,30.934041,220.50107)">
      <path
         d="m 0,0 h -34.017 c -2.026,0 -3.684,1.659 -3.684,3.686 v 22.676 c 0,2.028 1.658,3.686 3.684,3.686 h 34.017 c 2.026,0 3.685,-1.658 3.685,-3.686 v -22.676 c 0,-2.027 -1.659,-3.686 -3.685,-3.686"
         style="fill:#444141;fill-opacity:1;fill-rule:nonzero;stroke:none;stroke-width:0.08647335"
         id="path422013"
         inkscape:connector-curvature="0" />
    </g>
    <g
       style="stroke-width:0.08647335"
       id="g422015"
       transform="matrix(4.0779186,0,0,-4.0813078,30.934041,220.50107)">
      <path
         d="m 0,0 h -34.017 c -2.026,0 -3.684,1.659 -3.684,3.686 v 22.676 c 0,2.028 1.658,3.686 3.684,3.686 h 34.017 c 2.026,0 3.685,-1.658 3.685,-3.686 v -22.676 c 0,-2.027 -1.659,-3.686 -3.685,-3.686 z"
         style="fill:none;stroke:#231f20;stroke-width:0.00864733;stroke-linecap:butt;stroke-linejoin:miter;stroke-miterlimit:10;stroke-dasharray:none;stroke-opacity:1"
         id="path422017"
         inkscape:connector-curvature="0" />
    </g>
    <g
       style="stroke-width:0.08647335"
       id="g422019"
       transform="matrix(4.0779186,0,0,-4.0813078,-105.46914,110.59302)">
      <path
         d="m 0,0 c 0,-0.626 -0.508,-1.134 -1.134,-1.134 -0.626,0 -1.134,0.508 -1.134,1.134 0,0.626 0.508,1.134 1.134,1.134 0.626,0 1.134,-0.508 1.134,-1.134"
         style="fill:#bdbcbc;fill-opacity:1;fill-rule:nonzero;stroke:none;stroke-width:0.08647335"
         id="path422021"
         inkscape:connector-curvature="0" />
    </g>
    <g
       style="stroke-width:0.08647335"
       id="g422023"
       transform="matrix(4.0779186,0,0,-4.0813078,-4.7595871,116.37581)">
      <path
         d="m 0,0 h -0.313 l -1.051,1.52 v -1.52 h -0.41 v 2.268 h 0.402 l 0.965,-1.442 v 1.442 h 0.407 z m -2.266,0 h -1.415 v 2.268 h 1.41 v -0.409 h -1.001 v -0.453 h 0.998 v -0.409 h -0.998 v -0.588 h 1.006 z m -1.829,2.268 -0.691,-2.268 h -0.403 l -0.668,2.268 h 0.442 l 0.436,-1.642 0.465,1.642 z m -2.11,-2.268 h -1.415 v 2.268 h 1.412 v -0.409 h -1.004 v -0.453 h 1 v -0.409 h -1 v -0.588 h 1.007 z m -1.973,0 h -0.409 v 1.008 h -0.848 v -1.008 h -0.414 v 2.268 h 0.414 v -0.852 h 0.848 v 0.852 h 0.409 z m -2.199,0.409 c 0,-0.134 -0.033,-0.233 -0.104,-0.305 -0.07,-0.068 -0.17,-0.104 -0.305,-0.104 h -1.176 v 0.409 h 1.176 v 0.596 h -0.798 c -0.12,0 -0.22,0.034 -0.294,0.103 -0.075,0.068 -0.113,0.17 -0.113,0.304 v 0.447 c 0,0.13 0.038,0.231 0.112,0.302 0.074,0.07 0.17,0.107 0.295,0.107 h 1.111 v -0.409 h -1.111 v -0.447 h 0.798 c 0.125,0 0.223,-0.036 0.3,-0.111 0.073,-0.074 0.109,-0.173 0.109,-0.296 z m -2.068,-0.409 h -1.414 v 2.268 h 1.41 v -0.409 h -1.004 v -0.453 h 1.001 v -0.409 h -1.001 v -0.588 h 1.008 z m -1.977,0 h -0.413 v 1.402 l -0.344,-1.402 h -0.576 l -0.343,1.402 v -1.402 h -0.413 v 2.268 h 0.582 l 0.47,-1.831 0.473,1.831 h 0.564 z"
         style="fill:#bdbcbc;fill-opacity:1;fill-rule:nonzero;stroke:none;stroke-width:0.08647335"
         id="path422025"
         inkscape:connector-curvature="0" />
    </g>
    <path
       d="m -2.5889548,195.04913 h -71.6694142 v -71.72899 h 71.6694142 z"
       style="fill:#bdbcbc;fill-opacity:1;fill-rule:nonzero;stroke:none;stroke-width:0.35277781"
       id="path422027"
       inkscape:connector-curvature="0" />
    <path
       d="m -4.9010764,141.82891 h -2.3081901 v -2.30999 h 2.3081901 z"
       style="fill:#444141;fill-opacity:1;fill-rule:nonzero;stroke:none;stroke-width:0.35277781"
       id="path422029"
       inkscape:connector-curvature="0" />
    <path
       d="m -4.9010764,139.51487 h -2.3081901 v -2.31416 h 2.3081901 z"
       style="fill:#444141;fill-opacity:1;fill-rule:nonzero;stroke:none;stroke-width:0.35277781"
       id="path422031"
       inkscape:connector-curvature="0" />
    <path
       d="m -4.9010764,137.20071 h -2.3081901 v -2.30999 h 2.3081901 z"
       style="fill:#444141;fill-opacity:1;fill-rule:nonzero;stroke:none;stroke-width:0.35277781"
       id="path422033"
       inkscape:connector-curvature="0" />
    <path
       d="m -4.9010764,134.89072 h -2.3081901 v -2.31417 h 2.3081901 z"
       style="fill:#444141;fill-opacity:1;fill-rule:nonzero;stroke:none;stroke-width:0.35277781"
       id="path422035"
       inkscape:connector-curvature="0" />
    <path
       d="m -4.9010764,132.5725 h -2.3081901 v -2.30999 h 2.3081901 z"
       style="fill:#444141;fill-opacity:1;fill-rule:nonzero;stroke:none;stroke-width:0.35277781"
       id="path422037"
       inkscape:connector-curvature="0" />
    <path
       d="m -4.9010764,130.26251 h -2.3081901 v -2.31416 h 2.3081901 z"
       style="fill:#444141;fill-opacity:1;fill-rule:nonzero;stroke:none;stroke-width:0.35277781"
       id="path422039"
       inkscape:connector-curvature="0" />
    <path
       d="m -4.9010764,127.94835 h -2.3081901 v -2.30999 h 2.3081901 z"
       style="fill:#444141;fill-opacity:1;fill-rule:nonzero;stroke:none;stroke-width:0.35277781"
       id="path422041"
       inkscape:connector-curvature="0" />
    <path
       d="m -7.2133134,141.82891 h -2.3121217 v -2.30999 h 2.3121217 z"
       style="fill:#444141;fill-opacity:1;fill-rule:nonzero;stroke:none;stroke-width:0.35277781"
       id="path422043"
       inkscape:connector-curvature="0" />
    <path
       d="m -7.2133134,127.94835 h -2.3121217 v -2.30999 h 2.3121217 z"
       style="fill:#444141;fill-opacity:1;fill-rule:nonzero;stroke:none;stroke-width:0.35277781"
       id="path422045"
       inkscape:connector-curvature="0" />
    <path
       d="m -9.5254351,141.82891 h -2.3081929 v -2.30999 h 2.3081929 z"
       style="fill:#444141;fill-opacity:1;fill-rule:nonzero;stroke:none;stroke-width:0.35277781"
       id="path422047"
       inkscape:connector-curvature="0" />
    <path
       d="m -9.5254351,137.20071 h -2.3081929 v -2.30999 h 2.3081929 z"
       style="fill:#444141;fill-opacity:1;fill-rule:nonzero;stroke:none;stroke-width:0.35277781"
       id="path422049"
       inkscape:connector-curvature="0" />
    <path
       d="m -9.5254351,134.89072 h -2.3081929 v -2.31417 h 2.3081929 z"
       style="fill:#444141;fill-opacity:1;fill-rule:nonzero;stroke:none;stroke-width:0.35277781"
       id="path422051"
       inkscape:connector-curvature="0" />
    <path
       d="m -9.5254351,132.5725 h -2.3081929 v -2.30999 h 2.3081929 z"
       style="fill:#444141;fill-opacity:1;fill-rule:nonzero;stroke:none;stroke-width:0.35277781"
       id="path422053"
       inkscape:connector-curvature="0" />
    <path
       d="m -9.5254351,127.94835 h -2.3081929 v -2.30999 h 2.3081929 z"
       style="fill:#444141;fill-opacity:1;fill-rule:nonzero;stroke:none;stroke-width:0.35277781"
       id="path422055"
       inkscape:connector-curvature="0" />
    <path
       d="m -11.837672,141.82891 h -2.312122 v -2.30999 h 2.312122 z"
       style="fill:#444141;fill-opacity:1;fill-rule:nonzero;stroke:none;stroke-width:0.35277781"
       id="path422057"
       inkscape:connector-curvature="0" />
    <path
       d="m -11.837672,137.20071 h -2.312122 v -2.30999 h 2.312122 z"
       style="fill:#444141;fill-opacity:1;fill-rule:nonzero;stroke:none;stroke-width:0.35277781"
       id="path422059"
       inkscape:connector-curvature="0" />
    <path
       d="m -11.837672,134.89072 h -2.312122 v -2.31417 h 2.312122 z"
       style="fill:#444141;fill-opacity:1;fill-rule:nonzero;stroke:none;stroke-width:0.35277781"
       id="path422061"
       inkscape:connector-curvature="0" />
    <path
       d="m -11.837672,132.5725 h -2.312122 v -2.30999 h 2.312122 z"
       style="fill:#444141;fill-opacity:1;fill-rule:nonzero;stroke:none;stroke-width:0.35277781"
       id="path422063"
       inkscape:connector-curvature="0" />
    <path
       d="m -11.837672,127.94835 h -2.312122 v -2.30999 h 2.312122 z"
       style="fill:#444141;fill-opacity:1;fill-rule:nonzero;stroke:none;stroke-width:0.35277781"
       id="path422065"
       inkscape:connector-curvature="0" />
    <path
       d="m -14.149794,141.82891 h -2.308192 v -2.30999 h 2.308192 z"
       style="fill:#444141;fill-opacity:1;fill-rule:nonzero;stroke:none;stroke-width:0.35277781"
       id="path422067"
       inkscape:connector-curvature="0" />
    <path
       d="m -14.149794,137.20071 h -2.308192 v -2.30999 h 2.308192 z"
       style="fill:#444141;fill-opacity:1;fill-rule:nonzero;stroke:none;stroke-width:0.35277781"
       id="path422069"
       inkscape:connector-curvature="0" />
    <path
       d="m -14.149794,134.89072 h -2.308192 v -2.31417 h 2.308192 z"
       style="fill:#444141;fill-opacity:1;fill-rule:nonzero;stroke:none;stroke-width:0.35277781"
       id="path422071"
       inkscape:connector-curvature="0" />
    <path
       d="m -14.149794,132.5725 h -2.308192 v -2.30999 h 2.308192 z"
       style="fill:#444141;fill-opacity:1;fill-rule:nonzero;stroke:none;stroke-width:0.35277781"
       id="path422073"
       inkscape:connector-curvature="0" />
    <path
       d="m -14.149794,127.94835 h -2.308192 v -2.30999 h 2.308192 z"
       style="fill:#444141;fill-opacity:1;fill-rule:nonzero;stroke:none;stroke-width:0.35277781"
       id="path422075"
       inkscape:connector-curvature="0" />
    <path
       d="m -16.457986,141.82891 h -2.312122 v -2.30999 h 2.312122 z"
       style="fill:#444141;fill-opacity:1;fill-rule:nonzero;stroke:none;stroke-width:0.35277781"
       id="path422077"
       inkscape:connector-curvature="0" />
    <path
       d="m -16.457986,127.94835 h -2.312122 v -2.30999 h 2.312122 z"
       style="fill:#444141;fill-opacity:1;fill-rule:nonzero;stroke:none;stroke-width:0.35277781"
       id="path422079"
       inkscape:connector-curvature="0" />
    <path
       d="m -18.774155,141.82891 h -2.30819 v -2.30999 h 2.30819 z"
       style="fill:#444141;fill-opacity:1;fill-rule:nonzero;stroke:none;stroke-width:0.35277781"
       id="path422081"
       inkscape:connector-curvature="0" />
    <path
       d="m -18.774155,139.51487 h -2.30819 v -2.31416 h 2.30819 z"
       style="fill:#444141;fill-opacity:1;fill-rule:nonzero;stroke:none;stroke-width:0.35277781"
       id="path422083"
       inkscape:connector-curvature="0" />
    <path
       d="m -18.774155,137.20071 h -2.30819 v -2.30999 h 2.30819 z"
       style="fill:#444141;fill-opacity:1;fill-rule:nonzero;stroke:none;stroke-width:0.35277781"
       id="path422085"
       inkscape:connector-curvature="0" />
    <path
       d="m -18.774155,134.89072 h -2.30819 v -2.31417 h 2.30819 z"
       style="fill:#444141;fill-opacity:1;fill-rule:nonzero;stroke:none;stroke-width:0.35277781"
       id="path422087"
       inkscape:connector-curvature="0" />
    <path
       d="m -18.774155,132.5725 h -2.30819 v -2.30999 h 2.30819 z"
       style="fill:#444141;fill-opacity:1;fill-rule:nonzero;stroke:none;stroke-width:0.35277781"
       id="path422089"
       inkscape:connector-curvature="0" />
    <path
       d="m -18.774155,130.26251 h -2.30819 v -2.31416 h 2.30819 z"
       style="fill:#444141;fill-opacity:1;fill-rule:nonzero;stroke:none;stroke-width:0.35277781"
       id="path422091"
       inkscape:connector-curvature="0" />
    <path
       d="m -18.774155,127.94835 h -2.30819 v -2.30999 h 2.30819 z"
       style="fill:#444141;fill-opacity:1;fill-rule:nonzero;stroke:none;stroke-width:0.35277781"
       id="path422093"
       inkscape:connector-curvature="0" />
    <path
       d="m -55.760937,192.73509 h -2.312124 v -2.30999 h 2.312124 z"
       style="fill:#444141;fill-opacity:1;fill-rule:nonzero;stroke:none;stroke-width:0.35277781"
       id="path422095"
       inkscape:connector-curvature="0" />
    <path
       d="m -55.760937,190.42092 h -2.312124 v -2.31404 h 2.312124 z"
       style="fill:#444141;fill-opacity:1;fill-rule:nonzero;stroke:none;stroke-width:0.35277781"
       id="path422097"
       inkscape:connector-curvature="0" />
    <path
       d="m -55.760937,188.10688 h -2.312124 v -2.30999 h 2.312124 z"
       style="fill:#444141;fill-opacity:1;fill-rule:nonzero;stroke:none;stroke-width:0.35277781"
       id="path422099"
       inkscape:connector-curvature="0" />
    <path
       d="m -55.760937,185.79272 h -2.312124 v -2.31404 h 2.312124 z"
       style="fill:#444141;fill-opacity:1;fill-rule:nonzero;stroke:none;stroke-width:0.35277781"
       id="path422101"
       inkscape:connector-curvature="0" />
    <path
       d="m -55.760937,183.47868 h -2.312124 v -2.31417 h 2.312124 z"
       style="fill:#444141;fill-opacity:1;fill-rule:nonzero;stroke:none;stroke-width:0.35277781"
       id="path422103"
       inkscape:connector-curvature="0" />
    <path
       d="m -55.760937,181.16451 h -2.312124 v -2.30999 h 2.312124 z"
       style="fill:#444141;fill-opacity:1;fill-rule:nonzero;stroke:none;stroke-width:0.35277781"
       id="path422105"
       inkscape:connector-curvature="0" />
    <path
       d="m -55.760937,178.85047 h -2.312124 v -2.31416 h 2.312124 z"
       style="fill:#444141;fill-opacity:1;fill-rule:nonzero;stroke:none;stroke-width:0.35277781"
       id="path422107"
       inkscape:connector-curvature="0" />
    <path
       d="m -55.760937,141.82891 h -2.312124 v -2.30999 h 2.312124 z"
       style="fill:#444141;fill-opacity:1;fill-rule:nonzero;stroke:none;stroke-width:0.35277781"
       id="path422109"
       inkscape:connector-curvature="0" />
    <path
       d="m -55.760937,139.51487 h -2.312124 v -2.31416 h 2.312124 z"
       style="fill:#444141;fill-opacity:1;fill-rule:nonzero;stroke:none;stroke-width:0.35277781"
       id="path422111"
       inkscape:connector-curvature="0" />
    <path
       d="m -55.760937,137.20071 h -2.312124 v -2.30999 h 2.312124 z"
       style="fill:#444141;fill-opacity:1;fill-rule:nonzero;stroke:none;stroke-width:0.35277781"
       id="path422113"
       inkscape:connector-curvature="0" />
    <path
       d="m -55.760937,134.89072 h -2.312124 v -2.31417 h 2.312124 z"
       style="fill:#444141;fill-opacity:1;fill-rule:nonzero;stroke:none;stroke-width:0.35277781"
       id="path422115"
       inkscape:connector-curvature="0" />
    <path
       d="m -55.760937,132.5725 h -2.312124 v -2.30999 h 2.312124 z"
       style="fill:#444141;fill-opacity:1;fill-rule:nonzero;stroke:none;stroke-width:0.35277781"
       id="path422117"
       inkscape:connector-curvature="0" />
    <path
       d="m -55.760937,130.26251 h -2.312124 v -2.31416 h 2.312124 z"
       style="fill:#444141;fill-opacity:1;fill-rule:nonzero;stroke:none;stroke-width:0.35277781"
       id="path422119"
       inkscape:connector-curvature="0" />
    <path
       d="m -55.760937,127.94835 h -2.312124 v -2.30999 h 2.312124 z"
       style="fill:#444141;fill-opacity:1;fill-rule:nonzero;stroke:none;stroke-width:0.35277781"
       id="path422121"
       inkscape:connector-curvature="0" />
    <path
       d="m -58.077221,192.73509 h -2.312122 v -2.30999 h 2.312122 z"
       style="fill:#444141;fill-opacity:1;fill-rule:nonzero;stroke:none;stroke-width:0.35277781"
       id="path422123"
       inkscape:connector-curvature="0" />
    <path
       d="m -58.077221,178.85047 h -2.312122 v -2.31416 h 2.312122 z"
       style="fill:#444141;fill-opacity:1;fill-rule:nonzero;stroke:none;stroke-width:0.35277781"
       id="path422125"
       inkscape:connector-curvature="0" />
    <path
       d="m -58.077221,141.82891 h -2.312122 v -2.30999 h 2.312122 z"
       style="fill:#444141;fill-opacity:1;fill-rule:nonzero;stroke:none;stroke-width:0.35277781"
       id="path422127"
       inkscape:connector-curvature="0" />
    <path
       d="m -58.077221,127.94835 h -2.312122 v -2.30999 h 2.312122 z"
       style="fill:#444141;fill-opacity:1;fill-rule:nonzero;stroke:none;stroke-width:0.35277781"
       id="path422129"
       inkscape:connector-curvature="0" />
    <path
       d="m -60.389343,192.73509 h -2.308077 v -2.30999 h 2.308077 z"
       style="fill:#444141;fill-opacity:1;fill-rule:nonzero;stroke:none;stroke-width:0.35277781"
       id="path422131"
       inkscape:connector-curvature="0" />
    <path
       d="m -60.389343,188.10688 h -2.308077 v -2.30999 h 2.308077 z"
       style="fill:#444141;fill-opacity:1;fill-rule:nonzero;stroke:none;stroke-width:0.35277781"
       id="path422133"
       inkscape:connector-curvature="0" />
    <path
       d="m -60.389343,185.79272 h -2.308077 v -2.31404 h 2.308077 z"
       style="fill:#444141;fill-opacity:1;fill-rule:nonzero;stroke:none;stroke-width:0.35277781"
       id="path422135"
       inkscape:connector-curvature="0" />
    <path
       d="m -60.389343,183.47868 h -2.308077 v -2.31417 h 2.308077 z"
       style="fill:#444141;fill-opacity:1;fill-rule:nonzero;stroke:none;stroke-width:0.35277781"
       id="path422137"
       inkscape:connector-curvature="0" />
    <path
       d="m -60.389343,178.85047 h -2.308077 v -2.31416 h 2.308077 z"
       style="fill:#444141;fill-opacity:1;fill-rule:nonzero;stroke:none;stroke-width:0.35277781"
       id="path422139"
       inkscape:connector-curvature="0" />
    <path
       d="m -60.389343,141.82891 h -2.308077 v -2.30999 h 2.308077 z"
       style="fill:#444141;fill-opacity:1;fill-rule:nonzero;stroke:none;stroke-width:0.35277781"
       id="path422141"
       inkscape:connector-curvature="0" />
    <path
       d="m -60.389343,137.20071 h -2.308077 v -2.30999 h 2.308077 z"
       style="fill:#444141;fill-opacity:1;fill-rule:nonzero;stroke:none;stroke-width:0.35277781"
       id="path422143"
       inkscape:connector-curvature="0" />
    <path
       d="m -60.389343,134.89072 h -2.308077 v -2.31417 h 2.308077 z"
       style="fill:#444141;fill-opacity:1;fill-rule:nonzero;stroke:none;stroke-width:0.35277781"
       id="path422145"
       inkscape:connector-curvature="0" />
    <path
       d="m -60.389343,132.5725 h -2.308077 v -2.30999 h 2.308077 z"
       style="fill:#444141;fill-opacity:1;fill-rule:nonzero;stroke:none;stroke-width:0.35277781"
       id="path422147"
       inkscape:connector-curvature="0" />
    <path
       d="m -60.389343,127.94835 h -2.308077 v -2.30999 h 2.308077 z"
       style="fill:#444141;fill-opacity:1;fill-rule:nonzero;stroke:none;stroke-width:0.35277781"
       id="path422149"
       inkscape:connector-curvature="0" />
    <path
       d="m -62.69742,192.73509 h -2.312237 v -2.30999 h 2.312237 z"
       style="fill:#444141;fill-opacity:1;fill-rule:nonzero;stroke:none;stroke-width:0.35277781"
       id="path422151"
       inkscape:connector-curvature="0" />
    <path
       d="m -62.69742,188.10688 h -2.312237 v -2.30999 h 2.312237 z"
       style="fill:#444141;fill-opacity:1;fill-rule:nonzero;stroke:none;stroke-width:0.35277781"
       id="path422153"
       inkscape:connector-curvature="0" />
    <path
       d="m -62.69742,185.79272 h -2.312237 v -2.31404 h 2.312237 z"
       style="fill:#444141;fill-opacity:1;fill-rule:nonzero;stroke:none;stroke-width:0.35277781"
       id="path422155"
       inkscape:connector-curvature="0" />
    <path
       d="m -62.69742,183.47868 h -2.312237 v -2.31417 h 2.312237 z"
       style="fill:#444141;fill-opacity:1;fill-rule:nonzero;stroke:none;stroke-width:0.35277781"
       id="path422157"
       inkscape:connector-curvature="0" />
    <path
       d="m -62.69742,178.85047 h -2.312237 v -2.31416 h 2.312237 z"
       style="fill:#444141;fill-opacity:1;fill-rule:nonzero;stroke:none;stroke-width:0.35277781"
       id="path422159"
       inkscape:connector-curvature="0" />
    <path
       d="m -62.69742,141.82891 h -2.312237 v -2.30999 h 2.312237 z"
       style="fill:#444141;fill-opacity:1;fill-rule:nonzero;stroke:none;stroke-width:0.35277781"
       id="path422161"
       inkscape:connector-curvature="0" />
    <path
       d="m -62.69742,137.20071 h -2.312237 v -2.30999 h 2.312237 z"
       style="fill:#444141;fill-opacity:1;fill-rule:nonzero;stroke:none;stroke-width:0.35277781"
       id="path422163"
       inkscape:connector-curvature="0" />
    <path
       d="m -62.69742,134.89072 h -2.312237 v -2.31417 h 2.312237 z"
       style="fill:#444141;fill-opacity:1;fill-rule:nonzero;stroke:none;stroke-width:0.35277781"
       id="path422165"
       inkscape:connector-curvature="0" />
    <path
       d="m -62.69742,132.5725 h -2.312237 v -2.30999 h 2.312237 z"
       style="fill:#444141;fill-opacity:1;fill-rule:nonzero;stroke:none;stroke-width:0.35277781"
       id="path422167"
       inkscape:connector-curvature="0" />
    <path
       d="m -62.69742,127.94835 h -2.312237 v -2.30999 h 2.312237 z"
       style="fill:#444141;fill-opacity:1;fill-rule:nonzero;stroke:none;stroke-width:0.35277781"
       id="path422169"
       inkscape:connector-curvature="0" />
    <path
       d="m -65.013704,192.73509 h -2.308074 v -2.30999 h 2.308074 z"
       style="fill:#444141;fill-opacity:1;fill-rule:nonzero;stroke:none;stroke-width:0.35277781"
       id="path422171"
       inkscape:connector-curvature="0" />
    <path
       d="m -65.013704,188.10688 h -2.308074 v -2.30999 h 2.308074 z"
       style="fill:#444141;fill-opacity:1;fill-rule:nonzero;stroke:none;stroke-width:0.35277781"
       id="path422173"
       inkscape:connector-curvature="0" />
    <path
       d="m -65.013704,185.79272 h -2.308074 v -2.31404 h 2.308074 z"
       style="fill:#444141;fill-opacity:1;fill-rule:nonzero;stroke:none;stroke-width:0.35277781"
       id="path422175"
       inkscape:connector-curvature="0" />
    <path
       d="m -65.013704,183.47868 h -2.308074 v -2.31417 h 2.308074 z"
       style="fill:#444141;fill-opacity:1;fill-rule:nonzero;stroke:none;stroke-width:0.35277781"
       id="path422177"
       inkscape:connector-curvature="0" />
    <path
       d="m -65.013704,178.85047 h -2.308074 v -2.31416 h 2.308074 z"
       style="fill:#444141;fill-opacity:1;fill-rule:nonzero;stroke:none;stroke-width:0.35277781"
       id="path422179"
       inkscape:connector-curvature="0" />
    <path
       d="m -65.013704,141.82891 h -2.308074 v -2.30999 h 2.308074 z"
       style="fill:#444141;fill-opacity:1;fill-rule:nonzero;stroke:none;stroke-width:0.35277781"
       id="path422181"
       inkscape:connector-curvature="0" />
    <path
       d="m -65.013704,137.20071 h -2.308074 v -2.30999 h 2.308074 z"
       style="fill:#444141;fill-opacity:1;fill-rule:nonzero;stroke:none;stroke-width:0.35277781"
       id="path422183"
       inkscape:connector-curvature="0" />
    <path
       d="m -65.013704,134.89072 h -2.308074 v -2.31417 h 2.308074 z"
       style="fill:#444141;fill-opacity:1;fill-rule:nonzero;stroke:none;stroke-width:0.35277781"
       id="path422185"
       inkscape:connector-curvature="0" />
    <path
       d="m -65.013704,132.5725 h -2.308074 v -2.30999 h 2.308074 z"
       style="fill:#444141;fill-opacity:1;fill-rule:nonzero;stroke:none;stroke-width:0.35277781"
       id="path422187"
       inkscape:connector-curvature="0" />
    <path
       d="m -65.013704,127.94835 h -2.308074 v -2.30999 h 2.308074 z"
       style="fill:#444141;fill-opacity:1;fill-rule:nonzero;stroke:none;stroke-width:0.35277781"
       id="path422189"
       inkscape:connector-curvature="0" />
    <path
       d="m -67.321778,192.73509 h -2.31223 v -2.30999 h 2.31223 z"
       style="fill:#444141;fill-opacity:1;fill-rule:nonzero;stroke:none;stroke-width:0.35277781"
       id="path422191"
       inkscape:connector-curvature="0" />
    <path
       d="m -67.321778,178.85047 h -2.31223 v -2.31416 h 2.31223 z"
       style="fill:#444141;fill-opacity:1;fill-rule:nonzero;stroke:none;stroke-width:0.35277781"
       id="path422193"
       inkscape:connector-curvature="0" />
    <path
       d="m -67.321778,141.82891 h -2.31223 v -2.30999 h 2.31223 z"
       style="fill:#444141;fill-opacity:1;fill-rule:nonzero;stroke:none;stroke-width:0.35277781"
       id="path422195"
       inkscape:connector-curvature="0" />
    <path
       d="m -67.321778,127.94835 h -2.31223 v -2.30999 h 2.31223 z"
       style="fill:#444141;fill-opacity:1;fill-rule:nonzero;stroke:none;stroke-width:0.35277781"
       id="path422197"
       inkscape:connector-curvature="0" />
    <path
       d="m -69.638057,192.73509 h -2.308083 v -2.30999 h 2.308083 z"
       style="fill:#444141;fill-opacity:1;fill-rule:nonzero;stroke:none;stroke-width:0.35277781"
       id="path422199"
       inkscape:connector-curvature="0" />
    <path
       d="m -69.638057,190.42092 h -2.308083 v -2.31404 h 2.308083 z"
       style="fill:#444141;fill-opacity:1;fill-rule:nonzero;stroke:none;stroke-width:0.35277781"
       id="path422201"
       inkscape:connector-curvature="0" />
    <path
       d="m -69.638057,188.10688 h -2.308083 v -2.30999 h 2.308083 z"
       style="fill:#444141;fill-opacity:1;fill-rule:nonzero;stroke:none;stroke-width:0.35277781"
       id="path422203"
       inkscape:connector-curvature="0" />
    <path
       d="m -69.638057,185.79272 h -2.308083 v -2.31404 h 2.308083 z"
       style="fill:#444141;fill-opacity:1;fill-rule:nonzero;stroke:none;stroke-width:0.35277781"
       id="path422205"
       inkscape:connector-curvature="0" />
    <path
       d="m -69.638057,183.47868 h -2.308083 v -2.31417 h 2.308083 z"
       style="fill:#444141;fill-opacity:1;fill-rule:nonzero;stroke:none;stroke-width:0.35277781"
       id="path422207"
       inkscape:connector-curvature="0" />
    <path
       d="m -69.638057,181.16451 h -2.308083 v -2.30999 h 2.308083 z"
       style="fill:#444141;fill-opacity:1;fill-rule:nonzero;stroke:none;stroke-width:0.35277781"
       id="path422209"
       inkscape:connector-curvature="0" />
    <path
       d="m -69.638057,178.85047 h -2.308083 v -2.31416 h 2.308083 z"
       style="fill:#444141;fill-opacity:1;fill-rule:nonzero;stroke:none;stroke-width:0.35277781"
       id="path422211"
       inkscape:connector-curvature="0" />
    <path
       d="m -69.638057,141.82891 h -2.308083 v -2.30999 h 2.308083 z"
       style="fill:#444141;fill-opacity:1;fill-rule:nonzero;stroke:none;stroke-width:0.35277781"
       id="path422213"
       inkscape:connector-curvature="0" />
    <path
       d="m -69.638057,139.51487 h -2.308083 v -2.31416 h 2.308083 z"
       style="fill:#444141;fill-opacity:1;fill-rule:nonzero;stroke:none;stroke-width:0.35277781"
       id="path422215"
       inkscape:connector-curvature="0" />
    <path
       d="m -69.638057,137.20071 h -2.308083 v -2.30999 h 2.308083 z"
       style="fill:#444141;fill-opacity:1;fill-rule:nonzero;stroke:none;stroke-width:0.35277781"
       id="path422217"
       inkscape:connector-curvature="0" />
    <path
       d="m -69.638057,134.89072 h -2.308083 v -2.31417 h 2.308083 z"
       style="fill:#444141;fill-opacity:1;fill-rule:nonzero;stroke:none;stroke-width:0.35277781"
       id="path422219"
       inkscape:connector-curvature="0" />
    <path
       d="m -69.638057,132.5725 h -2.308083 v -2.30999 h 2.308083 z"
       style="fill:#444141;fill-opacity:1;fill-rule:nonzero;stroke:none;stroke-width:0.35277781"
       id="path422221"
       inkscape:connector-curvature="0" />
    <path
       d="m -69.638057,130.26251 h -2.308083 v -2.31416 h 2.308083 z"
       style="fill:#444141;fill-opacity:1;fill-rule:nonzero;stroke:none;stroke-width:0.35277781"
       id="path422223"
       inkscape:connector-curvature="0" />
    <path
       d="m -69.638057,127.94835 h -2.308083 v -2.30999 h 2.308083 z"
       style="fill:#444141;fill-opacity:1;fill-rule:nonzero;stroke:none;stroke-width:0.35277781"
       id="path422225"
       inkscape:connector-curvature="0" />
    <g
       style="stroke-width:0.40744916"
       id="g12081"
       transform="matrix(2.4541533,0,0,2.4544345,178.58269,-320.70436)">
      <g
         transform="matrix(1.6616397,0,0,-1.6628302,-104.13392,216.66722)"
         id="g422227"
         style="stroke-width:0.08647335">
        <path
           inkscape:connector-curvature="0"
           id="path422229"
           style="fill:#bdbcbc;fill-opacity:1;fill-rule:nonzero;stroke:none;stroke-width:0.08647335"
           d="M 0,0 V 2.221 H 0.671 L 1.074,0.706 1.473,2.221 H 2.145 V 0 H 1.729 V 1.748 L 1.287,0 H 0.855 L 0.416,1.748 V 0 Z" />
      </g>
      <g
         transform="matrix(1.6616397,0,0,-1.6628302,-99.082511,215.05628)"
         id="g422231"
         style="stroke-width:0.08647335">
        <path
           inkscape:connector-curvature="0"
           id="path422233"
           style="fill:#bdbcbc;fill-opacity:1;fill-rule:nonzero;stroke:none;stroke-width:0.08647335"
           d="m 0,0 v -0.594 h 0.415 c 0.161,0 0.264,0.004 0.308,0.013 0.066,0.013 0.121,0.042 0.163,0.089 0.042,0.047 0.062,0.11 0.062,0.188 0,0.068 -0.015,0.124 -0.049,0.17 C 0.867,-0.087 0.82,-0.054 0.76,-0.032 0.698,-0.011 0.566,0 0.362,0 Z M 0,0.883 V 0.369 h 0.294 c 0.175,0 0.283,0.003 0.325,0.008 C 0.696,0.386 0.757,0.412 0.801,0.456 0.845,0.5 0.866,0.558 0.866,0.63 0.866,0.698 0.848,0.754 0.81,0.797 0.771,0.84 0.716,0.866 0.641,0.875 0.597,0.88 0.469,0.883 0.258,0.883 Z M -0.448,1.252 H 0.439 C 0.615,1.252 0.746,1.245 0.832,1.23 0.919,1.216 0.996,1.186 1.064,1.139 1.133,1.093 1.189,1.03 1.234,0.953 1.28,0.876 1.303,0.789 1.303,0.693 1.303,0.59 1.274,0.494 1.219,0.407 1.163,0.32 1.087,0.255 0.99,0.212 1.126,0.172 1.23,0.105 1.303,0.01 1.375,-0.085 1.412,-0.196 1.412,-0.324 1.412,-0.426 1.389,-0.523 1.342,-0.619 1.295,-0.715 1.23,-0.791 1.149,-0.848 1.067,-0.905 0.968,-0.94 0.849,-0.953 0.773,-0.961 0.594,-0.967 0.308,-0.969 h -0.756 z" />
      </g>
      <g
         transform="matrix(1.6616397,0,0,-1.6628302,-95.067853,213.54611)"
         id="g422235"
         style="stroke-width:0.08647335">
        <path
           inkscape:connector-curvature="0"
           id="path422237"
           style="fill:#bdbcbc;fill-opacity:1;fill-rule:nonzero;stroke:none;stroke-width:0.08647335"
           d="m 0,0 c -0.052,0 -0.098,-0.016 -0.138,-0.049 -0.04,-0.033 -0.071,-0.092 -0.093,-0.177 -0.03,-0.11 -0.044,-0.295 -0.044,-0.555 0,-0.261 0.012,-0.44 0.039,-0.537 0.026,-0.098 0.059,-0.162 0.099,-0.195 0.04,-0.032 0.085,-0.049 0.137,-0.049 0.052,0 0.098,0.017 0.138,0.049 0.041,0.034 0.072,0.092 0.093,0.177 0.03,0.109 0.044,0.294 0.044,0.555 0,0.26 -0.012,0.439 -0.039,0.537 C 0.21,-0.146 0.177,-0.082 0.138,-0.049 0.098,-0.016 0.052,0 0,0 m 0,0.354 c 0.215,0 0.384,-0.078 0.505,-0.231 0.144,-0.182 0.217,-0.483 0.217,-0.904 0,-0.42 -0.074,-0.722 -0.219,-0.906 C 0.383,-1.839 0.215,-1.914 0,-1.914 c -0.216,0 -0.391,0.083 -0.522,0.249 -0.132,0.166 -0.199,0.462 -0.199,0.889 0,0.418 0.073,0.718 0.218,0.902 0.12,0.151 0.288,0.228 0.503,0.228" />
      </g>
      <g
         transform="matrix(1.6616397,0,0,-1.6628302,-92.200685,213.54611)"
         id="g422239"
         style="stroke-width:0.08647335">
        <path
           inkscape:connector-curvature="0"
           id="path422241"
           style="fill:#bdbcbc;fill-opacity:1;fill-rule:nonzero;stroke:none;stroke-width:0.08647335"
           d="m 0,0 c -0.052,0 -0.098,-0.016 -0.138,-0.049 -0.041,-0.033 -0.072,-0.092 -0.093,-0.177 -0.03,-0.11 -0.044,-0.295 -0.044,-0.555 0,-0.261 0.012,-0.44 0.039,-0.537 0.026,-0.098 0.059,-0.162 0.099,-0.195 0.039,-0.032 0.085,-0.049 0.137,-0.049 0.052,0 0.098,0.017 0.138,0.049 0.041,0.034 0.072,0.092 0.093,0.177 0.03,0.109 0.044,0.294 0.044,0.555 0,0.26 -0.012,0.439 -0.039,0.537 C 0.21,-0.146 0.177,-0.082 0.137,-0.049 0.098,-0.016 0.052,0 0,0 m 0,0.354 c 0.215,0 0.383,-0.078 0.505,-0.231 0.143,-0.182 0.216,-0.483 0.216,-0.904 0,-0.42 -0.073,-0.722 -0.218,-0.906 C 0.383,-1.839 0.215,-1.914 0,-1.914 c -0.216,0 -0.391,0.083 -0.522,0.249 -0.133,0.166 -0.199,0.462 -0.199,0.889 0,0.418 0.073,0.718 0.218,0.902 0.12,0.151 0.288,0.228 0.503,0.228" />
      </g>
      <g
         transform="matrix(1.6616397,0,0,-1.6628302,-90.555144,215.68633)"
         id="g422243"
         style="stroke-width:0.08647335">
        <path
           inkscape:connector-curvature="0"
           id="path422245"
           style="fill:#bdbcbc;fill-opacity:1;fill-rule:nonzero;stroke:none;stroke-width:0.08647335"
           d="m 0,0 0.412,0.05 c 0.014,-0.106 0.049,-0.186 0.107,-0.241 0.057,-0.056 0.127,-0.083 0.209,-0.083 0.087,0 0.162,0.033 0.221,0.099 C 1.01,-0.107 1.04,-0.018 1.04,0.096 1.04,0.202 1.011,0.287 0.953,0.35 0.896,0.412 0.825,0.443 0.743,0.443 0.688,0.443 0.623,0.433 0.547,0.412 L 0.595,0.759 C 0.709,0.756 0.797,0.78 0.857,0.834 0.918,0.887 0.949,0.957 0.949,1.045 0.949,1.12 0.927,1.18 0.882,1.224 0.838,1.269 0.778,1.29 0.705,1.29 0.632,1.29 0.57,1.266 0.519,1.215 0.467,1.164 0.436,1.091 0.425,0.993 L 0.032,1.061 C 0.06,1.194 0.101,1.302 0.155,1.382 0.211,1.462 0.287,1.525 0.386,1.571 0.484,1.617 0.595,1.641 0.717,1.641 0.926,1.641 1.094,1.573 1.22,1.44 1.324,1.331 1.376,1.208 1.376,1.071 1.376,0.876 1.27,0.721 1.057,0.604 1.184,0.577 1.285,0.516 1.361,0.421 1.437,0.326 1.476,0.211 1.476,0.077 1.476,-0.118 1.404,-0.284 1.263,-0.421 1.12,-0.559 0.942,-0.627 0.73,-0.627 c -0.201,0 -0.367,0.058 -0.5,0.173 C 0.099,-0.338 0.021,-0.187 0,0" />
      </g>
      <g
         transform="matrix(1.6616397,0,0,-1.6628302,-85.273312,216.00959)"
         id="g422247"
         style="stroke-width:0.08647335">
        <path
           inkscape:connector-curvature="0"
           id="path422249"
           style="fill:#bdbcbc;fill-opacity:1;fill-rule:nonzero;stroke:none;stroke-width:0.08647335"
           d="m 0,0 v -0.396 h -1.492 c 0.015,0.15 0.064,0.292 0.145,0.425 0.081,0.135 0.241,0.312 0.479,0.533 0.192,0.179 0.309,0.3 0.352,0.364 0.059,0.088 0.088,0.175 0.088,0.261 0,0.094 -0.025,0.167 -0.076,0.218 -0.051,0.051 -0.121,0.076 -0.211,0.076 -0.089,0 -0.16,-0.026 -0.212,-0.08 C -0.979,1.348 -1.01,1.259 -1.019,1.135 l -0.423,0.043 c 0.025,0.233 0.104,0.402 0.238,0.504 0.133,0.102 0.3,0.153 0.5,0.153 0.219,0 0.391,-0.06 0.517,-0.178 C -0.062,1.539 0,1.393 0,1.217 0,1.116 -0.018,1.021 -0.054,0.931 -0.09,0.841 -0.146,0.746 -0.225,0.647 -0.275,0.581 -0.369,0.487 -0.503,0.364 -0.638,0.24 -0.723,0.159 -0.759,0.118 -0.794,0.078 -0.823,0.039 -0.846,0 Z" />
      </g>
      <path
         inkscape:connector-curvature="0"
         id="path422251"
         style="fill:#bdbcbc;fill-opacity:1;fill-rule:nonzero;stroke:none;stroke-width:0.14373903"
         d="m -84.644035,215.95953 h 0.707843 v 0.70835 h -0.707843 z" />
      <g
         transform="matrix(1.6616397,0,0,-1.6628302,-82.167527,213.54611)"
         id="g422253"
         style="stroke-width:0.08647335">
        <path
           inkscape:connector-curvature="0"
           id="path422255"
           style="fill:#bdbcbc;fill-opacity:1;fill-rule:nonzero;stroke:none;stroke-width:0.08647335"
           d="m 0,0 c -0.052,0 -0.098,-0.016 -0.138,-0.049 -0.04,-0.033 -0.072,-0.092 -0.093,-0.177 -0.03,-0.11 -0.044,-0.295 -0.044,-0.555 0,-0.261 0.012,-0.44 0.039,-0.537 0.026,-0.098 0.059,-0.162 0.099,-0.195 0.04,-0.032 0.085,-0.049 0.137,-0.049 0.052,0 0.098,0.017 0.138,0.049 0.041,0.034 0.072,0.092 0.093,0.177 0.03,0.109 0.044,0.294 0.044,0.555 0,0.26 -0.012,0.439 -0.039,0.537 C 0.21,-0.146 0.177,-0.082 0.137,-0.049 0.098,-0.016 0.052,0 0,0 m 0,0.354 c 0.215,0 0.384,-0.078 0.505,-0.231 0.143,-0.182 0.216,-0.483 0.216,-0.904 0,-0.42 -0.073,-0.722 -0.218,-0.906 C 0.383,-1.839 0.215,-1.914 0,-1.914 c -0.216,0 -0.391,0.083 -0.522,0.249 -0.133,0.166 -0.199,0.462 -0.199,0.889 0,0.418 0.073,0.718 0.218,0.902 0.12,0.151 0.288,0.228 0.503,0.228" />
      </g>
      <g
         transform="matrix(1.6616397,0,0,-1.6628302,-78.686719,216.66722)"
         id="g422257"
         style="stroke-width:0.08647335">
        <path
           inkscape:connector-curvature="0"
           id="path422259"
           style="fill:#bdbcbc;fill-opacity:1;fill-rule:nonzero;stroke:none;stroke-width:0.08647335"
           d="M 0,0 H -0.426 V 1.604 C -0.581,1.459 -0.764,1.352 -0.976,1.282 v 0.386 c 0.112,0.036 0.233,0.105 0.363,0.207 0.131,0.102 0.219,0.22 0.268,0.355 H 0 Z" />
      </g>
      <path
         inkscape:connector-curvature="0"
         id="path422261"
         style="fill:#bdbcbc;fill-opacity:1;fill-rule:nonzero;stroke:none;stroke-width:0.14373903"
         d="m -77.477386,215.95953 h 0.707843 v 0.70835 h -0.707843 z" />
      <g
         transform="matrix(1.6616397,0,0,-1.6628302,-74.084799,215.20574)"
         id="g422263"
         style="stroke-width:0.08647335">
        <path
           inkscape:connector-curvature="0"
           id="path422265"
           style="fill:#bdbcbc;fill-opacity:1;fill-rule:nonzero;stroke:none;stroke-width:0.08647335"
           d="M 0,0 -0.306,0.824 -0.606,0 Z M 0.825,-0.879 H 0.338 l -0.194,0.505 h -0.888 l -0.183,-0.505 h -0.475 l 0.864,2.221 h 0.475 z" />
      </g>
    </g>
  </g>
</svg>
