<?xml version="1.0" encoding="UTF-8" standalone="no"?>
<svg
   xmlns:dc="http://purl.org/dc/elements/1.1/"
   xmlns:cc="http://creativecommons.org/ns#"
   xmlns:rdf="http://www.w3.org/1999/02/22-rdf-syntax-ns#"
   xmlns:svg="http://www.w3.org/2000/svg"
   xmlns="http://www.w3.org/2000/svg"
   xmlns:sodipodi="http://sodipodi.sourceforge.net/DTD/sodipodi-0.dtd"
   xmlns:inkscape="http://www.inkscape.org/namespaces/inkscape"
   version="1.1"
   x="0px"
   y="0px"
   viewBox="0 0 90 112.5"
   enable-background="new 0 0 90 90"
   xml:space="preserve"
   id="svg7646"
   sodipodi:docname="noun_contactless card_125662.svg"
   inkscape:version="0.92.3 (2405546, 2018-03-11)"><metadata
     id="metadata7652"><rdf:RDF><cc:Work
         rdf:about=""><dc:format>image/svg+xml</dc:format><dc:type
           rdf:resource="http://purl.org/dc/dcmitype/StillImage" /></cc:Work></rdf:RDF></metadata><defs
     id="defs7650" /><sodipodi:namedview
     pagecolor="#ffffff"
     bordercolor="#666666"
     borderopacity="1"
     objecttolerance="10"
     gridtolerance="10"
     guidetolerance="10"
     inkscape:pageopacity="0"
     inkscape:pageshadow="2"
     inkscape:window-width="640"
     inkscape:window-height="480"
     id="namedview7648"
     showgrid="false"
     inkscape:zoom="2"
     inkscape:cx="-200.58124"
     inkscape:cy="157.88015"
     inkscape:current-layer="svg7646" /><path
     d="M36.661,29.208c-0.902,0.556-1.183,1.738-0.627,2.641c0.363,0.589,0.992,0.913,1.636,0.913c0.343,0,0.691-0.092,1.005-0.285  c3.896-2.402,8.941-2.412,12.853-0.025c0.903,0.552,2.085,0.265,2.638-0.639c0.552-0.905,0.266-2.086-0.639-2.639  C48.398,26.042,41.776,26.056,36.661,29.208z"
     id="path7628" /><path
     d="M58.092,23.692c0.52-0.924,0.191-2.095-0.732-2.614c-7.598-4.271-17.023-4.245-24.598,0.068  c-0.921,0.525-1.242,1.697-0.718,2.619c0.354,0.621,1.002,0.97,1.669,0.97c0.322,0,0.648-0.081,0.948-0.252  c6.41-3.651,14.386-3.673,20.817-0.058C56.403,24.944,57.572,24.616,58.092,23.692z"
     id="path7630" /><path
     d="M62.001,15.603c0.503-0.933,0.154-2.098-0.779-2.601c-10.161-5.477-22.27-5.438-32.39,0.104  c-0.93,0.509-1.271,1.676-0.762,2.605c0.349,0.638,1.007,0.998,1.686,0.998c0.312,0,0.627-0.076,0.92-0.236  c8.975-4.914,19.714-4.949,28.724-0.092C60.334,16.885,61.499,16.536,62.001,15.603z"
     id="path7632" /><path
     d="M25.799,8.683c0.305,0,0.615-0.073,0.903-0.227C38.142,2.345,51.827,2.299,63.31,8.333c0.94,0.494,2.099,0.132,2.592-0.806  c0.493-0.938,0.132-2.099-0.807-2.592c-12.61-6.627-27.64-6.576-40.202,0.136c-0.936,0.5-1.288,1.663-0.789,2.598  C24.45,8.315,25.113,8.683,25.799,8.683z"
     id="path7634" /><path
     d="M77.708,35.629H12.292c-3.566,0-6.467,2.901-6.467,6.468v41.436c0,3.566,2.901,6.468,6.467,6.468h65.417  c3.566,0,6.467-2.901,6.467-6.468V42.097C84.176,38.53,81.275,35.629,77.708,35.629z M81.478,83.532c0,2.078-1.691,3.769-3.77,3.769  H12.292c-2.078,0-3.77-1.691-3.77-3.769V42.097c0-2.079,1.691-3.77,3.77-3.77h65.417c2.078,0,3.77,1.691,3.77,3.77V83.532z"
     id="path7636"
     style="stroke:none;stroke-opacity:1;fill:#b7b7b7;fill-opacity:1" /><path
     style="opacity:1;fill:#fffff4;fill-opacity:1;fill-rule:evenodd;stroke:none;stroke-width:2.46000004;stroke-linecap:round;stroke-linejoin:round;stroke-miterlimit:4;stroke-dasharray:none;stroke-opacity:1;paint-order:normal"
     d="M 11.433566,87.150332 C 10.725359,86.97601 9.9624025,86.505021 9.4852811,85.947611 8.5460894,84.850377 8.6076515,86.566025 8.6457535,62.551138 L 8.6800699,40.922203 9.0397228,40.310396 C 9.5178805,39.497001 10.30089,38.846791 11.121359,38.581809 11.736968,38.382989 14.492782,38.365385 45,38.365385 c 30.507218,0 33.263032,0.0176 33.878641,0.216424 0.820468,0.264982 1.603479,0.915192 2.081637,1.728587 l 0.359652,0.611807 0.03432,21.628935 c 0.03799,23.947022 0.09502,22.304668 -0.811174,23.363348 -0.242132,0.282876 -0.756429,0.689452 -1.142881,0.903501 l -0.70264,0.389181 -33.435314,0.01999 c -18.389423,0.011 -33.612325,-0.02358 -33.828672,-0.07683 z"
     id="path8199"
     inkscape:connector-curvature="0" /><path
     style="opacity:1;fill:#fffff4;fill-opacity:1;fill-rule:evenodd;stroke:none;stroke-width:2.46000004;stroke-linecap:round;stroke-linejoin:round;stroke-miterlimit:4;stroke-dasharray:none;stroke-opacity:1;paint-order:normal"
     d="M 8.5231961,79.385317 V 76.64313 h 2.9999999 3 v 2.742187 2.742188 h -3 -2.9999999 z"
     id="path8201"
     inkscape:connector-curvature="0" /><path
     style="opacity:1;fill:#fffff4;fill-opacity:1;fill-rule:evenodd;stroke:none;stroke-width:2.46000004;stroke-linecap:round;stroke-linejoin:round;stroke-miterlimit:4;stroke-dasharray:none;stroke-opacity:1;paint-order:normal"
     d="M 8.8356206,85.032336 C 8.7801225,84.908795 8.7079266,84.707368 8.66656,84.560656 8.5866763,84.277338 8.5422593,84.004031 8.5275318,83.705188 c -0.00242,-0.04916 -0.00387,-0.829526 -0.0039,-2.104493 l -5.41e-5,-2.026367 h 2.8339843 2.833984 v 2.742188 2.742187 H 11.519504 8.8474655 Z"
     id="path8203"
     inkscape:connector-curvature="0" /><path
     style="opacity:1;fill:#fffff4;fill-opacity:1;fill-rule:evenodd;stroke:none;stroke-width:2.46000004;stroke-linecap:round;stroke-linejoin:round;stroke-miterlimit:4;stroke-dasharray:none;stroke-opacity:1;paint-order:normal"
     d="M 12.193495,87.298241 C 11.501956,87.28027 10.826147,87.070583 10.24623,86.694052 9.9132174,86.477832 9.6123541,86.206677 9.3592319,85.894641 9.0176769,85.473589 8.7657448,84.968564 8.6353136,84.443469 8.5827512,84.231861 8.5528501,84.046632 8.5328454,83.808703 c -0.00513,-0.06096 -0.00676,-0.148156 -0.00818,-0.436523 l -0.00178,-0.360352 h 2.8343286 2.834329 v 2.144531 2.144532 l -0.979492,-8.18e-4 c -0.538721,-4.49e-4 -0.99707,-0.0013 -1.018555,-0.0018 z"
     id="path8205"
     inkscape:connector-curvature="0" /><path
     style="opacity:1;fill:#d925d3;fill-opacity:1;fill-rule:evenodd;stroke:none;stroke-width:2.46000004;stroke-linecap:round;stroke-linejoin:round;stroke-miterlimit:4;stroke-dasharray:none;stroke-opacity:1;paint-order:normal"
     d="m 14.193797,87.240834 v -0.05415 l 0.08398,0.0034 c 0.146211,0.0059 8.616233,0.03165 11.339844,0.03445 l 0.123047,1.26e-4 v 0.03516 0.03516 H 19.96723 14.193793 Z"
     id="path8242"
     inkscape:connector-curvature="0" /><path
     style="opacity:1;fill:#d925d3;fill-opacity:1;fill-rule:evenodd;stroke:none;stroke-width:2.46000004;stroke-linecap:round;stroke-linejoin:round;stroke-miterlimit:4;stroke-dasharray:none;stroke-opacity:1;paint-order:normal"
     d="m 14.193797,87.240363 v -0.05461 l 0.224609,0.0041 c 0.296136,0.0054 3.980318,0.01802 6.751953,0.02321 1.213867,0.0023 2.73877,0.0063 3.388672,0.0088 l 1.181641,0.0047 v 0.0342 0.0342 h -5.773438 -5.773437 z"
     id="path8244"
     inkscape:connector-curvature="0" /></svg>