<?xml version="1.0" encoding="UTF-8" standalone="no"?>
<svg
   xmlns:dc="http://purl.org/dc/elements/1.1/"
   xmlns:cc="http://creativecommons.org/ns#"
   xmlns:rdf="http://www.w3.org/1999/02/22-rdf-syntax-ns#"
   xmlns:svg="http://www.w3.org/2000/svg"
   xmlns="http://www.w3.org/2000/svg"
   xmlns:sodipodi="http://sodipodi.sourceforge.net/DTD/sodipodi-0.dtd"
   xmlns:inkscape="http://www.inkscape.org/namespaces/inkscape"
   version="1.1"
   x="0px"
   y="0px"
   viewBox="0 0 94.847366 66.45697"
   enable-background="new 0 0 800 800"
   xml:space="preserve"
   id="svg4806"
   sodipodi:docname="noun_Transformer_705751.svg"
   width="94.847366"
   height="66.45697"
   inkscape:version="0.92.3 (2405546, 2018-03-11)"><metadata
     id="metadata4812"><rdf:RDF><cc:Work
         rdf:about=""><dc:format>image/svg+xml</dc:format><dc:type
           rdf:resource="http://purl.org/dc/dcmitype/StillImage" /><dc:title></dc:title></cc:Work></rdf:RDF></metadata><defs
     id="defs4810" /><sodipodi:namedview
     pagecolor="#ffffff"
     bordercolor="#666666"
     borderopacity="1"
     objecttolerance="10"
     gridtolerance="10"
     guidetolerance="10"
     inkscape:pageopacity="0"
     inkscape:pageshadow="2"
     inkscape:window-width="1440"
     inkscape:window-height="847"
     id="namedview4808"
     showgrid="false"
     fit-margin-top="0"
     fit-margin-left="0"
     fit-margin-right="0"
     fit-margin-bottom="0"
     showborder="false"
     inkscape:zoom="4"
     inkscape:cx="55.669813"
     inkscape:cy="22.561754"
     inkscape:window-x="-8"
     inkscape:window-y="-8"
     inkscape:window-maximized="1"
     inkscape:current-layer="svg4806" /><path
     style="fill:#555555;stroke-width:1.00000012;fill-opacity:1"
     inkscape:connector-curvature="0"
     id="path4796"
     d="M 23.8748,7.72105 C 23.8748,3.39147 18.24887,0 11.06578,0 H -12.65443 C -13.39726,0 -14,0.60201 -14,1.34557 c 0,0.74282 0.60274,1.3463 1.34557,1.3463 h 23.72012 c 5.96195,0 10.11716,2.65011 10.11716,5.02908 0,2.37971 -4.15521,5.03139 -10.11716,5.03139 -0.74356,0 -1.3463,0.602 -1.3463,1.34557 0,0.74282 0.60274,1.3463 1.3463,1.3463 5.96195,0 10.11716,2.6502 10.11716,5.02991 0,2.37897 -4.15521,5.03065 -10.11716,5.03065 -0.74356,0 -1.3463,0.60348 -1.3463,1.3463 0,0.74357 0.60274,1.34557 1.3463,1.34557 5.96195,0 10.11716,2.65168 10.11716,5.03065 0,2.37934 -4.15521,5.03176 -10.11716,5.03176 -0.74356,0 -1.3463,0.602 -1.3463,1.34556 0,0.74218 0.60274,1.34566 1.3463,1.34566 5.96195,0 10.11716,2.65094 10.11716,5.02917 0,2.37962 -4.15521,5.03213 -10.11716,5.03213 -0.74356,0 -1.3463,0.602 -1.3463,1.34566 0,0.74208 0.60274,1.34556 1.3463,1.34556 5.96195,0 10.11716,2.65242 10.11716,5.03065 0,2.37971 -4.15521,5.03222 -10.11716,5.03222 h -23.72012 c -0.74283,0 -1.34557,0.602 -1.34557,1.34566 0,0.74208 0.60274,1.34556 1.34557,1.34556 h 23.72012 c 7.18309,0 12.80902,-3.39294 12.80902,-7.72335 0,-2.67914 -2.15696,-4.99784 -5.50077,-6.37621 3.34381,-1.37994 5.50077,-3.69855 5.50077,-6.37769 0,-2.67786 -2.15696,-4.99646 -5.50077,-6.37483 3.34381,-1.37985 5.50077,-3.69846 5.50077,-6.37733 0,-2.67849 -2.15696,-4.99636 -5.50077,-6.37621 3.34381,-1.37911 5.50077,-3.69698 5.50077,-6.37695 0,-2.67924 -2.15696,-4.99711 -5.50077,-6.37631 3.34391,-1.37976 5.50086,-3.69763 5.50086,-6.37695 z"
     sodipodi:nodetypes="ssssssssssssssssssssssssssssscscscscs" /><path
     style="fill:#555555;fill-opacity:1;stroke-width:1.00000012"
     inkscape:connector-curvature="0"
     id="path4798"
     d="m 28.598618,0 c -0.74283,0 -1.34557,0.67320151 -1.34557,1.5048179 V 64.937879 c 0,0.831504 0.60274,1.504806 1.34557,1.504806 0.74393,0 1.34593,-0.673201 1.34593,-1.504806 V 1.5048179 C 29.944638,0.67330215 29.342548,0 28.598618,0 Z" /><path
     style="fill:#555555;fill-opacity:1;stroke-width:1.00000012"
     inkscape:connector-curvature="0"
     id="path4796-3"
     d="M 39.392544,7.72105 C 39.392544,3.39147 45.018474,0 52.201564,0 h 23.72021 c 0.74283,0 1.34557,0.60201 1.34557,1.34557 0,0.74282 -0.60274,1.3463 -1.34557,1.3463 h -23.72012 c -5.96195,0 -10.11716,2.65011 -10.11716,5.02908 0,2.37971 4.15521,5.03139 10.11716,5.03139 0.74356,0 1.3463,0.602 1.3463,1.34557 0,0.74282 -0.60274,1.3463 -1.3463,1.3463 -5.96195,0 -10.11716,2.6502 -10.11716,5.02991 0,2.37897 4.15521,5.03065 10.11716,5.03065 0.74356,0 1.3463,0.60348 1.3463,1.3463 0,0.74357 -0.60274,1.34557 -1.3463,1.34557 -5.96195,0 -10.11716,2.65168 -10.11716,5.03065 0,2.37934 4.15521,5.03176 10.11716,5.03176 0.74356,0 1.3463,0.602 1.3463,1.34556 0,0.74218 -0.60274,1.34566 -1.3463,1.34566 -5.96195,0 -10.11716,2.65094 -10.11716,5.02917 0,2.37962 4.15521,5.03213 10.11716,5.03213 0.74356,0 1.3463,0.602 1.3463,1.34566 0,0.74208 -0.60274,1.34556 -1.3463,1.34556 -5.96195,0 -10.11716,2.65242 -10.11716,5.03065 0,2.37971 4.15521,5.03222 10.11716,5.03222 h 23.72012 c 0.74283,0 1.34557,0.602 1.34557,1.34566 0,0.74208 -0.60274,1.34556 -1.34557,1.34556 h -23.72012 c -7.18309,0 -12.80902,-3.39294 -12.80902,-7.72335 0,-2.67914 2.15696,-4.99784 5.50077,-6.37621 -3.34381,-1.37994 -5.50077,-3.69855 -5.50077,-6.37769 0,-2.67786 2.15696,-4.99646 5.50077,-6.37483 -3.34381,-1.37985 -5.50077,-3.69846 -5.50077,-6.37733 0,-2.67849 2.15696,-4.99636 5.50077,-6.37621 -3.34381,-1.37911 -5.50077,-3.69698 -5.50077,-6.37695 0,-2.67924 2.15696,-4.99711 5.50077,-6.37631 -3.34391,-1.37976 -5.50086,-3.69763 -5.50086,-6.37695 z"
     sodipodi:nodetypes="ssssssssssssssssssssssssssssscscscscs" /><path
     style="fill:#555555;fill-opacity:1;stroke-width:1.00000012"
     inkscape:connector-curvature="0"
     id="path4798-7"
     d="m 34.668366,0 c -0.74283,0 -1.34557,0.6732015 -1.34557,1.5048179 V 64.937879 c 0,0.831504 0.60274,1.504806 1.34557,1.504806 0.74393,0 1.34593,-0.673201 1.34593,-1.504806 V 1.5048179 C 36.014386,0.6733022 35.412296,0 34.668366,0 Z" /></svg>