<?xml version="1.0" encoding="UTF-8" standalone="no"?>
<svg
   xmlns:dc="http://purl.org/dc/elements/1.1/"
   xmlns:cc="http://creativecommons.org/ns#"
   xmlns:rdf="http://www.w3.org/1999/02/22-rdf-syntax-ns#"
   xmlns:svg="http://www.w3.org/2000/svg"
   xmlns="http://www.w3.org/2000/svg"
   xmlns:sodipodi="http://sodipodi.sourceforge.net/DTD/sodipodi-0.dtd"
   xmlns:inkscape="http://www.inkscape.org/namespaces/inkscape"
   version="1.1"
   x="0px"
   y="0px"
   viewBox="0 0 80 100"
   enable-background="new 0 0 80 80"
   xml:space="preserve"
   id="svg4221"
   sodipodi:docname="noun_electric inductor_400009.svg"
   inkscape:version="0.92.3 (2405546, 2018-03-11)"><metadata
     id="metadata4227"><rdf:RDF><cc:Work
         rdf:about=""><dc:format>image/svg+xml</dc:format><dc:type
           rdf:resource="http://purl.org/dc/dcmitype/StillImage" /><dc:title></dc:title></cc:Work></rdf:RDF></metadata><defs
     id="defs4225" /><sodipodi:namedview
     pagecolor="#ffffff"
     bordercolor="#666666"
     borderopacity="1"
     objecttolerance="10"
     gridtolerance="10"
     guidetolerance="10"
     inkscape:pageopacity="0"
     inkscape:pageshadow="2"
     inkscape:window-width="1440"
     inkscape:window-height="847"
     id="namedview4223"
     showgrid="false"
     inkscape:zoom="6.675088"
     inkscape:cx="26.442212"
     inkscape:cy="35.071869"
     inkscape:window-x="-8"
     inkscape:window-y="-8"
     inkscape:window-maximized="1"
     inkscape:current-layer="svg4221" /><g
     id="g4179"><path
       d="M16.3,31.5c3.7,0.1,6,3.3,6.1,6.8c0.1,2.4,3.8,2.4,3.8,0c-0.1-5.6-4.1-10.4-9.8-10.5C13.9,27.7,13.9,31.4,16.3,31.5   L16.3,31.5z"
       id="path4177" /></g><g
     id="g4183"><path
       d="M16.3,27.7c-5.6,0.2-8.8,5.4-8.9,10.5c-0.1,2.4,3.7,2.4,3.8,0c0.1-3,1.7-6.7,5.2-6.8C18.7,31.4,18.7,27.7,16.3,27.7   L16.3,27.7z"
       id="path4181" /></g><g
     id="g4187"><path
       d="M31.3,31.5c3.7,0.1,6,3.3,6.1,6.8c0.1,2.4,3.8,2.4,3.8,0c-0.1-5.6-4.1-10.4-9.8-10.5C28.9,27.7,28.9,31.4,31.3,31.5   L31.3,31.5z"
       id="path4185" /></g><g
     id="g4191"><path
       d="M31.3,27.7c-5.6,0.2-8.8,5.4-8.9,10.5c-0.1,2.4,3.7,2.4,3.8,0c0.1-3,1.7-6.7,5.2-6.8C33.7,31.4,33.8,27.7,31.3,27.7   L31.3,27.7z"
       id="path4189" /></g><g
     id="g4195"><path
       d="M46.3,31.5c3.7,0.1,6,3.3,6.1,6.8c0.1,2.4,3.8,2.4,3.8,0c-0.1-5.6-4.1-10.4-9.8-10.5C43.9,27.7,43.9,31.4,46.3,31.5   L46.3,31.5z"
       id="path4193" /></g><g
     id="g4199"><path
       d="M46.3,27.7c-5.6,0.2-8.8,5.4-8.9,10.5c-0.1,2.4,3.7,2.4,3.8,0c0.1-3,1.7-6.7,5.2-6.8C48.8,31.4,48.8,27.7,46.3,27.7   L46.3,27.7z"
       id="path4197" /></g><g
     id="g4203"><path
       d="M61.4,31.5c3.7,0.1,6,3.3,6.1,6.8c0.1,2.4,3.8,2.4,3.8,0c-0.1-5.6-4.1-10.4-9.8-10.5C58.9,27.7,58.9,31.4,61.4,31.5   L61.4,31.5z"
       id="path4201" /></g><g
     id="g4207"><path
       d="M61.4,27.7c-5.6,0.2-8.8,5.4-8.9,10.5c-0.1,2.4,3.7,2.4,3.8,0c0.1-3,1.7-6.7,5.2-6.8C63.8,31.4,63.8,27.7,61.4,27.7   L61.4,27.7z"
       id="path4205" /></g><g
     id="g4211"><path
       d="M67.4,38.3c0,4,0,8.1,0,12.1c0,2.4,3.8,2.4,3.8,0c0-4,0-8.1,0-12.1C71.2,35.9,67.4,35.9,67.4,38.3L67.4,38.3z"
       id="path4209" /></g><g
     id="g4215"><path
       d="M7.4,38.3c0,4,0,8.1,0,12.1c0,2.4,3.8,2.4,3.8,0c0-4,0-8.1,0-12.1C11.2,35.9,7.4,35.9,7.4,38.3L7.4,38.3z"
       id="path4213" /></g></svg>