<?xml version="1.0" encoding="UTF-8" standalone="no"?>
<svg
   xmlns:dc="http://purl.org/dc/elements/1.1/"
   xmlns:cc="http://creativecommons.org/ns#"
   xmlns:rdf="http://www.w3.org/1999/02/22-rdf-syntax-ns#"
   xmlns:svg="http://www.w3.org/2000/svg"
   xmlns="http://www.w3.org/2000/svg"
   xmlns:sodipodi="http://sodipodi.sourceforge.net/DTD/sodipodi-0.dtd"
   xmlns:inkscape="http://www.inkscape.org/namespaces/inkscape"
   version="1.1"
   x="0px"
   y="0px"
   viewBox="0 0 100 125"
   style="enable-background:new 0 0 100 100;"
   xml:space="preserve"
   id="svg2698"
   sodipodi:docname="noun_card payment_775351.svg"
   inkscape:version="0.92.3 (2405546, 2018-03-11)"><metadata
     id="metadata2704"><rdf:RDF><cc:Work
         rdf:about=""><dc:format>image/svg+xml</dc:format><dc:type
           rdf:resource="http://purl.org/dc/dcmitype/StillImage" /></cc:Work></rdf:RDF></metadata><defs
     id="defs2702" /><sodipodi:namedview
     pagecolor="#ffffff"
     bordercolor="#666666"
     borderopacity="1"
     objecttolerance="10"
     gridtolerance="10"
     guidetolerance="10"
     inkscape:pageopacity="0"
     inkscape:pageshadow="2"
     inkscape:window-width="640"
     inkscape:window-height="480"
     id="namedview2700"
     showgrid="false"
     inkscape:zoom="6.864"
     inkscape:cx="26.325758"
     inkscape:cy="62.5"
     inkscape:current-layer="svg2698" /><g
     id="g2692"><g
       id="g2678"><g
         id="g2676"><path
           d="M89.3,23.1H10.8c-3.2,0-5.8,2.6-5.8,5.8V72c0,3.2,2.6,5.8,5.8,5.8h78.5c3.2,0,5.8-2.6,5.8-5.8V28.9     C95.1,25.7,92.5,23.1,89.3,23.1z M93.1,72c0,2.1-1.7,3.8-3.8,3.8H10.8c-2.1,0-3.8-1.7-3.8-3.8V46.6h86V72z M93.1,36.4h-86v-7.5     c0-2.1,1.7-3.8,3.8-3.8h78.5c2.1,0,3.8,1.7,3.8,3.8V36.4z"
           id="path2674" /></g></g><g
       id="g2682"><path
         d="M19,68.8c0.4-0.4,0.4-0.9,0-1.3c-3.6-3.6-3.6-9.3,0-12.9c0.2-0.2,0.3-0.4,0.3-0.6c0-0.2-0.1-0.5-0.3-0.6    c-0.4-0.4-0.9-0.4-1.3,0c-4.3,4.3-4.3,11.2,0,15.5C18,69.1,18.6,69.1,19,68.8z"
         id="path2680" /></g><g
       id="g2686"><path
         d="M20.3,66.1c0.4,0.4,0.9,0.4,1.3,0c0.4-0.4,0.4-0.9,0-1.3c-2.1-2.1-2.1-5.5,0-7.6c0.2-0.2,0.3-0.4,0.3-0.6    c0-0.2-0.1-0.5-0.3-0.6c-0.4-0.4-0.9-0.4-1.3,0C17.5,58.8,17.5,63.3,20.3,66.1z"
         id="path2684" /></g><g
       id="g2690"><path
         d="M24.3,63.5c0.4-0.4,0.4-0.9,0-1.3c-0.6-0.6-0.6-1.6,0-2.3c0.2-0.2,0.3-0.4,0.3-0.6s-0.1-0.5-0.3-0.6    c-0.4-0.4-0.9-0.4-1.3,0c-1.3,1.3-1.3,3.5,0,4.8C23.4,63.8,23.9,63.8,24.3,63.5z"
         id="path2688" /></g></g></svg>