<svg
    xmlns="http://www.w3.org/2000/svg"
    viewBox="0 0 100 125"
    >
    <path d="M87.5 5h-75C8.4 5 5 8.4 5 12.5v75c0 4.1 3.4 7.5 7.5 7.5h75c4.1 0 7.5-3.4 7.5-7.5v-75C95 8.4 91.6 5 87.5 5zM90 55H80v5h10v2.5H80v5h10V70H80v5h10v12.5c0 1.4-1.1 2.5-2.5 2.5h-75c-1.4 0-2.5-1.1-2.5-2.5v-75c0-1.4 1.1-2.5 2.5-2.5h75c1.4 0 2.5 1.1 2.5 2.5V55z"/>
    <circle cx="17.5" cy="17.5" r="2.5"/>
    <circle cx="82.5" cy="17.5" r="2.5"/>
    <circle cx="82.5" cy="82.5" r="2.5"/>
    <circle cx="17.5" cy="82.5" r="2.5"/>
    <path d="M25 42.5h17.5c1.4 0 2.5-1.1 2.5-2.5V22.5c0-1.4-1.1-2.5-2.5-2.5H25c-1.4 0-2.5 1.1-2.5 2.5V40c0 1.4 1.1 2.5 2.5 2.5zM27.5 25H40v12.5H27.5V25zM12.5 55v20H50V47.5H12.5V55zm5-2.5H45V55H17.5v-2.5zm0 7.5H45v2.5H17.5V60zm0 7.5H45V70H17.5v-2.5zM62.5 15H55v37.5h20V15H62.5zm0 32.5H60V20h2.5v27.5zm7.5 0h-2.5V20H70v27.5zM61.3 55c-3.4 0-6.3 2.8-6.3 6.3s2.8 6.3 6.3 6.3 6.3-2.8 6.3-6.3-2.9-6.3-6.3-6.3zm0 7.5c-.7 0-1.3-.6-1.3-1.3s.6-1.3 1.3-1.3 1.3.6 1.3 1.3-.7 1.3-1.3 1.3zM61.3 70c-3.4 0-6.3 2.8-6.3 6.3s2.8 6.3 6.3 6.3 6.3-2.8 6.3-6.3-2.9-6.3-6.3-6.3zm0 7.5c-.7 0-1.3-.6-1.3-1.3s.6-1.3 1.3-1.3 1.3.6 1.3 1.3-.7 1.3-1.3 1.3z"/>
</svg>