<svg xmlns="http://www.w3.org/2000/svg" data-name="Layer 1" viewBox="0 0 100 125" x="0px" y="0px"><title>129all</title><path d="M54.76,92.5V7.5l-31,22.8H2.92V69.7h20.8Zm-6-11.85L27.71,65.18V34.82L48.76,19.35ZM21.71,63.7H8.92V36.3H21.71Z"/><path d="M67.34,15.92a3,3,0,1,0-.81,5.94,28.4,28.4,0,0,1,0,56.27,3,3,0,0,0,.4,6l.41,0a34.4,34.4,0,0,0,0-68.16Z"/><path d="M63.72,56.86a3,3,0,1,0,2.44,5.48,13.49,13.49,0,0,0,0-24.69,3,3,0,0,0-2.44,5.48,7.49,7.49,0,0,1,0,13.72Z"/><path d="M66.51,73.4a23.88,23.88,0,0,0,0-46.81,3,3,0,0,0-1.15,5.89,17.88,17.88,0,0,1,0,35,3,3,0,1,0,1.15,5.89Z"/><text x="0" y="115" fill="#000000" font-size="5px" font-weight="bold" font-family="'Helvetica Neue', Helvetica, Arial-Unicode, Arial, Sans-serif">Created by Kamal</text><text x="0" y="120" fill="#000000" font-size="5px" font-weight="bold" font-family="'Helvetica Neue', Helvetica, Arial-Unicode, Arial, Sans-serif">from the Noun Project</text></svg>