<svg
    xmlns="http://www.w3.org/2000/svg" 
    viewBox="-200 -200 400 400"
    >
  <path fill="none" stroke="#e00000" stroke-width="2" d="M15.142 40.57c42.591 13.486 50.297 2.274 62.985-10.555M-114.973 41.238c3.192 8.885 6.573 9.226 15.531 11.512M-127.368-10.627c-16.35 14.191-2.999 15.54 5.959 17.827"/>
  <path fill="none" stroke="#e020f3" stroke-width="2" d="M-127.367-10.626C-139.27-.93-134.62 2.57-131.654 8.037"/>
  <path fill="none" stroke="#e00000" stroke-width="2" d="M162.87-4.92c5.36-6.51 2.86-12.51 1.13-23.557"/>
  <path fill="none" stroke="#e000f6" stroke-width="2" d="M136.207-75.284c24.632.947 21.373 4.329 24.72 26.399"/>
  <path fill="none" stroke="#e00000" stroke-width="2" d="M148.661-53.445C163.83-67.93 160.02-74.67 136.207-75.284M-51.271-69.883c14.715-12.612 21.953-15.22 42.967-13.361M37.326 97.007c41.563 16.012 52.449-4.65 56.999-10.462"/>
</svg>