<svg
    xmlns="http://www.w3.org/2000/svg"
    viewBox="-8.088 -8.838 16.176 17.676"
    >
    <rect width=" 0.9" height="03.75" x="-0.45" y="+5.00" fill="#bdbcbc" stroke="#231f20" stroke-width="0.176"/>
    <rect width="16.0" height="02.00" x="-8.00" y="-1.00" fill="#bdbcbc" stroke="#231f20" stroke-width="0.176"/>
    <rect width=" 0.9" height="17.50" x="+2.05" y="-8.75" fill="#bdbcbc" stroke="#231f20" stroke-width="0.176"/>
    <rect width=" 0.9" height="17.50" x="-2.95" y="-8.75" fill="#bdbcbc" stroke="#231f20" stroke-width="0.176"/>
    
    <rect width="11.7" height="12.00" x="-5.85" y="-6.00" fill="#a7a5a6" stroke="#231f20" stroke-width="0.176" rx="0.972" ry="0.972"/>

    <circle r="4" fill="#918f90" stroke="#231f20" stroke-width="0.176"/>
    <circle r="3" fill="#7b7979" stroke="#231f20" stroke-width="0.176"/>

    <path fill="#bdbcbc" stroke="#231f20" stroke-width="0.176" d="M2.889-.8a3.08 3.08 0 0 0-.082-.251l-.49-.13.184-.474a2.863 2.863 0 0 0-.155-.212l-.508.029.03-.508a3.056 3.056 0 0 0-.213-.155l-.475.185-.129-.49A2.952 2.952 0 0 0 .8-2.89l-.393.321-.274-.425C.089-2.995.045-3 0-3c-.045 0-.089.005-.133.007l-.274.425-.393-.32c-.085.023-.169.05-.251.082l-.13.49-.474-.185c-.073.048-.144.1-.212.155l.028.508-.507-.029a2.869 2.869 0 0 0-.155.212l.184.475-.49.129c-.03.082-.058.166-.082.251l.32.393h5.137z"/>
    <path fill="#bdbcbc" stroke="#231f20" stroke-width="0.176" d="M-2.889.8c.024.085.051.169.082.251l.49.13-.184.474c.048.074.1.144.155.212l.508-.028-.03.507c.07.054.14.107.213.155l.474-.184.13.49c.082.03.166.058.251.082l.393-.32.274.425C-.09 2.995-.045 3 0 3c.045 0 .088-.005.133-.006l.274-.426.393.321c.085-.024.169-.051.251-.082l.13-.49.474.184c.073-.048.144-.1.212-.155l-.029-.507.508.028c.054-.068.107-.138.155-.212l-.184-.475.49-.129c.03-.082.058-.166.082-.251l-.32-.393h-5.137z"/>
</svg>