<svg
    xmlns="http://www.w3.org/2000/svg"
    viewBox="-2.679 -6.485 5.358 12.970"
    >

    <path
        fill="#ffffff"
        stroke="#303030"
        stroke-linecap="round" 
        stroke-linejoin="round" 
        stroke-width=".035" 
        d="
            m 2.66, 5.097
            c -0.001, -3.482, +0.005, -6.964, -0.002, -10.446
            c +0.030, -0.587, -0.458, -1.130, -1.052, -01.118
            c -1.147, +0.000, -2.190, +0.006, -3.280, +00.006
            c -0.596, +0.022, -1.030, +0.596, -0.984, +01.173
            c +0.000, +3.543, -0.004, +7.086, +0.002, +010.63
            c -0.030, +0.586, +0.458, +1.124, +1.052, +01.117
            c +1.070, +0.011, +2.140, +0.011, +3.210, +00.000
            c +0.594, +0.007, +1.082, -0.530, +1.052, -01.118
            c +0.003, -0.081, +0.003, -0.163, +0.003, -00.244
            z
          "
    />

    <path fill="#2aa9e0" d="m +1.29, -6.2 h -2.582 c -0.79, 0, -1.099, 0.308, -1.099, 1.099 v 1.14 h4.78 v -1.139 c 0, -0.791, -0.308, -1.099, -1.099, -1.099"/>

    <path fill="#2aa9e0" d="m -2.39, -1.12 v +6.22 c +0, 0.79, +0.308, 1.099, +1.099, 1.099 h 1.14 v-7.32z"/>

    <path fill="#a6ce39" d="m +0.15, -1.12 v +7.32 h 1.14 c 0.792, 0, 1.1 , -0.308, 1.1 , -1.099 v -6.221 z"/>

    <path fill="#a6ce39" d="m -2.39, -1.42 h +4.780 v -2.24 h -4.78z"/>
</svg>