<svg
    xmlns="http://www.w3.org/2000/svg"
    viewBox="-2.6815 -5.2215 5.363 10.443"
    >
    <path 
        fill="#ffffff" 
        stroke="#303030" 
        stroke-linecap="round" 
        stroke-linejoin="round" 
        stroke-width="0.035" 
        d="
            m -1.29, 5.198
            c -0.495, +0.042, -1.076, -0.127, -1.269, -0.633
            c -0.168, -0.477, -0.077, -0.991, -0.100, -1.487
            c +0.004, -2.409, -0.008, -4.817, +0.006, -7.225
            a +1.062, +1.062,  0, 0,   1    , +1.049, -1.049
            c +1.070, -0.010, +2.14,  -0.010, +3.210, +0.000
            a +1.062, +1.062,  0,  0,  1    , +1.048, +1.049
            c +0.015, +2.340, +0.002, +4.681, +0.006, +7.022
            c -0.015, +0.516, +0.041, +1.038, -0.050, +1.547
            c -0.120, +0.532, -0.684, +0.816, -1.196, +0.775
            h -2.704
            z
          "
    />

    <path fill="#ed1c24" d="m -2.386-.154h4.78v-2.24h-4.78z"/>

    <path fill="#ed1c24" d="m 0.154, 0.146 v 4.78 h 1.141 c 0.791, 0, 1.1, -0.308, 1.1, -1.099 v -3.681z"/>

    <path fill="#a6ce39" d="m 1.295, -4.934h -2.582 c -0.791, 0, -1.1, 0.308, -1.1, 1.099 v 1.141 h 4.781 v -1.141 c 0, -0.79, -0.308, -1.099, -1.099, -1.099"/>

    <path fill="#a6ce39" d="m -2.386, 0.146 v 3.681 c 0,0.791, 0.308, 1.1, 1.099, 1.1 h 1.14 v -4.782 z"/>
</svg>