<svg
    xmlns="http://www.w3.org/2000/svg" 
    viewBox="-20.91 -12.25 41.820 24.5"
    >
 
    <rect width="41.82" height="8.80" x="-20.91" y="-3.844" fill="#231f20" rx="2.016" ry="2.016"/>
    <rect width="13.60" height="4.26" x="-06.80" y="+7.989" fill="#4899c4" rx="0.800" ry="0.800"/>
    <rect width="22.40" height="5.60" x="-11.20" y="-2.244" fill="#4f4c4d" rx="0.500" ry="0.500"/>

    <circle cx="-16.51" cy=".557" r="1" fill="#444141"/>

    <path fill="#231f20" d="m -8.393,-8.777h-0.634v-2.149l-0.53,2.149h-0.884l-0.53,-2.149v2.149h-0.633v-3.472h0.893l0.725,2.802l0.724,-2.802h0.87z"/>
    <path fill="#231f20" d="m -5.665,-8.777h-2.173v-3.472h2.168v0.624h-1.544v0.694h1.54v0.625h-1.54v0.904h1.549z"/>
    <path fill="#231f20" d="m -2.798 -12.247 v 0.624 h -1.709 v 0.688 h 1.229 a 0.624,0.624, 0, 0, 1, 0.624, 0.624 v 0.915 a 0.624,0.624, 0, 0, 1, -0.624, 0.624 h -1.806 v -0.624 h 1.808 v -0.919 h -1.229 a 0.624, 0.624, 0, 0, 1, -0.624, -0.624 v -0.685 a 0.624, 0.624, 0, 0, 1, 0.624, -0.623 z"/>
    <path fill="#231f20" d="m 0.27,-8.777h-0.625v-1.544h-1.304v1.544h-0.634v-3.472h0.634v1.303h1.304v-1.303h0.625z"/>
    <path fill="#231f20" d="m 2.997,-8.777h-2.173v-3.472h2.168v0.624h-1.542v0.694h1.539v0.625h-1.54v0.904h1.55z"/>
    <path fill="#231f20" d="m 5.93,-12.25l-1.06,3.474h-0.619l-1.029,-3.474h0.68l0.674,2.512l0.714,-2.512z"/>
    <path fill="#231f20" d="m 8.432,-8.777h-2.172v-3.472h2.168v0.624h-1.544v0.694h1.539v0.625h-1.54v0.904h1.55z"/>
    <path fill="#231f20" d="m 11.604,-8.777h-0.48l-1.613,-2.328v2.328h-0.634v-3.472h0.624l1.479,2.208v-2.208h0.624z"/>

    <path fill="#fff" d="m -0.548, 11.32, h -0.521, l -0.542 -0.916 -0.535 0.915 h -0.501 l 0.784 -1.243 l -0.76 -1.156 h 0.515 l 0.521 0.81 l 0.514 -0.81 h 0.501 l -0.763 1.135z"/>
    <path fill="#fff" d="m +3.125, 08.919 a 0.422, 0.422, 0, 0, 1, 0.422, 0.422 v 1.555 a 0.422, 0.422, 0, 0, 1, -0.422, +0.422 h -1 a 0.422, 0.422, 0, 0, 1, -0.422, -0.422 v -1.555 a 0.422, 0.422, 0, 0, 1, 0.422, -0.422 m 0.99, 0.43 h -0.977 v 1.537 h 0.977 v -1.537 z"/>
    <path fill="#fff" d="m +0.965, 08.919 a 0.422, 0.422, 0, 0, 1, 0.422, 0.422 v 1.555 a 0.422, 0.422, 0, 0, 1, -0.422, +0.422 h -1 a 0.422, 0.422, 0, 0, 1, -0.422, -0.422 v -1.555 a 0.422, 0.422, 0, 0, 1, 0.422, -0.422 m 0.99, 0.43 h -0.977 v 1.537 h 0.977 v -1.537 z"/>
    <path fill="#fff" d="m -2.879, 11.32 h -0.438, v -1.486 l -0.366, 1.484 h -0.611 l-0.366, -1.484 v 1.484 h-0.44 v -2.4 h 0.618 l 0.501, 1.938 l 0.5, -1.937 h 0.601z"/>
    <path fill="#fff" d="m +5.098, 11.32 h -1.298, v -0.432h0.438v-1.538h-0.438v-0.43h0.87v1.968h0.428z"/>
</svg>