<svg
    xmlns="http://www.w3.org/2000/svg"
    viewBox="-0.71 -1.651 1.42 3.302"
    >

    <path 
        fill="#51abe4" 
        d="
            m +0.003, +1.504
            a +0.563, +0.563, +0.000,  0, 1,  -0.563, -0.564
            c +0.000, -0.137, +0.032, -0.383, +0.252, -0.498
            l +0.038, -0.020
            v -1.759
            c +0.000, -0.086, +0.122, -0.167, +0.217, -0.167
            h +0.112
            c +0.095, +0.000, +0.216, +0.080, +0.216, +0.167
            v +1.759
            l +0.040, +0.020
            c +0.219, +0.116, +0.251, +0.362, +0.251, +0.499
            c +0.000, +0.310, -0.252, +0.563, -0.563, +0.563
            m +0.420, -1.169
            v -1.672
            c +0.000, -0.177, -0.196, -0.314, -0.364, -0.314
            h -0.112
            c -0.168, +0.000, -0.363, +0.137, -0.363, +0.314
            v +1.672
            c -0.188, +0.119, -0.291, +0.332, -0.291, +0.606
            a +0.710, +0.710, +0.000,  0, 0,  +1.420, +0.000
            c +0.000, -0.274, -0.102, -0.487, -0.290, -0.606
          "
    />

    <circle cy="0.941" r="0.382" fill="#51abe4"/>

    <line x1="+0.000" x2="0.000" y1="-0.801" y2="+0.787" stroke="#51abe4" stroke-linecap="round" stroke-width=".216"/>
    <line x1="+0.341" x2="0.614" y1="-0.965" y2="-0.965" stroke="#51abe4" stroke-linecap="round" stroke-width=".1"/>
    <line x1="+0.341" x2="0.614" y1="-0.667" y2="-0.667" stroke="#51abe4" stroke-linecap="round" stroke-width=".1"/>
    <line x1="+0.341" x2="0.614" y1="-0.369" y2="-0.369" stroke="#51abe4" stroke-linecap="round" stroke-width=".1"/>
    <line x1="+0.341" x2="0.614" y1="-0.071" y2="-0.071" stroke="#51abe4" stroke-linecap="round" stroke-width=".1"/>
</svg>