<svg
    xmlns="http://www.w3.org/2000/svg"
    viewBox="-0.9675 -0.985 1.935 1.970"
    >
    <path 
        fill="#4899c4"
        d="
            m -0.944, 0.817
            a 0.123, 0.123, 0, 0, 1, 0.027, -0.172
            l 1.688, -1.237
            a 0.123, 0.123, 0, 0, 1, 0.146, 0.199
            l -1.689, 1.235
            a 0.124, 0.124, 0, 0, 1, -0.172, -0.025"
        />
    <path
        fill="#4899c4" 
        d="
            m 0.537, -0.985
            a0.146, 0.146, 0, 0, 0, -0.077 , 0.028
            l -0.651, 0.47
            h -0.529
            a 0.147, 0.147, 0, 0, 0, -0.146, 0.146
            v 0.682
            c 0, 0.057, 0.034, 0.105, 0.082, 0.13 
            l 1.476, -1.083 v-0.228 
            c 0, -0.09, -0.076, -0.15, -0.155, -0.146
            z
        "/>
    <path
        fill="#4899c4" 
        d="
            m 0.692, -0.153
            l -0.878, 0.644
            l 0.646, 0.466
            c 0.097, 0.07, 0.232, 0, 0.232, -0.12
            v -0.495
            z
        "/>
</svg>