    <svg
    xmlns="http://www.w3.org/2000/svg"
    viewBox="-1.8345 -1.197 3.669 2.394"
    >

    <path
        fill="#51abe4"
        d="
            m +1.725, -0.084
            l -0.432, -0.020
            l -0.147, -0.377
            c -0.025, -0.063, -0.506, -0.619, -0.55, -0.672
            a +0.125, +0.125, 0, 0, 0, -0.100, -0.044
            l -0.595, +0.019
            a +0.114, +0.114, 0, 0, 0, 0, 0.229
            l +0.525, +0.018
            l +0.142, +0.192
            l -0.630, +0.588
            a +0.225, +0.225, 0, 0, 0, -0.068, 0.153
            c -0.002, +0.086, 0.053, 0.193, 0.148, 0.318
            c +0.114, +0.150, 0.272, 0.302, 0.330, 0.368
            l -0.578, +0.167
            a +0.153, +0.153, 0, 0, 0, 0.073, 0.296
            l +0.879, -0.183
            a +0.182, +0.182, 0, 0, 0, 0.11, -0.286
            c -0.040, -0.052, -0.341, -0.459, -0.392, -0.529
            l +0.484, -0.358
            l +0.150, +0.303
            a +0.129, +0.129, 0, 0, 0, 0.122, 0.07
            l +0.528, -0.023
            a +0.114, +0.114, 0, 0, 0, 0, -0.229
          "
    />

    <path 
        fill="#51abe4" 
        d="
            m -0.292, +0.065
            c -0.057, +0.053, -0.976, 0.813, -1.035, 0.862
            a +0.153, +0.153, 0, 0, 0, 0.19, 0.24
            l +0.987, -0.745
            c -0.069, -0.089, -0.146, -0.214, -0.142, -0.357
          "
    />

    <circle cx="1.463" cy="-0.795" r="0.2975" fill="#51abe4"/>

    <path fill="#51abe4" d="m -0.090, -0.675 l -0.966, 0.068 v 0.14 l 0.966, 0.068z"/>
    <path fill="#51abe4" d="m -0.547, -0.255 l -0.966, 0.068 v 0.14 l 0.966, 0.068z"/>
    <path fill="#51abe4" d="m -0.869, +0.165 l -0.966, 0.068 v 0.14 l 0.966, 0.068z"/>

</svg>