<svg
    xmlns="http://www.w3.org/2000/svg"
    viewBox="-1.311 -1.651 2.622 3.302"
    >

    <path
        fill="#51abe4" 
        d="
            m 0.537, 0.29
            h 0.241
            c 0.016, 0, 0.033, 0, 0.05, 0.002
            c 0.192, 0.023, 0.337, 0.17, 0.337, 0.345
            a 0.32, 0.32, 0, 0,1, -0.021, 0.115
            l -0.001, 0.003
            a 0.057, 0.057, 0, 0, 0, -0.035, 0.036
            l -0.031, 0.1
            c -0.01, 0.03, 0.007, 0.062, 0.037, 0.071
            l 0.068, 0.021
            c 0.03, 0.01, 0.062, -0.007, 0.071 ,-0.037
            l 0.031, -0.1
            a 0.057, 0.057, 0, 0, 0, -0.006, -0.048
            c 0.008, -0.012, 0.031, -0.061, 0.031, -0.16
            c 0, -0.246, -0.2, -0.45, -0.468, -0.479
            a 0.018, 0.018, 0, 0, 0, -0.01, -0.003
            h -0.297
            v 0.133
            z
            m 0.627, 0.524
            a 0.017, 0.017, 0, 0, 0, 0.005, 0.003
            l 0.054, 0.015
            l 0.005, 0.001
            a 0.023, 0.023, 0, 0, 1, 0.004, 0.02
            l -0.019, 0.058
            a 0.02, 0.02, 0, 0, 1, -0.026, 0.013
            l -0.04, -0.012
            a 0.022, 0.022, 0, 0, 1, -0.014, -0.027
            l 0.018, -0.057
            a 0.022, 0.022, 0, 0, 1, 0.013, -0.014
            z
          "
    />

    <path
        fill="#51abe4" 
        d="
            m -0.738, -1.651
            c -0.098, 0, -0.177, 0.074, -0.177, 0.165
            v 0.093
            c 0,0.09, 0.079, 0.164, 0.176, 0.165
            h 1.353
            c 0.098, 0, 0.177, -0.074, 0.177, -0.165
            v -0.093
            c 0, -0.09, -0.08, -0.165, -0.178, -0.165
            z
            m 0, 0.139 
            h 1.351
            c 0.022, 0, 0.039, 0.014, 0.039, 0.026
            v 0.093
            c 0, 0.012, -0.017, 0.026, -0.039, 0.026
            h -1.351
            c -0.022, 0, -0.038, -0.014, -0.038, -0.026
            v -0.093
            c 0,-0.012, 0.016, -0.026, 0.038, -0.026
            z
          "
    />

    <path
        fill="#51abe4" 
        d="
            m -0.662, 0.097
            v 0.058
            h -0.17
            a +0.018, +0.018, +0, 0, 0, -0.012, 0.005
            c -0.268, +0.029, -0.468, 0.232, -0.468, 0.478
            c +0.000, +0.244, +0.199, 0.448, 0.464, 0.478
            v -0.136
            c -0.183, -0.029, -0.320, -0.174, -0.32, -0.343
            c +0.000, -0.174, +0.145, -0.322, 0.336, -0.345
            a +0.406, +0.406,  0, 0, 1, 0.052, -0.002
            h 0.119
            v 0.584
            l 0.003, -0.776
            z
          "
    />

    <path 
        fill="#51abe4" 
        d="
            m -0.969, 1.27
            a 0.07, 0.07, 0, 0, 0, -0.057, 0.036
            l -0.124, 0.244
            a 0.071, 0.07, 0, 0, 0, 0.00, 0.068
            a 0.070, 0.07, 0, 0, 0, 0.06, 0.033
            h 2.05
            a 0.07, 0.07, 0, 0, 0, 0.06, -0.033
            a 0.07, 0.07, 0, 0, 0, 0.00, -0.068
            l -0.124, -0.244
            a 0.068, 0.068, 0, 0, 0, -0.056, -0.037
            z
            m 0.048, 0.137
            h 1.716
            l 0.054, 0.105
            h -1.824
            z
          "
      />

    <rect width="1.059" height="1.732" x="-.592" y="-0.399" fill="none" stroke="#51abe4" stroke-width="0.14" rx=".186" ry="0.165"/>

    <rect width="0.388" height="0.178" x="-0.850" y="+0.963" fill="#51abe4" />
    <rect width="0.427" height="1.171" x="-0.278" y="-1.527" fill="#51abe4"/>
</svg>