<svg
    xmlns="http://www.w3.org/2000/svg"
    viewBox="-0.891 -1.2 1.782 2.400"
    >
    <path
        fill="#4899c4" 
        d="
            m -0.806, 0.806
            a 0.12, 0.12, 0, 0, 1, 0, -0.17l1.442, -1.441
            a 0.12, 0.12 , 0, 1, 1, 0.17, 0.17
            l -1.442, 1.441
            a 0.12, 0.12, 0, 0, 1, -0.17 ,0
        "/>
    <path
        fill="#4899c4" 
        d="
            m 0, -1.2
            c -0.255, 0, -0.36, 0.106, -0.36, 0.362 
            v 0.634
            c 0, 0.066, 0.007, 0.122, 0.022, 0.169
            l0.7,-0.7v-0.104c-0.001,-0.256,-0.107,-0.361,-0.362,-0.361z"
        />
    <path
        fill="#4899c4" 
        d="
             m -0.792, -0.6
             c -0.07, 0, -0.1, 0.03, -0.1, 0.1
             v 0.296 
             c 0.001, 0.201, 0.072, 0.386, 0.187, 0.536 
             l 0.139, -0.139
             a 0.69, 0.69, 0, 0, 1, -0.127, -0.397
             v -0.297
             c 0, -0.07, -0.029, -0.099, -0.099, -0.099
             z
             m 1.682, 0.084
             l -0.197, 0.196
             v0.116
             a 0.693, 0.693, 0, 0, 1, -0.798, 0.683
             l -0.163, 0.161
             c 0.055, 0.018, 0.111, 0.03, 0.17, 0.036
             v 0.325
             h -0.199
             c -0.07, 0, -0.099, 0.029, -0.1, 0.099
             c 0, 0.07, 0.03, 0.099, 0.1, 0.099
             h0.595
             c 0.07, 0, 0.098, -0.03, 0.098, -0.099
             c 0, -0.07, -0.029, -0.099, -0.098, -0.099
             h -0.198
             v -0.324
             c 0.45, -0.05, 0.79 ,-0.429, 0.791, -0.881
             v-0.297
             l -0.001, -0.015
             z
         "/>
</svg>