<svg
    xmlns="http://www.w3.org/2000/svg"
    viewBox="-3.968 -2.068 7.936 4.136"
    >
    <rect
        width ="7.936"
        height="4.136"
        x     ="-3.968" 
        y     ="-2.068" 
        fill  ="#231f20" 
        rx    ="0.82"
        ry    ="0.82" 
    />

    <path
        fill="#9c9a9a"
        stroke="#242021" 
        stroke-width="0.035"
        d="
            m 3.15, -1.95
            c 0.386, 0, 0.7, 0.314, 0.7, 0.7
            v 0.798
            a 0.69, 0.69, 0, 0, 1, -0.217, 0.507
            l -0.213, 0.212
            a 0.323, 0.323, 0, 0, 0, -0.088, 0.194
            v 0.788
            a 0.701, 0.701, 0, 0, 1, -0.7, 0.701
            h -5.266
            a 0.701, 0.701, 0, 0, 1, -0.7, -0.7
            v -0.77
            a 0.32, 0.32, 0, 0, 0, -0.076, -0.202
            l -0.236, -0.235
            a 0.688, 0.688, 0, 0, 1, -0.205, -0.512
            v -0.782
            a 0.7, 0.7, 0, 0, 1, 0.7 , -0.7
            z
          "
    />
    <path
    fill="#353132" 
    stroke="#242021" 
    stroke-width="0.035" 
    d="
        m -3.433, -0.169
        l 0.224, 0.224
        a 0.602, 0.602, 0, 0, 1, 0.176, 0.424
        v 0.77
        c 0, 0.221, 0.179, 0.4, 0.4, 0.4 
        h 5.266
        a 0.4, 0.4, 0, 0, 0, 0.4, -0.4
        v -0.769
        a 0.599, 0.599, 0, 0, 1, 0.177, -0.425
        l 0.224, -0.224
        a 0.407, 0.407, 0, 0, 0, 0.118, -0.283
        v -0.797 
        a 0.402, 0.402, 0, 0, 0, -0.401, -0.402
        h -6.3
        a 0.4, 0.4, 0, 0, 0, -0.4, 0.402
        v 0.797
        a 0.404, 0.404, 0, 0, 0, 0.117, 0.283
        z
      "
        />
    <path
        fill="#252928"
        stroke="#242021"
        stroke-width="0.035" 
        d="
            m -2.35, -0.8
            h 4.7
            v 0.8
            l -0.8, 0.8
            h -3.1
            l -0.8,-0.8
            z
          "
    />

    <rect width="0.4" height="0.6" y="-0.50" x="-0.949" fill="#cba855" stroke="#242021" stroke-width="0.035"/>
    <rect width="0.4" height="0.6" y="-0.50" x="-0.200" fill="#cba855" stroke="#242021" stroke-width="0.035"/>
    <rect width="0.4" height="0.6" y="-0.50" x="+0.550" fill="#cba855" stroke="#242021" stroke-width="0.035"/>
    <rect width="0.4" height="0.6" y="-0.50" x="+1.299" fill="#cba855" stroke="#242021" stroke-width="0.035"/>
    <rect width="0.4" height="0.6" y="-0.50" x="-1.699" fill="#cba855" stroke="#242021" stroke-width="0.035" />
</svg>