<svg 
    xmlns="http://www.w3.org/2000/svg"
     viewBox="-7.691 -3.839 15.4 30.613"
    >

    <path
        fill        ="none" 
        stroke      ="#303030" 
        stroke-width="0.127" 
        d           ="
            m -7.057 -3.773
            h 14.04
            a 0.603 0.603 0 0 1 0.603 0.603
            v 8.731
            a 2.002 2.002 0 0 1 -0.64 1.468
            l -1.274 1.274
            a 2.002 2.002 0 0 0 -0.62 1.44
            v 14.451
            a 2.507 2.507 0 0 1 -2.507 2.507
            h -5.16
            a 2.507 2.507 0 0 1 -2.507 -2.507
            v -14.451
            a 2.002 2.002 0 0 0 -0.64 -1.468
            l -1.274 -1.274
            a 2.002 2.002 0 0 1 -0.62 -1.44
            v -8.731
            a 0.603 0.603 0 0 1 0.603 -0.603
            z
        "
    />
    
    <line x1="-100" x2="100" y1="0" y2="0" stroke="#ff00ff" stroke-width="0.03"/>
    <line x1="0" x2="0" y1="-100" y2="100" stroke="#ff00ff" stroke-width="0.03"/>
</svg>