<svg
    xmlns="http://www.w3.org/2000/svg"
    viewBox="-3.9475 -6.488 7.895 12.976"
    >
    <path
        fill="#ffffff" 
        stroke="#303030" 
        stroke-width="0.035" 
        d="
            m -2.371, -6.469
            c -0.712, +0.008, -0.960, +0.048, -1.240, +00.315 
            c -0.227, +0.248, -0.303, +0.466, -0.303, +01.055
            c +0.006, +3.365, -0.039, +7.154, -0.000, +10.202
            c +0.000, +0.590, +0.076, +0.807, +0.304, +01.055
            c +0.279, +0.266, +0.527, +0.307, +1.239, +00.315
            c +1.467, +0.002, +3.340, -0.005, +4.740, +00.000
            c +0.712, -0.008, +0.960, -0.048, +1.240, -00.314
            c +0.227, -0.248, +0.304, -0.466, +0.304, -01.056
            c -0.022, -3.750, +0.048, -6.822, +0.000, -10.202
            c +0.000, -0.590, -0.077, -0.807, -0.304, -01.055
            c -0.280, -0.267, -0.528, -0.307, -1.240, -00.315
            c -1.590, -0.005, -3.250, +0.005, -4.740, +00.000
            z
          "
    />

    <path fill="#2aa9e0" d="m +2.561, -6.2 h -5.121 c -0.791, 0, -1.1, 0.308, -1.1, 1.099 v 1.141 h7.32 v -1.14 c 0, -0.791, -0.307, -1.099, -1.098, -1.099"/>

    <path fill="#2aa9e0" d="m -3.66, +1.42 v +3.68 c 0, 0.791, 0.308, 1.1, 1.099, 1.1 h 1.141 v -4.78 z"/>

    <path fill="#ed1c24" d="m 1.42, 1.42 v 4.78 h 1.14 c 0.791, 0, 1.099, -0.308, 1.099, -1.099 v -3.681 z"/>

    <rect width="7.32" height="2.24" x="-3.66" y="-3.66" fill="#a6ce39"/>
    <rect width="7.32" height="2.24" x="-3.66" y="-1.12" fill="#ed1c24"/>
    <rect width="2.24" height="4.78" x="-1.12" y="+1.42" fill="#a6ce39"/>
</svg>