<svg
    xmlns="http://www.w3.org/2000/svg"
    viewBox="-1.409 -5.218 2.818 10.436"
    >
    <path
        fill="#ffffff"
        stroke="#303030" 
        stroke-width=".035" 
        d="
            m 0.336, -5.2
            h -0.74
            c -0.596, +0.022, -1.030, +0.603, -0.984, +1.180
            c +0.006, +6.171, -0.009, +2.173, +0.000, +8.094
            c -0.030, +0.587, +0.460, +1.125, +1.054, +1.118
            h +0.670
            c +0.594, +0.007, +1.083, -0.531, +1.052, -1.118
            c -0.001, -7.060, +0.008, -3.750, +0.000, -8.156
            c +0.030, -0.587, -0.458, -1.130, -1.052, -1.118
            z
          "
    />

    <path
        fill="#a6ce39" 
        d="
            m -0.017, -4.932
            c -0.367, -0.007, -0.814, 0.075, -0.983, 0.447
            c -0.170, +0.383, -0.101, 0.810, -0.116, 1.217
            v +0.575
            h +2.24
            c -0.001, -1.786, +0.003, +0.537, -0.002, -1.249 
            c -0.003, -0.352, -0.128, -0.763, -0.491, -0.895
            c -0.205, -0.083, -0.430, -0.096, -0.648, -0.095
            z
          "
    />

    <path
        fill="#a6ce39" 
        d="
            m -0.018, 4.93 
            c -0.367, +0.005, -0.815, -0.076, -0.983, -0.448
            c -0.170, -0.383, -0.101, -0.810, -0.116, -1.217
            v -0.575
            h +2.24
            c -0.002, +1.786, +0.002, -0.538, -0.002, +1.248
            c -0.003, +0.353, -0.128, +0.764, -0.492, +0.896
            c -0.204, +0.083, -0.429, +0.096, -0.647, +0.095
            z
          "
    />
</svg>
