<svg
    xmlns="http://www.w3.org/2000/svg"
    viewBox="-2.679 -10.298 5.358 20.596"
    >

    <path
        fill="#ffffff" 
        stroke="#303030" 
        stroke-width="0.035" 
        d="
            m 1.607, -10.28
            c -1.146, +0.000, -2.189, +00.006, -3.279, +00.006
            c -0.597, +0.022, -1.030, +00.597, -0.985, +01.173
            c +0.006, +6.172, -0.007, +12.334, +0.002, +18.255
            c -0.030, +0.587, +0.458, +01.125, +1.052, +01.118
            c +1.070, +0.011, +2.140, +00.011, +3.210, +00.000
            c +0.594, +0.007, +1.083, -00.531, +1.053, -01.118
            c +0.003, -0.081, +0.002, -00.163, +0.002, -00.245
            c -0.006, -6.098, +0.007, -12.480, -0.002, -18.070
            c +0.030, -0.588, -0.459, -01.130, -1.053, -01.12z
          "
    />

    <path fill="#a154a1" d="m -2.39, -5.23 h 4.78 v -2.24 h -4.78z"/>

    <path fill="#bb87bc" d="m 1.291, -10.01 h -2.581 c -0.791, 0, -1.1, 0.308, -1.1, 1.099 v1.141 h4.78 v-1.14 c 0, -0.791, -0.307, -1.099, -1.098, -1.099"/>

    <path fill="#bb87bc" d="m -2.39, -4.93 v 13.84 c 0, 0.792, 0.308, 1.1, 1.099, 1.1 h 1.141 v -14.94 z"/>

    <path fill="#a154a1" d="m 0.15, -4.93 v 14.94 h1.14 c 0.791, 0, 1.099, -0.308, 1.099, -1.1 v -13.84 z"/>
</svg>