<svg
    xmlns="http://www.w3.org/2000/svg"
    viewBox="-4.95 -2.8 9.9 5.6"
    >

<!--
    viewBox="-3.69 -1.32 0.1 0.1"
    viewBox="-4 -.1 1 1"
    width="9.9mm"
    height="5.6mm"
    viewBox="-4 0.6 1 1"
 -->
    <defs>
        <linearGradient
            id="GradientLB310PinExtrusion"
            x2="0%" y2="100%"
            >
            <stop offset="0.000" stop-color="#2e2a2e"/>
            <stop offset="0.150" stop-color="#303030"/>
            <stop offset="0.300" stop-color="#373737"/>
            <stop offset="0.500" stop-color="#414141"/>
            <stop offset="0.700" stop-color="#373737"/>
            <stop offset="0.850" stop-color="#303030"/>
            <stop offset="1.000" stop-color="#2e2a2e"/>
        </linearGradient>
        
        <linearGradient
            id="GradientSolderedPinDarkLight"
            spreadMethod="pad"
            x2="0%" y2="100%"
            >
            <stop offset="0.000" stop-color="#d0d0d0"/>
            <stop offset="0.350" stop-color="#e5e5e5"/>
            <stop offset="0.650" stop-color="#e5e5e5"/>
            <stop offset="1.000" stop-color="#d0d0d0"/>
        </linearGradient>
        
        <linearGradient
            id="GradientSolderedPinDarkLight"
            spreadMethod="pad"
            x2="0%" y2="100%"
            >
            <stop offset="0.000" stop-color="#d0d0d0"/>
            <stop offset="1.000" stop-color="#f0f0f0"/>
        </linearGradient>
        

        <svg id = "PAD-LB335-SMD"
            overflow="visible"
            >
            <rect width="0.35" height="1.8" x="0.00" y="0.0" fill="url(#GradientSolderedPinDarkLight)"/>
            <rect width="0.25" height="1.4" x="0.05" y="0.2" fill="#ebb300"/>
        </svg>

        <svg id = "PIN-LB310-MALE"
            overflow="visible"
            >
            <rect width="0.25" height="0.168" x="0" y="0" fill="#ebb300"/>
            <rect width="0.25" height="0.168" x="0" y="0.703" fill="#ebb300"/>
        </svg>
    </defs>

    <use x="+3.414" y="1.00" href="#PAD-LB335-SMD"/>
    <use x="-3.786" y="1.00" href="#PAD-LB335-SMD"/>
    <use x="+2.614" y="1.00" href="#PAD-LB335-SMD"/>
    <use x="+1.814" y="1.00" href="#PAD-LB335-SMD"/>
    <use x="+1.014" y="1.00" href="#PAD-LB335-SMD"/>
    <use x="+0.214" y="1.00" href="#PAD-LB335-SMD"/>
    <use x="-0.586" y="1.00" href="#PAD-LB335-SMD"/>
    <use x="-1.386" y="1.00" href="#PAD-LB335-SMD"/>
    <use x="-2.186" y="1.00" href="#PAD-LB335-SMD"/>
    <use x="-2.986" y="1.00" href="#PAD-LB335-SMD"/>
    <use x="+3.414" y="-2.8" href="#PAD-LB335-SMD"/>
    <use x="-3.786" y="-2.8" href="#PAD-LB335-SMD"/>
    <use x="+2.614" y="-2.8" href="#PAD-LB335-SMD"/>
    <use x="+1.814" y="-2.8" href="#PAD-LB335-SMD"/>
    <use x="+1.014" y="-2.8" href="#PAD-LB335-SMD"/>
    <use x="+0.214" y="-2.8" href="#PAD-LB335-SMD"/>
    <use x="-0.586" y="-2.8" href="#PAD-LB335-SMD"/>
    <use x="-1.386" y="-2.8" href="#PAD-LB335-SMD"/>
    <use x="-2.186" y="-2.8" href="#PAD-LB335-SMD"/>
    <use x="-2.986" y="-2.8" href="#PAD-LB335-SMD"/>
    <use x="-3.95" y="-0.04" href="#PAD-LB335-SMD"/>

    <rect width="9.9" height="4" x="-4.95" y="-1.993" fill="#4c4949"/>

    <rect width="8.235" height="0.535" x="-4.117" y="-1.267" fill="url(#GradientLB310PinExtrusion)"/>
    <rect width="8.235" height="0.535" x="-4.117" y="+0.733" fill="url(#GradientLB310PinExtrusion)"/>
    
<!--
    <rect width="0.25" height="4" x="-4.95" y="-1.993" fill="lightpink"/>

    <rect width="0.25" height="4" x="4.701" y="-1.993" fill="lightgreen"/>
     <rect width="0.35" height="1.464" x="-3.56" y="-0.732" fill="#0000ff"/>
-->

    <path fill="#414141" d="m -4.116, -0.732 l +0.05, -0.05 h +8.133 l+0.05, +0.05 z"/>
    <path fill="#414141" d="m -4.116, -1.267 l +0.05, +0.05 h +8.133 l+0.05, -0.05 z"/>
    <path fill="#414141" d="m -4.117, -0.733 l +0.05, -0.05 v -0.433 l-0.05, -0.05 z"/>
    <path fill="#414141" d="m +4.118, -0.733 l -0.05, -0.05 v -0.433 l+0.05, -0.05 z"/>


    <path fill="#414141" d="m -4.116, 1.268 l +0.05, -0.05 h +8.133 l +0.05, +0.05 z"/>
    <path fill="#414141" d="m +4.118, 1.267 l -0.05, -0.05 v -0.433 l +0.05, -0.05 z"/>
    <path fill="#414141" d="m -4.116, 0.733 l +0.05, +0.05 h +8.133 l +0.05, -0.05 z"/>
    <path fill="#414141" d="m -4.117, 1.267 l +0.05, -0.05 v -0.433 l -0.05, -0.05 z"/>

    <rect width="0.45" height="1.0" x="-4.7" y="-0.5" fill="#303030"/>

    <rect width="0.45" height="1.0" x="4.25" y="-0.5" fill="#303030"/>

    <use x="-3.736" y="-1.435" href="#PIN-LB310-MALE"/>
    <use x="-2.936" y="-1.435" href="#PIN-LB310-MALE"/>
    <use x="-2.136" y="-1.435" href="#PIN-LB310-MALE"/>
    <use x="-1.336" y="-1.435" href="#PIN-LB310-MALE"/>
    <use x="-0.536" y="-1.435" href="#PIN-LB310-MALE"/>
    <use x="+0.264" y="-1.435" href="#PIN-LB310-MALE"/>
    <use x="+1.064" y="-1.435" href="#PIN-LB310-MALE"/>
    <use x="+1.864" y="-1.435" href="#PIN-LB310-MALE"/>
    <use x="+2.664" y="-1.435" href="#PIN-LB310-MALE"/>
    <use x="+3.464" y="-1.435" href="#PIN-LB310-MALE"/>

    <use x="-3.736" y="+0.565" href="#PIN-LB310-MALE"/>
    <use x="-2.936" y="+0.565" href="#PIN-LB310-MALE"/>
    <use x="-2.136" y="+0.565" href="#PIN-LB310-MALE"/>
    <use x="-1.336" y="+0.565" href="#PIN-LB310-MALE"/>
    <use x="-0.536" y="+0.565" href="#PIN-LB310-MALE"/>
    <use x="+0.264" y="+0.565" href="#PIN-LB310-MALE"/>
    <use x="+1.064" y="+0.565" href="#PIN-LB310-MALE"/>
    <use x="+1.864" y="+0.565" href="#PIN-LB310-MALE"/>
    <use x="+2.664" y="+0.565" href="#PIN-LB310-MALE"/>
    <use x="+3.464" y="+0.565" href="#PIN-LB310-MALE"/>
</svg>