<svg
    xmlns="http://www.w3.org/2000/svg"
    viewBox="-10.21 -8.596 20.42 17.193"
    >
<!--
    viewBox="-10 -1 10 10"
    width ="20.42mm"
    height="17.193mm"
 -->
    <defs>
        <radialGradient
            id="RadialGradientSolderedPin"
            spreadMethod="pad"
            fy="1"
            gradientTransform="scale(1.5)"
            >
            <stop offset="0.000" stop-color="#3c3c3c"/>
            <stop offset="0.067" stop-color="#4d4d4d"/>
            <stop offset="0.181" stop-color="#5e5e5e"/>
            <stop offset="1.000" stop-color="#f0f0f0"/>
        </radialGradient>

        <linearGradient
            id="PinRightAngleDarkLightV"
            spreadMethod="pad"
            x2="0%" y2="100%"
            >
            <stop offset="0.000" stop-color="#7e5c19"/>
            <stop offset="0.204" stop-color="#c58f27"/>
            <stop offset="1.000" stop-color="#e5b758"/>
        </linearGradient>

        <svg id = "HDR2X5P254F_RA.PIN-RA"
             overflow="visible">
            <rect width="0.64" height="4.513" x="0" y="0" stroke="#303030" stroke-width=".02" fill="url(#PinRightAngleDarkLightV)"/>
        </svg>

        <path
            id="PIN-TIP-V"
            fill="url(#RadialGradientSolderedPin)" 
            stroke="#303030"
            stroke-width="0.02"
            d="m 0.325 0 h 0.325 l -0.15 0.8 h -0.34 l -0.15 -0.8 h 0.325 "
        />

        <svg
            id = "PIN-SQUARE-M60-TIP"
            overflow="visible">
            <use  x="0" y="0" href="#PIN-TIP-V"/>
        </svg>

        <filter
            id="FILTER-SUBSTRATE-TEXTURE"
            filterUnits="objectBoundingBox" 
            >
            <feTurbulence
                type="fractalNoise" 
                baseFrequency="10"
                numOctaves="4"
            />
                
            <feColorMatrix type="saturate" values="0"/>
        </filter>

        <radialGradient
            id="RADIAL-GRADIENT-RE200B-LENS" 
            spreadMethod="pad"
            fy="0.5"
            gradientTransform="scale(1, 2.5)"
            >
            <stop offset="0" stop-color="#7b7979"/>
            <stop offset="1" stop-color="#231f20"/>
        </radialGradient>

        <linearGradient
            id="GRADIENT-LINEAR-RE200B" 
            spreadMethod="pad"
            opacity="0.5"
            >
            <stop offset="0.0" stop-color="#363031"/>
            <stop offset="0.5" stop-color="#7b7979"/>
            <stop offset="1.0" stop-color="#363031"/>
        </linearGradient>

        <svg
            id="SUBSTRATE-TEXTURE"
            overflow="visible"
            >
            <rect
                width="17.0" 
                height="1.75" 
                x="1.68" 
                y="0.16" 
                filter="url(#FILTER-SUBSTRATE-TEXTURE)"
                opacity="0.3"/>
        </svg>
        
        <svg
            id="PLASTIC-BODY-PIR-RE200B"
            overflow="visible"
            >
            <path
            fill="#2e2a2b"
            stroke="#303030" 
            stroke-width="0.035" 
            d="
                M 0, 0 
                h -19.32 l-0.5,0.5v4.08l0.5,0.5h1.54l0.5,-0.5l0.5,0.5h1.54l0.5,-0.5l0.5,0.5h1.54l0.5,-0.5l0.5,0.5h1.54l0.5,-0.5l0.5,0.5h1.54l0.5,-0.5l0.5,0.5h1.54l0.5,-0.5l0.5,0.5h1.54l0.5,-0.5l0.5,0.5h1.54l0.5,-0.5v-4.08z"/>
        </svg>
        
    </defs>
        
    <use x="9.67" y="0.59" href="#PLASTIC-BODY-PIR-RE200B" />

    
    <use x="+8.57" y="1.502" href="#HDR2X5P254F_RA.PIN-RA"/>
    <use x="+6.03" y="1.502" href="#HDR2X5P254F_RA.PIN-RA"/>
    <use x="+3.49" y="1.502" href="#HDR2X5P254F_RA.PIN-RA"/>
    <use x="+0.95" y="1.502" href="#HDR2X5P254F_RA.PIN-RA"/>
    <use x="-1.59" y="1.502" href="#HDR2X5P254F_RA.PIN-RA"/>
    <use x="-4.13" y="1.502" href="#HDR2X5P254F_RA.PIN-RA"/>
    <use x="-6.67" y="1.502" href="#HDR2X5P254F_RA.PIN-RA"/>
    <use x="-9.21" y="1.502" href="#HDR2X5P254F_RA.PIN-RA"/>

    <use x="+8.57" y="7.85" href="#PIN-SQUARE-M60-TIP"/>
    <use x="+6.03" y="7.85" href="#PIN-SQUARE-M60-TIP"/>
    <use x="+3.49" y="7.85" href="#PIN-SQUARE-M60-TIP"/>
    <use x="+0.95" y="7.85" href="#PIN-SQUARE-M60-TIP"/>
    <use x="-1.59" y="7.85" href="#PIN-SQUARE-M60-TIP"/>
    <use x="-4.13" y="7.85" href="#PIN-SQUARE-M60-TIP"/>
    <use x="-6.67" y="7.85" href="#PIN-SQUARE-M60-TIP"/>
    <use x="-9.21" y="7.85" href="#PIN-SQUARE-M60-TIP"/>
    
    <path fill="url(#RADIAL-GRADIENT-RE200B-LENS)" stroke="#303030" stroke-width=".088" d="m 9, 0.447 a 9, 9, 0, 0, 0, -18, 0 z" opacity="0.97"/>

    <path stroke="#393536" stroke-linejoin="round" stroke-width="0.088" d="m -9, 2.546 l 3.4, 2.966 h 11.2 l 3.4, -2.966 z" fill="#303030)"/>
    <path stroke="#393536" stroke-linejoin="round" stroke-width="0.088" d="m -9, 2.546 l 3.4, 2.966 h 11.2 l 3.4, -2.966 z" fill="url(#GRADIENT-LINEAR-RE200B)"  opacity="0.81"/>

    <rect width="18" height="1.088" x="-9" y="1.448" fill="#303030" stroke="#393536" stroke-width="0.088"/>
    <rect width="18" height="1.088" x="-9" y="0.355" fill="#303030" stroke="#393536" stroke-width="0.088"/>

    <rect width="18" height="1.088" x="-9" y="1.448" fill="url(#GRADIENT-LINEAR-RE200B)" stroke="#393536" stroke-width="0.088" opacity="0.8"/>
    <rect width="18" height="1.088" x="-9" y="0.355" fill="url(#GRADIENT-LINEAR-RE200B)" stroke="#393536" stroke-width="0.088" opacity="0.8"/>

    <!-- PCB Substrate  -->
    <rect
        width="20.408" 
        height="2.088" 
        x="-10.16" 
        y="5.72" 
        fill="#abbd89" 
        stroke="#303030" 
        stroke-width="0.088"
    />
    <use x="-10.16" y="5.72" href="#SUBSTRATE-TEXTURE" />

    <rect width="20.408" height="2.088" x="-10.16" y="5.72" fill="none" stroke="#303030" stroke-width="0.088"/>
</svg>
