<svg
    xmlns="http://www.w3.org/2000/svg"
    viewBox="-1.115 -0.9 2.230 1.800"
    >
    <path
        fill="#4899c4"
        d="
            m 1.014, 0.316
            v -0.203
            a 1.013, 1.013, 0, 0, 0, -2.027, 0
            v 0.203
            c -0.072, 0, -0.102, 0.03, -0.102, 0.101
            v 0.203
            c 0, 0.071, 0.03, 0.101, 0.101, 0.101
            h 0.001
            c 0.002, 0.07, 0.031, 0.097, 0.1, 0.098
            c 0.072, 0, 0.102, -0.03, 0.102, -0.102
            v -0.604
            a 0.811, 0.811, 0, 0, 1, 1.621 , 0
            v 0.604
            c 0, 0.073, 0.03, 0.103, 0.103, 0.103
            c 0.07, 0, 0.099, -0.028, 0.1, -0.098
            h 0.001
            c 0.072, 0, 0.102, -0.03, 0.102, -0.101
            v -0.204
            c 0,-0.071, -0.03, -0.101, -0.101, -0.101"
        />
    <path 
        fill="#4899c4" 
        d="
            m 0.43, 0.265
            v 0.507
            c 0, 0.09, 0.037, 0.128, 0.128, 0.128
            c 0.09, 0, 0.128, -0.038, 0.128, -0.128
            v -0.507
            c 0, -0.09, -0.038, -0.128, -0.128, -0.128
            s -0.128, 0.038, -0.128, 0.128"
        />
    <path
        fill="#4899c4" 
        d="
            m -0.685, 0.265
            v 0.507
            c 0, 0.09, 0.037, 0.128, 0.128, 0.128
            c 0.09, 0, 0.128, -0.038, 0.128, -0.128
            v -0.507
            c 0, -0.09, -0.038, -0.127, -0.128, -0.128
            c -0.09, 0, -0.128, 0.038, -0.128, 0.128"
     />
</svg>