<svg
    xmlns="http://www.w3.org/2000/svg"
    viewBox="-0.891 -1.2 1.782 2.4"
    >
    <path
        fill="#4899c4"
        d="
            m 0.1, 0.585
            h -0.198
            v 0.417
            h -0.2
            c -0.07, 0, -0.1, 0.03, -0.1, 0.1
            s 0.03, 0.098, 0.1, 0.098
            h 0.594
            c 0.07, 0, 0.1, -0.03, 0.1, -0.1
            s -0.03, -0.1, -0.1, -0.1
            h -0.197
        z"
        />
    <path
        fill="#4899c4" 
        d="
            m -0.792, -0.6
            c -0.07, 0, -0.1, 0.03, -0.1, 0.1
            v 0.296
            a 0.89, 0.89, 0, 0, 0, 0.794, 0.881
            c 0.138, 0.003, 0.138, 0.002, 0.198, 0
            c 0.45, -0.05, 0.79, -0.429, 0.791, -0.881
            v -0.297 
            c 0, -0.07, -0.029, -0.098, -0.099, -0.098
            s -0.099, 0.028, -0.099, 0.098
            v 0.297
            a 0.694, 0.694, 0, 0, 1, -1.386, 0
            v -0.297
            c 0, -0.07, -0.029, -0.099, -0.099, -0.099
            z"
        />
    <path
        fill="#4899c4"
        d="
            m -0.36, -0.521
            v -0.317
            c 0, -0.256, 0.105, -0.362, 0.36, -0.362
            c 0.256, 0, 0.362, 0.106, 0.361, 0.362
            v 0.634
            c 0, 0.256, -0.105, 0.362, -0.36, 0.362 
            c -0.256 , 0, -0.362, -0.107, -0.362, -0.362
            z"
        />
</svg>