<svg
    xmlns="http://www.w3.org/2000/svg"
    viewBox="-1.26 -1.341 2.52 2.682"
    >
    <path fill="#51abe4" d="m +0.365, -1.049 a 0.141, 0.141, 0, 0, 0, -0.200, -0.200 a 1.727, 1.727, 0, 0, 0, +0.000, 2.440 a 0.141, 0.141, 0, 0, 0, 0.2, -0.2 a 1.445, 1.445, 0, 0, 1, +0.0, -2.040"/>
    <path fill="#51abe4" d="m +0.790, -0.622 a 0.141, 0.141, 0, 0, 0, -0.200, -0.200 a 1.129, 1.129, 0, 0, 0, +0.000, 1.586 a 0.140, 0.140, 0, 1, 0, 0.2, -0.2 a 0.838, 0.838, 0, 0, 1, +0.0, -1.186"/>
    <path fill="#51abe4" d="m +1.150, -0.196 a 0.141, 0.141, 0, 0, 0, -0.200, -0.200 a 0.531, 0.531, 0, 0, 0, +0.000, 0.732 a 0.140, 0.140, 0, 1, 0, 0.2, -0.2 a 0.231, 0.231, 0, 0, 1, +0.0, -0.332"/>
    <path fill="#51abe4" d="m -1.204, -0.505 a 0.565, 0.505, 0, 0, 1, +0.565, +0.505 a 0.565, 0.505, 0, 0, 1, -0.565, 0.505"/>

    <line x1="-1.119" x2="-1.119" y1="-1.198" y2="1.198" stroke="#51abe4" stroke-linecap="round" stroke-linejoin="round" stroke-width=".282"/>
</svg>