<svg
    xmlns="http://www.w3.org/2000/svg"
    viewBox="-0.9155 -1.651 1.831 3.302"
    >

    <path
        fill="#51abe4" 
        d="
            m 0.346, 0.59
            c -0.083, +0.000, -0.090, +0.172, -0.090, +0.225 
            c +0.000, +0.113, +0.028, +0.227, +0.090, +0.227
            c +0.080, +0.000, +0.089, -0.157, +0.089, -0.225
            c +0.000, -0.053, -0.007, -0.227, -0.089, -0.227
          "
    />

    <path
        fill="#51abe4" 
        d="
            m -0.267, +0.31
            c +0.000, -0.069, -0.008, -0.228, -0.088, -0.228
            c -0.066, +0.000, -0.090, +0.117, -0.090, +0.227
            c +0.000, +0.053, +0.006, +0.228, +0.090, +0.228
            c +0.080, +0.000, +0.088, -0.158, +0.088, -0.227
          "
    />

    <path 
        fill="#51abe4" 
        d="
            m 0.346, 1.198
            c -0.149,0,-0.245,-0.15,-0.245,-0.381
            c 0,-0.23,0.099,-0.386,0.245,-0.386
            c0.148,0,0.244,0.151,0.244,0.384
            c0,0.265,-0.122,0.383,-0.243,0.383
            
            m -0.593,0.034
            h -0.195
            l 0.035, -0.067
            l 0.652, -1.274
            h 0.194
            l -0.034, 0.067
            z

            m -0.354, -0.92
            c 0,-0.232, 0.099, -0.389, 0.245, -0.389
            c 0.147, 0, 0.243, 0.151, 0.243, 0.385
            c 0, 0.268, -0.122, 0.388, -0.243, 0.388
            c -0.146, 0, -0.245, -0.154, -0.245, -0.383

            m 0.6, -1.964
            s -0.915, 1.882, -0.915, 2.387 
            a 0.915, 0.915, 0, 0, 0, 1.83, 0
            c 0,-0.506, -0.915, -2.387, -0.915, -2.387
          "
    />
</svg>

