<?xml version="1.0" encoding="UTF-8" standalone="no"?>
<!-- Created with Inkscape (http://www.inkscape.org/) -->

<svg
   xmlns:dc="http://purl.org/dc/elements/1.1/"
   xmlns:cc="http://creativecommons.org/ns#"
   xmlns:rdf="http://www.w3.org/1999/02/22-rdf-syntax-ns#"
   xmlns:svg="http://www.w3.org/2000/svg"
   xmlns="http://www.w3.org/2000/svg"
   xmlns:sodipodi="http://sodipodi.sourceforge.net/DTD/sodipodi-0.dtd"
   xmlns:inkscape="http://www.inkscape.org/namespaces/inkscape"
   width="20.407841mm"
   height="66.128197mm"
   viewBox="0 0 20.407841 66.128197"
   version="1.1"
   id="svg52919"
   inkscape:version="0.92.3 (2405546, 2018-03-11)"
   sodipodi:docname="BB-HOST-B.svg">
  <title
     id="title53858">BB-HOST-B</title>
  <defs
     id="defs52913">
    <clipPath
       clipPathUnits="userSpaceOnUse"
       id="clipPath63945">
      <path
         d="M 0,426.197 H 539.583 V 0 H 0 Z"
         id="path63943"
         inkscape:connector-curvature="0" />
    </clipPath>
  </defs>
  <sodipodi:namedview
     id="base"
     pagecolor="#ffffff"
     bordercolor="#666666"
     borderopacity="1.0"
     inkscape:pageopacity="0.0"
     inkscape:pageshadow="2"
     inkscape:zoom="2.4274377"
     inkscape:cx="83.257499"
     inkscape:cy="131.36162"
     inkscape:document-units="mm"
     inkscape:current-layer="layer1"
     showgrid="false"
     fit-margin-top="0"
     fit-margin-left="0"
     fit-margin-right="0"
     fit-margin-bottom="0"
     showborder="false" />
  <metadata
     id="metadata52916">
    <rdf:RDF>
      <cc:Work
         rdf:about="">
        <dc:format>image/svg+xml</dc:format>
        <dc:type
           rdf:resource="http://purl.org/dc/dcmitype/StillImage" />
        <dc:title>BB-HOST-B</dc:title>
      </cc:Work>
    </rdf:RDF>
  </metadata>
  <g
     inkscape:label="Layer 1"
     inkscape:groupmode="layer"
     id="layer1"
     transform="translate(286.12654,-221.60257)">
    <g
       transform="matrix(0.35277777,0,0,-0.35277777,-298.70899,359.05301)"
       id="g63939">
      <g
         id="g63941"
         clip-path="url(#clipPath63945)">
        <g
           id="g63947"
           transform="translate(77.6595,371.4983)">
          <path
             d="m 0,0 c 0,1.253 -1.016,2.268 -2.269,2.268 -1.252,0 -2.267,-1.015 -2.267,-2.268 0,-1.252 1.015,-2.268 2.267,-2.268 C -1.016,-2.268 0,-1.252 0,0"
             style="fill:#cfa550;fill-opacity:1;fill-rule:nonzero;stroke:none"
             id="path63949"
             inkscape:connector-curvature="0" />
        </g>
        <g
           id="g63951"
           transform="translate(70.4593,371.4983)">
          <path
             d="m 0,0 c 0,1.253 -1.016,2.268 -2.268,2.268 -1.253,0 -2.268,-1.015 -2.268,-2.268 0,-1.252 1.015,-2.268 2.268,-2.268 C -1.016,-2.268 0,-1.252 0,0"
             style="fill:#cfa550;fill-opacity:1;fill-rule:nonzero;stroke:none"
             id="path63953"
             inkscape:connector-curvature="0" />
        </g>
        <g
           id="g63955"
           transform="translate(63.2591,371.4983)">
          <path
             d="m 0,0 c 0,1.253 -1.016,2.268 -2.268,2.268 -1.253,0 -2.267,-1.015 -2.267,-2.268 0,-1.252 1.014,-2.268 2.267,-2.268 C -1.016,-2.268 0,-1.252 0,0"
             style="fill:#cfa550;fill-opacity:1;fill-rule:nonzero;stroke:none"
             id="path63957"
             inkscape:connector-curvature="0" />
        </g>
        <g
           id="g63959"
           transform="translate(56.0589,371.4983)">
          <path
             d="m 0,0 c 0,1.253 -1.016,2.268 -2.268,2.268 -1.253,0 -2.267,-1.015 -2.267,-2.268 0,-1.252 1.014,-2.268 2.267,-2.268 C -1.016,-2.268 0,-1.252 0,0"
             style="fill:#cfa550;fill-opacity:1;fill-rule:nonzero;stroke:none"
             id="path63961"
             inkscape:connector-curvature="0" />
        </g>
        <g
           id="g63963"
           transform="translate(72.2162,374.3333)">
          <path
             d="M 0,0 H 0.624 V 11.338 H 5.727 V 0 H 6.35 V 15.165 H 0 Z"
             style="fill:#d3d2d2;fill-opacity:1;fill-rule:nonzero;stroke:none"
             id="path63965"
             inkscape:connector-curvature="0" />
        </g>
        <g
           id="g63967"
           transform="translate(65.017,374.3333)">
          <path
             d="M 0,0 H 0.623 V 11.338 H 5.726 V 0 H 6.35 V 15.165 H 0 Z"
             style="fill:#d3d2d2;fill-opacity:1;fill-rule:nonzero;stroke:none"
             id="path63969"
             inkscape:connector-curvature="0" />
        </g>
        <g
           id="g63971"
           transform="translate(57.8168,374.3333)">
          <path
             d="M 0,0 H 0.623 V 11.338 H 5.726 V 0 H 6.35 V 15.165 H 0 Z"
             style="fill:#d3d2d2;fill-opacity:1;fill-rule:nonzero;stroke:none"
             id="path63973"
             inkscape:connector-curvature="0" />
        </g>
        <g
           id="g63975"
           transform="translate(50.6166,374.3333)">
          <path
             d="M 0,0 H 0.624 V 11.338 H 5.726 V 0 H 6.35 V 15.165 H 0 Z"
             style="fill:#d3d2d2;fill-opacity:1;fill-rule:nonzero;stroke:none"
             id="path63977"
             inkscape:connector-curvature="0" />
        </g>
      </g>
    </g>
    <text
       y="272.64752"
       x="223.24599"
       transform="rotate(90)"
       style="font-variant:normal;font-weight:600;font-stretch:normal;font-size:1.58749998px;font-family:'Myriad Pro Light';-inkscape-font-specification:MyriadPro-Semibold;writing-mode:lr-tb;fill:#ffffff;fill-opacity:1;fill-rule:nonzero;stroke:none;stroke-width:0.35277775"
       id="text63987">
      <tspan
         style="stroke-width:0.35277775"
         x="223.24599 224.25563 224.58424"
         y="272.64752"
         sodipodi:role="line"
         id="tspan63979">A 2</tspan>
      <tspan
         style="stroke-width:0.35277775"
         x="223.24599 224.25563 224.58424"
         y="275.18912"
         sodipodi:role="line"
         id="tspan63981">A 3</tspan>
      <tspan
         style="stroke-width:0.35277775"
         x="223.24599 224.25563 224.58424"
         y="277.72913"
         sodipodi:role="line"
         id="tspan63983">A 4</tspan>
      <tspan
         style="stroke-width:0.35277775"
         x="223.24599 224.25563 224.58424"
         y="280.26913"
         sodipodi:role="line"
         id="tspan63985">A 5</tspan>
    </text>
    <path
       d="m -270.99266,280.06642 h -2.24014 v -2.53965 h 2.24014 z"
       style="fill:#fbc18c;fill-opacity:1;fill-rule:nonzero;stroke:none;stroke-width:0.35277775"
       id="path63997"
       inkscape:connector-curvature="0" />
    <path
       d="m -273.5323,280.06642 h -2.24014 v -2.53965 h 2.24014 z"
       style="fill:#fbc834;fill-opacity:1;fill-rule:nonzero;stroke:none;stroke-width:0.35277775"
       id="path63999"
       inkscape:connector-curvature="0" />
    <path
       d="m -276.07266,280.06642 h -2.24014 v -2.53965 h 2.24014 z"
       style="fill:#f89c0e;fill-opacity:1;fill-rule:nonzero;stroke:none;stroke-width:0.35277775"
       id="path64001"
       inkscape:connector-curvature="0" />
    <path
       d="m -278.61266,280.06642 h -2.24014 v -2.53965 h 2.24014 z"
       style="fill:#f25c19;fill-opacity:1;fill-rule:nonzero;stroke:none;stroke-width:0.35277775"
       id="path64003"
       inkscape:connector-curvature="0" />
    <g
       id="g64005"
       transform="matrix(0.35277777,0,0,-0.35277777,-271.21254,278.79667)">
      <path
         d="m 0,0 c 0,-1.409 -1.143,-2.551 -2.552,-2.551 -1.408,0 -2.551,1.142 -2.551,2.551 0,1.409 1.143,2.551 2.551,2.551 C -1.143,2.551 0,1.409 0,0"
         style="fill:#ffffff;fill-opacity:1;fill-rule:nonzero;stroke:none"
         id="path64007"
         inkscape:connector-curvature="0" />
    </g>
    <g
       id="g64009"
       transform="matrix(0.35277777,0,0,-0.35277777,-273.75261,278.79667)">
      <path
         d="m 0,0 c 0,-1.409 -1.143,-2.551 -2.551,-2.551 -1.409,0 -2.552,1.142 -2.552,2.551 0,1.409 1.143,2.551 2.552,2.551 C -1.143,2.551 0,1.409 0,0"
         style="fill:#ffffff;fill-opacity:1;fill-rule:nonzero;stroke:none"
         id="path64011"
         inkscape:connector-curvature="0" />
    </g>
    <g
       id="g64013"
       transform="matrix(0.35277777,0,0,-0.35277777,-276.29268,278.79667)">
      <path
         d="m 0,0 c 0,-1.409 -1.142,-2.551 -2.551,-2.551 -1.409,0 -2.552,1.142 -2.552,2.551 0,1.409 1.143,2.551 2.552,2.551 C -1.142,2.551 0,1.409 0,0"
         style="fill:#ffffff;fill-opacity:1;fill-rule:nonzero;stroke:none"
         id="path64015"
         inkscape:connector-curvature="0" />
    </g>
    <g
       id="g64017"
       transform="matrix(0.35277777,0,0,-0.35277777,-278.83275,278.79667)">
      <path
         d="m 0,0 c 0,-1.409 -1.142,-2.551 -2.551,-2.551 -1.409,0 -2.551,1.142 -2.551,2.551 0,1.409 1.142,2.551 2.551,2.551 C -1.142,2.551 0,1.409 0,0"
         style="fill:#ffffff;fill-opacity:1;fill-rule:nonzero;stroke:none"
         id="path64019"
         inkscape:connector-curvature="0" />
    </g>
    <g
       id="g64021"
       transform="matrix(0.35277777,0,0,-0.35277777,-272.11273,279.29655)">
      <path
         d="M 0,0 C -0.782,0 -1.417,0.635 -1.417,1.417 -1.417,2.2 -0.782,2.834 0,2.834 0.783,2.834 1.418,2.2 1.418,1.417 1.418,0.635 0.783,0 0,0 m 0,3.685 c -1.252,0 -2.268,-1.015 -2.268,-2.268 0,-1.252 1.016,-2.268 2.268,-2.268 1.253,0 2.269,1.016 2.269,2.268 C 2.269,2.67 1.253,3.685 0,3.685"
         style="fill:#cba855;fill-opacity:1;fill-rule:nonzero;stroke:none"
         id="path64023"
         inkscape:connector-curvature="0" />
    </g>
    <path
       d="m -271.79276,279.11674 h -0.63958 v -0.63994 h 0.63958 z"
       style="fill:#cba855;fill-opacity:1;fill-rule:nonzero;stroke:none;stroke-width:0.35277775"
       id="path64025"
       inkscape:connector-curvature="0" />
    <g
       id="g64027"
       transform="matrix(0.35277777,0,0,-0.35277777,-274.65244,279.29655)">
      <path
         d="M 0,0 C -0.783,0 -1.418,0.635 -1.418,1.417 -1.418,2.2 -0.783,2.834 0,2.834 0.782,2.834 1.417,2.2 1.417,1.417 1.417,0.635 0.782,0 0,0 m 0,3.685 c -1.253,0 -2.269,-1.015 -2.269,-2.268 0,-1.252 1.016,-2.268 2.269,-2.268 1.252,0 2.268,1.016 2.268,2.268 C 2.268,2.67 1.252,3.685 0,3.685"
         style="fill:#cba855;fill-opacity:1;fill-rule:nonzero;stroke:none"
         id="path64029"
         inkscape:connector-curvature="0" />
    </g>
    <path
       d="m -274.33276,279.11674 h -0.63958 v -0.63994 h 0.63958 z"
       style="fill:#cba855;fill-opacity:1;fill-rule:nonzero;stroke:none;stroke-width:0.35277775"
       id="path64031"
       inkscape:connector-curvature="0" />
    <g
       id="g64033"
       transform="matrix(0.35277777,0,0,-0.35277777,-277.19251,279.29655)">
      <path
         d="M 0,0 C -0.783,0 -1.417,0.635 -1.417,1.417 -1.417,2.2 -0.783,2.834 0,2.834 0.782,2.834 1.417,2.2 1.417,1.417 1.417,0.635 0.782,0 0,0 m 0,3.685 c -1.253,0 -2.268,-1.015 -2.268,-2.268 0,-1.252 1.015,-2.268 2.268,-2.268 1.252,0 2.268,1.016 2.268,2.268 C 2.268,2.67 1.252,3.685 0,3.685"
         style="fill:#cba855;fill-opacity:1;fill-rule:nonzero;stroke:none"
         id="path64035"
         inkscape:connector-curvature="0" />
    </g>
    <path
       d="m -276.8724,279.11674 h -0.63994 v -0.63994 h 0.63994 z"
       style="fill:#cba855;fill-opacity:1;fill-rule:nonzero;stroke:none;stroke-width:0.35277775"
       id="path64037"
       inkscape:connector-curvature="0" />
    <g
       id="g64039"
       transform="matrix(0.35277777,0,0,-0.35277777,-279.73258,279.29655)">
      <path
         d="M 0,0 C -0.783,0 -1.417,0.635 -1.417,1.417 -1.417,2.2 -0.783,2.834 0,2.834 0.783,2.834 1.417,2.2 1.417,1.417 1.417,0.635 0.783,0 0,0 m 0,3.685 c -1.252,0 -2.268,-1.015 -2.268,-2.268 0,-1.252 1.016,-2.268 2.268,-2.268 1.253,0 2.268,1.016 2.268,2.268 C 2.268,2.67 1.253,3.685 0,3.685"
         style="fill:#cba855;fill-opacity:1;fill-rule:nonzero;stroke:none"
         id="path64041"
         inkscape:connector-curvature="0" />
    </g>
    <path
       d="m -279.4124,279.11674 h -0.63994 v -0.63994 h 0.63994 z"
       style="fill:#cba855;fill-opacity:1;fill-rule:nonzero;stroke:none;stroke-width:0.35277775"
       id="path64043"
       inkscape:connector-curvature="0" />
    <path
       d="m -286.08273,264.97635 h 20.32 v 2.24014 h -20.32 z"
       style="fill:#cfa550;fill-opacity:1;fill-rule:nonzero;stroke:none;stroke-width:0.35277775"
       id="path64045"
       inkscape:connector-curvature="0" />
    <path
       d="m -286.08273,262.4367 h 20.32 v 2.24014 h -20.32 z"
       style="fill:#51abe4;fill-opacity:1;fill-rule:nonzero;stroke:none;stroke-width:0.35277775"
       id="path64047"
       inkscape:connector-curvature="0" />
    <path
       d="m -286.08273,259.89635 h 20.32 v 2.24014 h -20.32 z"
       style="fill:#99d420;fill-opacity:1;fill-rule:nonzero;stroke:none;stroke-width:0.35277775"
       id="path64049"
       inkscape:connector-curvature="0" />
    <path
       d="m -286.08273,257.35635 h 20.32 v 2.24014 h -20.32 z"
       style="fill:#ed1c24;fill-opacity:1;fill-rule:nonzero;stroke:none;stroke-width:0.35277775"
       id="path64051"
       inkscape:connector-curvature="0" />
    <g
       id="g64053"
       transform="matrix(0.35277777,0,0,-0.35277777,-267.03259,264.45678)">
      <path
         d="m 0,0 c -1.409,0 -2.551,1.143 -2.551,2.552 0,1.409 1.142,2.551 2.551,2.551 1.409,0 2.551,-1.142 2.551,-2.551 C 2.551,1.143 1.409,0 0,0"
         style="fill:#ffffff;fill-opacity:1;fill-rule:nonzero;stroke:none"
         id="path64055"
         inkscape:connector-curvature="0" />
    </g>
    <g
       id="g64057"
       transform="matrix(0.35277777,0,0,-0.35277777,-267.03259,261.91671)">
      <path
         d="M 0,0 C -1.409,0 -2.551,1.143 -2.551,2.552 -2.551,3.96 -1.409,5.103 0,5.103 1.409,5.103 2.551,3.96 2.551,2.552 2.551,1.143 1.409,0 0,0"
         style="fill:#ffffff;fill-opacity:1;fill-rule:nonzero;stroke:none"
         id="path64059"
         inkscape:connector-curvature="0" />
    </g>
    <g
       id="g64061"
       transform="matrix(0.35277777,0,0,-0.35277777,-267.03259,259.37667)">
      <path
         d="M 0,0 C -1.409,0 -2.551,1.143 -2.551,2.551 -2.551,3.96 -1.409,5.103 0,5.103 1.409,5.103 2.551,3.96 2.551,2.551 2.551,1.143 1.409,0 0,0"
         style="fill:#ffffff;fill-opacity:1;fill-rule:nonzero;stroke:none"
         id="path64063"
         inkscape:connector-curvature="0" />
    </g>
    <g
       id="g64065"
       transform="matrix(0.35277777,0,0,-0.35277777,-267.53247,263.55659)">
      <path
         d="M 0,0 C 0,0.782 0.635,1.417 1.417,1.417 2.2,1.417 2.834,0.782 2.834,0 2.834,-0.783 2.2,-1.417 1.417,-1.417 0.635,-1.417 0,-0.783 0,0 m 3.685,0 c 0,1.252 -1.015,2.268 -2.268,2.268 -1.252,0 -2.268,-1.016 -2.268,-2.268 0,-1.253 1.016,-2.268 2.268,-2.268 1.253,0 2.268,1.015 2.268,2.268"
         style="fill:#cba855;fill-opacity:1;fill-rule:nonzero;stroke:none"
         id="path64067"
         inkscape:connector-curvature="0" />
    </g>
    <path
       d="m -267.3527,263.23645 h 0.63994 v 0.63994 h -0.63994 z"
       style="fill:#cba855;fill-opacity:1;fill-rule:nonzero;stroke:none;stroke-width:0.35277775"
       id="path64069"
       inkscape:connector-curvature="0" />
    <g
       id="g64071"
       transform="matrix(0.35277777,0,0,-0.35277777,-267.53247,261.01653)">
      <path
         d="M 0,0 C 0,0.782 0.635,1.417 1.417,1.417 2.2,1.417 2.834,0.782 2.834,0 2.834,-0.783 2.2,-1.418 1.417,-1.418 0.635,-1.418 0,-0.783 0,0 m 3.685,0 c 0,1.252 -1.015,2.268 -2.268,2.268 -1.252,0 -2.268,-1.016 -2.268,-2.268 0,-1.253 1.016,-2.268 2.268,-2.268 1.253,0 2.268,1.015 2.268,2.268"
         style="fill:#cba855;fill-opacity:1;fill-rule:nonzero;stroke:none"
         id="path64073"
         inkscape:connector-curvature="0" />
    </g>
    <path
       d="m -267.3527,260.69645 h 0.63994 v 0.63994 h -0.63994 z"
       style="fill:#cba855;fill-opacity:1;fill-rule:nonzero;stroke:none;stroke-width:0.35277775"
       id="path64075"
       inkscape:connector-curvature="0" />
    <g
       id="g64077"
       transform="matrix(0.35277777,0,0,-0.35277777,-267.53247,258.47681)">
      <path
         d="M 0,0 C 0,0.783 0.635,1.418 1.417,1.418 2.2,1.418 2.834,0.783 2.834,0 2.834,-0.782 2.2,-1.417 1.417,-1.417 0.635,-1.417 0,-0.782 0,0 m 3.685,0 c 0,1.253 -1.015,2.269 -2.268,2.269 -1.252,0 -2.268,-1.016 -2.268,-2.269 0,-1.252 1.016,-2.268 2.268,-2.268 1.253,0 2.268,1.016 2.268,2.268"
         style="fill:#cba855;fill-opacity:1;fill-rule:nonzero;stroke:none"
         id="path64079"
         inkscape:connector-curvature="0" />
    </g>
    <path
       d="m -267.3527,258.1568 h 0.63994 v 0.63959 h -0.63994 z"
       style="fill:#cba855;fill-opacity:1;fill-rule:nonzero;stroke:none;stroke-width:0.35277775"
       id="path64081"
       inkscape:connector-curvature="0" />
    <g
       id="g64083"
       transform="matrix(0.35277777,0,0,-0.35277777,-284.81273,264.45678)">
      <path
         d="m 0,0 c -1.408,0 -2.551,1.143 -2.551,2.552 0,1.409 1.143,2.551 2.551,2.551 1.409,0 2.552,-1.142 2.552,-2.551 C 2.552,1.143 1.409,0 0,0"
         style="fill:#ffffff;fill-opacity:1;fill-rule:nonzero;stroke:none"
         id="path64085"
         inkscape:connector-curvature="0" />
    </g>
    <g
       id="g64087"
       transform="matrix(0.35277777,0,0,-0.35277777,-284.81273,261.91671)">
      <path
         d="M 0,0 C -1.408,0 -2.551,1.143 -2.551,2.552 -2.551,3.96 -1.408,5.103 0,5.103 1.409,5.103 2.552,3.96 2.552,2.552 2.552,1.143 1.409,0 0,0"
         style="fill:#ffffff;fill-opacity:1;fill-rule:nonzero;stroke:none"
         id="path64089"
         inkscape:connector-curvature="0" />
    </g>
    <g
       id="g64091"
       transform="matrix(0.35277777,0,0,-0.35277777,-284.81273,259.37667)">
      <path
         d="M 0,0 C -1.408,0 -2.551,1.143 -2.551,2.551 -2.551,3.96 -1.408,5.103 0,5.103 1.409,5.103 2.552,3.96 2.552,2.551 2.552,1.143 1.409,0 0,0"
         style="fill:#ffffff;fill-opacity:1;fill-rule:nonzero;stroke:none"
         id="path64093"
         inkscape:connector-curvature="0" />
    </g>
    <g
       id="g64095"
       transform="matrix(0.35277777,0,0,-0.35277777,-285.31261,263.55659)">
      <path
         d="M 0,0 C 0,0.782 0.635,1.417 1.417,1.417 2.2,1.417 2.835,0.782 2.835,0 2.835,-0.783 2.2,-1.417 1.417,-1.417 0.635,-1.417 0,-0.783 0,0 m 3.686,0 c 0,1.252 -1.016,2.268 -2.269,2.268 -1.252,0 -2.268,-1.016 -2.268,-2.268 0,-1.253 1.016,-2.268 2.268,-2.268 1.253,0 2.269,1.015 2.269,2.268"
         style="fill:#cba855;fill-opacity:1;fill-rule:nonzero;stroke:none"
         id="path64097"
         inkscape:connector-curvature="0" />
    </g>
    <path
       d="m -285.13234,263.23645 h 0.63958 v 0.63994 h -0.63958 z"
       style="fill:#cba855;fill-opacity:1;fill-rule:nonzero;stroke:none;stroke-width:0.35277775"
       id="path64099"
       inkscape:connector-curvature="0" />
    <g
       id="g64101"
       transform="matrix(0.35277777,0,0,-0.35277777,-285.31261,261.01653)">
      <path
         d="M 0,0 C 0,0.782 0.635,1.417 1.417,1.417 2.2,1.417 2.835,0.782 2.835,0 2.835,-0.783 2.2,-1.418 1.417,-1.418 0.635,-1.418 0,-0.783 0,0 m 3.686,0 c 0,1.252 -1.016,2.268 -2.269,2.268 -1.252,0 -2.268,-1.016 -2.268,-2.268 0,-1.253 1.016,-2.268 2.268,-2.268 1.253,0 2.269,1.015 2.269,2.268"
         style="fill:#cba855;fill-opacity:1;fill-rule:nonzero;stroke:none"
         id="path64103"
         inkscape:connector-curvature="0" />
    </g>
    <path
       d="m -285.13234,260.69645 h 0.63958 v 0.63994 h -0.63958 z"
       style="fill:#cba855;fill-opacity:1;fill-rule:nonzero;stroke:none;stroke-width:0.35277775"
       id="path64105"
       inkscape:connector-curvature="0" />
    <g
       id="g64107"
       transform="matrix(0.35277777,0,0,-0.35277777,-285.31261,258.47681)">
      <path
         d="M 0,0 C 0,0.783 0.635,1.418 1.417,1.418 2.2,1.418 2.835,0.783 2.835,0 2.835,-0.782 2.2,-1.417 1.417,-1.417 0.635,-1.417 0,-0.782 0,0 m 3.686,0 c 0,1.253 -1.016,2.269 -2.269,2.269 -1.252,0 -2.268,-1.016 -2.268,-2.269 0,-1.252 1.016,-2.268 2.268,-2.268 1.253,0 2.269,1.016 2.269,2.268"
         style="fill:#cba855;fill-opacity:1;fill-rule:nonzero;stroke:none"
         id="path64109"
         inkscape:connector-curvature="0" />
    </g>
    <path
       d="m -285.13234,258.1568 h 0.63958 v 0.63959 h -0.63958 z"
       style="fill:#cba855;fill-opacity:1;fill-rule:nonzero;stroke:none;stroke-width:0.35277775"
       id="path64111"
       inkscape:connector-curvature="0" />
    <g
       id="g64113"
       transform="matrix(0.35277777,0,0,-0.35277777,-267.03259,266.99653)">
      <path
         d="M 0,0 C -1.409,0 -2.551,1.142 -2.551,2.551 -2.551,3.96 -1.409,5.102 0,5.102 1.409,5.102 2.551,3.96 2.551,2.551 2.551,1.142 1.409,0 0,0"
         style="fill:#ffffff;fill-opacity:1;fill-rule:nonzero;stroke:none"
         id="path64115"
         inkscape:connector-curvature="0" />
    </g>
    <g
       id="g64117"
       transform="matrix(0.35277777,0,0,-0.35277777,-267.53247,266.09667)">
      <path
         d="M 0,0 C 0,0.783 0.635,1.417 1.417,1.417 2.2,1.417 2.834,0.783 2.834,0 2.834,-0.782 2.2,-1.417 1.417,-1.417 0.635,-1.417 0,-0.782 0,0 m 3.685,0 c 0,1.253 -1.015,2.268 -2.268,2.268 -1.252,0 -2.268,-1.015 -2.268,-2.268 0,-1.252 1.016,-2.268 2.268,-2.268 1.253,0 2.268,1.016 2.268,2.268"
         style="fill:#cba855;fill-opacity:1;fill-rule:nonzero;stroke:none"
         id="path64119"
         inkscape:connector-curvature="0" />
    </g>
    <path
       d="m -267.3527,265.77645 h 0.63994 v 0.63994 h -0.63994 z"
       style="fill:#cba855;fill-opacity:1;fill-rule:nonzero;stroke:none;stroke-width:0.35277775"
       id="path64121"
       inkscape:connector-curvature="0" />
    <g
       id="g64123"
       transform="matrix(0.35277777,0,0,-0.35277777,-267.03259,264.45678)">
      <path
         d="m 0,0 c -1.409,0 -2.551,1.143 -2.551,2.552 0,1.409 1.142,2.551 2.551,2.551 1.409,0 2.551,-1.142 2.551,-2.551 C 2.551,1.143 1.409,0 0,0"
         style="fill:#ffffff;fill-opacity:1;fill-rule:nonzero;stroke:none"
         id="path64125"
         inkscape:connector-curvature="0" />
    </g>
    <g
       id="g64127"
       transform="matrix(0.35277777,0,0,-0.35277777,-267.53247,263.55659)">
      <path
         d="M 0,0 C 0,0.782 0.635,1.417 1.417,1.417 2.2,1.417 2.834,0.782 2.834,0 2.834,-0.783 2.2,-1.417 1.417,-1.417 0.635,-1.417 0,-0.783 0,0 m 3.685,0 c 0,1.252 -1.015,2.268 -2.268,2.268 -1.252,0 -2.268,-1.016 -2.268,-2.268 0,-1.253 1.016,-2.268 2.268,-2.268 1.253,0 2.268,1.015 2.268,2.268"
         style="fill:#cba855;fill-opacity:1;fill-rule:nonzero;stroke:none"
         id="path64129"
         inkscape:connector-curvature="0" />
    </g>
    <path
       d="m -267.3527,263.23645 h 0.63994 v 0.63994 h -0.63994 z"
       style="fill:#cba855;fill-opacity:1;fill-rule:nonzero;stroke:none;stroke-width:0.35277775"
       id="path64131"
       inkscape:connector-curvature="0" />
    <g
       id="g64133"
       transform="matrix(0.35277777,0,0,-0.35277777,-267.03259,261.91671)">
      <path
         d="M 0,0 C -1.409,0 -2.551,1.143 -2.551,2.552 -2.551,3.96 -1.409,5.103 0,5.103 1.409,5.103 2.551,3.96 2.551,2.552 2.551,1.143 1.409,0 0,0"
         style="fill:#ffffff;fill-opacity:1;fill-rule:nonzero;stroke:none"
         id="path64135"
         inkscape:connector-curvature="0" />
    </g>
    <g
       id="g64137"
       transform="matrix(0.35277777,0,0,-0.35277777,-267.53247,261.01653)">
      <path
         d="M 0,0 C 0,0.782 0.635,1.417 1.417,1.417 2.2,1.417 2.834,0.782 2.834,0 2.834,-0.783 2.2,-1.418 1.417,-1.418 0.635,-1.418 0,-0.783 0,0 m 3.685,0 c 0,1.252 -1.015,2.268 -2.268,2.268 -1.252,0 -2.268,-1.016 -2.268,-2.268 0,-1.253 1.016,-2.268 2.268,-2.268 1.253,0 2.268,1.015 2.268,2.268"
         style="fill:#cba855;fill-opacity:1;fill-rule:nonzero;stroke:none"
         id="path64139"
         inkscape:connector-curvature="0" />
    </g>
    <path
       d="m -267.3527,260.69645 h 0.63994 v 0.63994 h -0.63994 z"
       style="fill:#cba855;fill-opacity:1;fill-rule:nonzero;stroke:none;stroke-width:0.35277775"
       id="path64141"
       inkscape:connector-curvature="0" />
    <g
       id="g64143"
       transform="matrix(0.35277777,0,0,-0.35277777,-267.03259,259.37667)">
      <path
         d="M 0,0 C -1.409,0 -2.551,1.143 -2.551,2.551 -2.551,3.96 -1.409,5.103 0,5.103 1.409,5.103 2.551,3.96 2.551,2.551 2.551,1.143 1.409,0 0,0"
         style="fill:#ffffff;fill-opacity:1;fill-rule:nonzero;stroke:none"
         id="path64145"
         inkscape:connector-curvature="0" />
    </g>
    <g
       id="g64147"
       transform="matrix(0.35277777,0,0,-0.35277777,-267.53247,258.47681)">
      <path
         d="M 0,0 C 0,0.783 0.635,1.418 1.417,1.418 2.2,1.418 2.834,0.783 2.834,0 2.834,-0.782 2.2,-1.417 1.417,-1.417 0.635,-1.417 0,-0.782 0,0 m 3.685,0 c 0,1.253 -1.015,2.269 -2.268,2.269 -1.252,0 -2.268,-1.016 -2.268,-2.269 0,-1.252 1.016,-2.268 2.268,-2.268 1.253,0 2.268,1.016 2.268,2.268"
         style="fill:#cba855;fill-opacity:1;fill-rule:nonzero;stroke:none"
         id="path64149"
         inkscape:connector-curvature="0" />
    </g>
    <path
       d="m -267.3527,258.1568 h 0.63994 v 0.63959 h -0.63994 z"
       style="fill:#cba855;fill-opacity:1;fill-rule:nonzero;stroke:none;stroke-width:0.35277775"
       id="path64151"
       inkscape:connector-curvature="0" />
    <g
       id="g64153"
       transform="matrix(0.35277777,0,0,-0.35277777,-284.81273,266.99653)">
      <path
         d="M 0,0 C -1.408,0 -2.551,1.142 -2.551,2.551 -2.551,3.96 -1.408,5.102 0,5.102 1.409,5.102 2.552,3.96 2.552,2.551 2.552,1.142 1.409,0 0,0"
         style="fill:#ffffff;fill-opacity:1;fill-rule:nonzero;stroke:none"
         id="path64155"
         inkscape:connector-curvature="0" />
    </g>
    <g
       id="g64157"
       transform="matrix(0.35277777,0,0,-0.35277777,-285.31261,266.09667)">
      <path
         d="M 0,0 C 0,0.783 0.635,1.417 1.417,1.417 2.2,1.417 2.835,0.783 2.835,0 2.835,-0.782 2.2,-1.417 1.417,-1.417 0.635,-1.417 0,-0.782 0,0 m 3.686,0 c 0,1.253 -1.016,2.268 -2.269,2.268 -1.252,0 -2.268,-1.015 -2.268,-2.268 0,-1.252 1.016,-2.268 2.268,-2.268 1.253,0 2.269,1.016 2.269,2.268"
         style="fill:#cba855;fill-opacity:1;fill-rule:nonzero;stroke:none"
         id="path64159"
         inkscape:connector-curvature="0" />
    </g>
    <path
       d="m -285.13234,265.77645 h 0.63958 v 0.63994 h -0.63958 z"
       style="fill:#cba855;fill-opacity:1;fill-rule:nonzero;stroke:none;stroke-width:0.35277775"
       id="path64161"
       inkscape:connector-curvature="0" />
    <g
       id="g64163"
       transform="matrix(0.35277777,0,0,-0.35277777,-284.81273,264.45678)">
      <path
         d="m 0,0 c -1.408,0 -2.551,1.143 -2.551,2.552 0,1.409 1.143,2.551 2.551,2.551 1.409,0 2.552,-1.142 2.552,-2.551 C 2.552,1.143 1.409,0 0,0"
         style="fill:#ffffff;fill-opacity:1;fill-rule:nonzero;stroke:none"
         id="path64165"
         inkscape:connector-curvature="0" />
    </g>
    <g
       id="g64167"
       transform="matrix(0.35277777,0,0,-0.35277777,-285.31261,263.55659)">
      <path
         d="M 0,0 C 0,0.782 0.635,1.417 1.417,1.417 2.2,1.417 2.835,0.782 2.835,0 2.835,-0.783 2.2,-1.417 1.417,-1.417 0.635,-1.417 0,-0.783 0,0 m 3.686,0 c 0,1.252 -1.016,2.268 -2.269,2.268 -1.252,0 -2.268,-1.016 -2.268,-2.268 0,-1.253 1.016,-2.268 2.268,-2.268 1.253,0 2.269,1.015 2.269,2.268"
         style="fill:#cba855;fill-opacity:1;fill-rule:nonzero;stroke:none"
         id="path64169"
         inkscape:connector-curvature="0" />
    </g>
    <path
       d="m -285.13234,263.23645 h 0.63958 v 0.63994 h -0.63958 z"
       style="fill:#cba855;fill-opacity:1;fill-rule:nonzero;stroke:none;stroke-width:0.35277775"
       id="path64171"
       inkscape:connector-curvature="0" />
    <g
       id="g64173"
       transform="matrix(0.35277777,0,0,-0.35277777,-284.81273,261.91671)">
      <path
         d="M 0,0 C -1.408,0 -2.551,1.143 -2.551,2.552 -2.551,3.96 -1.408,5.103 0,5.103 1.409,5.103 2.552,3.96 2.552,2.552 2.552,1.143 1.409,0 0,0"
         style="fill:#ffffff;fill-opacity:1;fill-rule:nonzero;stroke:none"
         id="path64175"
         inkscape:connector-curvature="0" />
    </g>
    <g
       id="g64177"
       transform="matrix(0.35277777,0,0,-0.35277777,-285.31261,261.01653)">
      <path
         d="M 0,0 C 0,0.782 0.635,1.417 1.417,1.417 2.2,1.417 2.835,0.782 2.835,0 2.835,-0.783 2.2,-1.418 1.417,-1.418 0.635,-1.418 0,-0.783 0,0 m 3.686,0 c 0,1.252 -1.016,2.268 -2.269,2.268 -1.252,0 -2.268,-1.016 -2.268,-2.268 0,-1.253 1.016,-2.268 2.268,-2.268 1.253,0 2.269,1.015 2.269,2.268"
         style="fill:#cba855;fill-opacity:1;fill-rule:nonzero;stroke:none"
         id="path64179"
         inkscape:connector-curvature="0" />
    </g>
    <path
       d="m -285.13234,260.69645 h 0.63958 v 0.63994 h -0.63958 z"
       style="fill:#cba855;fill-opacity:1;fill-rule:nonzero;stroke:none;stroke-width:0.35277775"
       id="path64181"
       inkscape:connector-curvature="0" />
    <g
       id="g64183"
       transform="matrix(0.35277777,0,0,-0.35277777,-284.81273,259.37667)">
      <path
         d="M 0,0 C -1.408,0 -2.551,1.143 -2.551,2.551 -2.551,3.96 -1.408,5.103 0,5.103 1.409,5.103 2.552,3.96 2.552,2.551 2.552,1.143 1.409,0 0,0"
         style="fill:#ffffff;fill-opacity:1;fill-rule:nonzero;stroke:none"
         id="path64185"
         inkscape:connector-curvature="0" />
    </g>
    <g
       id="g64187"
       transform="matrix(0.35277777,0,0,-0.35277777,-285.31261,258.47681)">
      <path
         d="M 0,0 C 0,0.783 0.635,1.418 1.417,1.418 2.2,1.418 2.835,0.783 2.835,0 2.835,-0.782 2.2,-1.417 1.417,-1.417 0.635,-1.417 0,-0.782 0,0 m 3.686,0 c 0,1.253 -1.016,2.269 -2.269,2.269 -1.252,0 -2.268,-1.016 -2.268,-2.269 0,-1.252 1.016,-2.268 2.268,-2.268 1.253,0 2.269,1.016 2.269,2.268"
         style="fill:#cba855;fill-opacity:1;fill-rule:nonzero;stroke:none"
         id="path64189"
         inkscape:connector-curvature="0" />
    </g>
    <path
       d="m -285.13234,258.1568 h 0.63958 v 0.63959 h -0.63958 z"
       style="fill:#cba855;fill-opacity:1;fill-rule:nonzero;stroke:none;stroke-width:0.35277775"
       id="path64191"
       inkscape:connector-curvature="0" />
    <g
       id="g64193"
       transform="matrix(0.35277777,0,0,-0.35277777,-271.21254,227.99667)">
      <path
         d="m 0,0 c 0,-1.409 -1.143,-2.551 -2.552,-2.551 -1.408,0 -2.551,1.142 -2.551,2.551 0,1.409 1.143,2.551 2.551,2.551 C -1.143,2.551 0,1.409 0,0"
         style="fill:#ffffff;fill-opacity:1;fill-rule:nonzero;stroke:none"
         id="path64195"
         inkscape:connector-curvature="0" />
    </g>
    <g
       id="g64197"
       transform="matrix(0.35277777,0,0,-0.35277777,-272.11273,228.49655)">
      <path
         d="M 0,0 C -0.782,0 -1.417,0.635 -1.417,1.417 -1.417,2.2 -0.782,2.834 0,2.834 0.783,2.834 1.418,2.2 1.418,1.417 1.418,0.635 0.783,0 0,0 m 0,3.685 c -1.252,0 -2.268,-1.015 -2.268,-2.268 0,-1.252 1.016,-2.268 2.268,-2.268 1.253,0 2.268,1.016 2.268,2.268 C 2.268,2.67 1.253,3.685 0,3.685"
         style="fill:#cba855;fill-opacity:1;fill-rule:nonzero;stroke:none"
         id="path64199"
         inkscape:connector-curvature="0" />
    </g>
    <path
       d="m -271.79276,228.31674 h -0.63994 v -0.63994 h 0.63994 z"
       style="fill:#cba855;fill-opacity:1;fill-rule:nonzero;stroke:none;stroke-width:0.35277775"
       id="path64201"
       inkscape:connector-curvature="0" />
    <g
       id="g64203"
       transform="matrix(0.35277777,0,0,-0.35277777,-273.75261,227.99667)">
      <path
         d="m 0,0 c 0,-1.409 -1.143,-2.551 -2.551,-2.551 -1.409,0 -2.552,1.142 -2.552,2.551 0,1.409 1.143,2.551 2.552,2.551 C -1.143,2.551 0,1.409 0,0"
         style="fill:#ffffff;fill-opacity:1;fill-rule:nonzero;stroke:none"
         id="path64205"
         inkscape:connector-curvature="0" />
    </g>
    <g
       id="g64207"
       transform="matrix(0.35277777,0,0,-0.35277777,-274.65244,228.49655)">
      <path
         d="M 0,0 C -0.783,0 -1.418,0.635 -1.418,1.417 -1.418,2.2 -0.783,2.834 0,2.834 0.782,2.834 1.417,2.2 1.417,1.417 1.417,0.635 0.782,0 0,0 m 0,3.685 c -1.253,0 -2.269,-1.015 -2.269,-2.268 0,-1.252 1.016,-2.268 2.269,-2.268 1.252,0 2.268,1.016 2.268,2.268 C 2.268,2.67 1.252,3.685 0,3.685"
         style="fill:#cba855;fill-opacity:1;fill-rule:nonzero;stroke:none"
         id="path64209"
         inkscape:connector-curvature="0" />
    </g>
    <path
       d="m -274.33276,228.31674 h -0.63958 v -0.63994 h 0.63958 z"
       style="fill:#cba855;fill-opacity:1;fill-rule:nonzero;stroke:none;stroke-width:0.35277775"
       id="path64211"
       inkscape:connector-curvature="0" />
    <g
       id="g64213"
       transform="matrix(0.35277777,0,0,-0.35277777,-276.29268,227.99667)">
      <path
         d="m 0,0 c 0,-1.409 -1.142,-2.551 -2.551,-2.551 -1.409,0 -2.552,1.142 -2.552,2.551 0,1.409 1.143,2.551 2.552,2.551 C -1.142,2.551 0,1.409 0,0"
         style="fill:#ffffff;fill-opacity:1;fill-rule:nonzero;stroke:none"
         id="path64215"
         inkscape:connector-curvature="0" />
    </g>
    <g
       id="g64217"
       transform="matrix(0.35277777,0,0,-0.35277777,-277.19251,228.49655)">
      <path
         d="M 0,0 C -0.783,0 -1.418,0.635 -1.418,1.417 -1.418,2.2 -0.783,2.834 0,2.834 0.782,2.834 1.417,2.2 1.417,1.417 1.417,0.635 0.782,0 0,0 m 0,3.685 c -1.253,0 -2.268,-1.015 -2.268,-2.268 0,-1.252 1.015,-2.268 2.268,-2.268 1.252,0 2.268,1.016 2.268,2.268 C 2.268,2.67 1.252,3.685 0,3.685"
         style="fill:#cba855;fill-opacity:1;fill-rule:nonzero;stroke:none"
         id="path64219"
         inkscape:connector-curvature="0" />
    </g>
    <path
       d="m -276.8724,228.31674 h -0.63994 v -0.63994 h 0.63994 z"
       style="fill:#cba855;fill-opacity:1;fill-rule:nonzero;stroke:none;stroke-width:0.35277775"
       id="path64221"
       inkscape:connector-curvature="0" />
    <g
       id="g64223"
       transform="matrix(0.35277777,0,0,-0.35277777,-278.83275,227.99667)">
      <path
         d="m 0,0 c 0,-1.409 -1.142,-2.551 -2.551,-2.551 -1.409,0 -2.551,1.142 -2.551,2.551 0,1.409 1.142,2.551 2.551,2.551 C -1.142,2.551 0,1.409 0,0"
         style="fill:#ffffff;fill-opacity:1;fill-rule:nonzero;stroke:none"
         id="path64225"
         inkscape:connector-curvature="0" />
    </g>
    <g
       id="g64227"
       transform="matrix(0.35277777,0,0,-0.35277777,-279.73258,228.49655)">
      <path
         d="M 0,0 C -0.783,0 -1.417,0.635 -1.417,1.417 -1.417,2.2 -0.783,2.834 0,2.834 0.783,2.834 1.417,2.2 1.417,1.417 1.417,0.635 0.783,0 0,0 m 0,3.685 c -1.253,0 -2.268,-1.015 -2.268,-2.268 0,-1.252 1.015,-2.268 2.268,-2.268 1.252,0 2.268,1.016 2.268,2.268 C 2.268,2.67 1.252,3.685 0,3.685"
         style="fill:#cba855;fill-opacity:1;fill-rule:nonzero;stroke:none"
         id="path64229"
         inkscape:connector-curvature="0" />
    </g>
    <path
       d="m -279.4124,228.31674 h -0.63994 v -0.63994 h 0.63994 z"
       style="fill:#cba855;fill-opacity:1;fill-rule:nonzero;stroke:none;stroke-width:0.35277775"
       id="path64231"
       inkscape:connector-curvature="0" />
    <g
       id="g64233"
       transform="matrix(0.35277777,0,0,-0.35277777,-282.03255,273.06022)">
      <path
         d="m 0,0 v 10.679 c 0.262,0.257 0.425,0.614 0.425,1.009 0,0.784 -0.635,1.418 -1.417,1.418 -0.397,0 -0.753,-0.163 -1.011,-0.424 H -3.95 c -0.257,0.261 -0.614,0.424 -1.011,0.424 -0.782,0 -1.417,-0.634 -1.417,-1.418 0,-0.395 0.163,-0.752 0.425,-1.009 V 0 c -0.262,-0.257 -0.425,-0.614 -0.425,-1.01 0,-0.783 0.635,-1.418 1.417,-1.418 0.397,0 0.754,0.163 1.011,0.426 h 1.947 c 0.258,-0.263 0.614,-0.426 1.011,-0.426 0.782,0 1.417,0.635 1.417,1.418 C 0.425,-0.614 0.262,-0.257 0,0 Z"
         style="fill:none;stroke:#231f20;stroke-width:0.25;stroke-linecap:butt;stroke-linejoin:miter;stroke-miterlimit:10;stroke-dasharray:none;stroke-opacity:1"
         id="path64235"
         inkscape:connector-curvature="0" />
    </g>
    <g
       id="g64237"
       transform="matrix(0.35277777,0,0,-0.35277777,-266.36252,221.64667)">
      <path
         d="m 0,0 h -54.198 c -0.936,0 -1.701,-0.766 -1.701,-1.701 v -14.4 -10.999 -153.013 c 0,-3.898 3.189,-7.087 7.086,-7.087 h 43.427 c 3.898,0 7.086,3.189 7.086,7.087 v 153.013 10.999 14.4 C 1.7,-0.766 0.936,0 0,0 Z"
         style="fill:none;stroke:#231f20;stroke-width:0.25;stroke-linecap:butt;stroke-linejoin:miter;stroke-miterlimit:10;stroke-dasharray:none;stroke-opacity:1"
         id="idBoardOutline"
         inkscape:connector-curvature="0" />
    </g>
    <g
       id="g64241"
       transform="matrix(0.35277777,0,0,-0.35277777,-282.03255,233.73308)">
      <path
         d="m 0,0 c 0.262,0.257 0.425,0.614 0.425,1.011 0,0.782 -0.635,1.417 -1.417,1.417 -0.397,0 -0.754,-0.163 -1.011,-0.425 H -3.95 c -0.257,0.262 -0.614,0.425 -1.011,0.425 -0.782,0 -1.417,-0.635 -1.417,-1.417 0,-0.397 0.163,-0.754 0.425,-1.011 v -53.878 c -0.262,-0.258 -0.425,-0.614 -0.425,-1.011 0,-0.783 0.635,-1.417 1.417,-1.417 0.397,0 0.754,0.163 1.011,0.425 h 1.947 c 0.257,-0.262 0.614,-0.425 1.011,-0.425 0.782,0 1.417,0.634 1.417,1.417 0,0.397 -0.163,0.753 -0.425,1.011 z"
         style="fill:none;stroke:#231f20;stroke-width:0.25;stroke-linecap:butt;stroke-linejoin:miter;stroke-miterlimit:10;stroke-dasharray:none;stroke-opacity:1"
         id="path64243"
         inkscape:connector-curvature="0" />
    </g>
    <path
       d="m -284.13257,250.03656 h -1.50001 v -1.00012 h 1.50001 z"
       style="fill:#cfa550;fill-opacity:1;fill-rule:nonzero;stroke:none;stroke-width:0.35277775"
       id="path64245"
       inkscape:connector-curvature="0" />
    <path
       d="m -284.13257,248.23669 h -1.50001 v -1.00012 h 1.50001 z"
       style="fill:#cfa550;fill-opacity:1;fill-rule:nonzero;stroke:none;stroke-width:0.35277775"
       id="path64247"
       inkscape:connector-curvature="0" />
    <path
       d="m -284.13257,246.43647 h -1.50001 v -0.99977 h 1.50001 z"
       style="fill:#cfa550;fill-opacity:1;fill-rule:nonzero;stroke:none;stroke-width:0.35277775"
       id="path64249"
       inkscape:connector-curvature="0" />
    <path
       d="m -284.13257,244.6366 h -1.50001 v -0.99978 h 1.50001 z"
       style="fill:#cfa550;fill-opacity:1;fill-rule:nonzero;stroke:none;stroke-width:0.35277775"
       id="path64251"
       inkscape:connector-curvature="0" />
    <path
       d="m -284.13257,242.83672 h -1.50001 v -1.00012 h 1.50001 z"
       style="fill:#cfa550;fill-opacity:1;fill-rule:nonzero;stroke:none;stroke-width:0.35277775"
       id="path64253"
       inkscape:connector-curvature="0" />
    <path
       d="m -284.13257,241.03685 h -1.50001 v -1.00012 h 1.50001 z"
       style="fill:#cfa550;fill-opacity:1;fill-rule:nonzero;stroke:none;stroke-width:0.35277775"
       id="path64255"
       inkscape:connector-curvature="0" />
    <path
       d="m -284.13257,239.23663 h -1.50001 v -1.00013 h 1.50001 z"
       style="fill:#cfa550;fill-opacity:1;fill-rule:nonzero;stroke:none;stroke-width:0.35277775"
       id="path64257"
       inkscape:connector-curvature="0" />
    <path
       d="m -284.13257,237.4364 h -1.50001 v -1.00012 h 1.50001 z"
       style="fill:#cfa550;fill-opacity:1;fill-rule:nonzero;stroke:none;stroke-width:0.35277775"
       id="path64259"
       inkscape:connector-curvature="0" />
    <path
       d="m -284.13257,235.63653 h -1.50001 v -1.9999 h 1.50001 z"
       style="fill:#cfa550;fill-opacity:1;fill-rule:nonzero;stroke:none;stroke-width:0.35277775"
       id="path64261"
       inkscape:connector-curvature="0" />
    <path
       d="m -284.13257,252.83656 h -1.50001 v -1.9999 h 1.50001 z"
       style="fill:#cfa550;fill-opacity:1;fill-rule:nonzero;stroke:none;stroke-width:0.35277775"
       id="path64263"
       inkscape:connector-curvature="0" />
    <path
       d="m -284.13257,270.77637 h -1.50001 v -1.50001 h 1.50001 z"
       style="fill:#cfa550;fill-opacity:1;fill-rule:nonzero;stroke:none;stroke-width:0.35277775"
       id="path64265"
       inkscape:connector-curvature="0" />
    <path
       d="m -284.13257,271.57682 h -1.50001 v 1.50001 h 1.50001 z"
       style="fill:#cfa550;fill-opacity:1;fill-rule:nonzero;stroke:none;stroke-width:0.35277775"
       id="path64267"
       inkscape:connector-curvature="0" />
    <path
       d="m -280.53247,250.03656 h -1.50001 v -1.00012 h 1.50001 z"
       style="fill:#cfa550;fill-opacity:1;fill-rule:nonzero;stroke:none;stroke-width:0.35277775"
       id="path64269"
       inkscape:connector-curvature="0" />
    <path
       d="m -280.53247,248.23669 h -1.50001 v -1.00012 h 1.50001 z"
       style="fill:#cfa550;fill-opacity:1;fill-rule:nonzero;stroke:none;stroke-width:0.35277775"
       id="path64271"
       inkscape:connector-curvature="0" />
    <path
       d="m -280.53247,246.43647 h -1.50001 v -0.99977 h 1.50001 z"
       style="fill:#cfa550;fill-opacity:1;fill-rule:nonzero;stroke:none;stroke-width:0.35277775"
       id="path64273"
       inkscape:connector-curvature="0" />
    <path
       d="m -280.53247,244.6366 h -1.50001 v -0.99978 h 1.50001 z"
       style="fill:#cfa550;fill-opacity:1;fill-rule:nonzero;stroke:none;stroke-width:0.35277775"
       id="path64275"
       inkscape:connector-curvature="0" />
    <path
       d="m -280.53247,242.83672 h -1.50001 v -1.00012 h 1.50001 z"
       style="fill:#cfa550;fill-opacity:1;fill-rule:nonzero;stroke:none;stroke-width:0.35277775"
       id="path64277"
       inkscape:connector-curvature="0" />
    <path
       d="m -280.53247,241.03685 h -1.50001 v -1.00012 h 1.50001 z"
       style="fill:#cfa550;fill-opacity:1;fill-rule:nonzero;stroke:none;stroke-width:0.35277775"
       id="path64279"
       inkscape:connector-curvature="0" />
    <path
       d="m -280.53247,239.23663 h -1.50001 v -1.00013 h 1.50001 z"
       style="fill:#cfa550;fill-opacity:1;fill-rule:nonzero;stroke:none;stroke-width:0.35277775"
       id="path64281"
       inkscape:connector-curvature="0" />
    <path
       d="m -280.53247,237.4364 h -1.50001 v -1.00012 h 1.50001 z"
       style="fill:#cfa550;fill-opacity:1;fill-rule:nonzero;stroke:none;stroke-width:0.35277775"
       id="path64283"
       inkscape:connector-curvature="0" />
    <path
       d="m -280.53247,235.63653 h -1.50001 v -1.9999 h 1.50001 z"
       style="fill:#cfa550;fill-opacity:1;fill-rule:nonzero;stroke:none;stroke-width:0.35277775"
       id="path64285"
       inkscape:connector-curvature="0" />
    <path
       d="m -280.53247,252.83656 h -1.50001 v -1.9999 h 1.50001 z"
       style="fill:#cfa550;fill-opacity:1;fill-rule:nonzero;stroke:none;stroke-width:0.35277775"
       id="path64287"
       inkscape:connector-curvature="0" />
    <path
       d="m -280.53247,270.77637 h -1.50001 v -1.50001 h 1.50001 z"
       style="fill:#cfa550;fill-opacity:1;fill-rule:nonzero;stroke:none;stroke-width:0.35277775"
       id="path64289"
       inkscape:connector-curvature="0" />
    <path
       d="m -280.53247,271.57682 h -1.50001 v 1.50001 h 1.50001 z"
       style="fill:#cfa550;fill-opacity:1;fill-rule:nonzero;stroke:none;stroke-width:0.35277775"
       id="path64291"
       inkscape:connector-curvature="0" />
    <g
       id="g64293"
       transform="matrix(0.35277777,0,0,-0.35277777,-277.77132,286.36657)">
      <path
         d="m 0,0 c -0.151,0 -0.303,0.001 -0.455,0.004 -0.286,0.005 -0.573,0.017 -0.858,0.045 -0.165,0.015 -0.329,0.037 -0.492,0.063 -0.174,0.03 -0.348,0.066 -0.52,0.111 -0.181,0.047 -0.36,0.103 -0.534,0.171 -0.331,0.129 -0.648,0.3 -0.932,0.512 C -3.947,1.023 -4.095,1.152 -4.229,1.293 -4.364,1.434 -4.487,1.586 -4.598,1.747 -4.63,1.795 -4.662,1.844 -4.692,1.893 -4.851,2.148 -4.811,2.32 -4.555,2.479 -4.3,2.637 -4.128,2.597 -3.97,2.341 -3.945,2.303 -3.921,2.266 -3.896,2.229 -3.812,2.105 -3.718,1.988 -3.615,1.881 -3.513,1.774 -3.401,1.677 -3.283,1.589 -3.059,1.422 -2.811,1.288 -2.551,1.187 -2.408,1.131 -2.261,1.085 -2.112,1.046 -1.966,1.008 -1.817,0.977 -1.668,0.952 -1.523,0.928 -1.378,0.909 -1.231,0.896 -0.969,0.87 -0.704,0.858 -0.439,0.854 -0.294,0.852 -0.148,0.851 -0.003,0.851 0.299,0.85 0.424,0.725 0.422,0.422 0.42,0.12 0.293,-0.004 -0.009,0"
         style="fill:#4899c4;fill-opacity:1;fill-rule:nonzero;stroke:none"
         id="path64295"
         inkscape:connector-curvature="0" />
    </g>
    <g
       id="g64297"
       transform="matrix(0.35277777,0,0,-0.35277777,-277.77163,281.84661)">
      <path
         d="M 0,0 C -0.123,0 -0.247,-0.001 -0.37,-0.002 -0.516,-0.004 -0.661,-0.008 -0.807,-0.015 -1.118,-0.028 -1.429,-0.054 -1.737,-0.103 -1.911,-0.129 -2.084,-0.163 -2.255,-0.205 -2.436,-0.25 -2.614,-0.304 -2.79,-0.368 -3.1,-0.483 -3.396,-0.634 -3.67,-0.82 -3.83,-0.931 -3.983,-1.054 -4.124,-1.188 -4.265,-1.323 -4.394,-1.471 -4.51,-1.626 -4.574,-1.713 -4.635,-1.802 -4.691,-1.894 -4.85,-2.148 -4.81,-2.32 -4.554,-2.479 c 0.255,-0.158 0.427,-0.118 0.585,0.137 0.044,0.071 0.091,0.14 0.141,0.207 0.088,0.118 0.185,0.23 0.292,0.332 0.108,0.103 0.224,0.197 0.348,0.281 0.125,0.085 0.256,0.162 0.392,0.228 0.098,0.047 0.198,0.09 0.301,0.128 0.144,0.054 0.292,0.098 0.441,0.135 0.148,0.036 0.296,0.065 0.446,0.089 0.143,0.022 0.288,0.039 0.432,0.051 0.135,0.013 0.271,0.021 0.406,0.027 0.256,0.011 0.512,0.013 0.768,0.013 C 0.3,-0.85 0.424,-0.725 0.423,-0.423 0.421,-0.121 0.295,0.003 -0.007,0"
         style="fill:#4899c4;fill-opacity:1;fill-rule:nonzero;stroke:none"
         id="path64299"
         inkscape:connector-curvature="0" />
    </g>
    <g
       id="g64301"
       transform="matrix(0.35277777,0,0,-0.35277777,-274.17256,286.36657)">
      <path
         d="M 0,0 C 0.217,0 0.435,-0.001 0.651,0.002 0.797,0.004 0.941,0.008 1.087,0.014 1.398,0.027 1.71,0.054 2.018,0.102 2.191,0.129 2.364,0.163 2.535,0.205 2.717,0.25 2.896,0.303 3.07,0.368 3.38,0.482 3.678,0.634 3.95,0.82 4.111,0.931 4.264,1.054 4.404,1.188 4.545,1.323 4.674,1.47 4.791,1.626 5.003,1.911 5.174,2.227 5.304,2.559 5.371,2.732 5.428,2.911 5.475,3.093 5.52,3.264 5.556,3.438 5.585,3.613 5.611,3.776 5.633,3.939 5.648,4.104 5.677,4.39 5.688,4.676 5.694,4.963 5.698,5.208 5.697,5.452 5.697,5.697 v 1.418 c 0,0.217 0.001,0.434 -0.002,0.651 C 5.693,7.911 5.689,8.057 5.684,8.202 5.67,8.514 5.644,8.824 5.596,9.133 5.568,9.307 5.534,9.479 5.492,9.65 5.447,9.831 5.395,10.01 5.329,10.186 5.215,10.495 5.064,10.792 4.877,11.065 4.767,11.227 4.644,11.379 4.509,11.52 4.374,11.66 4.228,11.789 4.071,11.905 3.786,12.118 3.471,12.289 3.139,12.418 2.965,12.486 2.786,12.542 2.605,12.59 2.434,12.634 2.26,12.67 2.084,12.699 1.922,12.727 1.758,12.748 1.593,12.764 1.308,12.791 1.021,12.804 0.734,12.809 0.489,12.813 0.245,12.813 0,12.813 h -5.386 c -0.301,0 -0.426,-0.125 -0.426,-0.426 0,-0.3 0.125,-0.425 0.426,-0.425 H 0 c 0.239,0 0.479,10e-4 0.72,-0.003 0.263,-0.006 0.528,-0.017 0.792,-0.042 0.145,-0.014 0.291,-0.032 0.436,-0.057 0.15,-0.025 0.298,-0.055 0.445,-0.094 0.148,-0.038 0.295,-0.084 0.437,-0.14 0.261,-0.102 0.509,-0.235 0.733,-0.402 0.118,-0.088 0.23,-0.186 0.332,-0.292 0.103,-0.108 0.196,-0.225 0.281,-0.348 0.085,-0.125 0.161,-0.257 0.227,-0.393 0.048,-0.097 0.09,-0.198 0.128,-0.3 C 4.585,9.746 4.629,9.599 4.666,9.449 4.702,9.302 4.731,9.153 4.755,9.004 4.777,8.86 4.795,8.716 4.808,8.571 4.819,8.437 4.828,8.301 4.834,8.165 4.849,7.815 4.848,7.465 4.848,7.115 V 5.697 c 0,-0.239 0,-0.479 -0.004,-0.718 C 4.839,4.714 4.828,4.449 4.803,4.186 4.788,4.04 4.77,3.895 4.745,3.75 4.721,3.601 4.689,3.452 4.651,3.305 4.612,3.156 4.566,3.01 4.511,2.867 4.409,2.606 4.275,2.358 4.108,2.135 4.021,2.017 3.923,1.905 3.816,1.803 3.709,1.699 3.592,1.606 3.469,1.521 3.344,1.437 3.213,1.36 3.076,1.294 2.979,1.246 2.878,1.204 2.776,1.166 2.632,1.112 2.483,1.068 2.334,1.031 2.188,0.995 2.039,0.966 1.89,0.942 1.746,0.92 1.602,0.903 1.457,0.89 1.321,0.878 1.186,0.869 1.05,0.863 0.7,0.849 0.35,0.851 0,0.851 H -5.386 C -5.687,0.851 -5.812,0.726 -5.812,0.425 -5.812,0.124 -5.687,0 -5.386,0 Z"
         style="fill:#4899c4;fill-opacity:1;fill-rule:nonzero;stroke:none"
         id="path64303"
         inkscape:connector-curvature="0" />
    </g>
    <g
       id="g64305"
       transform="matrix(0.35277777,0,0,-0.35277777,-276.62271,286.21671)">
      <path
         d="M 0,0 C 0,0.602 -0.249,0.851 -0.85,0.851 -1.451,0.851 -1.7,0.602 -1.7,0 c 0,-0.602 0.249,-0.851 0.85,-0.851 C -0.249,-0.851 0,-0.602 0,0"
         style="fill:#4899c4;fill-opacity:1;fill-rule:nonzero;stroke:none"
         id="path64307"
         inkscape:connector-curvature="0" />
    </g>
    <g
       id="g64309"
       transform="matrix(0.35277777,0,0,-0.35277777,-276.62271,281.99682)">
      <path
         d="M 0,0 C 0,0.602 -0.249,0.851 -0.85,0.851 -1.451,0.851 -1.7,0.602 -1.7,0 c 0,-0.601 0.249,-0.85 0.85,-0.85 C -0.249,-0.85 0,-0.601 0,0"
         style="fill:#4899c4;fill-opacity:1;fill-rule:nonzero;stroke:none"
         id="path64311"
         inkscape:connector-curvature="0" />
    </g>
    <g
       id="g64313"
       transform="matrix(0.35277777,0,0,-0.35277777,-279.53245,285.1067)">
      <path
         d="m 0,0 c -0.602,0 -0.851,0.249 -0.851,0.851 v 3.968 c 0,0.602 0.249,0.85 0.851,0.85 0.601,0 0.85,-0.248 0.85,-0.85 V 0.851 C 0.85,0.249 0.601,0 0,0"
         style="fill:#4899c4;fill-opacity:1;fill-rule:nonzero;stroke:none"
         id="path64315"
         inkscape:connector-curvature="0" />
    </g>
    <g
       id="g64317"
       transform="matrix(0.35277777,0,0,-0.35277777,-273.92244,285.1067)">
      <path
         d="m 0,0 v 0 c -0.468,0 -0.851,0.383 -0.851,0.851 v 3.968 c 0,0.468 0.383,0.851 0.851,0.851 0.468,0 0.85,-0.383 0.85,-0.851 V 0.851 C 0.85,0.383 0.468,0 0,0"
         style="fill:#231f20;fill-opacity:1;fill-rule:nonzero;stroke:none"
         id="path64319"
         inkscape:connector-curvature="0" />
    </g>
    <g
       id="g64321"
       transform="matrix(0.35277777,0,0,-0.35277777,-277.92255,285.1067)">
      <path
         d="m 0,0 v 0 c -0.468,0 -0.851,0.383 -0.851,0.851 v 3.968 c 0,0.468 0.383,0.851 0.851,0.851 0.468,0 0.851,-0.383 0.851,-0.851 V 0.851 C 0.851,0.383 0.468,0 0,0"
         style="fill:#231f20;fill-opacity:1;fill-rule:nonzero;stroke:none"
         id="path64323"
         inkscape:connector-curvature="0" />
    </g>
    <g
       id="g64325"
       transform="matrix(0.35277777,0,0,-0.35277777,-274.92257,284.90653)">
      <path
         d="m 0,0 v 0 c -0.546,0 -0.992,0.446 -0.992,0.992 v 2.551 c 0,0.546 0.446,0.992 0.992,0.992 0.546,0 0.992,-0.446 0.992,-0.992 V 0.992 C 0.992,0.446 0.546,0 0,0"
         style="fill:#cfa550;fill-opacity:1;fill-rule:nonzero;stroke:none"
         id="path64327"
         inkscape:connector-curvature="0" />
    </g>
    <g
       id="g64329"
       transform="matrix(0.35277777,0,0,-0.35277777,-275.92266,284.90653)">
      <path
         d="m 0,0 v 0 c -0.546,0 -0.992,0.446 -0.992,0.992 v 2.551 c 0,0.546 0.446,0.992 0.992,0.992 0.546,0 0.992,-0.446 0.992,-0.992 V 0.992 C 0.992,0.446 0.546,0 0,0"
         style="fill:#cfa550;fill-opacity:1;fill-rule:nonzero;stroke:none"
         id="path64331"
         inkscape:connector-curvature="0" />
    </g>
    <g
       id="g64333"
       transform="matrix(0.35277777,0,0,-0.35277777,-276.92243,284.90653)">
      <path
         d="m 0,0 v 0 c -0.546,0 -0.992,0.446 -0.992,0.992 v 2.551 c 0,0.546 0.446,0.992 0.992,0.992 0.545,0 0.991,-0.446 0.991,-0.992 V 0.992 C 0.991,0.446 0.545,0 0,0"
         style="fill:#cfa550;fill-opacity:1;fill-rule:nonzero;stroke:none"
         id="path64335"
         inkscape:connector-curvature="0" />
    </g>
  </g>
</svg>
