<?xml version="1.0" encoding="UTF-8" standalone="no"?>
<!-- Created with Inkscape (http://www.inkscape.org/) -->

<svg
   xmlns:dc="http://purl.org/dc/elements/1.1/"
   xmlns:cc="http://creativecommons.org/ns#"
   xmlns:rdf="http://www.w3.org/1999/02/22-rdf-syntax-ns#"
   xmlns:svg="http://www.w3.org/2000/svg"
   xmlns="http://www.w3.org/2000/svg"
   xmlns:sodipodi="http://sodipodi.sourceforge.net/DTD/sodipodi-0.dtd"
   xmlns:inkscape="http://www.inkscape.org/namespaces/inkscape"
   width="15.504583mm"
   height="61.224583mm"
   viewBox="0 0 15.504583 61.224583"
   version="1.1"
   id="svg38953"
   inkscape:version="0.92.3 (2405546, 2018-03-11)"
   sodipodi:docname="BB9022.svg">
  <title
     id="title39389">BB9022</title>
  <defs
     id="defs38947">
    <clipPath
       clipPathUnits="userSpaceOnUse"
       id="clipPath37405">
      <path
         d="M 0,426.197 H 539.583 V 0 H 0 Z"
         id="path37403"
         inkscape:connector-curvature="0" />
    </clipPath>
    <clipPath
       clipPathUnits="userSpaceOnUse"
       id="clipPath37233">
      <path
         d="M 0,426.197 H 539.583 V 0 H 0 Z"
         id="path37231"
         inkscape:connector-curvature="0" />
    </clipPath>
  </defs>
  <sodipodi:namedview
     id="base"
     pagecolor="#ffffff"
     bordercolor="#666666"
     borderopacity="1.0"
     inkscape:pageopacity="0.0"
     inkscape:pageshadow="2"
     inkscape:zoom="3.7078652"
     inkscape:cx="29.3"
     inkscape:cy="115.7"
     inkscape:document-units="mm"
     inkscape:current-layer="layer1"
     showgrid="false"
     fit-margin-top="0"
     fit-margin-left="0"
     fit-margin-right="0"
     fit-margin-bottom="0"
     showborder="false" />
  <metadata
     id="metadata38950">
    <rdf:RDF>
      <cc:Work
         rdf:about="">
        <dc:format>image/svg+xml</dc:format>
        <dc:type
           rdf:resource="http://purl.org/dc/dcmitype/StillImage" />
        <dc:title>BB9022</dc:title>
      </cc:Work>
    </rdf:RDF>
  </metadata>
  <g
     inkscape:label="Layer 1"
     inkscape:groupmode="layer"
     id="layer1"
     transform="translate(-4.7209227,-118.22104)">
    <g
       id="g39387">
      <g
         transform="matrix(0.35277777,0,0,-0.35277777,19.493139,118.35333)"
         id="g37215">
        <path
           inkscape:connector-curvature="0"
           id="path37217"
           style="fill:#ffffff;fill-opacity:1;fill-rule:nonzero;stroke:none"
           d="m 0,0 h -39.798 c -0.936,0 -1.701,-0.766 -1.701,-1.701 v -164.013 c 0,-3.897 3.189,-7.086 7.086,-7.086 h 29.027 c 3.898,0 7.087,3.189 7.087,7.086 V -1.701 C 1.701,-0.766 0.936,0 0,0" />
      </g>
      <g
         transform="matrix(0.35277777,0,0,-0.35277777,19.493139,118.35333)"
         id="g37219">
        <path
           inkscape:connector-curvature="0"
           id="boardOutline"
           style="fill:none;stroke:#231f20;stroke-width:0.75;stroke-linecap:butt;stroke-linejoin:miter;stroke-miterlimit:10;stroke-dasharray:none;stroke-opacity:1"
           d="m 0,0 h -39.798 c -0.936,0 -1.701,-0.766 -1.701,-1.701 v -164.013 c 0,-3.897 3.189,-7.086 7.086,-7.086 h 29.027 c 3.898,0 7.087,3.189 7.087,7.086 V -1.701 C 1.701,-0.766 0.936,0 0,0 Z" />
      </g>
      <g
         id="g37227"
         transform="matrix(0.35277777,0,0,-0.35277777,-11.583266,255.75978)">
        <g
           clip-path="url(#clipPath37233)"
           id="g37229">
          <g
             transform="translate(88.0906,389.4986)"
             id="g37235">
            <path
               inkscape:connector-curvature="0"
               id="path37237"
               style="fill:#ffffff;fill-opacity:1;fill-rule:nonzero;stroke:none"
               d="m 0,0 h -39.798 c -0.936,0 -1.701,-0.766 -1.701,-1.701 v -164.013 c 0,-3.897 3.189,-7.086 7.086,-7.086 h 29.027 c 3.898,0 7.087,3.189 7.087,7.086 V -1.701 C 1.701,-0.766 0.936,0 0,0" />
          </g>
          <g
             transform="translate(88.0906,389.4986)"
             id="g37239">
            <path
               inkscape:connector-curvature="0"
               id="path37241"
               style="fill:none;stroke:#231f20;stroke-width:0.25;stroke-linecap:butt;stroke-linejoin:miter;stroke-miterlimit:10;stroke-dasharray:none;stroke-opacity:1"
               d="m 0,0 h -39.798 c -0.936,0 -1.701,-0.766 -1.701,-1.701 v -164.013 c 0,-3.897 3.189,-7.086 7.086,-7.086 h 29.027 c 3.898,0 7.087,3.189 7.087,7.086 V -1.701 C 1.701,-0.766 0.936,0 0,0 Z" />
          </g>
          <path
             inkscape:connector-curvature="0"
             id="path37243"
             style="fill:#51abe4;fill-opacity:1;fill-rule:nonzero;stroke:none"
             d="m 46.591,288.273 h 43.2 v -6.35 h -43.2 z" />
          <path
             inkscape:connector-curvature="0"
             id="path37245"
             style="fill:#99d420;fill-opacity:1;fill-rule:nonzero;stroke:none"
             d="m 46.591,295.473 h 43.2 v -6.35 h -43.2 z" />
          <path
             inkscape:connector-curvature="0"
             id="path37247"
             style="fill:#ed1c24;fill-opacity:1;fill-rule:nonzero;stroke:none"
             d="m 46.591,302.673 h 43.2 v -6.35 h -43.2 z" />
          <path
             inkscape:connector-curvature="0"
             id="path37249"
             style="fill:#fbc18c;fill-opacity:1;fill-rule:nonzero;stroke:none"
             d="m 82.166,238.298 h -6.35 v 7.2 h 6.35 z" />
          <path
             inkscape:connector-curvature="0"
             id="path37251"
             style="fill:#fbc834;fill-opacity:1;fill-rule:nonzero;stroke:none"
             d="m 74.966,238.298 h -6.35 v 7.2 h 6.35 z" />
          <path
             inkscape:connector-curvature="0"
             id="path37253"
             style="fill:#f89c0e;fill-opacity:1;fill-rule:nonzero;stroke:none"
             d="m 67.766,238.298 h -6.35 v 7.2 h 6.35 z" />
          <path
             inkscape:connector-curvature="0"
             id="path37255"
             style="fill:#f25c19;fill-opacity:1;fill-rule:nonzero;stroke:none"
             d="m 60.566,238.298 h -6.35 v 7.2 h 6.35 z" />
          <g
             transform="translate(81.5428,241.898)"
             id="g37257">
            <path
               inkscape:connector-curvature="0"
               id="path37259"
               style="fill:#ffffff;fill-opacity:1;fill-rule:nonzero;stroke:none"
               d="m 0,0 c 0,-1.408 -1.143,-2.551 -2.551,-2.551 -1.409,0 -2.552,1.143 -2.552,2.551 0,1.409 1.143,2.552 2.552,2.552 C -1.143,2.552 0,1.409 0,0" />
          </g>
          <g
             transform="translate(74.3426,241.898)"
             id="g37261">
            <path
               inkscape:connector-curvature="0"
               id="path37263"
               style="fill:#ffffff;fill-opacity:1;fill-rule:nonzero;stroke:none"
               d="m 0,0 c 0,-1.408 -1.142,-2.551 -2.551,-2.551 -1.409,0 -2.552,1.143 -2.552,2.551 0,1.409 1.143,2.552 2.552,2.552 C -1.142,2.552 0,1.409 0,0" />
          </g>
          <g
             transform="translate(67.1424,241.898)"
             id="g37265">
            <path
               inkscape:connector-curvature="0"
               id="path37267"
               style="fill:#ffffff;fill-opacity:1;fill-rule:nonzero;stroke:none"
               d="m 0,0 c 0,-1.408 -1.142,-2.551 -2.551,-2.551 -1.409,0 -2.551,1.143 -2.551,2.551 0,1.409 1.142,2.552 2.551,2.552 C -1.142,2.552 0,1.409 0,0" />
          </g>
          <g
             transform="translate(59.9427,241.898)"
             id="g37269">
            <path
               inkscape:connector-curvature="0"
               id="path37271"
               style="fill:#ffffff;fill-opacity:1;fill-rule:nonzero;stroke:none"
               d="m 0,0 c 0,-1.408 -1.142,-2.551 -2.551,-2.551 -1.409,0 -2.552,1.143 -2.552,2.551 0,1.409 1.143,2.552 2.552,2.552 C -1.142,2.552 0,1.409 0,0" />
          </g>
          <g
             transform="translate(78.9915,240.481)"
             id="g37273">
            <path
               inkscape:connector-curvature="0"
               id="path37275"
               style="fill:#cba855;fill-opacity:1;fill-rule:nonzero;stroke:none"
               d="M 0,0 C -0.783,0 -1.417,0.635 -1.417,1.417 -1.417,2.2 -0.783,2.835 0,2.835 0.783,2.835 1.417,2.2 1.417,1.417 1.417,0.635 0.783,0 0,0 m 0,3.686 c -1.252,0 -2.268,-1.016 -2.268,-2.269 0,-1.252 1.016,-2.268 2.268,-2.268 1.252,0 2.268,1.016 2.268,2.268 C 2.268,2.67 1.252,3.686 0,3.686" />
          </g>
          <path
             inkscape:connector-curvature="0"
             id="path37277"
             style="fill:#cba855;fill-opacity:1;fill-rule:nonzero;stroke:none"
             d="m 79.899,240.992 h -1.814 v 1.813 h 1.814 z" />
          <g
             transform="translate(71.7913,240.481)"
             id="g37279">
            <path
               inkscape:connector-curvature="0"
               id="path37281"
               style="fill:#cba855;fill-opacity:1;fill-rule:nonzero;stroke:none"
               d="M 0,0 C -0.783,0 -1.417,0.635 -1.417,1.417 -1.417,2.2 -0.783,2.835 0,2.835 0.783,2.835 1.417,2.2 1.417,1.417 1.417,0.635 0.783,0 0,0 m 0,3.686 c -1.252,0 -2.268,-1.016 -2.268,-2.269 0,-1.252 1.016,-2.268 2.268,-2.268 1.252,0 2.268,1.016 2.268,2.268 C 2.268,2.67 1.252,3.686 0,3.686" />
          </g>
          <path
             inkscape:connector-curvature="0"
             id="path37283"
             style="fill:#cba855;fill-opacity:1;fill-rule:nonzero;stroke:none"
             d="m 72.699,240.992 h -1.814 v 1.813 h 1.814 z" />
          <g
             transform="translate(64.5916,240.481)"
             id="g37285">
            <path
               inkscape:connector-curvature="0"
               id="path37287"
               style="fill:#cba855;fill-opacity:1;fill-rule:nonzero;stroke:none"
               d="M 0,0 C -0.783,0 -1.417,0.635 -1.417,1.417 -1.417,2.2 -0.783,2.835 0,2.835 0.783,2.835 1.417,2.2 1.417,1.417 1.417,0.635 0.783,0 0,0 m 0,3.686 c -1.252,0 -2.268,-1.016 -2.268,-2.269 0,-1.252 1.016,-2.268 2.268,-2.268 1.252,0 2.268,1.016 2.268,2.268 C 2.268,2.67 1.252,3.686 0,3.686" />
          </g>
          <path
             inkscape:connector-curvature="0"
             id="path37289"
             style="fill:#cba855;fill-opacity:1;fill-rule:nonzero;stroke:none"
             d="m 65.498,240.992 h -1.814 v 1.813 h 1.814 z" />
          <g
             transform="translate(57.3914,240.481)"
             id="g37291">
            <path
               inkscape:connector-curvature="0"
               id="path37293"
               style="fill:#cba855;fill-opacity:1;fill-rule:nonzero;stroke:none"
               d="M 0,0 C -0.783,0 -1.417,0.635 -1.417,1.417 -1.417,2.2 -0.783,2.835 0,2.835 0.783,2.835 1.417,2.2 1.417,1.417 1.417,0.635 0.783,0 0,0 m 0,3.686 c -1.252,0 -2.268,-1.016 -2.268,-2.269 0,-1.252 1.016,-2.268 2.268,-2.268 1.252,0 2.268,1.016 2.268,2.268 C 2.268,2.67 1.252,3.686 0,3.686" />
          </g>
          <path
             inkscape:connector-curvature="0"
             id="path37295"
             style="fill:#cba855;fill-opacity:1;fill-rule:nonzero;stroke:none"
             d="m 58.299,240.992 h -1.814 v 1.813 h 1.814 z" />
          <g
             transform="translate(86.1912,282.4781)"
             id="g37297">
            <path
               inkscape:connector-curvature="0"
               id="path37299"
               style="fill:#ffffff;fill-opacity:1;fill-rule:nonzero;stroke:none"
               d="M 0,0 C -1.409,0 -2.551,1.143 -2.551,2.552 -2.551,3.96 -1.409,5.103 0,5.103 1.409,5.103 2.551,3.96 2.551,2.552 2.551,1.143 1.409,0 0,0" />
          </g>
          <g
             transform="translate(86.1912,289.6783)"
             id="g37301">
            <path
               inkscape:connector-curvature="0"
               id="path37303"
               style="fill:#ffffff;fill-opacity:1;fill-rule:nonzero;stroke:none"
               d="M 0,0 C -1.409,0 -2.551,1.143 -2.551,2.551 -2.551,3.96 -1.409,5.103 0,5.103 1.409,5.103 2.551,3.96 2.551,2.551 2.551,1.143 1.409,0 0,0" />
          </g>
          <g
             transform="translate(86.1912,296.8784)"
             id="g37305">
            <path
               inkscape:connector-curvature="0"
               id="path37307"
               style="fill:#ffffff;fill-opacity:1;fill-rule:nonzero;stroke:none"
               d="M 0,0 C -1.409,0 -2.551,1.142 -2.551,2.551 -2.551,3.96 -1.409,5.103 0,5.103 1.409,5.103 2.551,3.96 2.551,2.551 2.551,1.142 1.409,0 0,0" />
          </g>
          <g
             transform="translate(84.7737,285.0298)"
             id="g37309">
            <path
               inkscape:connector-curvature="0"
               id="path37311"
               style="fill:#cba855;fill-opacity:1;fill-rule:nonzero;stroke:none"
               d="M 0,0 C 0,0.782 0.635,1.417 1.417,1.417 2.2,1.417 2.835,0.782 2.835,0 2.835,-0.783 2.2,-1.418 1.417,-1.418 0.635,-1.418 0,-0.783 0,0 M 3.685,0 C 3.685,1.252 2.67,2.268 1.417,2.268 0.165,2.268 -0.85,1.252 -0.85,0 c 0,-1.253 1.015,-2.269 2.267,-2.269 1.253,0 2.268,1.016 2.268,2.269" />
          </g>
          <path
             inkscape:connector-curvature="0"
             id="path37313"
             style="fill:#cba855;fill-opacity:1;fill-rule:nonzero;stroke:none"
             d="m 85.284,285.936 h 1.814 v -1.813 h -1.814 z" />
          <g
             transform="translate(84.7737,292.229)"
             id="g37315">
            <path
               inkscape:connector-curvature="0"
               id="path37317"
               style="fill:#cba855;fill-opacity:1;fill-rule:nonzero;stroke:none"
               d="M 0,0 C 0,0.783 0.635,1.418 1.417,1.418 2.2,1.418 2.835,0.783 2.835,0 2.835,-0.782 2.2,-1.417 1.417,-1.417 0.635,-1.417 0,-0.782 0,0 M 3.685,0 C 3.685,1.253 2.67,2.268 1.417,2.268 0.165,2.268 -0.85,1.253 -0.85,0 c 0,-1.252 1.015,-2.268 2.267,-2.268 1.253,0 2.268,1.016 2.268,2.268" />
          </g>
          <path
             inkscape:connector-curvature="0"
             id="path37319"
             style="fill:#cba855;fill-opacity:1;fill-rule:nonzero;stroke:none"
             d="m 85.284,293.136 h 1.814 v -1.814 h -1.814 z" />
          <g
             transform="translate(84.7737,299.4292)"
             id="g37321">
            <path
               inkscape:connector-curvature="0"
               id="path37323"
               style="fill:#cba855;fill-opacity:1;fill-rule:nonzero;stroke:none"
               d="M 0,0 C 0,0.783 0.635,1.417 1.417,1.417 2.2,1.417 2.835,0.783 2.835,0 2.835,-0.782 2.2,-1.417 1.417,-1.417 0.635,-1.417 0,-0.782 0,0 M 3.685,0 C 3.685,1.253 2.67,2.268 1.417,2.268 0.165,2.268 -0.85,1.253 -0.85,0 c 0,-1.252 1.015,-2.268 2.267,-2.268 1.253,0 2.268,1.016 2.268,2.268" />
          </g>
          <path
             inkscape:connector-curvature="0"
             id="path37325"
             style="fill:#cba855;fill-opacity:1;fill-rule:nonzero;stroke:none"
             d="m 85.284,300.336 h 1.814 v -1.814 h -1.814 z" />
          <g
             transform="translate(50.1912,282.4781)"
             id="g37327">
            <path
               inkscape:connector-curvature="0"
               id="path37329"
               style="fill:#ffffff;fill-opacity:1;fill-rule:nonzero;stroke:none"
               d="M 0,0 C -1.409,0 -2.551,1.143 -2.551,2.552 -2.551,3.96 -1.409,5.103 0,5.103 1.409,5.103 2.551,3.96 2.551,2.552 2.551,1.143 1.409,0 0,0" />
          </g>
          <g
             transform="translate(50.1912,289.6783)"
             id="g37331">
            <path
               inkscape:connector-curvature="0"
               id="path37333"
               style="fill:#ffffff;fill-opacity:1;fill-rule:nonzero;stroke:none"
               d="M 0,0 C -1.409,0 -2.551,1.143 -2.551,2.551 -2.551,3.96 -1.409,5.103 0,5.103 1.409,5.103 2.551,3.96 2.551,2.551 2.551,1.143 1.409,0 0,0" />
          </g>
          <g
             transform="translate(50.1912,296.8784)"
             id="g37335">
            <path
               inkscape:connector-curvature="0"
               id="path37337"
               style="fill:#ffffff;fill-opacity:1;fill-rule:nonzero;stroke:none"
               d="M 0,0 C -1.409,0 -2.551,1.142 -2.551,2.551 -2.551,3.96 -1.409,5.103 0,5.103 1.409,5.103 2.551,3.96 2.551,2.551 2.551,1.142 1.409,0 0,0" />
          </g>
          <g
             transform="translate(48.7737,285.0298)"
             id="g37339">
            <path
               inkscape:connector-curvature="0"
               id="path37341"
               style="fill:#cba855;fill-opacity:1;fill-rule:nonzero;stroke:none"
               d="M 0,0 C 0,0.782 0.635,1.417 1.417,1.417 2.2,1.417 2.835,0.782 2.835,0 2.835,-0.783 2.2,-1.418 1.417,-1.418 0.635,-1.418 0,-0.783 0,0 M 3.685,0 C 3.685,1.252 2.67,2.268 1.417,2.268 0.165,2.268 -0.85,1.252 -0.85,0 c 0,-1.253 1.015,-2.269 2.267,-2.269 1.253,0 2.268,1.016 2.268,2.269" />
          </g>
          <path
             inkscape:connector-curvature="0"
             id="path37343"
             style="fill:#cba855;fill-opacity:1;fill-rule:nonzero;stroke:none"
             d="m 49.284,285.936 h 1.814 v -1.813 h -1.814 z" />
          <g
             transform="translate(48.7737,292.229)"
             id="g37345">
            <path
               inkscape:connector-curvature="0"
               id="path37347"
               style="fill:#cba855;fill-opacity:1;fill-rule:nonzero;stroke:none"
               d="M 0,0 C 0,0.783 0.635,1.418 1.417,1.418 2.2,1.418 2.835,0.783 2.835,0 2.835,-0.782 2.2,-1.417 1.417,-1.417 0.635,-1.417 0,-0.782 0,0 M 3.685,0 C 3.685,1.253 2.67,2.268 1.417,2.268 0.165,2.268 -0.85,1.253 -0.85,0 c 0,-1.252 1.015,-2.268 2.267,-2.268 1.253,0 2.268,1.016 2.268,2.268" />
          </g>
          <path
             inkscape:connector-curvature="0"
             id="path37349"
             style="fill:#cba855;fill-opacity:1;fill-rule:nonzero;stroke:none"
             d="m 49.284,293.136 h 1.814 v -1.814 h -1.814 z" />
          <g
             transform="translate(48.7737,299.4292)"
             id="g37351">
            <path
               inkscape:connector-curvature="0"
               id="path37353"
               style="fill:#cba855;fill-opacity:1;fill-rule:nonzero;stroke:none"
               d="M 0,0 C 0,0.783 0.635,1.417 1.417,1.417 2.2,1.417 2.835,0.783 2.835,0 2.835,-0.782 2.2,-1.417 1.417,-1.417 0.635,-1.417 0,-0.782 0,0 M 3.685,0 C 3.685,1.253 2.67,2.268 1.417,2.268 0.165,2.268 -0.85,1.253 -0.85,0 c 0,-1.252 1.015,-2.268 2.267,-2.268 1.253,0 2.268,1.016 2.268,2.268" />
          </g>
          <path
             inkscape:connector-curvature="0"
             id="path37355"
             style="fill:#cba855;fill-opacity:1;fill-rule:nonzero;stroke:none"
             d="m 49.284,300.336 h 1.814 v -1.814 h -1.814 z" />
          <g
             transform="translate(74.0589,371.4986)"
             id="g37357">
            <path
               inkscape:connector-curvature="0"
               id="path37359"
               style="fill:#cfa550;fill-opacity:1;fill-rule:nonzero;stroke:none"
               d="M 0,0 C 0,1.252 -1.015,2.268 -2.268,2.268 -3.52,2.268 -4.535,1.252 -4.535,0 c 0,-1.253 1.015,-2.268 2.267,-2.268 C -1.015,-2.268 0,-1.253 0,0" />
          </g>
          <g
             transform="translate(81.2591,371.4986)"
             id="g37361">
            <path
               inkscape:connector-curvature="0"
               id="path37363"
               style="fill:#cfa550;fill-opacity:1;fill-rule:nonzero;stroke:none"
               d="M 0,0 C 0,1.252 -1.015,2.268 -2.268,2.268 -3.52,2.268 -4.535,1.252 -4.535,0 c 0,-1.253 1.015,-2.268 2.267,-2.268 C -1.015,-2.268 0,-1.253 0,0" />
          </g>
          <g
             transform="translate(59.659,371.4986)"
             id="g37365">
            <path
               inkscape:connector-curvature="0"
               id="path37367"
               style="fill:#cfa550;fill-opacity:1;fill-rule:nonzero;stroke:none"
               d="M 0,0 C 0,1.252 -1.015,2.268 -2.268,2.268 -3.52,2.268 -4.535,1.252 -4.535,0 c 0,-1.253 1.015,-2.268 2.267,-2.268 C -1.015,-2.268 0,-1.253 0,0" />
          </g>
          <g
             transform="translate(62.3235,371.4986)"
             id="g37369">
            <path
               inkscape:connector-curvature="0"
               id="path37371"
               style="fill:#cfa550;fill-opacity:1;fill-rule:nonzero;stroke:none"
               d="M 0,0 C 0,1.252 1.016,2.268 2.268,2.268 3.52,2.268 4.536,1.252 4.536,0 4.536,-1.253 3.52,-2.268 2.268,-2.268 1.016,-2.268 0,-1.253 0,0" />
          </g>
          <g
             transform="translate(54.3015,362.1158)"
             id="g37373">
            <path
               inkscape:connector-curvature="0"
               id="path37375"
               style="fill:#393536;fill-opacity:1;fill-rule:nonzero;stroke:none"
               d="m 0,0 h 27.78 c 0.779,0 1.417,-0.638 1.417,-1.417 0,-0.78 -0.638,-1.418 -1.417,-1.418 H 0 c -0.779,0 -1.417,0.638 -1.417,1.418 C -1.417,-0.638 -0.779,0 0,0" />
          </g>
          <g
             transform="translate(56.3411,337.5191)"
             id="g37377">
            <path
               inkscape:connector-curvature="0"
               id="path37379"
               style="fill:#cfa550;fill-opacity:1;fill-rule:nonzero;stroke:none"
               d="M 0,0 C 0,0.783 -0.635,1.418 -1.417,1.418 -2.2,1.418 -2.835,0.783 -2.835,0 c 0,-0.782 0.635,-1.417 1.418,-1.417 C -0.635,-1.417 0,-0.782 0,0" />
          </g>
          <path
             inkscape:connector-curvature="0"
             id="path37381"
             style="fill:#51abe4;fill-opacity:1;fill-rule:nonzero;stroke:none"
             d="M 84.482,275.348 H 51.901 v 85.015 h 32.581 z" />
          <g
             transform="translate(68.1263,360.3628)"
             id="g37383">
            <path
               inkscape:connector-curvature="0"
               id="path37385"
               style="fill:#191816;fill-opacity:1;fill-rule:nonzero;stroke:none"
               d="m 0,0 v -2.565 c 0,-0.673 -0.478,-1.24 -1.11,-1.381 v -0.069 h -5.955 c -0.78,0 -1.418,-0.637 -1.418,-1.417 v -3.276 h -5.762 V -81.822 H 13.777 V -15.343 -8.708 0 Z" />
          </g>
          <g
             transform="translate(71.0813,293.3443)"
             id="g37387">
            <path
               inkscape:connector-curvature="0"
               id="path37389"
               style="fill:#51addc;fill-opacity:1;fill-rule:nonzero;stroke:none"
               d="m 0,0 c 0,-1.761 -1.428,-3.188 -3.189,-3.188 -1.761,0 -3.189,1.427 -3.189,3.188 0,1.762 1.428,3.189 3.189,3.189 C -1.428,3.189 0,1.762 0,0 M -2.071,6.378 H -4.307 V 5.195 C -4.945,5.059 -5.539,4.806 -6.07,4.463 L -6.908,5.301 -8.49,3.72 -7.651,2.881 C -7.995,2.351 -8.247,1.757 -8.384,1.118 h -1.183 v -2.236 h 1.183 c 0.137,-0.638 0.389,-1.233 0.733,-1.763 l -0.839,-0.838 1.582,-1.582 0.838,0.839 c 0.531,-0.344 1.125,-0.596 1.763,-0.732 v -1.184 h 2.236 v 1.184 c 0.638,0.136 1.233,0.388 1.763,0.732 l 0.838,-0.839 1.582,1.582 -0.839,0.838 c 0.344,0.53 0.596,1.125 0.733,1.763 H 3.189 V 1.118 H 2.006 C 1.869,1.757 1.617,2.351 1.273,2.881 L 2.112,3.72 0.53,5.301 -0.308,4.463 c -0.53,0.343 -1.125,0.596 -1.763,0.732 z" />
          </g>
          <g
             transform="translate(69.8885,305.6568)"
             id="g37391">
            <path
               inkscape:connector-curvature="0"
               id="path37393"
               style="fill:#90c667;fill-opacity:1;fill-rule:nonzero;stroke:none"
               d="m 0,0 c 0.449,-1.085 -0.065,-2.328 -1.15,-2.777 -1.085,-0.45 -2.329,0.065 -2.778,1.15 -0.449,1.085 0.066,2.328 1.15,2.777 C -1.693,1.601 -0.449,1.085 0,0 M -2.902,3.4 -4.28,2.83 -3.978,2.101 C -4.336,1.854 -4.638,1.547 -4.877,1.2 l -0.73,0.303 -0.571,-1.378 0.731,-0.303 c -0.076,-0.414 -0.08,-0.844 -0.002,-1.272 l -0.729,-0.302 0.571,-1.377 0.729,0.302 c 0.247,-0.359 0.554,-0.66 0.9,-0.9 l -0.302,-0.729 1.378,-0.571 0.302,0.73 c 0.414,-0.076 0.845,-0.08 1.272,-0.001 l 0.303,-0.729 1.377,0.571 -0.302,0.728 c 0.358,0.248 0.659,0.554 0.899,0.901 l 0.73,-0.302 0.571,1.377 -0.73,0.303 c 0.076,0.414 0.08,0.845 10e-4,1.272 L 2.25,0.125 1.679,1.503 0.95,1.201 C 0.703,1.559 0.396,1.86 0.049,2.1 L 0.352,2.83 -1.025,3.4 -1.328,2.67 c -0.414,0.076 -0.845,0.08 -1.273,0.002 z" />
          </g>
        </g>
      </g>
      <text
         id="text37397"
         style="font-variant:normal;font-weight:bold;font-stretch:normal;font-size:3.17499995px;font-family:Lato;-inkscape-font-specification:Lato-Bold;writing-mode:lr-tb;fill:#51addc;fill-opacity:1;fill-rule:nonzero;stroke:none;stroke-width:0.35277775"
         transform="rotate(-90)"
         x="-144.69183"
         y="13.49426">
        <tspan
           id="tspan37395"
           sodipodi:role="line"
           y="13.49426"
           x="-144.69183 -142.155 -140.51353 -138.69743"
           style="stroke-width:0.35277775">OLED</tspan>
      </text>
      <g
         id="g37399"
         transform="matrix(0.35277777,0,0,-0.35277777,-11.583266,255.75978)">
        <g
           clip-path="url(#clipPath37405)"
           id="g37401">
          <g
             transform="translate(88.0906,389.4986)"
             id="g37407">
            <path
               inkscape:connector-curvature="0"
               id="path37409"
               style="fill:none;stroke:#231f20;stroke-width:0.25;stroke-linecap:butt;stroke-linejoin:miter;stroke-miterlimit:10;stroke-dasharray:none;stroke-opacity:1"
               d="m 0,0 h -39.798 c -0.936,0 -1.701,-0.766 -1.701,-1.701 v -164.013 c 0,-3.897 3.189,-7.086 7.086,-7.086 h 29.027 c 3.898,0 7.087,3.189 7.087,7.086 V -1.701 C 1.701,-0.766 0.936,0 0,0 Z" />
          </g>
          <g
             transform="translate(81.5428,371.4986)"
             id="g37411">
            <path
               inkscape:connector-curvature="0"
               id="path37413"
               style="fill:#ffffff;fill-opacity:1;fill-rule:nonzero;stroke:none"
               d="m 0,0 c 0,-1.409 -1.143,-2.552 -2.551,-2.552 -1.409,0 -2.552,1.143 -2.552,2.552 0,1.409 1.143,2.551 2.552,2.551 C -1.143,2.551 0,1.409 0,0" />
          </g>
          <g
             transform="translate(74.3426,371.4986)"
             id="g37415">
            <path
               inkscape:connector-curvature="0"
               id="path37417"
               style="fill:#ffffff;fill-opacity:1;fill-rule:nonzero;stroke:none"
               d="m 0,0 c 0,-1.409 -1.142,-2.552 -2.551,-2.552 -1.409,0 -2.552,1.143 -2.552,2.552 0,1.409 1.143,2.551 2.552,2.551 C -1.142,2.551 0,1.409 0,0" />
          </g>
          <g
             transform="translate(67.1424,371.4986)"
             id="g37419">
            <path
               inkscape:connector-curvature="0"
               id="path37421"
               style="fill:#ffffff;fill-opacity:1;fill-rule:nonzero;stroke:none"
               d="m 0,0 c 0,-1.409 -1.142,-2.552 -2.551,-2.552 -1.409,0 -2.551,1.143 -2.551,2.552 0,1.409 1.142,2.551 2.551,2.551 C -1.142,2.551 0,1.409 0,0" />
          </g>
          <g
             transform="translate(59.9427,371.4986)"
             id="g37423">
            <path
               inkscape:connector-curvature="0"
               id="path37425"
               style="fill:#ffffff;fill-opacity:1;fill-rule:nonzero;stroke:none"
               d="m 0,0 c 0,-1.409 -1.142,-2.552 -2.551,-2.552 -1.409,0 -2.552,1.143 -2.552,2.552 0,1.409 1.143,2.551 2.552,2.551 C -1.142,2.551 0,1.409 0,0" />
          </g>
          <g
             transform="translate(78.9915,370.0816)"
             id="g37427">
            <path
               inkscape:connector-curvature="0"
               id="path37429"
               style="fill:#cba855;fill-opacity:1;fill-rule:nonzero;stroke:none"
               d="m 0,0 c -0.783,0 -1.417,0.634 -1.417,1.417 0,0.782 0.634,1.417 1.417,1.417 0.783,0 1.417,-0.635 1.417,-1.417 C 1.417,0.634 0.783,0 0,0 m 0,3.685 c -1.252,0 -2.268,-1.016 -2.268,-2.268 0,-1.253 1.016,-2.268 2.268,-2.268 1.252,0 2.268,1.015 2.268,2.268 0,1.252 -1.016,2.268 -2.268,2.268" />
          </g>
          <path
             inkscape:connector-curvature="0"
             id="path37431"
             style="fill:#cba855;fill-opacity:1;fill-rule:nonzero;stroke:none"
             d="m 79.898,370.591 h -1.814 v 1.814 h 1.814 z" />
          <g
             transform="translate(71.7913,370.0816)"
             id="g37433">
            <path
               inkscape:connector-curvature="0"
               id="path37435"
               style="fill:#cba855;fill-opacity:1;fill-rule:nonzero;stroke:none"
               d="m 0,0 c -0.783,0 -1.417,0.634 -1.417,1.417 0,0.782 0.634,1.417 1.417,1.417 0.783,0 1.417,-0.635 1.417,-1.417 C 1.417,0.634 0.783,0 0,0 m 0,3.685 c -1.252,0 -2.268,-1.016 -2.268,-2.268 0,-1.253 1.016,-2.268 2.268,-2.268 1.252,0 2.268,1.015 2.268,2.268 0,1.252 -1.016,2.268 -2.268,2.268" />
          </g>
          <path
             inkscape:connector-curvature="0"
             id="path37437"
             style="fill:#cba855;fill-opacity:1;fill-rule:nonzero;stroke:none"
             d="m 72.699,370.591 h -1.814 v 1.814 h 1.814 z" />
          <g
             transform="translate(64.5916,370.0816)"
             id="g37439">
            <path
               inkscape:connector-curvature="0"
               id="path37441"
               style="fill:#cba855;fill-opacity:1;fill-rule:nonzero;stroke:none"
               d="m 0,0 c -0.783,0 -1.417,0.634 -1.417,1.417 0,0.782 0.634,1.417 1.417,1.417 0.783,0 1.417,-0.635 1.417,-1.417 C 1.417,0.634 0.783,0 0,0 m 0,3.685 c -1.252,0 -2.268,-1.016 -2.268,-2.268 0,-1.253 1.016,-2.268 2.268,-2.268 1.252,0 2.268,1.015 2.268,2.268 0,1.252 -1.016,2.268 -2.268,2.268" />
          </g>
          <path
             inkscape:connector-curvature="0"
             id="path37443"
             style="fill:#cba855;fill-opacity:1;fill-rule:nonzero;stroke:none"
             d="m 65.498,370.591 h -1.814 v 1.814 h 1.814 z" />
          <g
             transform="translate(57.3914,370.0816)"
             id="g37445">
            <path
               inkscape:connector-curvature="0"
               id="path37447"
               style="fill:#cba855;fill-opacity:1;fill-rule:nonzero;stroke:none"
               d="m 0,0 c -0.783,0 -1.417,0.634 -1.417,1.417 0,0.782 0.634,1.417 1.417,1.417 0.783,0 1.417,-0.635 1.417,-1.417 C 1.417,0.634 0.783,0 0,0 m 0,3.685 c -1.252,0 -2.268,-1.016 -2.268,-2.268 0,-1.253 1.016,-2.268 2.268,-2.268 1.252,0 2.268,1.015 2.268,2.268 0,1.252 -1.016,2.268 -2.268,2.268" />
          </g>
          <path
             inkscape:connector-curvature="0"
             id="path37449"
             style="fill:#cba855;fill-opacity:1;fill-rule:nonzero;stroke:none"
             d="m 58.299,370.591 h -1.814 v 1.814 h 1.814 z" />
          <g
             transform="translate(75.8167,374.3326)"
             id="g37451">
            <path
               inkscape:connector-curvature="0"
               id="path37453"
               style="fill:#ffffff;fill-opacity:1;fill-rule:nonzero;stroke:none"
               d="M 0,0 H 0.624 V 11.339 H 5.726 V 0 H 6.35 V 15.166 H 0 Z" />
          </g>
          <g
             transform="translate(68.6165,374.3326)"
             id="g37455">
            <path
               inkscape:connector-curvature="0"
               id="path37457"
               style="fill:#ffffff;fill-opacity:1;fill-rule:nonzero;stroke:none"
               d="M 0,0 H 0.624 V 11.339 H 5.726 V 0 H 6.35 V 15.166 H 0 Z" />
          </g>
          <g
             transform="translate(61.4168,374.3326)"
             id="g37459">
            <path
               inkscape:connector-curvature="0"
               id="path37461"
               style="fill:#d3d2d2;fill-opacity:1;fill-rule:nonzero;stroke:none"
               d="M 0,0 H 0.624 V 11.339 H 5.726 V 0 H 6.35 V 15.166 H 0 Z" />
          </g>
          <g
             transform="translate(54.2166,374.3326)"
             id="g37463">
            <path
               inkscape:connector-curvature="0"
               id="path37465"
               style="fill:#d3d2d2;fill-opacity:1;fill-rule:nonzero;stroke:none"
               d="M 0,0 H 0.624 V 11.339 H 5.726 V 0 H 6.35 V 15.166 H 0 Z" />
          </g>
        </g>
      </g>
      <text
         id="text37473"
         style="font-variant:normal;font-weight:600;font-stretch:normal;font-size:1.58749998px;font-family:'Lato Semibold';-inkscape-font-specification:Lato-Semibold;writing-mode:lr-tb;fill:#231f20;fill-opacity:1;fill-rule:nonzero;stroke:none;stroke-width:0.35277775"
         transform="rotate(90)"
         x="119.77877"
         y="-15.709141">
        <tspan
           id="tspan37467"
           sodipodi:role="line"
           y="-15.709141"
           x="119.77877 120.70746 121.47152 122.48117"
           style="stroke-width:0.35277775">RSVD</tspan>
        <tspan
           id="tspan37469"
           sodipodi:role="line"
           y="-13.169141"
           x="119.77877 120.70746 121.47152 122.48117"
           style="stroke-width:0.35277775">RSVD</tspan>
        <tspan
           id="tspan37471"
           sodipodi:role="line"
           y="-10.62914"
           x="119.77877 120.98527"
           style="stroke-width:0.35277775">DC</tspan>
      </text>
      <text
         id="text37477"
         style="font-variant:normal;font-weight:600;font-stretch:normal;font-size:1.50603461px;font-family:'Lato Semibold';-inkscape-font-specification:Lato-Semibold;writing-mode:lr-tb;fill:#231f20;fill-opacity:1;fill-rule:nonzero;stroke:none;stroke-width:0.33467439"
         transform="matrix(0,0.94868334,-1.0540925,0,0,0)"
         x="126.2579"
         y="-7.6741319">
        <tspan
           id="tspan37475"
           sodipodi:role="line"
           y="-7.6741319"
           x="126.2579 127.13893 127.88442 128.70522 129.32719"
           style="stroke-width:0.33467439">RST_N</tspan>
      </text>
      <g
         transform="matrix(0.35277777,0,0,-0.35277777,8.3565098,175.07926)"
         id="g37487">
        <path
           inkscape:connector-curvature="0"
           id="path37489"
           style="fill:#4899c4;fill-opacity:1;fill-rule:nonzero;stroke:none"
           d="m 0,0 v -1.505 h 0.771 c 0.331,0 0.581,0.06 0.75,0.18 0.169,0.12 0.253,0.311 0.253,0.573 0,0.271 -0.076,0.464 -0.23,0.579 C 1.391,-0.058 1.15,0 0.824,0 Z m 0.979,-3.701 c 0.18,0 0.332,0.022 0.454,0.065 0.122,0.043 0.22,0.101 0.294,0.173 0.072,0.071 0.126,0.155 0.158,0.252 0.032,0.096 0.048,0.197 0.048,0.306 0,0.113 -0.018,0.214 -0.054,0.304 -0.036,0.09 -0.092,0.166 -0.169,0.231 -0.077,0.063 -0.176,0.111 -0.297,0.145 -0.121,0.034 -0.267,0.05 -0.437,0.05 H 0 V -3.701 Z M 0.824,0.749 C 1.165,0.749 1.457,0.717 1.699,0.651 1.941,0.587 2.14,0.494 2.295,0.374 2.449,0.254 2.563,0.109 2.635,-0.062 2.707,-0.231 2.743,-0.424 2.743,-0.637 2.743,-0.76 2.726,-0.877 2.689,-0.988 2.653,-1.1 2.598,-1.204 2.521,-1.302 2.446,-1.398 2.35,-1.486 2.233,-1.566 2.117,-1.646 1.979,-1.713 1.818,-1.768 2.533,-1.929 2.891,-2.314 2.891,-2.927 2.891,-3.147 2.849,-3.352 2.765,-3.539 2.681,-3.726 2.559,-3.888 2.397,-4.023 2.236,-4.158 2.039,-4.265 1.804,-4.342 1.568,-4.418 1.3,-4.457 0.997,-4.457 h -1.966 v 5.206 z" />
      </g>
      <g
         transform="matrix(0.35277777,0,0,-0.35277777,10.029135,175.07926)"
         id="g37491">
        <path
           inkscape:connector-curvature="0"
           id="path37493"
           style="fill:#4899c4;fill-opacity:1;fill-rule:nonzero;stroke:none"
           d="m 0,0 v -1.505 h 0.771 c 0.331,0 0.581,0.06 0.75,0.18 0.169,0.12 0.253,0.311 0.253,0.573 0,0.271 -0.076,0.464 -0.23,0.579 C 1.391,-0.058 1.15,0 0.824,0 Z m 0.979,-3.701 c 0.18,0 0.332,0.022 0.454,0.065 0.122,0.043 0.22,0.101 0.294,0.173 0.072,0.071 0.126,0.155 0.158,0.252 0.032,0.096 0.048,0.197 0.048,0.306 0,0.113 -0.018,0.214 -0.054,0.304 -0.036,0.09 -0.092,0.166 -0.169,0.231 -0.077,0.063 -0.176,0.111 -0.297,0.145 -0.121,0.034 -0.267,0.05 -0.437,0.05 H 0 V -3.701 Z M 0.824,0.749 C 1.165,0.749 1.457,0.717 1.699,0.651 1.941,0.587 2.14,0.494 2.295,0.374 2.449,0.254 2.563,0.109 2.635,-0.062 2.707,-0.231 2.743,-0.424 2.743,-0.637 2.743,-0.76 2.726,-0.877 2.689,-0.988 2.653,-1.1 2.598,-1.204 2.521,-1.302 2.446,-1.398 2.35,-1.486 2.233,-1.566 2.117,-1.646 1.979,-1.713 1.818,-1.768 2.533,-1.929 2.891,-2.314 2.891,-2.927 2.891,-3.147 2.849,-3.352 2.765,-3.539 2.681,-3.726 2.559,-3.888 2.397,-4.023 2.236,-4.158 2.039,-4.265 1.804,-4.342 1.568,-4.418 1.3,-4.457 0.997,-4.457 h -1.966 v 5.206 z" />
      </g>
      <g
         transform="matrix(0.35277777,0,0,-0.35277777,11.574584,175.36624)"
         id="g37495">
        <path
           inkscape:connector-curvature="0"
           id="path37497"
           style="fill:#4899c4;fill-opacity:1;fill-rule:nonzero;stroke:none"
           d="m 0,0 c 0,-0.291 0.075,-0.512 0.226,-0.664 0.149,-0.152 0.362,-0.229 0.638,-0.229 0.144,0 0.273,0.023 0.385,0.069 0.113,0.045 0.208,0.107 0.285,0.186 0.076,0.079 0.135,0.173 0.174,0.282 0.04,0.108 0.06,0.224 0.06,0.349 0,0.141 -0.022,0.268 -0.065,0.379 C 1.66,0.484 1.599,0.578 1.52,0.655 1.44,0.731 1.346,0.791 1.237,0.831 1.128,0.872 1.008,0.893 0.879,0.893 0.744,0.893 0.623,0.87 0.515,0.826 0.407,0.781 0.314,0.72 0.238,0.641 0.161,0.562 0.103,0.467 0.062,0.358 0.021,0.249 0,0.13 0,0 m 1.181,-1.624 c 0.041,0.051 0.08,0.1 0.115,0.147 C 1.332,-1.428 1.367,-1.38 1.4,-1.332 1.28,-1.409 1.148,-1.467 1.005,-1.507 0.86,-1.546 0.709,-1.566 0.551,-1.566 c -0.18,0 -0.357,0.031 -0.53,0.093 -0.172,0.063 -0.326,0.158 -0.459,0.284 -0.135,0.126 -0.244,0.281 -0.327,0.467 -0.083,0.186 -0.124,0.404 -0.124,0.654 0,0.232 0.043,0.451 0.129,0.655 0.087,0.204 0.208,0.383 0.364,0.536 0.156,0.153 0.343,0.274 0.562,0.363 C 0.384,1.575 0.625,1.62 0.89,1.62 1.156,1.62 1.396,1.578 1.607,1.494 1.82,1.41 2.001,1.292 2.151,1.141 2.301,0.99 2.416,0.809 2.497,0.598 2.577,0.387 2.617,0.154 2.617,-0.098 2.617,-0.258 2.604,-0.41 2.576,-0.555 2.549,-0.698 2.51,-0.837 2.459,-0.971 2.408,-1.104 2.348,-1.233 2.275,-1.361 2.203,-1.488 2.123,-1.614 2.034,-1.739 L 0.843,-3.438 C 0.802,-3.496 0.74,-3.544 0.659,-3.584 0.577,-3.623 0.485,-3.644 0.382,-3.644 h -0.818 z" />
      </g>
      <g
         transform="matrix(0.35277777,0,0,-0.35277777,13.714675,175.73313)"
         id="g37499">
        <path
           inkscape:connector-curvature="0"
           id="path37501"
           style="fill:#4899c4;fill-opacity:1;fill-rule:nonzero;stroke:none"
           d="m 0,0 c 0,0.376 -0.028,0.688 -0.083,0.936 -0.056,0.247 -0.129,0.444 -0.222,0.59 -0.092,0.146 -0.198,0.248 -0.318,0.308 -0.12,0.059 -0.245,0.088 -0.375,0.088 -0.127,0 -0.25,-0.029 -0.368,-0.088 C -1.485,1.774 -1.591,1.672 -1.682,1.526 -1.772,1.38 -1.846,1.183 -1.899,0.936 -1.953,0.688 -1.98,0.376 -1.98,0 c 0,-0.377 0.027,-0.689 0.081,-0.937 0.053,-0.247 0.127,-0.444 0.217,-0.59 0.091,-0.146 0.197,-0.249 0.316,-0.308 0.118,-0.059 0.241,-0.088 0.368,-0.088 0.13,0 0.255,0.029 0.375,0.088 0.12,0.059 0.226,0.162 0.318,0.308 0.093,0.146 0.166,0.343 0.222,0.59 C -0.028,-0.689 0,-0.377 0,0 M 0.918,0 C 0.918,-0.454 0.869,-0.849 0.771,-1.183 0.675,-1.518 0.54,-1.795 0.368,-2.013 0.197,-2.231 -0.006,-2.394 -0.24,-2.501 c -0.234,-0.106 -0.487,-0.16 -0.758,-0.16 -0.271,0 -0.523,0.054 -0.754,0.16 -0.231,0.107 -0.433,0.27 -0.602,0.488 -0.171,0.218 -0.304,0.495 -0.4,0.83 -0.097,0.334 -0.144,0.729 -0.144,1.183 0,0.455 0.047,0.851 0.144,1.184 0.096,0.334 0.229,0.61 0.4,0.828 0.169,0.218 0.371,0.381 0.602,0.488 0.231,0.106 0.483,0.16 0.754,0.16 0.271,0 0.524,-0.054 0.758,-0.16 C -0.006,2.393 0.197,2.23 0.368,2.012 0.54,1.794 0.675,1.518 0.771,1.184 0.869,0.851 0.918,0.455 0.918,0" />
      </g>
      <g
         transform="matrix(0.35277777,0,0,-0.35277777,15.347648,176.35945)"
         id="g37503">
        <path
           inkscape:connector-curvature="0"
           id="path37505"
           style="fill:#4899c4;fill-opacity:1;fill-rule:nonzero;stroke:none"
           d="m 0,0 c 0.096,0 0.172,-0.027 0.229,-0.081 0.056,-0.054 0.084,-0.125 0.084,-0.214 v -0.533 h -3.571 v 0.296 c 0,0.059 0.013,0.122 0.038,0.188 0.025,0.067 0.066,0.125 0.12,0.179 l 1.58,1.584 c 0.133,0.134 0.251,0.263 0.356,0.385 0.103,0.122 0.191,0.243 0.261,0.363 0.069,0.12 0.123,0.242 0.16,0.366 0.037,0.123 0.056,0.253 0.056,0.39 0,0.125 -0.018,0.235 -0.054,0.33 C -0.777,3.348 -0.828,3.428 -0.895,3.492 -0.961,3.557 -1.04,3.605 -1.132,3.638 -1.225,3.67 -1.328,3.687 -1.443,3.687 -1.549,3.687 -1.646,3.672 -1.737,3.642 -1.827,3.611 -1.906,3.569 -1.977,3.516 -2.046,3.462 -2.104,3.398 -2.152,3.326 -2.201,3.255 -2.236,3.176 -2.261,3.089 -2.302,2.979 -2.354,2.905 -2.419,2.869 -2.484,2.833 -2.577,2.825 -2.7,2.844 l -0.468,0.083 c 0.036,0.25 0.105,0.469 0.209,0.657 0.104,0.188 0.232,0.346 0.387,0.472 0.155,0.126 0.333,0.22 0.533,0.284 0.2,0.063 0.416,0.096 0.645,0.096 0.241,0 0.46,-0.037 0.66,-0.107 0.199,-0.071 0.37,-0.171 0.511,-0.301 C -0.081,3.898 0.029,3.743 0.108,3.561 0.187,3.378 0.227,3.176 0.227,2.952 0.227,2.76 0.198,2.582 0.143,2.419 0.086,2.256 0.011,2.101 -0.085,1.951 -0.18,1.803 -0.29,1.658 -0.418,1.52 -0.545,1.38 -0.678,1.238 -0.817,1.095 L -1.99,-0.104 c 0.112,0.034 0.224,0.059 0.336,0.077 C -1.543,-0.009 -1.437,0 -1.336,0 Z" />
      </g>
      <g
         transform="matrix(0.35277777,0,0,-0.35277777,16.820776,176.35945)"
         id="g37507">
        <path
           inkscape:connector-curvature="0"
           id="path37509"
           style="fill:#4899c4;fill-opacity:1;fill-rule:nonzero;stroke:none"
           d="m 0,0 c 0.096,0 0.172,-0.027 0.229,-0.081 0.056,-0.054 0.084,-0.125 0.084,-0.214 v -0.533 h -3.571 v 0.296 c 0,0.059 0.013,0.122 0.038,0.188 0.025,0.067 0.066,0.125 0.12,0.179 l 1.58,1.584 c 0.133,0.134 0.251,0.263 0.356,0.385 0.103,0.122 0.191,0.243 0.261,0.363 0.069,0.12 0.123,0.242 0.16,0.366 0.037,0.123 0.056,0.253 0.056,0.39 0,0.125 -0.018,0.235 -0.054,0.33 C -0.777,3.348 -0.828,3.428 -0.895,3.492 -0.961,3.557 -1.04,3.605 -1.132,3.638 -1.225,3.67 -1.328,3.687 -1.443,3.687 -1.549,3.687 -1.646,3.672 -1.737,3.642 -1.827,3.611 -1.906,3.569 -1.977,3.516 -2.046,3.462 -2.104,3.398 -2.152,3.326 -2.201,3.255 -2.236,3.176 -2.261,3.089 -2.302,2.979 -2.354,2.905 -2.419,2.869 -2.484,2.833 -2.577,2.825 -2.7,2.844 l -0.468,0.083 c 0.036,0.25 0.105,0.469 0.209,0.657 0.104,0.188 0.232,0.346 0.387,0.472 0.155,0.126 0.333,0.22 0.533,0.284 0.2,0.063 0.416,0.096 0.645,0.096 0.241,0 0.46,-0.037 0.66,-0.107 0.199,-0.071 0.37,-0.171 0.511,-0.301 C -0.081,3.898 0.029,3.743 0.108,3.561 0.187,3.378 0.227,3.176 0.227,2.952 0.227,2.76 0.198,2.582 0.143,2.419 0.086,2.256 0.011,2.101 -0.085,1.951 -0.18,1.803 -0.29,1.658 -0.418,1.52 -0.545,1.38 -0.678,1.238 -0.817,1.095 L -1.99,-0.104 c 0.112,0.034 0.224,0.059 0.336,0.077 C -1.543,-0.009 -1.437,0 -1.336,0 Z" />
      </g>
      <g
         transform="matrix(0.35277777,0,0,-0.35277777,17.826759,176.53344)"
         id="g37511">
        <path
           inkscape:connector-curvature="0"
           id="path37513"
           style="fill:#4899c4;fill-opacity:1;fill-rule:nonzero;stroke:none"
           d="M 0,0 C 0,-0.8 -0.65,-1.451 -1.45,-1.451 H -14.019 -16.333 -28.9 c -0.8,0 -1.451,0.651 -1.451,1.451 v 4.535 c 0,0.8 0.651,1.451 1.451,1.451 h 12.567 2.314 12.569 C -0.65,5.986 0,5.335 0,4.535 Z M -1.45,6.486 H -14.019 -16.333 -28.9 c -1.076,0 -1.951,-0.875 -1.951,-1.951 V 0 c 0,-1.076 0.875,-1.951 1.951,-1.951 h 12.567 2.314 12.569 c 1.075,0 1.95,0.875 1.95,1.951 v 4.535 c 0,1.076 -0.875,1.951 -1.95,1.951" />
      </g>
    </g>
  </g>
</svg>
