<svg id="图层_1" data-name="图层 1" xmlns="http://www.w3.org/2000/svg" viewBox="0 0 539.58 426.2">
  <defs>
    <style>
      .cls-1, .cls-2 {
        fill: #fff;
      }

      .cls-1, .cls-3, .cls-4 {
        stroke: #231f20;
        stroke-miterlimit: 10;
      }

      .cls-3, .cls-4 {
        fill: none;
      }

      .cls-4 {
        stroke-width: 0.75px;
      }

      .cls-5 {
        font-size: 12px;
        fill: #2f98c1;
        font-family: Lato-Bold, Lato;
        font-weight: 700;
      }
    </style>
  </defs>
  <title>BB-v11.5-panels-07 - 25.40 x 33.02 (Outlines)</title>
  <rect id="_Rectangle_" data-name="&lt;Rectangle&gt;" class="cls-1" x="0.5" y="0.5" width="538.58" height="425.2" rx="17.01" ry="17.01"/>
  <g id="_Group_" data-name="&lt;Group&gt;">
    <g id="_Group_2" data-name="&lt;Group&gt;">
      <g id="_Group_3" data-name="&lt;Group&gt;">
        <circle id="_Path_" data-name="&lt;Path&gt;" class="cls-2" cx="522.07" cy="408.69" r="5.67"/>
        <circle id="_Path_2" data-name="&lt;Path&gt;" class="cls-3" cx="522.07" cy="408.69" r="5.67"/>
      </g>
      <g id="_Group_4" data-name="&lt;Group&gt;">
        <circle id="_Path_3" data-name="&lt;Path&gt;" class="cls-2" cx="17.51" cy="408.69" r="5.67"/>
        <circle id="_Path_4" data-name="&lt;Path&gt;" class="cls-3" cx="17.51" cy="408.69" r="5.67"/>
      </g>
    </g>
    <g id="_Group_5" data-name="&lt;Group&gt;">
      <g id="_Group_6" data-name="&lt;Group&gt;">
        <circle id="_Path_5" data-name="&lt;Path&gt;" class="cls-2" cx="522.07" cy="17.51" r="5.67"/>
        <circle id="_Path_6" data-name="&lt;Path&gt;" class="cls-3" cx="522.07" cy="17.51" r="5.67"/>
      </g>
      <g id="_Group_7" data-name="&lt;Group&gt;">
        <circle id="_Path_7" data-name="&lt;Path&gt;" class="cls-2" cx="17.51" cy="17.51" r="5.67"/>
        <circle id="_Path_8" data-name="&lt;Path&gt;" class="cls-3" cx="17.51" cy="17.51" r="5.67"/>
      </g>
    </g>
  </g>
  <rect id="_Path_9" data-name="&lt;Path&gt;" class="cls-2" x="431.79" y="267.1" width="72" height="93.6" rx="1.7" ry="1.7"/>
  <rect id="_Path_10" data-name="&lt;Path&gt;" class="cls-4" x="431.79" y="267.1" width="72" height="93.6" rx="1.7" ry="1.7"/>
  <rect id="_Path_11" data-name="&lt;Path&gt;" class="cls-2" x="431.79" y="166.3" width="72" height="93.6" rx="1.7" ry="1.7"/>
  <rect id="_Path_12" data-name="&lt;Path&gt;" class="cls-4" x="431.79" y="166.3" width="72" height="93.6" rx="1.7" ry="1.7"/>
  <rect id="_Path_13" data-name="&lt;Path&gt;" class="cls-2" x="431.79" y="65.5" width="72" height="93.6" rx="1.7" ry="1.7"/>
  <rect id="_Path_14" data-name="&lt;Path&gt;" class="cls-4" x="431.79" y="65.5" width="72" height="93.6" rx="1.7" ry="1.7"/>
  <rect id="_Path_15" data-name="&lt;Path&gt;" class="cls-2" x="352.59" y="267.1" width="72" height="93.6" rx="1.7" ry="1.7"/>
  <rect id="_Path_16" data-name="&lt;Path&gt;" class="cls-4" x="352.59" y="267.1" width="72" height="93.6" rx="1.7" ry="1.7"/>
  <rect id="_Path_17" data-name="&lt;Path&gt;" class="cls-2" x="352.59" y="166.3" width="72" height="93.6" rx="1.7" ry="1.7"/>
  <rect id="_Path_18" data-name="&lt;Path&gt;" class="cls-4" x="352.59" y="166.3" width="72" height="93.6" rx="1.7" ry="1.7"/>
  <rect id="_Path_19" data-name="&lt;Path&gt;" class="cls-2" x="352.59" y="65.5" width="72" height="93.6" rx="1.7" ry="1.7"/>
  <rect id="_Path_20" data-name="&lt;Path&gt;" class="cls-4" x="352.59" y="65.5" width="72" height="93.6" rx="1.7" ry="1.7"/>
  <rect id="_Path_21" data-name="&lt;Path&gt;" class="cls-2" x="273.39" y="267.1" width="72" height="93.6" rx="1.7" ry="1.7"/>
  <rect id="_Path_22" data-name="&lt;Path&gt;" class="cls-4" x="273.39" y="267.1" width="72" height="93.6" rx="1.7" ry="1.7"/>
  <rect id="_Path_23" data-name="&lt;Path&gt;" class="cls-2" x="273.39" y="166.3" width="72" height="93.6" rx="1.7" ry="1.7"/>
  <rect id="_Path_24" data-name="&lt;Path&gt;" class="cls-4" x="273.39" y="166.3" width="72" height="93.6" rx="1.7" ry="1.7"/>
  <rect id="_Path_25" data-name="&lt;Path&gt;" class="cls-2" x="273.39" y="65.5" width="72" height="93.6" rx="1.7" ry="1.7"/>
  <rect id="_Path_26" data-name="&lt;Path&gt;" class="cls-4" x="273.39" y="65.5" width="72" height="93.6" rx="1.7" ry="1.7"/>
  <rect id="_Path_27" data-name="&lt;Path&gt;" class="cls-2" x="194.19" y="267.1" width="72" height="93.6" rx="1.7" ry="1.7"/>
  <rect id="_Path_28" data-name="&lt;Path&gt;" class="cls-4" x="194.19" y="267.1" width="72" height="93.6" rx="1.7" ry="1.7"/>
  <rect id="_Path_29" data-name="&lt;Path&gt;" class="cls-2" x="194.19" y="166.3" width="72" height="93.6" rx="1.7" ry="1.7"/>
  <rect id="_Path_30" data-name="&lt;Path&gt;" class="cls-4" x="194.19" y="166.3" width="72" height="93.6" rx="1.7" ry="1.7"/>
  <rect id="_Path_31" data-name="&lt;Path&gt;" class="cls-2" x="194.19" y="65.5" width="72" height="93.6" rx="1.7" ry="1.7"/>
  <rect id="_Path_32" data-name="&lt;Path&gt;" class="cls-4" x="194.19" y="65.5" width="72" height="93.6" rx="1.7" ry="1.7"/>
  <rect id="_Path_33" data-name="&lt;Path&gt;" class="cls-2" x="114.99" y="267.1" width="72" height="93.6" rx="1.7" ry="1.7"/>
  <rect id="_Path_34" data-name="&lt;Path&gt;" class="cls-4" x="114.99" y="267.1" width="72" height="93.6" rx="1.7" ry="1.7"/>
  <rect id="_Path_35" data-name="&lt;Path&gt;" class="cls-2" x="114.99" y="166.3" width="72" height="93.6" rx="1.7" ry="1.7"/>
  <rect id="_Path_36" data-name="&lt;Path&gt;" class="cls-4" x="114.99" y="166.3" width="72" height="93.6" rx="1.7" ry="1.7"/>
  <rect id="_Path_37" data-name="&lt;Path&gt;" class="cls-2" x="114.99" y="65.5" width="72" height="93.6" rx="1.7" ry="1.7"/>
  <rect id="_Path_38" data-name="&lt;Path&gt;" class="cls-4" x="114.99" y="65.5" width="72" height="93.6" rx="1.7" ry="1.7"/>
  <rect id="_Path_39" data-name="&lt;Path&gt;" class="cls-2" x="35.79" y="267.1" width="72" height="93.6" rx="1.7" ry="1.7"/>
  <rect id="_Path_40" data-name="&lt;Path&gt;" class="cls-4" x="35.79" y="267.1" width="72" height="93.6" rx="1.7" ry="1.7"/>
  <rect id="_Path_41" data-name="&lt;Path&gt;" class="cls-2" x="35.79" y="166.3" width="72" height="93.6" rx="1.7" ry="1.7"/>
  <rect id="_Path_42" data-name="&lt;Path&gt;" class="cls-4" x="35.79" y="166.3" width="72" height="93.6" rx="1.7" ry="1.7"/>
  <rect id="_Path_43" data-name="&lt;Path&gt;" class="cls-2" x="35.79" y="65.5" width="72" height="93.6" rx="1.7" ry="1.7"/>
  <rect id="_Path_44" data-name="&lt;Path&gt;" class="cls-4" x="35.79" y="65.5" width="72" height="93.6" rx="1.7" ry="1.7"/>
  <text class="cls-5" transform="translate(206.24 410.94)">10x13 (25.4x33.02 mm)</text>
</svg>
