<svg xmlns="http://www.w3.org/2000/svg" viewBox="0 0 500 500">
  <defs>
    <style>
      .cls-1 {
        fill: #39f;
      }

      .cls-2 {
        fill: #fff;
      }
    </style>
  </defs>
  <title>mesheven-org</title>
  <g id="Layer_1" data-name="Layer 1">
    <rect class="cls-1" width="500" height="500"/>
    <g>
      <g>
        <path class="cls-2" d="M105.13,252h16.29V198.58H60.71v79.51l29.91,0h32.57V261.28H80v-48.6h21.81v25.39H87.9V252Zm23.74,26.09h7.2v0h38.67V158.77h-19V261.28H128.87v16.78ZM82.54,174H99.42l1.43,9.81,1.3,8.26H121l-.68-4.29-.63-4-3.4-24.69H65.66L62,183.76l-.61,4L60.71,192H79.58l1.3-8.26L82.54,174Zm46.33,81.6h18.86V163.42H128.87v92.13Z"/>
        <path class="cls-2" d="M261.16,163.3h45.17v14.57h-114V163.3h47.34v-4.52h20.73v4.52ZM193,278.09H289.9V255.8h16.17V241.48H292.32L306.07,233V223H193v12.58h85.35l-9.69,5.94H193V255.8h75.43l.22,5.52H193v16.77Zm0-61.58V184.12H305.68v32.39H193Zm21-20.35v7.89h70.51v-7.89Z"/>
        <path class="cls-2" d="M421.08,172.09v13.15h18.09v13.4H424.38l14.91,22.9h-2.08v55.87h-18.8V220.93l-6.48-10.07-6.72,8.86v58H386.42V221.6H382.7l16.13-23H382.51v-13.4h19.64V172.09H382.51V158.68h56.66v13.41Zm-97.19,10.59h14.93v95.41H323.89V182.68Zm39.46,0h14.92v95.41H363.35V182.68ZM342.8,278.09h16.29V177.93h19.18V163.41H359.09v-4.73H342.8v4.73H323.89v14.52H342.8V278.09Z"/>
      </g>
      <path class="cls-2" d="M108.94,346.38H99.49v-32l-7.88,32H78.44l-7.9-32v32H61.09V294.66H74.42L85.21,336.4,96,294.66h12.94v51.72Zm45.26,0H121.82V294.66h32.3V304h-23V314.3h22.93v9.3H131.12v13.48H154.2v9.3Zm47.41-9.3c0,3-.81,5.33-2.43,6.92s-3.93,2.38-7,2.38H165.29v-9.3h26.94V323.45H173.92a9.59,9.59,0,0,1-6.73-2.34c-1.72-1.56-2.57-3.88-2.57-7V304q0-4.47,2.53-6.89a9.38,9.38,0,0,1,6.77-2.41h25.45V304H173.92v10.19h18.31a9.32,9.32,0,0,1,6.81,2.53,9.1,9.1,0,0,1,2.57,6.77v13.63Zm50.3,9.3h-9.37v-23H223.12v23h-9.45V294.66h9.45v19.42h19.42V294.66h9.37v51.72Zm45.18,0H264.72V294.66H297V304H274V314.3H297v9.3H274v13.48h23.07v9.3Zm48.3-51.72-15.78,51.72h-9.23l-15.33-51.72h10.12l10.06,37.42,10.63-37.42Zm41.91,51.72H354.92V294.66h32.3V304h-23V314.3h22.91v9.3H364.23v13.48H387.3v9.3Zm51.87,0H432L408,311.7v34.68h-9.45V294.66h9.31l22,32.89V294.66h9.3v51.72Z"/>
    </g>
  </g>
</svg>
