<?xml version="1.0" encoding="UTF-8" standalone="no"?>
<!-- Created with Inkscape (http://www.inkscape.org/) -->

<svg
     xmlns:dc="http://purl.org/dc/elements/1.1/"
     xmlns:cc="http://creativecommons.org/ns#"
     xmlns:rdf="http://www.w3.org/1999/02/22-rdf-syntax-ns#"
     xmlns:svg="http://www.w3.org/2000/svg"
     xmlns="http://www.w3.org/2000/svg"
     xmlns:sodipodi="http://sodipodi.sourceforge.net/DTD/sodipodi-0.dtd"
     xmlns:inkscape="http://www.inkscape.org/namespaces/inkscape"
     version="1.1"
     id="svg18473"
     xml:space="preserve"
     width="226.772"
     height="151.18134"
     viewBox="0 0 226.772 151.18134"
     sodipodi:docname="Jumpers-v9.svg"
     inkscape:version="0.92.3 (2405546, 2018-03-11)"><metadata
         id="metadata18479"><rdf:RDF><cc:Work
                 rdf:about=""><dc:format>image/svg+xml</dc:format><dc:type
                     rdf:resource="http://purl.org/dc/dcmitype/StillImage" /><dc:title></dc:title></cc:Work></rdf:RDF></metadata><defs
         id="defs18477"><clipPath
             clipPathUnits="userSpaceOnUse"
             id="clipPath18489"><path
                 d="M 0,113.386 H 170.079 V 0 H 0 Z"
                 id="path18487"
                 inkscape:connector-curvature="0" /></clipPath></defs><sodipodi:namedview
         pagecolor="#ffffff"
         bordercolor="#666666"
         borderopacity="1"
         objecttolerance="10"
         gridtolerance="10"
         guidetolerance="10"
         inkscape:pageopacity="0"
         inkscape:pageshadow="2"
         inkscape:window-width="640"
         inkscape:window-height="480"
         id="namedview18475"
         showgrid="false"
         inkscape:zoom="5.6753037"
         inkscape:cx="113.386"
         inkscape:cy="75.590668"
         inkscape:current-layer="g18481" /><g
         id="g18481"
         inkscape:groupmode="layer"
         inkscape:label="Jumpers-v9"
         transform="matrix(1.3333333,0,0,-1.3333333,0,151.18133)"><g
             id="g18483"
             transform="translate(0,0.72000002)"><g
                 id="g18485"
                 clip-path="url(#clipPath18489)"><g
                     id="g18491"
                     transform="translate(109.9332,71.7338)"><path
                         d="M 0,0 H 0.119 C 0.351,0 0.581,0.001 0.812,-0.008 1.074,-0.018 1.338,-0.043 1.595,-0.096 1.874,-0.154 2.147,-0.245 2.401,-0.375 2.662,-0.508 2.903,-0.682 3.11,-0.889 3.317,-1.096 3.491,-1.337 3.625,-1.599 3.755,-1.853 3.846,-2.125 3.903,-2.404 3.957,-2.662 3.981,-2.925 3.992,-3.188 4.001,-3.418 4,-3.649 4,-3.88 V -40 c 0,-0.231 0.001,-0.461 -0.008,-0.692 -0.011,-0.263 -0.035,-0.526 -0.089,-0.783 -0.057,-0.279 -0.148,-0.553 -0.278,-0.807 -0.134,-0.26 -0.308,-0.502 -0.515,-0.709 -0.207,-0.207 -0.448,-0.381 -0.709,-0.514 -0.254,-0.13 -0.527,-0.221 -0.806,-0.279 C 1.338,-43.836 1.074,-43.862 0.812,-43.873 0.581,-43.881 0.351,-43.88 0.119,-43.88 H 0 c -0.231,0 -0.462,-10e-4 -0.692,0.007 -0.263,0.011 -0.526,0.037 -0.784,0.089 -0.279,0.058 -0.552,0.149 -0.806,0.279 -0.261,0.133 -0.502,0.307 -0.709,0.514 -0.207,0.207 -0.381,0.449 -0.515,0.709 -0.129,0.254 -0.221,0.528 -0.278,0.807 -0.054,0.257 -0.078,0.52 -0.089,0.783 -0.009,0.231 -0.008,0.461 -0.008,0.692 v 36.12 c 0,0.231 -0.001,0.462 0.008,0.692 0.011,0.263 0.035,0.526 0.089,0.784 0.057,0.279 0.149,0.551 0.278,0.805 0.134,0.262 0.308,0.503 0.515,0.71 0.207,0.207 0.448,0.381 0.709,0.514 0.254,0.13 0.527,0.221 0.806,0.279 0.258,0.053 0.521,0.078 0.784,0.088 C -0.462,0.001 -0.231,0 0,0"
                         style="fill:#ffffff;fill-opacity:1;fill-rule:nonzero;stroke:none"
                         id="path18493"
                         inkscape:connector-curvature="0" /></g><g
                     id="g18495"
                     transform="translate(109.9332,71.7338)"><path
                         d="M 0,0 H 0.119 C 0.351,0 0.581,0.001 0.812,-0.008 1.074,-0.018 1.338,-0.043 1.595,-0.096 1.874,-0.154 2.147,-0.245 2.401,-0.375 2.662,-0.508 2.903,-0.682 3.11,-0.889 3.317,-1.096 3.491,-1.337 3.625,-1.599 3.755,-1.853 3.846,-2.125 3.903,-2.404 3.957,-2.662 3.981,-2.925 3.992,-3.188 4.001,-3.418 4,-3.649 4,-3.88 V -40 c 0,-0.231 0.001,-0.461 -0.008,-0.692 -0.011,-0.263 -0.035,-0.526 -0.089,-0.783 -0.057,-0.279 -0.148,-0.553 -0.278,-0.807 -0.134,-0.26 -0.308,-0.502 -0.515,-0.709 -0.207,-0.207 -0.448,-0.381 -0.709,-0.514 -0.254,-0.13 -0.527,-0.221 -0.806,-0.279 C 1.338,-43.836 1.074,-43.862 0.812,-43.873 0.581,-43.881 0.351,-43.88 0.119,-43.88 H 0 c -0.231,0 -0.462,-10e-4 -0.692,0.007 -0.263,0.011 -0.526,0.037 -0.784,0.089 -0.279,0.058 -0.552,0.149 -0.806,0.279 -0.261,0.133 -0.502,0.307 -0.709,0.514 -0.207,0.207 -0.381,0.449 -0.515,0.709 -0.129,0.254 -0.221,0.528 -0.278,0.807 -0.054,0.257 -0.078,0.52 -0.089,0.783 -0.009,0.231 -0.008,0.461 -0.008,0.692 v 36.12 c 0,0.231 -0.001,0.462 0.008,0.692 0.011,0.263 0.035,0.526 0.089,0.784 0.057,0.279 0.149,0.551 0.278,0.805 0.134,0.262 0.308,0.503 0.515,0.71 0.207,0.207 0.448,0.381 0.709,0.514 0.254,0.13 0.527,0.221 0.806,0.279 0.258,0.053 0.521,0.078 0.784,0.088 C -0.462,0.001 -0.231,0 0,0 Z"
                         style="fill:none;stroke:#000000;stroke-width:0.1;stroke-linecap:round;stroke-linejoin:round;stroke-miterlimit:4;stroke-dasharray:none;stroke-opacity:1"
                         id="path18497"
                         inkscape:connector-curvature="0" /></g><g
                     id="g18499"
                     transform="translate(109.9332,28.619)"><path
                         d="m 0,0 c -2.242,0 -3.115,0.873 -3.115,3.115 v 36.119 c 0,2.242 0.873,3.115 3.115,3.115 h 0.119 c 2.242,0 3.115,-0.873 3.115,-3.115 V 3.115 C 3.234,0.873 2.361,0 0.119,0 Z"
                         style="fill:#dab866;fill-opacity:1;fill-rule:nonzero;stroke:none"
                         id="path18501"
                         inkscape:connector-curvature="0" /></g><g
                     id="g18503"
                     transform="translate(135.5329,31.7343)"><path
                         d="m 0,0 v 50.52 c 0,0.23 0.002,0.461 -0.008,0.691 -0.011,0.264 -0.035,0.526 -0.089,0.784 -0.057,0.279 -0.148,0.552 -0.278,0.806 -0.133,0.261 -0.307,0.502 -0.514,0.71 -0.208,0.207 -0.448,0.381 -0.71,0.514 -0.254,0.129 -0.526,0.221 -0.805,0.278 -0.258,0.053 -0.521,0.078 -0.784,0.089 -0.231,0.009 -0.461,0.008 -0.692,0.008 h -7.32 c -0.231,0 -0.461,0.001 -0.692,-0.008 -0.263,-0.011 -0.526,-0.036 -0.784,-0.089 -0.278,-0.057 -0.552,-0.149 -0.805,-0.278 -0.261,-0.133 -0.502,-0.307 -0.709,-0.514 -0.208,-0.208 -0.382,-0.449 -0.515,-0.71 -0.13,-0.254 -0.221,-0.527 -0.278,-0.806 -0.054,-0.258 -0.079,-0.52 -0.089,-0.784 -0.01,-0.23 -0.008,-0.461 -0.008,-0.691 V 0 c 0,-0.231 -0.002,-0.462 0.008,-0.692 0.01,-0.263 0.035,-0.527 0.089,-0.784 0.057,-0.279 0.148,-0.552 0.278,-0.806 0.133,-0.261 0.307,-0.502 0.515,-0.709 0.207,-0.207 0.448,-0.381 0.709,-0.515 0.253,-0.13 0.527,-0.221 0.805,-0.278 0.258,-0.053 0.521,-0.078 0.784,-0.089 0.231,-0.009 0.461,-0.008 0.692,-0.008 h 7.32 c 0.231,0 0.461,-0.001 0.692,0.008 0.263,0.011 0.526,0.036 0.784,0.089 0.279,0.057 0.551,0.148 0.805,0.278 0.262,0.134 0.502,0.308 0.71,0.515 0.207,0.207 0.381,0.448 0.514,0.709 0.13,0.254 0.221,0.527 0.278,0.806 0.054,0.257 0.078,0.521 0.089,0.784 C 0.002,-0.462 0,-0.231 0,0"
                         style="fill:#ffffff;fill-opacity:1;fill-rule:nonzero;stroke:none"
                         id="path18505"
                         inkscape:connector-curvature="0" /></g><g
                     id="g18507"
                     transform="translate(135.5329,31.7343)"><path
                         d="m 0,0 v 50.52 c 0,0.23 0.002,0.461 -0.008,0.691 -0.011,0.264 -0.035,0.526 -0.089,0.784 -0.057,0.279 -0.148,0.552 -0.278,0.806 -0.133,0.261 -0.307,0.502 -0.514,0.71 -0.208,0.207 -0.448,0.381 -0.71,0.514 -0.254,0.129 -0.526,0.221 -0.805,0.278 -0.258,0.053 -0.521,0.078 -0.784,0.089 -0.231,0.009 -0.461,0.008 -0.692,0.008 h -7.32 c -0.231,0 -0.461,0.001 -0.692,-0.008 -0.263,-0.011 -0.526,-0.036 -0.784,-0.089 -0.278,-0.057 -0.552,-0.149 -0.805,-0.278 -0.261,-0.133 -0.502,-0.307 -0.709,-0.514 -0.208,-0.208 -0.382,-0.449 -0.515,-0.71 -0.13,-0.254 -0.221,-0.527 -0.278,-0.806 -0.054,-0.258 -0.079,-0.52 -0.089,-0.784 -0.01,-0.23 -0.008,-0.461 -0.008,-0.691 V 0 c 0,-0.231 -0.002,-0.462 0.008,-0.692 0.01,-0.263 0.035,-0.527 0.089,-0.784 0.057,-0.279 0.148,-0.552 0.278,-0.806 0.133,-0.261 0.307,-0.502 0.515,-0.709 0.207,-0.207 0.448,-0.381 0.709,-0.515 0.253,-0.13 0.527,-0.221 0.805,-0.278 0.258,-0.053 0.521,-0.078 0.784,-0.089 0.231,-0.009 0.461,-0.008 0.692,-0.008 h 7.32 c 0.231,0 0.461,-0.001 0.692,0.008 0.263,0.011 0.526,0.036 0.784,0.089 0.279,0.057 0.551,0.148 0.805,0.278 0.262,0.134 0.502,0.308 0.71,0.515 0.207,0.207 0.381,0.448 0.514,0.709 0.13,0.254 0.221,0.527 0.278,0.806 0.054,0.257 0.078,0.521 0.089,0.784 C 0.002,-0.462 0,-0.231 0,0 Z"
                         style="fill:none;stroke:#000000;stroke-width:0.1;stroke-linecap:round;stroke-linejoin:round;stroke-miterlimit:4;stroke-dasharray:none;stroke-opacity:1"
                         id="path18509"
                         inkscape:connector-curvature="0" /></g><path
                     d="m 121.218,71.819 h 13.549 v 6.35 h -13.549 z"
                     style="fill:#a64a98;fill-opacity:1;fill-rule:nonzero;stroke:none"
                     id="path18511"
                     inkscape:connector-curvature="0" /><g
                     id="g18513"
                     transform="translate(131.653,85.3686)"><path
                         d="m 0,0 h -7.32 c -2.242,0 -3.115,-0.873 -3.115,-3.115 V -6.35 H 3.114 v 3.235 C 3.114,-0.873 2.241,0 0,0"
                         style="fill:#c28abb;fill-opacity:1;fill-rule:nonzero;stroke:none"
                         id="path18515"
                         inkscape:connector-curvature="0" /></g><g
                     id="g18517"
                     transform="translate(95.653,27.8534)"><path
                         d="m 0,0 h -14.52 c -0.231,0 -0.461,-0.001 -0.692,0.008 -0.263,0.011 -0.526,0.036 -0.784,0.089 -0.279,0.057 -0.552,0.148 -0.806,0.278 -0.261,0.134 -0.502,0.308 -0.709,0.515 -0.207,0.207 -0.381,0.448 -0.514,0.709 -0.13,0.254 -0.221,0.527 -0.279,0.806 -0.053,0.257 -0.078,0.521 -0.089,0.783 -0.009,0.231 -0.007,0.461 -0.007,0.693 V 32.8 c 0,0.231 -0.002,0.462 0.007,0.692 0.011,0.263 0.036,0.526 0.089,0.784 0.058,0.279 0.149,0.552 0.279,0.806 0.133,0.261 0.307,0.502 0.514,0.71 0.207,0.207 0.448,0.38 0.709,0.514 0.254,0.129 0.527,0.22 0.806,0.278 0.258,0.054 0.521,0.078 0.784,0.089 0.231,0.009 0.461,0.008 0.692,0.008 H 0 c 0.23,0 0.461,0.001 0.691,-0.008 0.264,-0.011 0.527,-0.035 0.785,-0.089 0.279,-0.058 0.551,-0.149 0.805,-0.278 0.261,-0.134 0.502,-0.307 0.71,-0.514 0.207,-0.208 0.381,-0.449 0.514,-0.71 0.13,-0.254 0.221,-0.527 0.278,-0.806 C 3.837,34.018 3.861,33.755 3.872,33.492 3.881,33.262 3.88,33.031 3.88,32.8 V 3.881 C 3.88,3.649 3.881,3.419 3.872,3.188 3.861,2.926 3.837,2.662 3.783,2.405 3.726,2.126 3.635,1.853 3.505,1.599 3.372,1.338 3.198,1.097 2.991,0.89 2.783,0.683 2.542,0.509 2.281,0.375 2.027,0.245 1.755,0.154 1.476,0.097 1.218,0.044 0.955,0.019 0.691,0.008 0.461,-0.001 0.23,0 0,0"
                         style="fill:#ffffff;fill-opacity:1;fill-rule:nonzero;stroke:none"
                         id="path18519"
                         inkscape:connector-curvature="0" /></g><g
                     id="g18521"
                     transform="translate(95.653,27.8534)"><path
                         d="m 0,0 h -14.52 c -0.231,0 -0.461,-0.001 -0.692,0.008 -0.263,0.011 -0.526,0.036 -0.784,0.089 -0.279,0.057 -0.552,0.148 -0.806,0.278 -0.261,0.134 -0.502,0.308 -0.709,0.515 -0.207,0.207 -0.381,0.448 -0.514,0.709 -0.13,0.254 -0.221,0.527 -0.279,0.806 -0.053,0.257 -0.078,0.521 -0.089,0.783 -0.009,0.231 -0.007,0.461 -0.007,0.693 V 32.8 c 0,0.231 -0.002,0.462 0.007,0.692 0.011,0.263 0.036,0.526 0.089,0.784 0.058,0.279 0.149,0.552 0.279,0.806 0.133,0.261 0.307,0.502 0.514,0.71 0.207,0.207 0.448,0.38 0.709,0.514 0.254,0.129 0.527,0.22 0.806,0.278 0.258,0.054 0.521,0.078 0.784,0.089 0.231,0.009 0.461,0.008 0.692,0.008 H 0 c 0.23,0 0.461,0.001 0.691,-0.008 0.264,-0.011 0.527,-0.035 0.785,-0.089 0.279,-0.058 0.551,-0.149 0.805,-0.278 0.261,-0.134 0.502,-0.307 0.71,-0.514 0.207,-0.208 0.381,-0.449 0.514,-0.71 0.13,-0.254 0.221,-0.527 0.278,-0.806 C 3.837,34.018 3.861,33.755 3.872,33.492 3.881,33.262 3.88,33.031 3.88,32.8 V 3.881 C 3.88,3.649 3.881,3.419 3.872,3.188 3.861,2.926 3.837,2.662 3.783,2.405 3.726,2.126 3.635,1.853 3.505,1.599 3.372,1.338 3.198,1.097 2.991,0.89 2.783,0.683 2.542,0.509 2.281,0.375 2.027,0.245 1.755,0.154 1.476,0.097 1.218,0.044 0.955,0.019 0.691,0.008 0.461,-0.001 0.23,0 0,0 Z"
                         style="fill:none;stroke:#000000;stroke-width:0.1;stroke-linecap:round;stroke-linejoin:round;stroke-miterlimit:4;stroke-dasharray:none;stroke-opacity:1"
                         id="path18523"
                         inkscape:connector-curvature="0" /></g><path
                     d="m 78.018,43.019 h 20.749 v 6.35 H 78.018 Z"
                     style="fill:#e60013;fill-opacity:1;fill-rule:nonzero;stroke:none"
                     id="path18525"
                     inkscape:connector-curvature="0" /><path
                     d="m 78.018,50.219 h 20.749 v 6.35 H 78.018 Z"
                     style="fill:#abcd04;fill-opacity:1;fill-rule:nonzero;stroke:none"
                     id="path18527"
                     inkscape:connector-curvature="0" /><g
                     id="g18529"
                     transform="translate(95.653,63.7685)"><path
                         d="m 0,0 h -14.52 c -2.242,0 -3.115,-0.873 -3.115,-3.115 V -6.35 H 3.114 v 3.235 C 3.114,-0.873 2.241,0 0,0"
                         style="fill:#32a6df;fill-opacity:1;fill-rule:nonzero;stroke:none"
                         id="path18531"
                         inkscape:connector-curvature="0" /></g><g
                     id="g18533"
                     transform="translate(70.7326,31.7343)"><path
                         d="m 0,0 v 28.919 c 0,0.231 0.001,0.462 -0.008,0.692 -0.011,0.264 -0.035,0.526 -0.088,0.784 -0.058,0.279 -0.149,0.552 -0.279,0.806 -0.133,0.261 -0.307,0.502 -0.514,0.71 -0.207,0.207 -0.448,0.381 -0.71,0.514 -0.254,0.129 -0.526,0.221 -0.805,0.278 -0.258,0.054 -0.521,0.078 -0.784,0.089 -0.23,0.009 -0.461,0.008 -0.692,0.008 h -7.32 c -0.231,0 -0.462,0.001 -0.692,-0.008 -0.263,-0.011 -0.526,-0.035 -0.783,-0.089 -0.28,-0.057 -0.553,-0.149 -0.806,-0.278 -0.262,-0.133 -0.502,-0.307 -0.71,-0.514 -0.207,-0.208 -0.381,-0.449 -0.514,-0.71 -0.13,-0.254 -0.221,-0.527 -0.279,-0.806 -0.053,-0.258 -0.078,-0.52 -0.088,-0.784 -0.01,-0.23 -0.008,-0.461 -0.008,-0.692 L -15.08,0 c 0,-0.231 -0.002,-0.462 0.008,-0.692 0.01,-0.263 0.035,-0.527 0.088,-0.784 0.058,-0.279 0.149,-0.552 0.279,-0.806 0.133,-0.261 0.307,-0.502 0.514,-0.709 0.208,-0.207 0.448,-0.381 0.71,-0.515 0.253,-0.13 0.526,-0.221 0.806,-0.278 0.257,-0.053 0.52,-0.078 0.783,-0.089 0.23,-0.009 0.461,-0.008 0.692,-0.008 h 7.32 c 0.231,0 0.462,-0.001 0.692,0.008 0.263,0.011 0.526,0.036 0.784,0.089 0.279,0.057 0.551,0.148 0.805,0.278 0.262,0.134 0.503,0.308 0.71,0.515 0.207,0.207 0.381,0.448 0.514,0.709 0.13,0.254 0.221,0.527 0.279,0.806 0.053,0.257 0.077,0.521 0.088,0.784 C 0.001,-0.462 0,-0.231 0,0"
                         style="fill:#ffffff;fill-opacity:1;fill-rule:nonzero;stroke:none"
                         id="path18535"
                         inkscape:connector-curvature="0" /></g><g
                     id="g18537"
                     transform="translate(70.7326,31.7343)"><path
                         d="m 0,0 v 28.919 c 0,0.231 0.001,0.462 -0.008,0.692 -0.011,0.264 -0.035,0.526 -0.088,0.784 -0.058,0.279 -0.149,0.552 -0.279,0.806 -0.133,0.261 -0.307,0.502 -0.514,0.71 -0.207,0.207 -0.448,0.381 -0.71,0.514 -0.254,0.129 -0.526,0.221 -0.805,0.278 -0.258,0.054 -0.521,0.078 -0.784,0.089 -0.23,0.009 -0.461,0.008 -0.692,0.008 h -7.32 c -0.231,0 -0.462,0.001 -0.692,-0.008 -0.263,-0.011 -0.526,-0.035 -0.783,-0.089 -0.28,-0.057 -0.553,-0.149 -0.806,-0.278 -0.262,-0.133 -0.502,-0.307 -0.71,-0.514 -0.207,-0.208 -0.381,-0.449 -0.514,-0.71 -0.13,-0.254 -0.221,-0.527 -0.279,-0.806 -0.053,-0.258 -0.078,-0.52 -0.088,-0.784 -0.01,-0.23 -0.008,-0.461 -0.008,-0.692 L -15.08,0 c 0,-0.231 -0.002,-0.462 0.008,-0.692 0.01,-0.263 0.035,-0.527 0.088,-0.784 0.058,-0.279 0.149,-0.552 0.279,-0.806 0.133,-0.261 0.307,-0.502 0.514,-0.709 0.208,-0.207 0.448,-0.381 0.71,-0.515 0.253,-0.13 0.526,-0.221 0.806,-0.278 0.257,-0.053 0.52,-0.078 0.783,-0.089 0.23,-0.009 0.461,-0.008 0.692,-0.008 h 7.32 c 0.231,0 0.462,-0.001 0.692,0.008 0.263,0.011 0.526,0.036 0.784,0.089 0.279,0.057 0.551,0.148 0.805,0.278 0.262,0.134 0.503,0.308 0.71,0.515 0.207,0.207 0.381,0.448 0.514,0.709 0.13,0.254 0.221,0.527 0.279,0.806 0.053,0.257 0.077,0.521 0.088,0.784 C 0.001,-0.462 0,-0.231 0,0 Z"
                         style="fill:none;stroke:#000000;stroke-width:0.1;stroke-linecap:round;stroke-linejoin:round;stroke-miterlimit:4;stroke-dasharray:none;stroke-opacity:1"
                         id="path18539"
                         inkscape:connector-curvature="0" /></g><path
                     d="m 56.418,50.219 h 13.549 v 6.35 H 56.418 Z"
                     style="fill:#abcd04;fill-opacity:1;fill-rule:nonzero;stroke:none"
                     id="path18541"
                     inkscape:connector-curvature="0" /><g
                     id="g18543"
                     transform="translate(66.8522,63.7685)"><path
                         d="m 0,0 h -7.32 c -2.241,0 -3.114,-0.873 -3.114,-3.115 V -6.349 H 3.115 v 3.234 C 3.115,-0.873 2.242,0 0,0"
                         style="fill:#32a6df;fill-opacity:1;fill-rule:nonzero;stroke:none"
                         id="path18545"
                         inkscape:connector-curvature="0" /></g><g
                     id="g18547"
                     transform="translate(37.9328,27.8534)"><path
                         d="M 0,0 C -0.231,0 -0.461,-0.001 -0.692,0.008 -0.956,0.019 -1.218,0.044 -1.476,0.097 -1.755,0.154 -2.028,0.245 -2.282,0.375 -2.543,0.509 -2.784,0.683 -2.991,0.89 -3.199,1.097 -3.373,1.338 -3.506,1.599 -3.635,1.853 -3.727,2.126 -3.784,2.405 -3.837,2.662 -3.862,2.926 -3.873,3.188 -3.882,3.419 -3.88,3.649 -3.88,3.881 v 21.72 c 0,0.23 -0.002,0.461 0.007,0.691 0.011,0.264 0.036,0.526 0.089,0.784 0.057,0.279 0.149,0.552 0.278,0.806 0.133,0.261 0.307,0.502 0.515,0.709 0.207,0.208 0.448,0.382 0.709,0.515 0.254,0.129 0.527,0.221 0.806,0.278 0.258,0.053 0.52,0.078 0.784,0.089 0.231,0.009 0.461,0.007 0.692,0.007 h 7.319 c 0.231,0 0.462,0.002 0.693,-0.007 0.262,-0.011 0.526,-0.036 0.783,-0.089 0.279,-0.057 0.552,-0.149 0.806,-0.278 0.261,-0.133 0.502,-0.307 0.71,-0.515 0.207,-0.207 0.381,-0.448 0.514,-0.709 0.13,-0.254 0.221,-0.527 0.279,-0.806 0.053,-0.258 0.077,-0.52 0.088,-0.784 0.009,-0.23 0.008,-0.461 0.008,-0.691 V 3.881 C 11.2,3.649 11.201,3.419 11.192,3.188 11.181,2.926 11.157,2.662 11.104,2.405 11.046,2.126 10.955,1.853 10.825,1.599 10.692,1.338 10.518,1.097 10.311,0.89 10.103,0.683 9.862,0.509 9.601,0.375 9.347,0.245 9.074,0.154 8.795,0.097 8.538,0.044 8.274,0.019 8.012,0.008 7.781,-0.001 7.55,0 7.319,0 Z"
                         style="fill:#ffffff;fill-opacity:1;fill-rule:nonzero;stroke:none"
                         id="path18549"
                         inkscape:connector-curvature="0" /></g><g
                     id="g18551"
                     transform="translate(37.9328,27.8534)"><path
                         d="M 0,0 C -0.231,0 -0.461,-0.001 -0.692,0.008 -0.956,0.019 -1.218,0.044 -1.476,0.097 -1.755,0.154 -2.028,0.245 -2.282,0.375 -2.543,0.509 -2.784,0.683 -2.991,0.89 -3.199,1.097 -3.373,1.338 -3.506,1.599 -3.635,1.853 -3.727,2.126 -3.784,2.405 -3.837,2.662 -3.862,2.926 -3.873,3.188 -3.882,3.419 -3.88,3.649 -3.88,3.881 v 21.72 c 0,0.23 -0.002,0.461 0.007,0.691 0.011,0.264 0.036,0.526 0.089,0.784 0.057,0.279 0.149,0.552 0.278,0.806 0.133,0.261 0.307,0.502 0.515,0.709 0.207,0.208 0.448,0.382 0.709,0.515 0.254,0.129 0.527,0.221 0.806,0.278 0.258,0.053 0.52,0.078 0.784,0.089 0.231,0.009 0.461,0.007 0.692,0.007 h 7.319 c 0.231,0 0.462,0.002 0.693,-0.007 0.262,-0.011 0.526,-0.036 0.783,-0.089 0.279,-0.057 0.552,-0.149 0.806,-0.278 0.261,-0.133 0.502,-0.307 0.71,-0.515 0.207,-0.207 0.381,-0.448 0.514,-0.709 0.13,-0.254 0.221,-0.527 0.279,-0.806 0.053,-0.258 0.077,-0.52 0.088,-0.784 0.009,-0.23 0.008,-0.461 0.008,-0.691 V 3.881 C 11.2,3.649 11.201,3.419 11.192,3.188 11.181,2.926 11.157,2.662 11.104,2.405 11.046,2.126 10.955,1.853 10.825,1.599 10.692,1.338 10.518,1.097 10.311,0.89 10.103,0.683 9.862,0.509 9.601,0.375 9.347,0.245 9.074,0.154 8.795,0.097 8.538,0.044 8.274,0.019 8.012,0.008 7.781,-0.001 7.55,0 7.319,0 Z"
                         style="fill:none;stroke:#000000;stroke-width:0.1;stroke-linecap:round;stroke-linejoin:round;stroke-miterlimit:4;stroke-dasharray:none;stroke-opacity:1"
                         id="path18553"
                         inkscape:connector-curvature="0" /></g><path
                     d="m 34.818,43.019 h 13.549 v 6.35 H 34.818 Z"
                     style="fill:#e60013;fill-opacity:1;fill-rule:nonzero;stroke:none"
                     id="path18555"
                     inkscape:connector-curvature="0" /><g
                     id="g18557"
                     transform="translate(45.2526,56.5683)"><path
                         d="m 0,0 h -7.32 c -2.242,0 -3.115,-0.873 -3.115,-3.114 V -6.35 h 13.55 v 3.236 C 3.115,-0.873 2.242,0 0,0"
                         style="fill:#abcd04;fill-opacity:1;fill-rule:nonzero;stroke:none"
                         id="path18559"
                         inkscape:connector-curvature="0" /></g><g
                     id="g18561"
                     transform="translate(121.2184,70.9687)"><path
                         d="m 0,0 v -39.234 c 0,-2.243 0.873,-3.116 3.114,-3.116 H 6.35 V 0 Z"
                         style="fill:#c28abb;fill-opacity:1;fill-rule:nonzero;stroke:none"
                         id="path18563"
                         inkscape:connector-curvature="0" /></g><g
                     id="g18565"
                     transform="translate(128.4176,70.9687)"><path
                         d="m 0,0 v -42.35 h 3.235 c 2.242,0 3.115,0.873 3.115,3.116 V 0 Z"
                         style="fill:#a64a98;fill-opacity:1;fill-rule:nonzero;stroke:none"
                         id="path18567"
                         inkscape:connector-curvature="0" /></g><g
                     id="g18569"
                     transform="translate(78.0182,42.1689)"><path
                         d="m 0,0 v -10.435 c 0,-2.242 0.873,-3.115 3.115,-3.115 H 6.35 V 0 Z"
                         style="fill:#32a6df;fill-opacity:1;fill-rule:nonzero;stroke:none"
                         id="path18571"
                         inkscape:connector-curvature="0" /></g><g
                     id="g18573"
                     transform="translate(92.4176,42.1689)"><path
                         d="m 0,0 v -13.55 h 3.235 c 2.242,0 3.115,0.873 3.115,3.115 V 0 Z"
                         style="fill:#e60013;fill-opacity:1;fill-rule:nonzero;stroke:none"
                         id="path18575"
                         inkscape:connector-curvature="0" /></g><path
                     d="m 85.218,28.619 h 6.35 v 13.55 h -6.35 z"
                     style="fill:#abcd04;fill-opacity:1;fill-rule:nonzero;stroke:none"
                     id="path18577"
                     inkscape:connector-curvature="0" /><g
                     id="g18579"
                     transform="translate(56.4181,49.369)"><path
                         d="m 0,0 v -17.635 c 0,-2.242 0.873,-3.115 3.114,-3.115 H 6.349 V 0 Z"
                         style="fill:#32a6df;fill-opacity:1;fill-rule:nonzero;stroke:none"
                         id="path18581"
                         inkscape:connector-curvature="0" /></g><g
                     id="g18583"
                     transform="translate(63.6178,49.369)"><path
                         d="m 0,0 v -20.75 h 3.234 c 2.242,0 3.115,0.873 3.115,3.115 V 0 Z"
                         style="fill:#abcd04;fill-opacity:1;fill-rule:nonzero;stroke:none"
                         id="path18585"
                         inkscape:connector-curvature="0" /></g><g
                     id="g18587"
                     transform="translate(34.818,42.1689)"><path
                         d="m 0,0 v -10.435 c 0,-2.242 0.873,-3.115 3.115,-3.115 H 6.349 V 0 Z"
                         style="fill:#abcd04;fill-opacity:1;fill-rule:nonzero;stroke:none"
                         id="path18589"
                         inkscape:connector-curvature="0" /></g><g
                     id="g18591"
                     transform="translate(42.0177,42.1689)"><path
                         d="m 0,0 v -13.55 h 3.235 c 2.242,0 3.115,0.873 3.115,3.115 V 0 Z"
                         style="fill:#e60013;fill-opacity:1;fill-rule:nonzero;stroke:none"
                         id="path18593"
                         inkscape:connector-curvature="0" /></g></g></g></g></svg>