<?xml version="1.0" encoding="UTF-8" standalone="no"?>
<!-- Created with Inkscape (http://www.inkscape.org/) -->

<svg
   xmlns:dc="http://purl.org/dc/elements/1.1/"
   xmlns:cc="http://creativecommons.org/ns#"
   xmlns:rdf="http://www.w3.org/1999/02/22-rdf-syntax-ns#"
   xmlns:svg="http://www.w3.org/2000/svg"
   xmlns="http://www.w3.org/2000/svg"
   xmlns:sodipodi="http://sodipodi.sourceforge.net/DTD/sodipodi-0.dtd"
   xmlns:inkscape="http://www.inkscape.org/namespaces/inkscape"
   version="1.1"
   id="svg21551"
   xml:space="preserve"
   width="61.138664"
   height="112.42287"
   viewBox="0 0 61.138665 112.42288"
   sodipodi:docname="BB-Sensor-MP.svg"
   inkscape:version="0.92.3 (2405546, 2018-03-11)"><metadata
     id="metadata21557"><rdf:RDF><cc:Work
         rdf:about=""><dc:format>image/svg+xml</dc:format><dc:type
           rdf:resource="http://purl.org/dc/dcmitype/StillImage" /><dc:title /></cc:Work></rdf:RDF></metadata><defs
     id="defs21555"><clipPath
       clipPathUnits="userSpaceOnUse"
       id="clipPath21569"><path
         d="M 0,141.732 H 141.732 V 0 H 0 Z"
         id="path21567"
         inkscape:connector-curvature="0" /></clipPath><clipPath
       clipPathUnits="userSpaceOnUse"
       id="clipPath21585"><path
         d="m 50.967,112.975 c -0.94,0 -1.701,-0.761 -1.701,-1.701 v 0 -26.551 c 0,-1.658 0.488,-2.836 1.66,-4.008 v 0 c 1.294,-1.294 2.586,-2.587 3.879,-3.879 v 0 c 1.173,-1.173 1.661,-2.351 1.661,-4.01 v 0 -27.077 c 0,-0.829 0.244,-1.419 0.831,-2.004 v 0 c 0.409,-0.411 0.82,-0.821 1.23,-1.232 v 0 c 0.587,-0.586 0.831,-1.174 0.831,-2.004 v 0 -5.204 c 0,-0.239 -10e-4,-0.479 0.002,-0.718 v 0 c 0.005,-0.262 0.015,-0.524 0.036,-0.786 v 0 c 0.027,-0.348 0.073,-0.695 0.146,-1.037 v 0 c 0.038,-0.177 0.082,-0.352 0.135,-0.524 v 0 c 0.071,-0.232 0.158,-0.46 0.259,-0.68 v 0 c 0.149,-0.318 0.331,-0.621 0.546,-0.898 v 0 c 0.127,-0.165 0.265,-0.32 0.415,-0.464 v 0 c 0.149,-0.145 0.309,-0.278 0.478,-0.401 v 0 c 0.257,-0.186 0.533,-0.346 0.823,-0.478 v 0 c 0.222,-0.1 0.452,-0.185 0.687,-0.255 v 0 c 0.172,-0.052 0.345,-0.095 0.522,-0.131 v 0 c 0.206,-0.042 0.414,-0.076 0.624,-0.102 v 0 c 0.268,-0.031 0.537,-0.05 0.807,-0.061 v 0 c 0.132,-0.005 0.264,-0.008 0.397,-0.01 v 0 c 0.223,-0.003 0.447,-0.002 0.67,-0.002 v 0 h 4.961 4.961 c 0.223,0 0.447,-10e-4 0.67,0.002 v 0 c 0.133,0.002 0.265,0.005 0.397,0.01 v 0 c 0.27,0.011 0.539,0.03 0.808,0.061 v 0 c 0.209,0.026 0.417,0.06 0.624,0.102 v 0 c 0.176,0.037 0.35,0.079 0.522,0.131 v 0 c 0.234,0.07 0.464,0.155 0.686,0.255 v 0 c 0.479,0.218 0.923,0.512 1.301,0.879 v 0 c 0.15,0.144 0.288,0.299 0.415,0.464 v 0 c 0.215,0.277 0.398,0.58 0.546,0.898 v 0 c 0.102,0.22 0.188,0.448 0.259,0.68 v 0 c 0.053,0.172 0.097,0.347 0.135,0.524 v 0 c 0.073,0.342 0.12,0.689 0.147,1.037 v 0 c 0.02,0.262 0.03,0.524 0.035,0.786 v 0 c 0.003,0.239 0.003,0.479 0.003,0.718 v 0 5.204 c 0,0.83 0.244,1.418 0.83,2.004 v 0 c 0.41,0.411 0.821,0.821 1.231,1.232 v 0 c 0.586,0.585 0.83,1.175 0.83,2.004 v 0 27.077 c 0,1.659 0.488,2.837 1.66,4.01 v 0 c 1.294,1.292 2.586,2.585 3.88,3.879 v 0 c 1.172,1.172 1.66,2.35 1.66,4.008 v 0 26.551 c 0,0.94 -0.761,1.701 -1.701,1.701 v 0 z"
         id="path21583"
         inkscape:connector-curvature="0" /></clipPath><clipPath
       clipPathUnits="userSpaceOnUse"
       id="clipPath21609"><path
         d="M 0,141.732 H 141.732 V 0 H 0 Z"
         id="path21607"
         inkscape:connector-curvature="0" /></clipPath><radialGradient
       fx="0"
       fy="0"
       cx="0"
       cy="0"
       r="1"
       gradientUnits="userSpaceOnUse"
       gradientTransform="matrix(2.4094489,0,0,-2.4094489,74.466126,73.389687)"
       spreadMethod="pad"
       id="radialGradient21661"><stop
         style="stop-opacity:1;stop-color:#b2b1b1"
         offset="0"
         id="stop21651" /><stop
         style="stop-opacity:1;stop-color:#e9e9e9"
         offset="0.38812175"
         id="stop21653" /><stop
         style="stop-opacity:1;stop-color:#e9e9e9"
         offset="0.45"
         id="stop21655" /><stop
         style="stop-opacity:1;stop-color:#e9e9e9"
         offset="0.52562897"
         id="stop21657" /><stop
         style="stop-opacity:1;stop-color:#a7a5a6"
         offset="1"
         id="stop21659" /></radialGradient><clipPath
       clipPathUnits="userSpaceOnUse"
       id="clipPath21671"><path
         d="M 0,141.732 H 141.732 V 0 H 0 Z"
         id="path21669"
         inkscape:connector-curvature="0" /></clipPath><radialGradient
       fx="0"
       fy="0"
       cx="0"
       cy="0"
       r="1"
       gradientUnits="userSpaceOnUse"
       gradientTransform="matrix(2.4094489,0,0,-2.4094489,67.266121,73.389687)"
       spreadMethod="pad"
       id="radialGradient21707"><stop
         style="stop-opacity:1;stop-color:#b2b1b1"
         offset="0"
         id="stop21697" /><stop
         style="stop-opacity:1;stop-color:#e9e9e9"
         offset="0.38812175"
         id="stop21699" /><stop
         style="stop-opacity:1;stop-color:#e9e9e9"
         offset="0.45"
         id="stop21701" /><stop
         style="stop-opacity:1;stop-color:#e9e9e9"
         offset="0.52562897"
         id="stop21703" /><stop
         style="stop-opacity:1;stop-color:#a7a5a6"
         offset="1"
         id="stop21705" /></radialGradient><clipPath
       clipPathUnits="userSpaceOnUse"
       id="clipPath21717"><path
         d="M 0,141.732 H 141.732 V 0 H 0 Z"
         id="path21715"
         inkscape:connector-curvature="0" /></clipPath><radialGradient
       fx="0"
       fy="0"
       cx="0"
       cy="0"
       r="1"
       gradientUnits="userSpaceOnUse"
       gradientTransform="matrix(2.4094489,0,0,-2.4094489,74.466126,80.589691)"
       spreadMethod="pad"
       id="radialGradient21753"><stop
         style="stop-opacity:1;stop-color:#b2b1b1"
         offset="0"
         id="stop21743" /><stop
         style="stop-opacity:1;stop-color:#e9e9e9"
         offset="0.38812175"
         id="stop21745" /><stop
         style="stop-opacity:1;stop-color:#e9e9e9"
         offset="0.45"
         id="stop21747" /><stop
         style="stop-opacity:1;stop-color:#e9e9e9"
         offset="0.52562897"
         id="stop21749" /><stop
         style="stop-opacity:1;stop-color:#a7a5a6"
         offset="1"
         id="stop21751" /></radialGradient><clipPath
       clipPathUnits="userSpaceOnUse"
       id="clipPath21763"><path
         d="M 0,141.732 H 141.732 V 0 H 0 Z"
         id="path21761"
         inkscape:connector-curvature="0" /></clipPath><radialGradient
       fx="0"
       fy="0"
       cx="0"
       cy="0"
       r="1"
       gradientUnits="userSpaceOnUse"
       gradientTransform="matrix(2.4094489,0,0,-2.4094489,67.266121,80.589691)"
       spreadMethod="pad"
       id="radialGradient21799"><stop
         style="stop-opacity:1;stop-color:#b2b1b1"
         offset="0"
         id="stop21789" /><stop
         style="stop-opacity:1;stop-color:#e9e9e9"
         offset="0.38812175"
         id="stop21791" /><stop
         style="stop-opacity:1;stop-color:#e9e9e9"
         offset="0.45"
         id="stop21793" /><stop
         style="stop-opacity:1;stop-color:#e9e9e9"
         offset="0.52562897"
         id="stop21795" /><stop
         style="stop-opacity:1;stop-color:#a7a5a6"
         offset="1"
         id="stop21797" /></radialGradient><clipPath
       clipPathUnits="userSpaceOnUse"
       id="clipPath21809"><path
         d="M 0,141.732 H 141.732 V 0 H 0 Z"
         id="path21807"
         inkscape:connector-curvature="0" /></clipPath><radialGradient
       fx="0"
       fy="0"
       cx="0"
       cy="0"
       r="1"
       gradientUnits="userSpaceOnUse"
       gradientTransform="matrix(2.4094489,0,0,-2.4094489,74.466126,87.789688)"
       spreadMethod="pad"
       id="radialGradient21845"><stop
         style="stop-opacity:1;stop-color:#b2b1b1"
         offset="0"
         id="stop21835" /><stop
         style="stop-opacity:1;stop-color:#e9e9e9"
         offset="0.38812175"
         id="stop21837" /><stop
         style="stop-opacity:1;stop-color:#e9e9e9"
         offset="0.45"
         id="stop21839" /><stop
         style="stop-opacity:1;stop-color:#e9e9e9"
         offset="0.52562897"
         id="stop21841" /><stop
         style="stop-opacity:1;stop-color:#a7a5a6"
         offset="1"
         id="stop21843" /></radialGradient><clipPath
       clipPathUnits="userSpaceOnUse"
       id="clipPath21855"><path
         d="M 0,141.732 H 141.732 V 0 H 0 Z"
         id="path21853"
         inkscape:connector-curvature="0" /></clipPath><radialGradient
       fx="0"
       fy="0"
       cx="0"
       cy="0"
       r="1"
       gradientUnits="userSpaceOnUse"
       gradientTransform="matrix(2.4094489,0,0,-2.4094489,67.266121,87.789688)"
       spreadMethod="pad"
       id="radialGradient21891"><stop
         style="stop-opacity:1;stop-color:#b2b1b1"
         offset="0"
         id="stop21881" /><stop
         style="stop-opacity:1;stop-color:#e9e9e9"
         offset="0.38812175"
         id="stop21883" /><stop
         style="stop-opacity:1;stop-color:#e9e9e9"
         offset="0.45"
         id="stop21885" /><stop
         style="stop-opacity:1;stop-color:#e9e9e9"
         offset="0.52562897"
         id="stop21887" /><stop
         style="stop-opacity:1;stop-color:#a7a5a6"
         offset="1"
         id="stop21889" /></radialGradient><clipPath
       clipPathUnits="userSpaceOnUse"
       id="clipPath21901"><path
         d="M 0,141.732 H 141.732 V 0 H 0 Z"
         id="path21899"
         inkscape:connector-curvature="0" /></clipPath><radialGradient
       fx="0"
       fy="0"
       cx="0"
       cy="0"
       r="1"
       gradientUnits="userSpaceOnUse"
       gradientTransform="matrix(2.4094489,0,0,-2.4094489,74.466126,102.18969)"
       spreadMethod="pad"
       id="radialGradient21937"><stop
         style="stop-opacity:1;stop-color:#b2b1b1"
         offset="0"
         id="stop21927" /><stop
         style="stop-opacity:1;stop-color:#e9e9e9"
         offset="0.38812175"
         id="stop21929" /><stop
         style="stop-opacity:1;stop-color:#e9e9e9"
         offset="0.45"
         id="stop21931" /><stop
         style="stop-opacity:1;stop-color:#e9e9e9"
         offset="0.52562897"
         id="stop21933" /><stop
         style="stop-opacity:1;stop-color:#a7a5a6"
         offset="1"
         id="stop21935" /></radialGradient><clipPath
       clipPathUnits="userSpaceOnUse"
       id="clipPath21947"><path
         d="M 0,141.732 H 141.732 V 0 H 0 Z"
         id="path21945"
         inkscape:connector-curvature="0" /></clipPath><radialGradient
       fx="0"
       fy="0"
       cx="0"
       cy="0"
       r="1"
       gradientUnits="userSpaceOnUse"
       gradientTransform="matrix(2.4094489,0,0,-2.4094489,67.266121,102.18969)"
       spreadMethod="pad"
       id="radialGradient21983"><stop
         style="stop-opacity:1;stop-color:#b2b1b1"
         offset="0"
         id="stop21973" /><stop
         style="stop-opacity:1;stop-color:#e9e9e9"
         offset="0.38812175"
         id="stop21975" /><stop
         style="stop-opacity:1;stop-color:#e9e9e9"
         offset="0.45"
         id="stop21977" /><stop
         style="stop-opacity:1;stop-color:#e9e9e9"
         offset="0.52562897"
         id="stop21979" /><stop
         style="stop-opacity:1;stop-color:#a7a5a6"
         offset="1"
         id="stop21981" /></radialGradient><clipPath
       clipPathUnits="userSpaceOnUse"
       id="clipPath21993"><path
         d="M 0,141.732 H 141.732 V 0 H 0 Z"
         id="path21991"
         inkscape:connector-curvature="0" /></clipPath><radialGradient
       fx="0"
       fy="0"
       cx="0"
       cy="0"
       r="1"
       gradientUnits="userSpaceOnUse"
       gradientTransform="matrix(2.8346457,0,0,-2.8346457,74.466126,94.974846)"
       spreadMethod="pad"
       id="radialGradient22029"><stop
         style="stop-opacity:1;stop-color:#b2b1b1"
         offset="0"
         id="stop22019" /><stop
         style="stop-opacity:1;stop-color:#e9e9e9"
         offset="0.38812175"
         id="stop22021" /><stop
         style="stop-opacity:1;stop-color:#e9e9e9"
         offset="0.45"
         id="stop22023" /><stop
         style="stop-opacity:1;stop-color:#e9e9e9"
         offset="0.52562897"
         id="stop22025" /><stop
         style="stop-opacity:1;stop-color:#a7a5a6"
         offset="1"
         id="stop22027" /></radialGradient><clipPath
       clipPathUnits="userSpaceOnUse"
       id="clipPath22039"><path
         d="M 0,141.732 H 141.732 V 0 H 0 Z"
         id="path22037"
         inkscape:connector-curvature="0" /></clipPath><radialGradient
       fx="0"
       fy="0"
       cx="0"
       cy="0"
       r="1"
       gradientUnits="userSpaceOnUse"
       gradientTransform="matrix(1.5466939,0,0,-1.5466939,67.266121,95.099846)"
       spreadMethod="pad"
       id="radialGradient22087"><stop
         style="stop-opacity:1;stop-color:#ffffff"
         offset="0"
         id="stop22081" /><stop
         style="stop-opacity:1;stop-color:#ffffff"
         offset="0.2207104"
         id="stop22083" /><stop
         style="stop-opacity:1;stop-color:#eec978"
         offset="1"
         id="stop22085" /></radialGradient><clipPath
       clipPathUnits="userSpaceOnUse"
       id="clipPath22097"><path
         d="M 0,141.732 H 141.732 V 0 H 0 Z"
         id="path22095"
         inkscape:connector-curvature="0" /></clipPath><radialGradient
       fx="0"
       fy="0"
       cx="0"
       cy="0"
       r="1"
       gradientUnits="userSpaceOnUse"
       gradientTransform="matrix(1.5466939,0,0,-1.5466939,74.466126,95.099846)"
       spreadMethod="pad"
       id="radialGradient22137"><stop
         style="stop-opacity:1;stop-color:#ffffff"
         offset="0"
         id="stop22131" /><stop
         style="stop-opacity:1;stop-color:#ffffff"
         offset="0.2207104"
         id="stop22133" /><stop
         style="stop-opacity:1;stop-color:#eec978"
         offset="1"
         id="stop22135" /></radialGradient><clipPath
       clipPathUnits="userSpaceOnUse"
       id="clipPath22147"><path
         d="M 0,141.732 H 141.732 V 0 H 0 Z"
         id="path22145"
         inkscape:connector-curvature="0" /></clipPath><clipPath
       clipPathUnits="userSpaceOnUse"
       id="clipPath22343"><path
         d="m 56.892,55.305 h 27.95 v 11.292 h -27.95 z"
         id="path22341"
         inkscape:connector-curvature="0" /></clipPath><clipPath
       clipPathUnits="userSpaceOnUse"
       id="clipPath22425"><path
         d="M 0,141.732 H 141.732 V 0 H 0 Z"
         id="path22423"
         inkscape:connector-curvature="0" /></clipPath></defs><sodipodi:namedview
     pagecolor="#ffffff"
     bordercolor="#666666"
     borderopacity="1"
     objecttolerance="10"
     gridtolerance="10"
     guidetolerance="10"
     inkscape:pageopacity="0"
     inkscape:pageshadow="2"
     inkscape:window-width="640"
     inkscape:window-height="480"
     id="namedview21553"
     showgrid="false"
     inkscape:zoom="2.8284271"
     inkscape:cx="19.591391"
     inkscape:cy="132.98064"
     inkscape:current-layer="g21559"
     fit-margin-top="0"
     fit-margin-left="0"
     fit-margin-right="0"
     fit-margin-bottom="0"
     showborder="false" /><g
     id="g21559"
     inkscape:groupmode="layer"
     inkscape:label="BB-Sensor-MP"
     transform="matrix(1.3333333,0,0,-1.3333333,-63.919065,150.69946)"><g
       id="g21571"
       transform="translate(84.4359,43.7446)"><path
         d="m 0,0 c -0.41,-0.41 -0.821,-0.821 -1.231,-1.231 -0.586,-0.586 -0.83,-1.175 -0.83,-2.004 v -5.204 c 0,-0.24 0,-0.479 -0.003,-0.719 -0.005,-0.262 -0.014,-0.524 -0.035,-0.785 -0.027,-0.349 -0.074,-0.696 -0.147,-1.038 -0.038,-0.177 -0.082,-0.352 -0.135,-0.524 -0.071,-0.232 -0.157,-0.459 -0.259,-0.679 -0.148,-0.319 -0.331,-0.621 -0.545,-0.899 -0.128,-0.164 -0.266,-0.32 -0.416,-0.464 -0.377,-0.366 -0.822,-0.661 -1.301,-0.878 -0.222,-0.101 -0.452,-0.186 -0.686,-0.256 -0.172,-0.051 -0.346,-0.094 -0.522,-0.13 -0.207,-0.043 -0.415,-0.076 -0.624,-0.102 -0.268,-0.032 -0.538,-0.051 -0.808,-0.061 -0.132,-0.005 -0.264,-0.009 -0.396,-0.011 -0.224,-0.003 -0.448,-0.002 -0.671,-0.002 h -4.961 -4.96 c -0.224,0 -0.448,-10e-4 -0.671,0.002 -0.132,0.002 -0.265,0.006 -0.397,0.011 -0.27,0.01 -0.539,0.029 -0.808,0.061 -0.209,0.026 -0.417,0.059 -0.624,0.102 -0.175,0.036 -0.35,0.079 -0.521,0.13 -0.235,0.07 -0.465,0.155 -0.687,0.256 -0.289,0.131 -0.566,0.291 -0.823,0.478 -0.169,0.122 -0.329,0.255 -0.478,0.4 -0.149,0.144 -0.288,0.3 -0.415,0.464 -0.215,0.278 -0.397,0.58 -0.545,0.899 -0.103,0.22 -0.188,0.447 -0.259,0.679 -0.053,0.172 -0.098,0.347 -0.136,0.524 -0.073,0.342 -0.119,0.689 -0.147,1.038 -0.02,0.261 -0.03,0.523 -0.034,0.785 -0.004,0.24 -0.004,0.479 -0.004,0.719 v 5.204 c 0,0.829 -0.244,1.418 -0.83,2.004 -0.41,0.41 -0.82,0.821 -1.231,1.231 -0.586,0.586 -0.83,1.175 -0.83,2.004 v 27.078 c 0,1.658 -0.488,2.836 -1.66,4.009 -1.293,1.293 -2.586,2.586 -3.879,3.879 -1.173,1.172 -1.661,2.35 -1.661,4.009 v 26.55 c 0,0.94 0.762,1.701 1.701,1.701 H 6.329 c 0.94,0 1.701,-0.761 1.701,-1.701 V 40.979 C 8.03,39.32 7.542,38.142 6.37,36.97 5.077,35.677 3.784,34.384 2.491,33.091 1.318,31.918 0.83,30.74 0.83,29.082 V 2.004 C 0.83,1.175 0.586,0.586 0,0"
         style="fill:#e9e9e9;fill-opacity:1;fill-rule:nonzero;stroke:none"
         id="path21573"
         inkscape:connector-curvature="0" /></g><g
       id="boardOutline"
       transform="translate(84.4359,43.7446)"
       inkscape:label="boardOutline"><title
         id="title24897">Board Outline</title><path
         d="m 0,0 c -0.41,-0.41 -0.821,-0.821 -1.231,-1.231 -0.586,-0.586 -0.83,-1.175 -0.83,-2.004 v -5.204 c 0,-0.24 0,-0.479 -0.003,-0.719 -0.005,-0.262 -0.014,-0.524 -0.035,-0.785 -0.027,-0.349 -0.074,-0.696 -0.147,-1.038 -0.038,-0.177 -0.082,-0.352 -0.135,-0.524 -0.071,-0.232 -0.157,-0.459 -0.259,-0.679 -0.148,-0.319 -0.331,-0.621 -0.545,-0.899 -0.128,-0.164 -0.266,-0.32 -0.416,-0.464 -0.377,-0.366 -0.822,-0.661 -1.301,-0.878 -0.222,-0.101 -0.452,-0.186 -0.686,-0.256 -0.172,-0.051 -0.346,-0.094 -0.522,-0.13 -0.207,-0.043 -0.415,-0.076 -0.624,-0.102 -0.268,-0.032 -0.538,-0.051 -0.808,-0.061 -0.132,-0.005 -0.264,-0.009 -0.396,-0.011 -0.224,-0.003 -0.448,-0.002 -0.671,-0.002 h -4.961 -4.96 c -0.224,0 -0.448,-10e-4 -0.671,0.002 -0.132,0.002 -0.265,0.006 -0.397,0.011 -0.27,0.01 -0.539,0.029 -0.808,0.061 -0.209,0.026 -0.417,0.059 -0.624,0.102 -0.175,0.036 -0.35,0.079 -0.521,0.13 -0.235,0.07 -0.465,0.155 -0.687,0.256 -0.289,0.131 -0.566,0.291 -0.823,0.478 -0.169,0.122 -0.329,0.255 -0.478,0.4 -0.149,0.144 -0.288,0.3 -0.415,0.464 -0.215,0.278 -0.397,0.58 -0.545,0.899 -0.103,0.22 -0.188,0.447 -0.259,0.679 -0.053,0.172 -0.098,0.347 -0.136,0.524 -0.073,0.342 -0.119,0.689 -0.147,1.038 -0.02,0.261 -0.03,0.523 -0.034,0.785 -0.004,0.24 -0.004,0.479 -0.004,0.719 v 5.204 c 0,0.829 -0.244,1.418 -0.83,2.004 -0.41,0.41 -0.82,0.821 -1.231,1.231 -0.586,0.586 -0.83,1.175 -0.83,2.004 v 27.078 c 0,1.658 -0.488,2.836 -1.66,4.009 -1.293,1.293 -2.586,2.586 -3.879,3.879 -1.173,1.172 -1.661,2.35 -1.661,4.009 v 26.55 c 0,0.94 0.762,1.701 1.701,1.701 H 6.329 c 0.94,0 1.701,-0.761 1.701,-1.701 V 40.979 C 8.03,39.32 7.542,38.142 6.37,36.97 5.077,35.677 3.784,34.384 2.491,33.091 1.318,31.918 0.83,30.74 0.83,29.082 V 2.004 C 0.83,1.175 0.586,0.586 0,0 Z"
         style="fill:none;stroke:#0e0f0f;stroke-width:0.1;stroke-linecap:round;stroke-linejoin:round;stroke-miterlimit:4;stroke-dasharray:none;stroke-opacity:1"
         id="path21577"
         inkscape:connector-curvature="0" /></g><g
       id="g21579"><g
         id="g21581"
         clip-path="url(#clipPath21585)"><path
           d="m 92.466,84.6 h -10.8 v 6.35 h 10.8 z"
           style="fill:#cfa550;fill-opacity:1;fill-rule:nonzero;stroke:none"
           id="path21587"
           inkscape:connector-curvature="0" /><path
           d="m 92.466,91.8 h -10.8 v 6.35 h 10.8 z"
           style="fill:#51abe4;fill-opacity:1;fill-rule:nonzero;stroke:none"
           id="path21589"
           inkscape:connector-curvature="0" /><path
           d="m 92.466,99 h -10.8 v 6.35 h 10.8 z"
           style="fill:#99d420;fill-opacity:1;fill-rule:nonzero;stroke:none"
           id="path21591"
           inkscape:connector-curvature="0" /><path
           d="m 92.466,106.2 h -10.8 v 6.35 h 10.8 z"
           style="fill:#ed1c24;fill-opacity:1;fill-rule:nonzero;stroke:none"
           id="path21593"
           inkscape:connector-curvature="0" /><path
           d="m 60.066,84.6 h -10.8 v 6.35 h 10.8 z"
           style="fill:#cfa550;fill-opacity:1;fill-rule:nonzero;stroke:none"
           id="path21595"
           inkscape:connector-curvature="0" /><path
           d="m 60.066,91.8 h -10.8 v 6.35 h 10.8 z"
           style="fill:#51abe4;fill-opacity:1;fill-rule:nonzero;stroke:none"
           id="path21597"
           inkscape:connector-curvature="0" /><path
           d="m 60.066,99 h -10.8 v 6.35 h 10.8 z"
           style="fill:#99d420;fill-opacity:1;fill-rule:nonzero;stroke:none"
           id="path21599"
           inkscape:connector-curvature="0" /><path
           d="m 60.066,106.2 h -10.8 v 6.35 h 10.8 z"
           style="fill:#ed1c24;fill-opacity:1;fill-rule:nonzero;stroke:none"
           id="path21601"
           inkscape:connector-curvature="0" /></g></g><g
       id="g21603"><g
         id="g21605"
         clip-path="url(#clipPath21609)"><g
           id="g21611"
           transform="translate(78.4913,44.5748)"><path
             d="M 0,0 H 5.493 C 5.961,0 6.344,0.383 6.344,0.85 V 0 H 6.35 V 10.73 H 0 Z"
             style="fill:#f3bf8c;fill-opacity:1;fill-rule:nonzero;stroke:none"
             id="path21613"
             inkscape:connector-curvature="0" /></g><path
           d="m 71.291,44.575 h 6.35 v 10.73 h -6.35 z"
           style="fill:#fbc834;fill-opacity:1;fill-rule:nonzero;stroke:none"
           id="path21615"
           inkscape:connector-curvature="0" /><path
           d="m 64.091,44.575 h 6.35 v 10.73 h -6.35 z"
           style="fill:#f89c0e;fill-opacity:1;fill-rule:nonzero;stroke:none"
           id="path21617"
           inkscape:connector-curvature="0" /><g
           id="g21619"
           transform="translate(56.8914,55.305)"><path
             d="m 0,0 v -9.88 c 0,-0.468 0.383,-0.85 0.85,-0.85 h 5.5 V 0 Z"
             style="fill:#f25c19;fill-opacity:1;fill-rule:nonzero;stroke:none"
             id="path21621"
             inkscape:connector-curvature="0" /></g><g
           id="g21623"
           transform="translate(75.7984,98.5897)"><path
             d="m 0,0 h -9.865 c -1.247,0 -2.267,1.02 -2.267,2.268 v 2.664 c 0,1.248 1.02,2.268 2.267,2.268 H 0 C 1.247,7.2 2.268,6.18 2.268,4.932 V 2.268 C 2.268,1.02 1.247,0 0,0"
             style="fill:#a7a5a6;fill-opacity:1;fill-rule:nonzero;stroke:none"
             id="path21625"
             inkscape:connector-curvature="0" /></g><g
           id="g21627"
           transform="translate(75.7984,98.5897)"><path
             d="m 0,0 h -9.865 c -1.247,0 -2.267,1.02 -2.267,2.268 v 2.664 c 0,1.248 1.02,2.268 2.267,2.268 H 0 C 1.247,7.2 2.268,6.18 2.268,4.932 V 2.268 C 2.268,1.02 1.247,0 0,0 Z"
             style="fill:none;stroke:#4f4c4d;stroke-width:0.2;stroke-linecap:butt;stroke-linejoin:miter;stroke-miterlimit:10;stroke-dasharray:none;stroke-opacity:1"
             id="path21629"
             inkscape:connector-curvature="0" /></g><g
           id="g21631"
           transform="translate(75.7984,69.7897)"><path
             d="m 0,0 h -9.865 c -1.247,0 -2.267,1.02 -2.267,2.268 v 17.064 c 0,1.248 1.02,2.268 2.267,2.268 H 0 c 1.247,0 2.268,-1.02 2.268,-2.268 V 2.268 C 2.268,1.02 1.247,0 0,0"
             style="fill:#a7a5a6;fill-opacity:1;fill-rule:nonzero;stroke:none"
             id="path21633"
             inkscape:connector-curvature="0" /></g><g
           id="g21635"
           transform="translate(75.7984,69.7897)"><path
             d="m 0,0 h -9.865 c -1.247,0 -2.267,1.02 -2.267,2.268 v 17.064 c 0,1.248 1.02,2.268 2.267,2.268 H 0 c 1.247,0 2.268,-1.02 2.268,-2.268 V 2.268 C 2.268,1.02 1.247,0 0,0 Z"
             style="fill:none;stroke:#4f4c4d;stroke-width:0.2;stroke-linecap:butt;stroke-linejoin:miter;stroke-miterlimit:10;stroke-dasharray:none;stroke-opacity:1"
             id="path21637"
             inkscape:connector-curvature="0" /></g></g></g><g
       id="g21639"><g
         id="g21641"><g
           id="g21647"><g
             id="g21649"><path
               d="m 72.057,73.39 c 0,-1.331 1.079,-2.41 2.409,-2.41 v 0 c 1.331,0 2.409,1.079 2.409,2.41 v 0 c 0,1.331 -1.078,2.409 -2.409,2.409 v 0 c -1.33,0 -2.409,-1.078 -2.409,-2.409"
               style="fill:url(#radialGradient21661);stroke:none"
               id="path21663"
               inkscape:connector-curvature="0" /></g></g></g></g><g
       id="g21665"><g
         id="g21667"
         clip-path="url(#clipPath21671)"><g
           id="g21673"
           transform="translate(76.8756,73.3897)"><path
             d="m 0,0 c 0,-1.331 -1.079,-2.409 -2.409,-2.409 -1.331,0 -2.41,1.078 -2.41,2.409 0,1.331 1.079,2.409 2.41,2.409 C -1.079,2.409 0,1.331 0,0 Z"
             style="fill:none;stroke:#656263;stroke-width:0.1;stroke-linecap:butt;stroke-linejoin:miter;stroke-miterlimit:10;stroke-dasharray:none;stroke-opacity:1"
             id="path21675"
             inkscape:connector-curvature="0" /></g><g
           id="g21677"
           transform="translate(75.7417,73.3897)"><path
             d="m 0,0 c 0,-0.704 -0.571,-1.276 -1.276,-1.276 -0.704,0 -1.275,0.572 -1.275,1.276 0,0.704 0.571,1.276 1.275,1.276 C -0.571,1.276 0,0.704 0,0"
             style="fill:#35302f;fill-opacity:1;fill-rule:nonzero;stroke:none"
             id="path21679"
             inkscape:connector-curvature="0" /></g><g
           id="g21681"
           transform="translate(75.7417,73.3897)"><path
             d="m 0,0 c 0,-0.704 -0.571,-1.276 -1.276,-1.276 -0.704,0 -1.275,0.572 -1.275,1.276 0,0.704 0.571,1.276 1.275,1.276 C -0.571,1.276 0,0.704 0,0 Z"
             style="fill:none;stroke:#231f20;stroke-width:0.1;stroke-linecap:butt;stroke-linejoin:miter;stroke-miterlimit:10;stroke-dasharray:none;stroke-opacity:1"
             id="path21683"
             inkscape:connector-curvature="0" /></g></g></g><g
       id="g21685"><g
         id="g21687"><g
           id="g21693"><g
             id="g21695"><path
               d="m 64.857,73.39 c 0,-1.331 1.079,-2.41 2.409,-2.41 v 0 c 1.331,0 2.409,1.079 2.409,2.41 v 0 c 0,1.331 -1.078,2.409 -2.409,2.409 v 0 c -1.33,0 -2.409,-1.078 -2.409,-2.409"
               style="fill:url(#radialGradient21707);stroke:none"
               id="path21709"
               inkscape:connector-curvature="0" /></g></g></g></g><g
       id="g21711"><g
         id="g21713"
         clip-path="url(#clipPath21717)"><g
           id="g21719"
           transform="translate(69.6756,73.3897)"><path
             d="m 0,0 c 0,-1.331 -1.079,-2.409 -2.409,-2.409 -1.331,0 -2.41,1.078 -2.41,2.409 0,1.331 1.079,2.409 2.41,2.409 C -1.079,2.409 0,1.331 0,0 Z"
             style="fill:none;stroke:#656263;stroke-width:0.1;stroke-linecap:butt;stroke-linejoin:miter;stroke-miterlimit:10;stroke-dasharray:none;stroke-opacity:1"
             id="path21721"
             inkscape:connector-curvature="0" /></g><g
           id="g21723"
           transform="translate(68.5417,73.3897)"><path
             d="m 0,0 c 0,-0.704 -0.571,-1.276 -1.276,-1.276 -0.704,0 -1.275,0.572 -1.275,1.276 0,0.704 0.571,1.276 1.275,1.276 C -0.571,1.276 0,0.704 0,0"
             style="fill:#35302f;fill-opacity:1;fill-rule:nonzero;stroke:none"
             id="path21725"
             inkscape:connector-curvature="0" /></g><g
           id="g21727"
           transform="translate(68.5417,73.3897)"><path
             d="m 0,0 c 0,-0.704 -0.571,-1.276 -1.276,-1.276 -0.704,0 -1.275,0.572 -1.275,1.276 0,0.704 0.571,1.276 1.275,1.276 C -0.571,1.276 0,0.704 0,0 Z"
             style="fill:none;stroke:#231f20;stroke-width:0.1;stroke-linecap:butt;stroke-linejoin:miter;stroke-miterlimit:10;stroke-dasharray:none;stroke-opacity:1"
             id="path21729"
             inkscape:connector-curvature="0" /></g></g></g><g
       id="g21731"><g
         id="g21733"><g
           id="g21739"><g
             id="g21741"><path
               d="m 72.057,80.59 c 0,-1.331 1.079,-2.41 2.409,-2.41 v 0 c 1.331,0 2.409,1.079 2.409,2.41 v 0 c 0,1.331 -1.078,2.409 -2.409,2.409 v 0 c -1.33,0 -2.409,-1.078 -2.409,-2.409"
               style="fill:url(#radialGradient21753);stroke:none"
               id="path21755"
               inkscape:connector-curvature="0" /></g></g></g></g><g
       id="g21757"><g
         id="g21759"
         clip-path="url(#clipPath21763)"><g
           id="g21765"
           transform="translate(76.8756,80.5897)"><path
             d="m 0,0 c 0,-1.331 -1.079,-2.409 -2.409,-2.409 -1.331,0 -2.41,1.078 -2.41,2.409 0,1.331 1.079,2.409 2.41,2.409 C -1.079,2.409 0,1.331 0,0 Z"
             style="fill:none;stroke:#656263;stroke-width:0.1;stroke-linecap:butt;stroke-linejoin:miter;stroke-miterlimit:10;stroke-dasharray:none;stroke-opacity:1"
             id="path21767"
             inkscape:connector-curvature="0" /></g><g
           id="g21769"
           transform="translate(75.7417,80.5897)"><path
             d="m 0,0 c 0,-0.704 -0.571,-1.276 -1.276,-1.276 -0.704,0 -1.275,0.572 -1.275,1.276 0,0.704 0.571,1.276 1.275,1.276 C -0.571,1.276 0,0.704 0,0"
             style="fill:#35302f;fill-opacity:1;fill-rule:nonzero;stroke:none"
             id="path21771"
             inkscape:connector-curvature="0" /></g><g
           id="g21773"
           transform="translate(75.7417,80.5897)"><path
             d="m 0,0 c 0,-0.704 -0.571,-1.276 -1.276,-1.276 -0.704,0 -1.275,0.572 -1.275,1.276 0,0.704 0.571,1.276 1.275,1.276 C -0.571,1.276 0,0.704 0,0 Z"
             style="fill:none;stroke:#231f20;stroke-width:0.1;stroke-linecap:butt;stroke-linejoin:miter;stroke-miterlimit:10;stroke-dasharray:none;stroke-opacity:1"
             id="path21775"
             inkscape:connector-curvature="0" /></g></g></g><g
       id="g21777"><g
         id="g21779"><g
           id="g21785"><g
             id="g21787"><path
               d="m 64.857,80.59 c 0,-1.331 1.079,-2.41 2.409,-2.41 v 0 c 1.331,0 2.409,1.079 2.409,2.41 v 0 c 0,1.331 -1.078,2.409 -2.409,2.409 v 0 c -1.33,0 -2.409,-1.078 -2.409,-2.409"
               style="fill:url(#radialGradient21799);stroke:none"
               id="path21801"
               inkscape:connector-curvature="0" /></g></g></g></g><g
       id="g21803"><g
         id="g21805"
         clip-path="url(#clipPath21809)"><g
           id="g21811"
           transform="translate(69.6756,80.5897)"><path
             d="m 0,0 c 0,-1.331 -1.079,-2.409 -2.409,-2.409 -1.331,0 -2.41,1.078 -2.41,2.409 0,1.331 1.079,2.409 2.41,2.409 C -1.079,2.409 0,1.331 0,0 Z"
             style="fill:none;stroke:#656263;stroke-width:0.1;stroke-linecap:butt;stroke-linejoin:miter;stroke-miterlimit:10;stroke-dasharray:none;stroke-opacity:1"
             id="path21813"
             inkscape:connector-curvature="0" /></g><g
           id="g21815"
           transform="translate(68.5417,80.5897)"><path
             d="m 0,0 c 0,-0.704 -0.571,-1.276 -1.276,-1.276 -0.704,0 -1.275,0.572 -1.275,1.276 0,0.704 0.571,1.276 1.275,1.276 C -0.571,1.276 0,0.704 0,0"
             style="fill:#35302f;fill-opacity:1;fill-rule:nonzero;stroke:none"
             id="path21817"
             inkscape:connector-curvature="0" /></g><g
           id="g21819"
           transform="translate(68.5417,80.5897)"><path
             d="m 0,0 c 0,-0.704 -0.571,-1.276 -1.276,-1.276 -0.704,0 -1.275,0.572 -1.275,1.276 0,0.704 0.571,1.276 1.275,1.276 C -0.571,1.276 0,0.704 0,0 Z"
             style="fill:none;stroke:#231f20;stroke-width:0.1;stroke-linecap:butt;stroke-linejoin:miter;stroke-miterlimit:10;stroke-dasharray:none;stroke-opacity:1"
             id="path21821"
             inkscape:connector-curvature="0" /></g></g></g><g
       id="g21823"><g
         id="g21825"><g
           id="g21831"><g
             id="g21833"><path
               d="m 72.057,87.79 c 0,-1.331 1.079,-2.41 2.409,-2.41 v 0 c 1.331,0 2.409,1.079 2.409,2.41 v 0 c 0,1.331 -1.078,2.409 -2.409,2.409 v 0 c -1.33,0 -2.409,-1.078 -2.409,-2.409"
               style="fill:url(#radialGradient21845);stroke:none"
               id="path21847"
               inkscape:connector-curvature="0" /></g></g></g></g><g
       id="g21849"><g
         id="g21851"
         clip-path="url(#clipPath21855)"><g
           id="g21857"
           transform="translate(76.8756,87.7897)"><path
             d="m 0,0 c 0,-1.331 -1.079,-2.409 -2.409,-2.409 -1.331,0 -2.41,1.078 -2.41,2.409 0,1.331 1.079,2.409 2.41,2.409 C -1.079,2.409 0,1.331 0,0 Z"
             style="fill:none;stroke:#656263;stroke-width:0.1;stroke-linecap:butt;stroke-linejoin:miter;stroke-miterlimit:10;stroke-dasharray:none;stroke-opacity:1"
             id="path21859"
             inkscape:connector-curvature="0" /></g><g
           id="g21861"
           transform="translate(75.7417,87.7897)"><path
             d="m 0,0 c 0,-0.704 -0.571,-1.276 -1.276,-1.276 -0.704,0 -1.275,0.572 -1.275,1.276 0,0.704 0.571,1.276 1.275,1.276 C -0.571,1.276 0,0.704 0,0"
             style="fill:#35302f;fill-opacity:1;fill-rule:nonzero;stroke:none"
             id="path21863"
             inkscape:connector-curvature="0" /></g><g
           id="g21865"
           transform="translate(75.7417,87.7897)"><path
             d="m 0,0 c 0,-0.704 -0.571,-1.276 -1.276,-1.276 -0.704,0 -1.275,0.572 -1.275,1.276 0,0.704 0.571,1.276 1.275,1.276 C -0.571,1.276 0,0.704 0,0 Z"
             style="fill:none;stroke:#231f20;stroke-width:0.1;stroke-linecap:butt;stroke-linejoin:miter;stroke-miterlimit:10;stroke-dasharray:none;stroke-opacity:1"
             id="path21867"
             inkscape:connector-curvature="0" /></g></g></g><g
       id="g21869"><g
         id="g21871"><g
           id="g21877"><g
             id="g21879"><path
               d="m 64.857,87.79 c 0,-1.331 1.079,-2.41 2.409,-2.41 v 0 c 1.331,0 2.409,1.079 2.409,2.41 v 0 c 0,1.331 -1.078,2.409 -2.409,2.409 v 0 c -1.33,0 -2.409,-1.078 -2.409,-2.409"
               style="fill:url(#radialGradient21891);stroke:none"
               id="path21893"
               inkscape:connector-curvature="0" /></g></g></g></g><g
       id="g21895"><g
         id="g21897"
         clip-path="url(#clipPath21901)"><g
           id="g21903"
           transform="translate(69.6756,87.7897)"><path
             d="m 0,0 c 0,-1.331 -1.079,-2.409 -2.409,-2.409 -1.331,0 -2.41,1.078 -2.41,2.409 0,1.331 1.079,2.409 2.41,2.409 C -1.079,2.409 0,1.331 0,0 Z"
             style="fill:none;stroke:#656263;stroke-width:0.1;stroke-linecap:butt;stroke-linejoin:miter;stroke-miterlimit:10;stroke-dasharray:none;stroke-opacity:1"
             id="path21905"
             inkscape:connector-curvature="0" /></g><g
           id="g21907"
           transform="translate(68.5417,87.7897)"><path
             d="m 0,0 c 0,-0.704 -0.571,-1.276 -1.276,-1.276 -0.704,0 -1.275,0.572 -1.275,1.276 0,0.704 0.571,1.276 1.275,1.276 C -0.571,1.276 0,0.704 0,0"
             style="fill:#35302f;fill-opacity:1;fill-rule:nonzero;stroke:none"
             id="path21909"
             inkscape:connector-curvature="0" /></g><g
           id="g21911"
           transform="translate(68.5417,87.7897)"><path
             d="m 0,0 c 0,-0.704 -0.571,-1.276 -1.276,-1.276 -0.704,0 -1.275,0.572 -1.275,1.276 0,0.704 0.571,1.276 1.275,1.276 C -0.571,1.276 0,0.704 0,0 Z"
             style="fill:none;stroke:#231f20;stroke-width:0.1;stroke-linecap:butt;stroke-linejoin:miter;stroke-miterlimit:10;stroke-dasharray:none;stroke-opacity:1"
             id="path21913"
             inkscape:connector-curvature="0" /></g></g></g><g
       id="g21915"><g
         id="g21917"><g
           id="g21923"><g
             id="g21925"><path
               d="m 72.057,102.19 c 0,-1.331 1.079,-2.41 2.409,-2.41 v 0 c 1.331,0 2.409,1.079 2.409,2.41 v 0 c 0,1.331 -1.078,2.409 -2.409,2.409 v 0 c -1.33,0 -2.409,-1.078 -2.409,-2.409"
               style="fill:url(#radialGradient21937);stroke:none"
               id="path21939"
               inkscape:connector-curvature="0" /></g></g></g></g><g
       id="g21941"><g
         id="g21943"
         clip-path="url(#clipPath21947)"><g
           id="g21949"
           transform="translate(76.8756,102.1897)"><path
             d="m 0,0 c 0,-1.331 -1.079,-2.409 -2.409,-2.409 -1.331,0 -2.41,1.078 -2.41,2.409 0,1.331 1.079,2.409 2.41,2.409 C -1.079,2.409 0,1.331 0,0 Z"
             style="fill:none;stroke:#656263;stroke-width:0.1;stroke-linecap:butt;stroke-linejoin:miter;stroke-miterlimit:10;stroke-dasharray:none;stroke-opacity:1"
             id="path21951"
             inkscape:connector-curvature="0" /></g><g
           id="g21953"
           transform="translate(75.7417,102.1897)"><path
             d="m 0,0 c 0,-0.704 -0.571,-1.276 -1.276,-1.276 -0.704,0 -1.275,0.572 -1.275,1.276 0,0.704 0.571,1.276 1.275,1.276 C -0.571,1.276 0,0.704 0,0"
             style="fill:#35302f;fill-opacity:1;fill-rule:nonzero;stroke:none"
             id="path21955"
             inkscape:connector-curvature="0" /></g><g
           id="g21957"
           transform="translate(75.7417,102.1897)"><path
             d="m 0,0 c 0,-0.704 -0.571,-1.276 -1.276,-1.276 -0.704,0 -1.275,0.572 -1.275,1.276 0,0.704 0.571,1.276 1.275,1.276 C -0.571,1.276 0,0.704 0,0 Z"
             style="fill:none;stroke:#231f20;stroke-width:0.1;stroke-linecap:butt;stroke-linejoin:miter;stroke-miterlimit:10;stroke-dasharray:none;stroke-opacity:1"
             id="path21959"
             inkscape:connector-curvature="0" /></g></g></g><g
       id="g21961"><g
         id="g21963"><g
           id="g21969"><g
             id="g21971"><path
               d="m 64.857,102.19 c 0,-1.331 1.079,-2.41 2.409,-2.41 v 0 c 1.331,0 2.409,1.079 2.409,2.41 v 0 c 0,1.331 -1.078,2.409 -2.409,2.409 v 0 c -1.33,0 -2.409,-1.078 -2.409,-2.409"
               style="fill:url(#radialGradient21983);stroke:none"
               id="path21985"
               inkscape:connector-curvature="0" /></g></g></g></g><g
       id="g21987"><g
         id="g21989"
         clip-path="url(#clipPath21993)"><g
           id="g21995"
           transform="translate(69.6756,102.1897)"><path
             d="m 0,0 c 0,-1.331 -1.079,-2.409 -2.409,-2.409 -1.331,0 -2.41,1.078 -2.41,2.409 0,1.331 1.079,2.409 2.41,2.409 C -1.079,2.409 0,1.331 0,0 Z"
             style="fill:none;stroke:#656263;stroke-width:0.1;stroke-linecap:butt;stroke-linejoin:miter;stroke-miterlimit:10;stroke-dasharray:none;stroke-opacity:1"
             id="path21997"
             inkscape:connector-curvature="0" /></g><g
           id="g21999"
           transform="translate(68.5417,102.1897)"><path
             d="m 0,0 c 0,-0.704 -0.571,-1.276 -1.276,-1.276 -0.704,0 -1.275,0.572 -1.275,1.276 0,0.704 0.571,1.276 1.275,1.276 C -0.571,1.276 0,0.704 0,0"
             style="fill:#35302f;fill-opacity:1;fill-rule:nonzero;stroke:none"
             id="path22001"
             inkscape:connector-curvature="0" /></g><g
           id="g22003"
           transform="translate(68.5417,102.1897)"><path
             d="m 0,0 c 0,-0.704 -0.571,-1.276 -1.276,-1.276 -0.704,0 -1.275,0.572 -1.275,1.276 0,0.704 0.571,1.276 1.275,1.276 C -0.571,1.276 0,0.704 0,0 Z"
             style="fill:none;stroke:#231f20;stroke-width:0.1;stroke-linecap:butt;stroke-linejoin:miter;stroke-miterlimit:10;stroke-dasharray:none;stroke-opacity:1"
             id="path22005"
             inkscape:connector-curvature="0" /></g></g></g><g
       id="g22007"><g
         id="g22009"><g
           id="g22015"><g
             id="g22017"><path
               d="m 71.632,94.975 c 0,-1.566 1.269,-2.835 2.834,-2.835 v 0 c 1.566,0 2.835,1.269 2.835,2.835 v 0 c 0,1.565 -1.269,2.834 -2.835,2.834 v 0 c -1.565,0 -2.834,-1.269 -2.834,-2.834"
               style="fill:url(#radialGradient22029);stroke:none"
               id="path22031"
               inkscape:connector-curvature="0" /></g></g></g></g><g
       id="g22033"><g
         id="g22035"
         clip-path="url(#clipPath22039)"><g
           id="g22041"
           transform="translate(77.3008,94.9749)"><path
             d="m 0,0 c 0,-1.566 -1.269,-2.835 -2.835,-2.835 -1.565,0 -2.834,1.269 -2.834,2.835 0,1.566 1.269,2.835 2.834,2.835 C -1.269,2.835 0,1.566 0,0 Z"
             style="fill:none;stroke:#656263;stroke-width:0.1;stroke-linecap:butt;stroke-linejoin:miter;stroke-miterlimit:10;stroke-dasharray:none;stroke-opacity:1"
             id="path22043"
             inkscape:connector-curvature="0" /></g><g
           id="g22045"
           transform="translate(75.9668,94.9749)"><path
             d="m 0,0 c 0,-0.829 -0.672,-1.501 -1.501,-1.501 -0.829,0 -1.5,0.672 -1.5,1.501 0,0.829 0.671,1.501 1.5,1.501 C -0.672,1.501 0,0.829 0,0"
             style="fill:#35302f;fill-opacity:1;fill-rule:nonzero;stroke:none"
             id="path22047"
             inkscape:connector-curvature="0" /></g><g
           id="g22049"
           transform="translate(75.9668,94.9749)"><path
             d="m 0,0 c 0,-0.829 -0.672,-1.501 -1.501,-1.501 -0.829,0 -1.5,0.672 -1.5,1.501 0,0.829 0.671,1.501 1.5,1.501 C -0.672,1.501 0,0.829 0,0 Z"
             style="fill:none;stroke:#231f20;stroke-width:0.1;stroke-linecap:butt;stroke-linejoin:miter;stroke-miterlimit:10;stroke-dasharray:none;stroke-opacity:1"
             id="path22051"
             inkscape:connector-curvature="0" /></g><g
           id="g22053"
           transform="translate(70.1008,94.9749)"><path
             d="m 0,0 c 0,-1.566 -1.269,-2.835 -2.835,-2.835 -1.565,0 -2.834,1.269 -2.834,2.835 0,1.566 1.269,2.835 2.834,2.835 C -1.269,2.835 0,1.566 0,0"
             style="fill:#cfa550;fill-opacity:1;fill-rule:nonzero;stroke:none"
             id="path22055"
             inkscape:connector-curvature="0" /></g><g
           id="g22057"
           transform="translate(70.1008,94.9749)"><path
             d="m 0,0 c 0,-1.566 -1.269,-2.835 -2.835,-2.835 -1.565,0 -2.834,1.269 -2.834,2.835 0,1.566 1.269,2.835 2.834,2.835 C -1.269,2.835 0,1.566 0,0 Z"
             style="fill:none;stroke:#656263;stroke-width:0.1;stroke-linecap:butt;stroke-linejoin:miter;stroke-miterlimit:10;stroke-dasharray:none;stroke-opacity:1"
             id="path22059"
             inkscape:connector-curvature="0" /></g><g
           id="g22061"
           transform="translate(69.3921,94.9749)"><path
             d="m 0,0 c 0,-1.174 -0.952,-2.126 -2.126,-2.126 -1.174,0 -2.126,0.952 -2.126,2.126 0,1.174 0.952,2.126 2.126,2.126 C -0.952,2.126 0,1.174 0,0"
             style="fill:#e5b758;fill-opacity:1;fill-rule:nonzero;stroke:none"
             id="path22063"
             inkscape:connector-curvature="0" /></g><g
           id="g22065"
           transform="translate(69.3921,94.9749)"><path
             d="m 0,0 c 0,-1.174 -0.952,-2.126 -2.126,-2.126 -1.174,0 -2.126,0.952 -2.126,2.126 0,1.174 0.952,2.126 2.126,2.126 C -0.952,2.126 0,1.174 0,0 Z"
             style="fill:none;stroke:#656263;stroke-width:0.1;stroke-linecap:butt;stroke-linejoin:miter;stroke-miterlimit:10;stroke-dasharray:none;stroke-opacity:1"
             id="path22067"
             inkscape:connector-curvature="0" /></g></g></g><g
       id="g22069"><g
         id="g22071"><g
           id="g22077"><g
             id="g22079"><path
               d="m 65.766,94.975 c 0,-0.829 0.671,-1.501 1.5,-1.501 v 0 c 0.829,0 1.501,0.672 1.501,1.501 v 0 c 0,0.829 -0.672,1.501 -1.501,1.501 v 0 c -0.829,0 -1.5,-0.672 -1.5,-1.501"
               style="fill:url(#radialGradient22087);stroke:none"
               id="path22089"
               inkscape:connector-curvature="0" /></g></g></g></g><g
       id="g22091"><g
         id="g22093"
         clip-path="url(#clipPath22097)"><g
           id="g22099"
           transform="translate(68.7668,94.9749)"><path
             d="m 0,0 c 0,-0.829 -0.672,-1.501 -1.501,-1.501 -0.828,0 -1.5,0.672 -1.5,1.501 0,0.829 0.672,1.501 1.5,1.501 C -0.672,1.501 0,0.829 0,0 Z"
             style="fill:none;stroke:#231f20;stroke-width:0.1;stroke-linecap:butt;stroke-linejoin:miter;stroke-miterlimit:10;stroke-dasharray:none;stroke-opacity:1"
             id="path22101"
             inkscape:connector-curvature="0" /></g><g
           id="g22103"
           transform="translate(77.3008,94.9749)"><path
             d="m 0,0 c 0,-1.566 -1.269,-2.835 -2.835,-2.835 -1.565,0 -2.834,1.269 -2.834,2.835 0,1.566 1.269,2.835 2.834,2.835 C -1.269,2.835 0,1.566 0,0"
             style="fill:#cfa550;fill-opacity:1;fill-rule:nonzero;stroke:none"
             id="path22105"
             inkscape:connector-curvature="0" /></g><g
           id="g22107"
           transform="translate(77.3008,94.9749)"><path
             d="m 0,0 c 0,-1.566 -1.269,-2.835 -2.835,-2.835 -1.565,0 -2.834,1.269 -2.834,2.835 0,1.566 1.269,2.835 2.834,2.835 C -1.269,2.835 0,1.566 0,0 Z"
             style="fill:none;stroke:#656263;stroke-width:0.1;stroke-linecap:butt;stroke-linejoin:miter;stroke-miterlimit:10;stroke-dasharray:none;stroke-opacity:1"
             id="path22109"
             inkscape:connector-curvature="0" /></g><g
           id="g22111"
           transform="translate(76.5921,94.9749)"><path
             d="m 0,0 c 0,-1.174 -0.952,-2.126 -2.126,-2.126 -1.174,0 -2.126,0.952 -2.126,2.126 0,1.174 0.952,2.126 2.126,2.126 C -0.952,2.126 0,1.174 0,0"
             style="fill:#e5b758;fill-opacity:1;fill-rule:nonzero;stroke:none"
             id="path22113"
             inkscape:connector-curvature="0" /></g><g
           id="g22115"
           transform="translate(76.5921,94.9749)"><path
             d="m 0,0 c 0,-1.174 -0.952,-2.126 -2.126,-2.126 -1.174,0 -2.126,0.952 -2.126,2.126 0,1.174 0.952,2.126 2.126,2.126 C -0.952,2.126 0,1.174 0,0 Z"
             style="fill:none;stroke:#656263;stroke-width:0.1;stroke-linecap:butt;stroke-linejoin:miter;stroke-miterlimit:10;stroke-dasharray:none;stroke-opacity:1"
             id="path22117"
             inkscape:connector-curvature="0" /></g></g></g><g
       id="g22119"><g
         id="g22121"><g
           id="g22127"><g
             id="g22129"><path
               d="m 72.966,94.975 c 0,-0.829 0.671,-1.501 1.5,-1.501 v 0 c 0.829,0 1.501,0.672 1.501,1.501 v 0 c 0,0.829 -0.672,1.501 -1.501,1.501 v 0 c -0.829,0 -1.5,-0.672 -1.5,-1.501"
               style="fill:url(#radialGradient22137);stroke:none"
               id="path22139"
               inkscape:connector-curvature="0" /></g></g></g></g><g
       id="g22141"><g
         id="g22143"
         clip-path="url(#clipPath22147)"><g
           id="g22149"
           transform="translate(75.9668,94.9749)"><path
             d="m 0,0 c 0,-0.829 -0.672,-1.501 -1.501,-1.501 -0.829,0 -1.5,0.672 -1.5,1.501 0,0.829 0.671,1.501 1.5,1.501 C -0.672,1.501 0,0.829 0,0 Z"
             style="fill:none;stroke:#231f20;stroke-width:0.1;stroke-linecap:butt;stroke-linejoin:miter;stroke-miterlimit:10;stroke-dasharray:none;stroke-opacity:1"
             id="path22151"
             inkscape:connector-curvature="0" /></g><g
           id="g22153"
           transform="translate(60.0661,49.2236)"><path
             d="M 0,0 C -1.409,0 -2.551,1.142 -2.551,2.551 -2.551,3.96 -1.409,5.102 0,5.102 1.409,5.102 2.551,3.96 2.551,2.551 2.551,1.142 1.409,0 0,0"
             style="fill:#f4f4f4;fill-opacity:1;fill-rule:nonzero;stroke:none"
             id="path22155"
             inkscape:connector-curvature="0" /></g><g
           id="g22157"
           transform="translate(67.2661,49.2236)"><path
             d="M 0,0 C -1.409,0 -2.551,1.142 -2.551,2.551 -2.551,3.96 -1.409,5.102 0,5.102 1.409,5.102 2.551,3.96 2.551,2.551 2.551,1.142 1.409,0 0,0"
             style="fill:#f4f4f4;fill-opacity:1;fill-rule:nonzero;stroke:none"
             id="path22159"
             inkscape:connector-curvature="0" /></g><g
           id="g22161"
           transform="translate(74.4661,49.2236)"><path
             d="M 0,0 C -1.409,0 -2.551,1.142 -2.551,2.551 -2.551,3.96 -1.409,5.102 0,5.102 1.409,5.102 2.551,3.96 2.551,2.551 2.551,1.142 1.409,0 0,0"
             style="fill:#f4f4f4;fill-opacity:1;fill-rule:nonzero;stroke:none"
             id="path22163"
             inkscape:connector-curvature="0" /></g><g
           id="g22165"
           transform="translate(81.6661,49.2236)"><path
             d="M 0,0 C -1.409,0 -2.551,1.142 -2.551,2.551 -2.551,3.96 -1.409,5.102 0,5.102 1.409,5.102 2.551,3.96 2.551,2.551 2.551,1.142 1.409,0 0,0"
             style="fill:#f4f4f4;fill-opacity:1;fill-rule:nonzero;stroke:none"
             id="path22167"
             inkscape:connector-curvature="0" /></g><g
           id="g22169"
           transform="translate(60.0661,49.2236)"><path
             d="M 0,0 C -1.409,0 -2.551,1.142 -2.551,2.551 -2.551,3.96 -1.409,5.102 0,5.102 1.409,5.102 2.551,3.96 2.551,2.551 2.551,1.142 1.409,0 0,0"
             style="fill:#f4f4f4;fill-opacity:1;fill-rule:nonzero;stroke:none"
             id="path22171"
             inkscape:connector-curvature="0" /></g><g
           id="g22173"
           transform="translate(67.2661,49.2236)"><path
             d="M 0,0 C -1.409,0 -2.551,1.142 -2.551,2.551 -2.551,3.96 -1.409,5.102 0,5.102 1.409,5.102 2.551,3.96 2.551,2.551 2.551,1.142 1.409,0 0,0"
             style="fill:#f4f4f4;fill-opacity:1;fill-rule:nonzero;stroke:none"
             id="path22175"
             inkscape:connector-curvature="0" /></g><g
           id="g22177"
           transform="translate(74.4661,49.2236)"><path
             d="M 0,0 C -1.409,0 -2.551,1.142 -2.551,2.551 -2.551,3.96 -1.409,5.102 0,5.102 1.409,5.102 2.551,3.96 2.551,2.551 2.551,1.142 1.409,0 0,0"
             style="fill:#f4f4f4;fill-opacity:1;fill-rule:nonzero;stroke:none"
             id="path22179"
             inkscape:connector-curvature="0" /></g><g
           id="g22181"
           transform="translate(81.6661,49.2236)"><path
             d="M 0,0 C -1.409,0 -2.551,1.142 -2.551,2.551 -2.551,3.96 -1.409,5.102 0,5.102 1.409,5.102 2.551,3.96 2.551,2.551 2.551,1.142 1.409,0 0,0"
             style="fill:#f4f4f4;fill-opacity:1;fill-rule:nonzero;stroke:none"
             id="path22183"
             inkscape:connector-curvature="0" /></g><g
           id="g22185"
           transform="translate(58.6488,51.7748)"><path
             d="M 0,0 C 0,0.783 0.635,1.417 1.417,1.417 2.2,1.417 2.835,0.783 2.835,0 2.835,-0.783 2.2,-1.417 1.417,-1.417 0.635,-1.417 0,-0.783 0,0 m 3.543,0 c 0,1.174 -0.952,2.126 -2.126,2.126 -1.174,0 -2.126,-0.952 -2.126,-2.126 0,-1.174 0.952,-2.126 2.126,-2.126 1.174,0 2.126,0.952 2.126,2.126"
             style="fill:#fbc834;fill-opacity:1;fill-rule:nonzero;stroke:none"
             id="path22187"
             inkscape:connector-curvature="0" /></g><g
           id="g22189"
           transform="translate(58.6488,51.7748)"><path
             d="M 0,0 C 0,0.783 0.635,1.417 1.417,1.417 2.2,1.417 2.835,0.783 2.835,0 2.835,-0.783 2.2,-1.417 1.417,-1.417 0.635,-1.417 0,-0.783 0,0 Z m 3.543,0 c 0,1.174 -0.952,2.126 -2.126,2.126 -1.174,0 -2.126,-0.952 -2.126,-2.126 0,-1.174 0.952,-2.126 2.126,-2.126 1.174,0 2.126,0.952 2.126,2.126 z"
             style="fill:none;stroke:#918f90;stroke-width:0.1;stroke-linecap:butt;stroke-linejoin:miter;stroke-miterlimit:10;stroke-dasharray:none;stroke-opacity:1"
             id="path22191"
             inkscape:connector-curvature="0" /></g><g
           id="g22193"
           transform="translate(65.8488,51.7748)"><path
             d="M 0,0 C 0,0.783 0.635,1.417 1.417,1.417 2.2,1.417 2.835,0.783 2.835,0 2.835,-0.783 2.2,-1.417 1.417,-1.417 0.635,-1.417 0,-0.783 0,0 m 3.543,0 c 0,1.174 -0.952,2.126 -2.126,2.126 -1.174,0 -2.126,-0.952 -2.126,-2.126 0,-1.174 0.952,-2.126 2.126,-2.126 1.174,0 2.126,0.952 2.126,2.126"
             style="fill:#fbc834;fill-opacity:1;fill-rule:nonzero;stroke:none"
             id="path22195"
             inkscape:connector-curvature="0" /></g><g
           id="g22197"
           transform="translate(65.8488,51.7748)"><path
             d="M 0,0 C 0,0.783 0.635,1.417 1.417,1.417 2.2,1.417 2.835,0.783 2.835,0 2.835,-0.783 2.2,-1.417 1.417,-1.417 0.635,-1.417 0,-0.783 0,0 Z m 3.543,0 c 0,1.174 -0.952,2.126 -2.126,2.126 -1.174,0 -2.126,-0.952 -2.126,-2.126 0,-1.174 0.952,-2.126 2.126,-2.126 1.174,0 2.126,0.952 2.126,2.126 z"
             style="fill:none;stroke:#918f90;stroke-width:0.1;stroke-linecap:butt;stroke-linejoin:miter;stroke-miterlimit:10;stroke-dasharray:none;stroke-opacity:1"
             id="path22199"
             inkscape:connector-curvature="0" /></g><g
           id="g22201"
           transform="translate(73.0488,51.7748)"><path
             d="M 0,0 C 0,0.783 0.635,1.417 1.417,1.417 2.2,1.417 2.835,0.783 2.835,0 2.835,-0.783 2.2,-1.417 1.417,-1.417 0.635,-1.417 0,-0.783 0,0 m 3.543,0 c 0,1.174 -0.952,2.126 -2.126,2.126 -1.174,0 -2.126,-0.952 -2.126,-2.126 0,-1.174 0.952,-2.126 2.126,-2.126 1.174,0 2.126,0.952 2.126,2.126"
             style="fill:#fbc834;fill-opacity:1;fill-rule:nonzero;stroke:none"
             id="path22203"
             inkscape:connector-curvature="0" /></g><g
           id="g22205"
           transform="translate(73.0488,51.7748)"><path
             d="M 0,0 C 0,0.783 0.635,1.417 1.417,1.417 2.2,1.417 2.835,0.783 2.835,0 2.835,-0.783 2.2,-1.417 1.417,-1.417 0.635,-1.417 0,-0.783 0,0 Z m 3.543,0 c 0,1.174 -0.952,2.126 -2.126,2.126 -1.174,0 -2.126,-0.952 -2.126,-2.126 0,-1.174 0.952,-2.126 2.126,-2.126 1.174,0 2.126,0.952 2.126,2.126 z"
             style="fill:none;stroke:#918f90;stroke-width:0.1;stroke-linecap:butt;stroke-linejoin:miter;stroke-miterlimit:10;stroke-dasharray:none;stroke-opacity:1"
             id="path22207"
             inkscape:connector-curvature="0" /></g><g
           id="g22209"
           transform="translate(80.2488,51.7748)"><path
             d="M 0,0 C 0,0.783 0.635,1.417 1.417,1.417 2.2,1.417 2.835,0.783 2.835,0 2.835,-0.783 2.2,-1.417 1.417,-1.417 0.635,-1.417 0,-0.783 0,0 m 3.543,0 c 0,1.174 -0.952,2.126 -2.126,2.126 -1.174,0 -2.126,-0.952 -2.126,-2.126 0,-1.174 0.952,-2.126 2.126,-2.126 1.174,0 2.126,0.952 2.126,2.126"
             style="fill:#fbc834;fill-opacity:1;fill-rule:nonzero;stroke:none"
             id="path22211"
             inkscape:connector-curvature="0" /></g><g
           id="g22213"
           transform="translate(80.2488,51.7748)"><path
             d="M 0,0 C 0,0.783 0.635,1.417 1.417,1.417 2.2,1.417 2.835,0.783 2.835,0 2.835,-0.783 2.2,-1.417 1.417,-1.417 0.635,-1.417 0,-0.783 0,0 Z m 3.543,0 c 0,1.174 -0.952,2.126 -2.126,2.126 -1.174,0 -2.126,-0.952 -2.126,-2.126 0,-1.174 0.952,-2.126 2.126,-2.126 1.174,0 2.126,0.952 2.126,2.126 z"
             style="fill:none;stroke:#918f90;stroke-width:0.1;stroke-linecap:butt;stroke-linejoin:miter;stroke-miterlimit:10;stroke-dasharray:none;stroke-opacity:1"
             id="path22215"
             inkscape:connector-curvature="0" /></g><path
           d="m 82.573,50.868 h -1.814 v 1.814 h 1.814 z"
           style="fill:#f89c0e;fill-opacity:1;fill-rule:nonzero;stroke:#918f90;stroke-width:0.1;stroke-linecap:butt;stroke-linejoin:miter;stroke-miterlimit:10;stroke-dasharray:none;stroke-opacity:1"
           id="path22217"
           inkscape:connector-curvature="0" /><path
           d="m 75.373,50.868 h -1.814 v 1.814 h 1.814 z"
           style="fill:#f89c0e;fill-opacity:1;fill-rule:nonzero;stroke:#918f90;stroke-width:0.1;stroke-linecap:butt;stroke-linejoin:miter;stroke-miterlimit:10;stroke-dasharray:none;stroke-opacity:1"
           id="path22219"
           inkscape:connector-curvature="0" /><path
           d="m 68.173,50.868 h -1.814 v 1.814 h 1.814 z"
           style="fill:#f89c0e;fill-opacity:1;fill-rule:nonzero;stroke:#918f90;stroke-width:0.1;stroke-linecap:butt;stroke-linejoin:miter;stroke-miterlimit:10;stroke-dasharray:none;stroke-opacity:1"
           id="path22221"
           inkscape:connector-curvature="0" /><path
           d="m 60.973,50.868 h -1.814 v 1.814 h 1.814 z"
           style="fill:#f89c0e;fill-opacity:1;fill-rule:nonzero;stroke:#918f90;stroke-width:0.1;stroke-linecap:butt;stroke-linejoin:miter;stroke-miterlimit:10;stroke-dasharray:none;stroke-opacity:1"
           id="path22223"
           inkscape:connector-curvature="0" /><g
           id="g22225"
           transform="translate(91.4173,87.7748)"><path
             d="m 0,0 c 0,-1.409 -1.142,-2.551 -2.551,-2.551 -1.409,0 -2.551,1.142 -2.551,2.551 0,1.409 1.142,2.551 2.551,2.551 C -1.142,2.551 0,1.409 0,0"
             style="fill:#f4f4f4;fill-opacity:1;fill-rule:nonzero;stroke:none"
             id="path22227"
             inkscape:connector-curvature="0" /></g><g
           id="g22229"
           transform="translate(91.4173,94.9748)"><path
             d="m 0,0 c 0,-1.409 -1.142,-2.551 -2.551,-2.551 -1.409,0 -2.551,1.142 -2.551,2.551 0,1.409 1.142,2.551 2.551,2.551 C -1.142,2.551 0,1.409 0,0"
             style="fill:#f4f4f4;fill-opacity:1;fill-rule:nonzero;stroke:none"
             id="path22231"
             inkscape:connector-curvature="0" /></g><g
           id="g22233"
           transform="translate(91.4173,102.1748)"><path
             d="m 0,0 c 0,-1.409 -1.142,-2.551 -2.551,-2.551 -1.409,0 -2.551,1.142 -2.551,2.551 0,1.409 1.142,2.551 2.551,2.551 C -1.142,2.551 0,1.409 0,0"
             style="fill:#f4f4f4;fill-opacity:1;fill-rule:nonzero;stroke:none"
             id="path22235"
             inkscape:connector-curvature="0" /></g><g
           id="g22237"
           transform="translate(91.4173,109.3748)"><path
             d="m 0,0 c 0,-1.409 -1.142,-2.551 -2.551,-2.551 -1.409,0 -2.551,1.142 -2.551,2.551 0,1.409 1.142,2.551 2.551,2.551 C -1.142,2.551 0,1.409 0,0"
             style="fill:#f4f4f4;fill-opacity:1;fill-rule:nonzero;stroke:none"
             id="path22239"
             inkscape:connector-curvature="0" /></g><g
           id="g22241"
           transform="translate(88.8661,86.3575)"><path
             d="M 0,0 C -0.783,0 -1.417,0.635 -1.417,1.417 -1.417,2.2 -0.783,2.835 0,2.835 0.783,2.835 1.417,2.2 1.417,1.417 1.417,0.635 0.783,0 0,0 m 0,3.543 c -1.174,0 -2.126,-0.952 -2.126,-2.126 0,-1.174 0.952,-2.126 2.126,-2.126 1.174,0 2.126,0.952 2.126,2.126 0,1.174 -0.952,2.126 -2.126,2.126"
             style="fill:#fbc834;fill-opacity:1;fill-rule:nonzero;stroke:none"
             id="path22243"
             inkscape:connector-curvature="0" /></g><g
           id="g22245"
           transform="translate(88.8661,86.3575)"><path
             d="M 0,0 C -0.783,0 -1.417,0.635 -1.417,1.417 -1.417,2.2 -0.783,2.835 0,2.835 0.783,2.835 1.417,2.2 1.417,1.417 1.417,0.635 0.783,0 0,0 Z m 0,3.543 c -1.174,0 -2.126,-0.952 -2.126,-2.126 0,-1.174 0.952,-2.126 2.126,-2.126 1.174,0 2.126,0.952 2.126,2.126 0,1.174 -0.952,2.126 -2.126,2.126 z"
             style="fill:none;stroke:#918f90;stroke-width:0.1;stroke-linecap:butt;stroke-linejoin:miter;stroke-miterlimit:10;stroke-dasharray:none;stroke-opacity:1"
             id="path22247"
             inkscape:connector-curvature="0" /></g><g
           id="g22249"
           transform="translate(88.8661,93.5575)"><path
             d="M 0,0 C -0.783,0 -1.417,0.635 -1.417,1.417 -1.417,2.2 -0.783,2.835 0,2.835 0.783,2.835 1.417,2.2 1.417,1.417 1.417,0.635 0.783,0 0,0 m 0,3.543 c -1.174,0 -2.126,-0.952 -2.126,-2.126 0,-1.174 0.952,-2.126 2.126,-2.126 1.174,0 2.126,0.952 2.126,2.126 0,1.174 -0.952,2.126 -2.126,2.126"
             style="fill:#fbc834;fill-opacity:1;fill-rule:nonzero;stroke:none"
             id="path22251"
             inkscape:connector-curvature="0" /></g><g
           id="g22253"
           transform="translate(88.8661,93.5575)"><path
             d="M 0,0 C -0.783,0 -1.417,0.635 -1.417,1.417 -1.417,2.2 -0.783,2.835 0,2.835 0.783,2.835 1.417,2.2 1.417,1.417 1.417,0.635 0.783,0 0,0 Z m 0,3.543 c -1.174,0 -2.126,-0.952 -2.126,-2.126 0,-1.174 0.952,-2.126 2.126,-2.126 1.174,0 2.126,0.952 2.126,2.126 0,1.174 -0.952,2.126 -2.126,2.126 z"
             style="fill:none;stroke:#918f90;stroke-width:0.1;stroke-linecap:butt;stroke-linejoin:miter;stroke-miterlimit:10;stroke-dasharray:none;stroke-opacity:1"
             id="path22255"
             inkscape:connector-curvature="0" /></g><g
           id="g22257"
           transform="translate(88.8661,100.7575)"><path
             d="M 0,0 C -0.783,0 -1.417,0.635 -1.417,1.417 -1.417,2.2 -0.783,2.835 0,2.835 0.783,2.835 1.417,2.2 1.417,1.417 1.417,0.635 0.783,0 0,0 m 0,3.543 c -1.174,0 -2.126,-0.952 -2.126,-2.126 0,-1.174 0.952,-2.126 2.126,-2.126 1.174,0 2.126,0.952 2.126,2.126 0,1.174 -0.952,2.126 -2.126,2.126"
             style="fill:#fbc834;fill-opacity:1;fill-rule:nonzero;stroke:none"
             id="path22259"
             inkscape:connector-curvature="0" /></g><g
           id="g22261"
           transform="translate(88.8661,100.7575)"><path
             d="M 0,0 C -0.783,0 -1.417,0.635 -1.417,1.417 -1.417,2.2 -0.783,2.835 0,2.835 0.783,2.835 1.417,2.2 1.417,1.417 1.417,0.635 0.783,0 0,0 Z m 0,3.543 c -1.174,0 -2.126,-0.952 -2.126,-2.126 0,-1.174 0.952,-2.126 2.126,-2.126 1.174,0 2.126,0.952 2.126,2.126 0,1.174 -0.952,2.126 -2.126,2.126 z"
             style="fill:none;stroke:#918f90;stroke-width:0.1;stroke-linecap:butt;stroke-linejoin:miter;stroke-miterlimit:10;stroke-dasharray:none;stroke-opacity:1"
             id="path22263"
             inkscape:connector-curvature="0" /></g><g
           id="g22265"
           transform="translate(88.8661,107.9575)"><path
             d="M 0,0 C -0.783,0 -1.417,0.635 -1.417,1.417 -1.417,2.2 -0.783,2.835 0,2.835 0.783,2.835 1.417,2.2 1.417,1.417 1.417,0.635 0.783,0 0,0 m 0,3.543 c -1.174,0 -2.126,-0.952 -2.126,-2.126 0,-1.174 0.952,-2.126 2.126,-2.126 1.174,0 2.126,0.952 2.126,2.126 0,1.174 -0.952,2.126 -2.126,2.126"
             style="fill:#fbc834;fill-opacity:1;fill-rule:nonzero;stroke:none"
             id="path22267"
             inkscape:connector-curvature="0" /></g><g
           id="g22269"
           transform="translate(88.8661,107.9575)"><path
             d="M 0,0 C -0.783,0 -1.417,0.635 -1.417,1.417 -1.417,2.2 -0.783,2.835 0,2.835 0.783,2.835 1.417,2.2 1.417,1.417 1.417,0.635 0.783,0 0,0 Z m 0,3.543 c -1.174,0 -2.126,-0.952 -2.126,-2.126 0,-1.174 0.952,-2.126 2.126,-2.126 1.174,0 2.126,0.952 2.126,2.126 0,1.174 -0.952,2.126 -2.126,2.126 z"
             style="fill:none;stroke:#918f90;stroke-width:0.1;stroke-linecap:butt;stroke-linejoin:miter;stroke-miterlimit:10;stroke-dasharray:none;stroke-opacity:1"
             id="path22271"
             inkscape:connector-curvature="0" /></g><path
           d="m 89.773,108.468 h -1.814 v 1.814 h 1.814 z"
           style="fill:#f89c0e;fill-opacity:1;fill-rule:nonzero;stroke:#918f90;stroke-width:0.1;stroke-linecap:butt;stroke-linejoin:miter;stroke-miterlimit:10;stroke-dasharray:none;stroke-opacity:1"
           id="path22273"
           inkscape:connector-curvature="0" /><path
           d="m 89.773,101.268 h -1.814 v 1.814 h 1.814 z"
           style="fill:#f89c0e;fill-opacity:1;fill-rule:nonzero;stroke:#918f90;stroke-width:0.1;stroke-linecap:butt;stroke-linejoin:miter;stroke-miterlimit:10;stroke-dasharray:none;stroke-opacity:1"
           id="path22275"
           inkscape:connector-curvature="0" /><path
           d="m 89.773,94.068 h -1.814 v 1.814 h 1.814 z"
           style="fill:#f89c0e;fill-opacity:1;fill-rule:nonzero;stroke:#918f90;stroke-width:0.1;stroke-linecap:butt;stroke-linejoin:miter;stroke-miterlimit:10;stroke-dasharray:none;stroke-opacity:1"
           id="path22277"
           inkscape:connector-curvature="0" /><path
           d="m 89.773,86.868 h -1.814 v 1.814 h 1.814 z"
           style="fill:#f89c0e;fill-opacity:1;fill-rule:nonzero;stroke:#918f90;stroke-width:0.1;stroke-linecap:butt;stroke-linejoin:miter;stroke-miterlimit:10;stroke-dasharray:none;stroke-opacity:1"
           id="path22279"
           inkscape:connector-curvature="0" /><g
           id="g22281"
           transform="translate(55.4173,87.7748)"><path
             d="m 0,0 c 0,-1.409 -1.142,-2.551 -2.551,-2.551 -1.409,0 -2.551,1.142 -2.551,2.551 0,1.409 1.142,2.551 2.551,2.551 C -1.142,2.551 0,1.409 0,0"
             style="fill:#f4f4f4;fill-opacity:1;fill-rule:nonzero;stroke:none"
             id="path22283"
             inkscape:connector-curvature="0" /></g><g
           id="g22285"
           transform="translate(55.4173,94.9748)"><path
             d="m 0,0 c 0,-1.409 -1.142,-2.551 -2.551,-2.551 -1.409,0 -2.551,1.142 -2.551,2.551 0,1.409 1.142,2.551 2.551,2.551 C -1.142,2.551 0,1.409 0,0"
             style="fill:#f4f4f4;fill-opacity:1;fill-rule:nonzero;stroke:none"
             id="path22287"
             inkscape:connector-curvature="0" /></g><g
           id="g22289"
           transform="translate(55.4173,102.1748)"><path
             d="m 0,0 c 0,-1.409 -1.142,-2.551 -2.551,-2.551 -1.409,0 -2.551,1.142 -2.551,2.551 0,1.409 1.142,2.551 2.551,2.551 C -1.142,2.551 0,1.409 0,0"
             style="fill:#f4f4f4;fill-opacity:1;fill-rule:nonzero;stroke:none"
             id="path22291"
             inkscape:connector-curvature="0" /></g><g
           id="g22293"
           transform="translate(55.4173,109.3748)"><path
             d="m 0,0 c 0,-1.409 -1.142,-2.551 -2.551,-2.551 -1.409,0 -2.551,1.142 -2.551,2.551 0,1.409 1.142,2.551 2.551,2.551 C -1.142,2.551 0,1.409 0,0"
             style="fill:#f4f4f4;fill-opacity:1;fill-rule:nonzero;stroke:none"
             id="path22295"
             inkscape:connector-curvature="0" /></g><g
           id="g22297"
           transform="translate(52.8661,86.3575)"><path
             d="M 0,0 C -0.783,0 -1.417,0.635 -1.417,1.417 -1.417,2.2 -0.783,2.835 0,2.835 0.783,2.835 1.417,2.2 1.417,1.417 1.417,0.635 0.783,0 0,0 m 0,3.543 c -1.174,0 -2.126,-0.952 -2.126,-2.126 0,-1.174 0.952,-2.126 2.126,-2.126 1.174,0 2.126,0.952 2.126,2.126 0,1.174 -0.952,2.126 -2.126,2.126"
             style="fill:#fbc834;fill-opacity:1;fill-rule:nonzero;stroke:none"
             id="path22299"
             inkscape:connector-curvature="0" /></g><g
           id="g22301"
           transform="translate(52.8661,86.3575)"><path
             d="M 0,0 C -0.783,0 -1.417,0.635 -1.417,1.417 -1.417,2.2 -0.783,2.835 0,2.835 0.783,2.835 1.417,2.2 1.417,1.417 1.417,0.635 0.783,0 0,0 Z m 0,3.543 c -1.174,0 -2.126,-0.952 -2.126,-2.126 0,-1.174 0.952,-2.126 2.126,-2.126 1.174,0 2.126,0.952 2.126,2.126 0,1.174 -0.952,2.126 -2.126,2.126 z"
             style="fill:none;stroke:#918f90;stroke-width:0.1;stroke-linecap:butt;stroke-linejoin:miter;stroke-miterlimit:10;stroke-dasharray:none;stroke-opacity:1"
             id="path22303"
             inkscape:connector-curvature="0" /></g><g
           id="g22305"
           transform="translate(52.8661,93.5575)"><path
             d="M 0,0 C -0.783,0 -1.417,0.635 -1.417,1.417 -1.417,2.2 -0.783,2.835 0,2.835 0.783,2.835 1.417,2.2 1.417,1.417 1.417,0.635 0.783,0 0,0 m 0,3.543 c -1.174,0 -2.126,-0.952 -2.126,-2.126 0,-1.174 0.952,-2.126 2.126,-2.126 1.174,0 2.126,0.952 2.126,2.126 0,1.174 -0.952,2.126 -2.126,2.126"
             style="fill:#fbc834;fill-opacity:1;fill-rule:nonzero;stroke:none"
             id="path22307"
             inkscape:connector-curvature="0" /></g><g
           id="g22309"
           transform="translate(52.8661,93.5575)"><path
             d="M 0,0 C -0.783,0 -1.417,0.635 -1.417,1.417 -1.417,2.2 -0.783,2.835 0,2.835 0.783,2.835 1.417,2.2 1.417,1.417 1.417,0.635 0.783,0 0,0 Z m 0,3.543 c -1.174,0 -2.126,-0.952 -2.126,-2.126 0,-1.174 0.952,-2.126 2.126,-2.126 1.174,0 2.126,0.952 2.126,2.126 0,1.174 -0.952,2.126 -2.126,2.126 z"
             style="fill:none;stroke:#918f90;stroke-width:0.1;stroke-linecap:butt;stroke-linejoin:miter;stroke-miterlimit:10;stroke-dasharray:none;stroke-opacity:1"
             id="path22311"
             inkscape:connector-curvature="0" /></g><g
           id="g22313"
           transform="translate(52.8661,100.7575)"><path
             d="M 0,0 C -0.783,0 -1.417,0.635 -1.417,1.417 -1.417,2.2 -0.783,2.835 0,2.835 0.783,2.835 1.417,2.2 1.417,1.417 1.417,0.635 0.783,0 0,0 m 0,3.543 c -1.174,0 -2.126,-0.952 -2.126,-2.126 0,-1.174 0.952,-2.126 2.126,-2.126 1.174,0 2.126,0.952 2.126,2.126 0,1.174 -0.952,2.126 -2.126,2.126"
             style="fill:#fbc834;fill-opacity:1;fill-rule:nonzero;stroke:none"
             id="path22315"
             inkscape:connector-curvature="0" /></g><g
           id="g22317"
           transform="translate(52.8661,100.7575)"><path
             d="M 0,0 C -0.783,0 -1.417,0.635 -1.417,1.417 -1.417,2.2 -0.783,2.835 0,2.835 0.783,2.835 1.417,2.2 1.417,1.417 1.417,0.635 0.783,0 0,0 Z m 0,3.543 c -1.174,0 -2.126,-0.952 -2.126,-2.126 0,-1.174 0.952,-2.126 2.126,-2.126 1.174,0 2.126,0.952 2.126,2.126 0,1.174 -0.952,2.126 -2.126,2.126 z"
             style="fill:none;stroke:#918f90;stroke-width:0.1;stroke-linecap:butt;stroke-linejoin:miter;stroke-miterlimit:10;stroke-dasharray:none;stroke-opacity:1"
             id="path22319"
             inkscape:connector-curvature="0" /></g><g
           id="g22321"
           transform="translate(52.8661,107.9575)"><path
             d="M 0,0 C -0.783,0 -1.417,0.635 -1.417,1.417 -1.417,2.2 -0.783,2.835 0,2.835 0.783,2.835 1.417,2.2 1.417,1.417 1.417,0.635 0.783,0 0,0 m 0,3.543 c -1.174,0 -2.126,-0.952 -2.126,-2.126 0,-1.174 0.952,-2.126 2.126,-2.126 1.174,0 2.126,0.952 2.126,2.126 0,1.174 -0.952,2.126 -2.126,2.126"
             style="fill:#fbc834;fill-opacity:1;fill-rule:nonzero;stroke:none"
             id="path22323"
             inkscape:connector-curvature="0" /></g><g
           id="g22325"
           transform="translate(52.8661,107.9575)"><path
             d="M 0,0 C -0.783,0 -1.417,0.635 -1.417,1.417 -1.417,2.2 -0.783,2.835 0,2.835 0.783,2.835 1.417,2.2 1.417,1.417 1.417,0.635 0.783,0 0,0 Z m 0,3.543 c -1.174,0 -2.126,-0.952 -2.126,-2.126 0,-1.174 0.952,-2.126 2.126,-2.126 1.174,0 2.126,0.952 2.126,2.126 0,1.174 -0.952,2.126 -2.126,2.126 z"
             style="fill:none;stroke:#918f90;stroke-width:0.1;stroke-linecap:butt;stroke-linejoin:miter;stroke-miterlimit:10;stroke-dasharray:none;stroke-opacity:1"
             id="path22327"
             inkscape:connector-curvature="0" /></g><path
           d="m 53.773,108.468 h -1.814 v 1.814 h 1.814 z"
           style="fill:#f89c0e;fill-opacity:1;fill-rule:nonzero;stroke:#918f90;stroke-width:0.1;stroke-linecap:butt;stroke-linejoin:miter;stroke-miterlimit:10;stroke-dasharray:none;stroke-opacity:1"
           id="path22329"
           inkscape:connector-curvature="0" /><path
           d="m 53.773,101.268 h -1.814 v 1.814 h 1.814 z"
           style="fill:#f89c0e;fill-opacity:1;fill-rule:nonzero;stroke:#918f90;stroke-width:0.1;stroke-linecap:butt;stroke-linejoin:miter;stroke-miterlimit:10;stroke-dasharray:none;stroke-opacity:1"
           id="path22331"
           inkscape:connector-curvature="0" /><path
           d="m 53.773,94.068 h -1.814 v 1.814 h 1.814 z"
           style="fill:#f89c0e;fill-opacity:1;fill-rule:nonzero;stroke:#918f90;stroke-width:0.1;stroke-linecap:butt;stroke-linejoin:miter;stroke-miterlimit:10;stroke-dasharray:none;stroke-opacity:1"
           id="path22333"
           inkscape:connector-curvature="0" /><path
           d="m 53.773,86.868 h -1.814 v 1.814 h 1.814 z"
           style="fill:#f89c0e;fill-opacity:1;fill-rule:nonzero;stroke:#918f90;stroke-width:0.1;stroke-linecap:butt;stroke-linejoin:miter;stroke-miterlimit:10;stroke-dasharray:none;stroke-opacity:1"
           id="path22335"
           inkscape:connector-curvature="0" /></g></g><g
       id="g22337"><g
         id="g22339"
         clip-path="url(#clipPath22343)"><g
           id="g22345"
           transform="translate(78.4913,66.5973)"><path
             d="M 0,0 H 0.624 V -11.339 H 5.726 V 0 H 6.35 V -15.165 H 0 Z"
             style="fill:#fbc18c;fill-opacity:1;fill-rule:nonzero;stroke:none"
             id="path22347"
             inkscape:connector-curvature="0" /></g><g
           id="g22349"
           transform="translate(71.2913,66.5973)"><path
             d="M 0,0 H 0.624 V -11.339 H 5.726 V 0 H 6.35 V -15.165 H 0 Z"
             style="fill:#fbc834;fill-opacity:1;fill-rule:nonzero;stroke:none"
             id="path22351"
             inkscape:connector-curvature="0" /></g><g
           id="g22353"
           transform="translate(64.0913,66.5973)"><path
             d="M 0,0 H 0.624 V -11.339 H 5.726 V 0 H 6.35 V -15.165 H 0 Z"
             style="fill:#f89c0e;fill-opacity:1;fill-rule:nonzero;stroke:none"
             id="path22355"
             inkscape:connector-curvature="0" /></g><g
           id="g22357"
           transform="translate(56.8913,66.5973)"><path
             d="M 0,0 H 0.624 V -11.339 H 5.726 V 0 H 6.35 V -15.165 H 0 Z"
             style="fill:#f25c19;fill-opacity:1;fill-rule:nonzero;stroke:none"
             id="path22359"
             inkscape:connector-curvature="0" /></g><g
           id="g22361"
           transform="translate(83.1356,58.275)"><path
             d="m 0,0 c 0.066,-0.131 0.135,-0.419 0.135,-0.783 0,-0.964 -0.604,-1.549 -1.526,-1.549 -1,0 -1.603,0.693 -1.603,1.621 0,0.363 0.076,0.625 0.135,0.737 l 0.441,-0.121 c -0.062,-0.143 -0.117,-0.342 -0.117,-0.594 0,-0.617 0.387,-1.063 1.117,-1.063 0.666,0 1.094,0.393 1.094,1.059 0,0.224 -0.045,0.459 -0.113,0.603 z"
             style="fill:#231f20;fill-opacity:1;fill-rule:nonzero;stroke:none"
             id="path22363"
             inkscape:connector-curvature="0" /></g><g
           id="g22365"
           transform="translate(82.6219,58.733)"><path
             d="m 0,0 c 0.104,0.181 0.193,0.45 0.193,0.733 0,0.356 -0.166,0.554 -0.414,0.554 -0.23,0 -0.365,-0.153 -0.504,-0.54 -0.179,-0.5 -0.445,-0.819 -0.882,-0.819 -0.495,0 -0.873,0.414 -0.873,1.071 0,0.328 0.072,0.572 0.152,0.73 L -1.881,1.593 C -1.939,1.485 -2.025,1.274 -2.025,0.99 c 0,-0.35 0.189,-0.504 0.363,-0.504 0.234,0 0.344,0.175 0.5,0.581 0.199,0.526 0.465,0.784 0.9,0.784 0.487,0 0.91,-0.37 0.91,-1.153 0,-0.32 -0.089,-0.653 -0.189,-0.82 z"
             style="fill:#231f20;fill-opacity:1;fill-rule:nonzero;stroke:none"
             id="path22367"
             inkscape:connector-curvature="0" /></g><path
           d="m 83.563,63.013 h 0.225 v -2.251 h -0.225 z"
           style="fill:#231f20;fill-opacity:1;fill-rule:nonzero;stroke:none"
           id="path22369"
           inkscape:connector-curvature="0" /><g
           id="g22371"
           transform="translate(83.2254,63.3316)"><path
             d="m 0,0 h -3.035 v 0.631 l 1.301,0.783 c 0.338,0.202 0.689,0.378 1.017,0.518 V 1.94 C -1.121,1.904 -1.514,1.891 -1.977,1.891 H -3.035 V 2.404 H 0 V 1.832 L -1.332,1.04 C -1.666,0.847 -2.039,0.645 -2.381,0.496 l 0.004,-0.014 c 0.391,0.022 0.793,0.027 1.291,0.027 H 0 Z"
             style="fill:#231f20;fill-opacity:1;fill-rule:nonzero;stroke:none"
             id="path22373"
             inkscape:connector-curvature="0" /></g><g
           id="g22375"
           transform="translate(74.787,58.6617)"><path
             d="m 0,0 c -0.392,-0.018 -0.864,-0.041 -1.273,-0.036 v -0.013 c 0.369,-0.099 0.778,-0.225 1.161,-0.361 L 1.202,-0.851 V -1.278 L -0.094,-1.684 C -0.481,-1.801 -0.896,-1.908 -1.273,-1.99 v -0.008 c 0.396,-0.014 0.877,-0.032 1.292,-0.055 L 1.238,-2.12 v -0.518 l -3.034,0.202 v 0.73 l 1.22,0.395 c 0.356,0.11 0.716,0.204 1.054,0.28 v 0.013 c -0.329,0.081 -0.703,0.186 -1.058,0.302 l -1.216,0.419 v 0.721 l 3.034,0.175 v -0.54 z"
             style="fill:#231f20;fill-opacity:1;fill-rule:nonzero;stroke:none"
             id="path22377"
             inkscape:connector-curvature="0" /></g><g
           id="g22379"
           transform="translate(74.5213,60.2496)"><path
             d="M 0,0 C 0.617,0 1.107,0.311 1.107,0.842 1.107,1.377 0.612,1.68 -0.022,1.68 -0.594,1.68 -1.134,1.396 -1.134,0.842 -1.134,0.293 -0.625,0 0,0 m -0.045,2.264 c 1.018,0 1.599,-0.617 1.599,-1.453 0,-0.856 -0.654,-1.396 -1.544,-1.396 -0.932,0 -1.589,0.585 -1.589,1.44 0,0.887 0.67,1.409 1.534,1.409"
             style="fill:#231f20;fill-opacity:1;fill-rule:nonzero;stroke:none"
             id="path22381"
             inkscape:connector-curvature="0" /></g><g
           id="g22383"
           transform="translate(75.4217,62.9761)"><path
             d="m 0,0 c 0.104,0.181 0.194,0.451 0.194,0.734 0,0.356 -0.167,0.553 -0.415,0.553 -0.229,0 -0.364,-0.152 -0.504,-0.539 -0.179,-0.5 -0.445,-0.82 -0.881,-0.82 -0.496,0 -0.873,0.415 -0.873,1.072 0,0.328 0.071,0.571 0.152,0.729 L -1.881,1.594 C -1.939,1.486 -2.025,1.274 -2.025,0.99 c 0,-0.35 0.189,-0.504 0.364,-0.504 0.234,0 0.343,0.176 0.5,0.581 0.198,0.527 0.464,0.784 0.9,0.784 0.487,0 0.909,-0.37 0.909,-1.153 0,-0.319 -0.089,-0.653 -0.189,-0.819 z"
             style="fill:#231f20;fill-opacity:1;fill-rule:nonzero;stroke:none"
             id="path22385"
             inkscape:connector-curvature="0" /></g><path
           d="m 72.991,65.878 h 3.034 v -0.553 h -3.034 z"
           style="fill:#231f20;fill-opacity:1;fill-rule:nonzero;stroke:none"
           id="path22387"
           inkscape:connector-curvature="0" /><g
           id="g22389"
           transform="translate(68.2215,56.0875)"><path
             d="m 0,0 c 0.104,0.18 0.194,0.449 0.194,0.733 0,0.356 -0.167,0.554 -0.415,0.554 -0.229,0 -0.364,-0.153 -0.504,-0.541 -0.179,-0.499 -0.445,-0.818 -0.881,-0.818 -0.496,0 -0.873,0.414 -0.873,1.07 0,0.329 0.071,0.572 0.152,0.731 L -1.881,1.593 C -1.939,1.484 -2.025,1.273 -2.025,0.99 c 0,-0.351 0.189,-0.505 0.364,-0.505 0.234,0 0.343,0.176 0.5,0.581 0.198,0.527 0.464,0.784 0.9,0.784 0.487,0 0.909,-0.37 0.909,-1.153 0,-0.32 -0.089,-0.652 -0.189,-0.819 z"
             style="fill:#231f20;fill-opacity:1;fill-rule:nonzero;stroke:none"
             id="path22391"
             inkscape:connector-curvature="0" /></g><g
           id="g22393"
           transform="translate(68.7352,60.6099)"><path
             d="m 0,0 c 0.067,-0.13 0.135,-0.419 0.135,-0.783 0,-0.964 -0.604,-1.548 -1.526,-1.548 -1,0 -1.602,0.693 -1.602,1.62 0,0.364 0.076,0.626 0.135,0.738 l 0.441,-0.122 c -0.063,-0.143 -0.117,-0.342 -0.117,-0.593 0,-0.618 0.387,-1.063 1.116,-1.063 0.666,0 1.094,0.392 1.094,1.058 0,0.225 -0.045,0.46 -0.113,0.603 z"
             style="fill:#231f20;fill-opacity:1;fill-rule:nonzero;stroke:none"
             id="path22395"
             inkscape:connector-curvature="0" /></g><g
           id="g22397"
           transform="translate(65.7909,61.0816)"><path
             d="M 0,0 V 0.554 H 2.57 V 1.801 H 3.034 V 0 Z"
             style="fill:#231f20;fill-opacity:1;fill-rule:nonzero;stroke:none"
             id="path22399"
             inkscape:connector-curvature="0" /></g><g
           id="g22401"
           transform="translate(65.7909,63.3004)"><path
             d="M 0,0 V 0.549 H 1.396 V 0.562 C 1.278,0.635 1.171,0.711 1.067,0.783 L 0,1.575 V 2.26 L 1.292,1.215 3.034,2.327 V 1.679 L 1.644,0.818 1.968,0.549 H 3.034 V 0 Z"
             style="fill:#231f20;fill-opacity:1;fill-rule:nonzero;stroke:none"
             id="path22403"
             inkscape:connector-curvature="0" /></g><g
           id="g22405"
           transform="translate(60.3866,58.6617)"><path
             d="m 0,0 c -0.392,-0.018 -0.864,-0.041 -1.273,-0.036 v -0.013 c 0.369,-0.099 0.778,-0.225 1.161,-0.361 L 1.202,-0.851 V -1.278 L -0.094,-1.684 C -0.481,-1.801 -0.896,-1.908 -1.273,-1.99 v -0.008 c 0.396,-0.014 0.877,-0.032 1.292,-0.055 L 1.238,-2.12 v -0.518 l -3.034,0.202 v 0.73 l 1.22,0.395 c 0.356,0.11 0.716,0.204 1.054,0.28 v 0.013 c -0.329,0.081 -0.703,0.186 -1.058,0.302 l -1.216,0.419 v 0.721 l 3.034,0.175 v -0.54 z"
             style="fill:#231f20;fill-opacity:1;fill-rule:nonzero;stroke:none"
             id="path22407"
             inkscape:connector-curvature="0" /></g><path
           d="m 58.591,60.376 h 3.034 v -0.554 h -3.034 z"
           style="fill:#231f20;fill-opacity:1;fill-rule:nonzero;stroke:none"
           id="path22409"
           inkscape:connector-curvature="0" /><g
           id="g22411"
           transform="translate(61.0213,60.9966)"><path
             d="m 0,0 c 0.104,0.181 0.194,0.45 0.194,0.733 0,0.356 -0.167,0.554 -0.415,0.554 -0.229,0 -0.364,-0.153 -0.504,-0.54 -0.179,-0.5 -0.445,-0.819 -0.881,-0.819 -0.496,0 -0.873,0.414 -0.873,1.071 0,0.328 0.071,0.572 0.152,0.73 L -1.881,1.593 C -1.939,1.485 -2.025,1.274 -2.025,0.99 c 0,-0.35 0.189,-0.504 0.364,-0.504 0.234,0 0.343,0.175 0.5,0.581 0.198,0.526 0.464,0.784 0.9,0.784 0.487,0 0.909,-0.37 0.909,-1.153 0,-0.32 -0.089,-0.653 -0.189,-0.82 z"
             style="fill:#231f20;fill-opacity:1;fill-rule:nonzero;stroke:none"
             id="path22413"
             inkscape:connector-curvature="0" /></g><g
           id="g22415"
           transform="translate(60.121,63.773)"><path
             d="M 0,0 C 0.617,0 1.107,0.311 1.107,0.842 1.107,1.377 0.612,1.68 -0.022,1.68 -0.594,1.68 -1.134,1.396 -1.134,0.842 -1.134,0.293 -0.625,0 0,0 m -0.045,2.264 c 1.018,0 1.599,-0.617 1.599,-1.453 0,-0.856 -0.654,-1.396 -1.544,-1.396 -0.932,0 -1.589,0.585 -1.589,1.44 0,0.887 0.67,1.409 1.534,1.409"
             style="fill:#231f20;fill-opacity:1;fill-rule:nonzero;stroke:none"
             id="path22417"
             inkscape:connector-curvature="0" /></g></g></g><path
       d="m 81.666,106.2 h -21.6 v 6.35 h 21.6 z"
       style="fill:#ed1c24;fill-opacity:1;fill-rule:nonzero;stroke:none"
       id="path22427"
       inkscape:connector-curvature="0" /><path
       d="m 81.666001,106.839 h -21.6 v 5.102 h 21.6 z"
       style="fill:#f4f4f4;fill-opacity:1;fill-rule:nonzero;stroke:none"
       id="path22429"
       inkscape:connector-curvature="0" /><g
       id="g22431"
       transform="translate(70.204301,110.4727)"><path
         d="m 0,0 h -1.251 l -0.095,-0.65 c 0.075,0.009 0.14,0.015 0.235,0.015 0.285,0 0.57,-0.065 0.791,-0.211 0.245,-0.154 0.425,-0.429 0.425,-0.825 0,-0.621 -0.515,-1.126 -1.316,-1.126 -0.375,0 -0.691,0.095 -0.861,0.19 l 0.125,0.465 c 0.14,-0.075 0.421,-0.17 0.716,-0.17 0.36,0 0.706,0.206 0.706,0.596 0,0.37 -0.276,0.615 -0.926,0.615 -0.181,0 -0.316,-0.009 -0.446,-0.03 l 0.215,1.642 H 0 Z"
         style="fill:#231f20;fill-opacity:1;fill-rule:nonzero;stroke:none"
         id="path22433"
         inkscape:connector-curvature="0" /></g><g
       id="g22435"
       transform="translate(71.728201,107.7305)"><path
         d="M 0,0 -1.091,3.373 H -0.42 L 0.04,1.842 C 0.17,1.416 0.28,1.021 0.371,0.61 H 0.38 c 0.091,0.401 0.211,0.812 0.346,1.222 l 0.49,1.541 H 1.872 L 0.706,0 Z"
         style="fill:#231f20;fill-opacity:1;fill-rule:nonzero;stroke:none"
         id="path22437"
         inkscape:connector-curvature="0" /></g><g
       id="g22642"
       transform="translate(135)"><g
         transform="translate(-69.3769,29.6079)"
         id="g22439"><path
           inkscape:connector-curvature="0"
           id="path22441"
           style="fill:#4fabdc;fill-opacity:1;fill-rule:nonzero;stroke:none"
           d="M 0,0 C -0.152,0 -0.304,0.001 -0.455,0.004 -0.742,0.009 -1.029,0.021 -1.314,0.049 -1.478,0.065 -1.642,0.086 -1.805,0.113 -1.98,0.142 -2.154,0.178 -2.326,0.223 -2.507,0.27 -2.685,0.326 -2.86,0.394 -3.191,0.523 -3.507,0.694 -3.792,0.907 -3.948,1.023 -4.095,1.152 -4.23,1.293 -4.365,1.434 -4.488,1.586 -4.598,1.747 -4.631,1.795 -4.662,1.844 -4.693,1.893 -4.851,2.149 -4.811,2.32 -4.556,2.479 -4.3,2.637 -4.129,2.597 -3.97,2.341 -3.946,2.303 -3.922,2.266 -3.896,2.228 -3.812,2.105 -3.719,1.989 -3.615,1.881 -3.513,1.775 -3.402,1.677 -3.283,1.589 -3.059,1.422 -2.811,1.288 -2.551,1.187 -2.408,1.131 -2.262,1.085 -2.113,1.046 -1.966,1.008 -1.818,0.977 -1.669,0.952 -1.524,0.928 -1.378,0.909 -1.232,0.895 -0.969,0.87 -0.705,0.859 -0.44,0.854 -0.295,0.851 -0.149,0.851 -0.004,0.85 0.298,0.85 0.423,0.724 0.421,0.422 0.419,0.12 0.293,-0.004 -0.009,0" /></g><g
         transform="translate(-69.3782,42.4205)"
         id="g22443"><path
           inkscape:connector-curvature="0"
           id="path22445"
           style="fill:#4fabdc;fill-opacity:1;fill-rule:nonzero;stroke:none"
           d="M 0,0 C -0.123,0 -0.247,-0.001 -0.37,-0.002 -0.516,-0.004 -0.661,-0.008 -0.806,-0.014 -1.118,-0.028 -1.429,-0.054 -1.737,-0.102 -1.911,-0.129 -2.084,-0.163 -2.255,-0.205 -2.436,-0.25 -2.615,-0.303 -2.79,-0.368 -3.1,-0.483 -3.397,-0.633 -3.67,-0.82 -3.831,-0.931 -3.983,-1.054 -4.124,-1.189 -4.265,-1.324 -4.394,-1.47 -4.51,-1.626 -4.574,-1.712 -4.635,-1.802 -4.691,-1.893 -4.85,-2.149 -4.81,-2.32 -4.554,-2.479 c 0.255,-0.158 0.427,-0.118 0.585,0.138 0.044,0.07 0.091,0.139 0.141,0.206 0.088,0.118 0.186,0.23 0.292,0.332 0.108,0.103 0.224,0.197 0.347,0.281 0.125,0.086 0.257,0.162 0.393,0.228 0.098,0.047 0.198,0.09 0.301,0.128 0.144,0.053 0.292,0.098 0.441,0.135 0.147,0.036 0.296,0.065 0.445,0.088 0.144,0.023 0.288,0.04 0.433,0.053 0.135,0.012 0.271,0.02 0.407,0.026 0.255,0.011 0.511,0.013 0.767,0.014 0.301,0 0.426,0.125 0.424,0.427 C 0.421,-0.121 0.295,0.003 -0.007,0" /></g><g
         transform="translate(-59.1763,29.6079)"
         id="g22447"><path
           inkscape:connector-curvature="0"
           id="path22449"
           style="fill:#4fabdc;fill-opacity:1;fill-rule:nonzero;stroke:none"
           d="M 0,0 C 0.217,0 0.434,-0.001 0.651,0.002 0.797,0.004 0.942,0.008 1.087,0.014 1.399,0.028 1.71,0.054 2.018,0.102 2.192,0.129 2.365,0.163 2.535,0.205 2.717,0.25 2.896,0.303 3.07,0.368 3.38,0.483 3.678,0.633 3.95,0.82 c 0.161,0.111 0.314,0.234 0.455,0.369 0.14,0.135 0.269,0.281 0.386,0.437 0.212,0.285 0.383,0.601 0.512,0.933 0.068,0.174 0.125,0.353 0.172,0.534 0.044,0.171 0.081,0.345 0.11,0.52 0.027,0.163 0.048,0.327 0.064,0.491 0.027,0.286 0.04,0.572 0.045,0.859 0.004,0.245 0.004,0.49 0.004,0.735 v 1.417 c 0,0.217 0,0.434 -0.003,0.651 C 5.693,7.912 5.69,8.057 5.683,8.202 5.67,8.514 5.644,8.825 5.596,9.133 5.568,9.307 5.534,9.479 5.492,9.65 5.448,9.831 5.394,10.01 5.329,10.185 5.215,10.495 5.064,10.793 4.877,11.065 4.767,11.226 4.644,11.379 4.509,11.52 4.374,11.66 4.227,11.789 4.071,11.906 3.786,12.118 3.471,12.289 3.139,12.418 2.965,12.486 2.786,12.543 2.605,12.59 2.433,12.634 2.26,12.671 2.084,12.7 1.921,12.727 1.758,12.748 1.593,12.764 1.308,12.791 1.021,12.804 0.735,12.809 0.49,12.813 0.245,12.813 0,12.813 h -5.386 c -0.3,0 -0.425,-0.125 -0.425,-0.426 0,-0.3 0.125,-0.425 0.425,-0.425 H 0 c 0.24,0 0.48,10e-4 0.719,-0.003 0.265,-0.005 0.529,-0.016 0.793,-0.042 0.146,-0.014 0.291,-0.032 0.436,-0.056 0.149,-0.025 0.298,-0.056 0.444,-0.095 0.149,-0.038 0.296,-0.084 0.439,-0.14 0.26,-0.101 0.508,-0.235 0.732,-0.402 0.118,-0.088 0.23,-0.186 0.332,-0.292 0.103,-0.108 0.196,-0.225 0.281,-0.348 0.085,-0.125 0.161,-0.256 0.228,-0.393 0.047,-0.097 0.09,-0.198 0.128,-0.3 C 4.585,9.747 4.629,9.599 4.666,9.449 4.702,9.302 4.732,9.154 4.755,9.004 4.778,8.861 4.795,8.716 4.807,8.572 4.82,8.436 4.828,8.301 4.834,8.165 4.849,7.815 4.847,7.465 4.847,7.115 V 5.698 c 0,-0.24 10e-4,-0.48 -0.003,-0.72 C 4.839,4.714 4.828,4.449 4.802,4.186 4.788,4.04 4.77,3.895 4.746,3.75 4.721,3.6 4.69,3.452 4.651,3.305 4.613,3.157 4.567,3.01 4.511,2.867 4.41,2.607 4.276,2.359 4.109,2.135 4.021,2.017 3.923,1.905 3.817,1.803 3.709,1.7 3.592,1.606 3.469,1.522 3.344,1.436 3.213,1.36 3.077,1.294 2.979,1.247 2.878,1.204 2.776,1.166 2.632,1.113 2.484,1.069 2.334,1.032 2.188,0.995 2.039,0.966 1.889,0.943 1.746,0.92 1.602,0.903 1.457,0.89 1.321,0.878 1.186,0.87 1.05,0.864 0.7,0.849 0.35,0.85 0,0.85 h -5.386 c -0.3,0 -0.425,-0.124 -0.425,-0.425 0,-0.3 0.125,-0.425 0.425,-0.425 z" /></g><g
         transform="translate(-66.1212,30.0331)"
         id="g22451"><path
           inkscape:connector-curvature="0"
           id="path22453"
           style="fill:#4fabdc;fill-opacity:1;fill-rule:nonzero;stroke:none"
           d="m 0,0 c 0,0.601 -0.249,0.85 -0.85,0.85 -0.602,0 -0.851,-0.249 -0.851,-0.85 0,-0.601 0.249,-0.85 0.851,-0.85 C -0.249,-0.85 0,-0.601 0,0" /></g><g
         transform="translate(-66.1212,41.9953)"
         id="g22455"><path
           inkscape:connector-curvature="0"
           id="path22457"
           style="fill:#4fabdc;fill-opacity:1;fill-rule:nonzero;stroke:none"
           d="m 0,0 c 0,0.601 -0.249,0.85 -0.85,0.85 -0.602,0 -0.851,-0.249 -0.851,-0.85 0,-0.601 0.249,-0.85 0.851,-0.85 C -0.249,-0.85 0,-0.601 0,0" /></g><g
         transform="translate(-74.37,33.1796)"
         id="g22459"><path
           inkscape:connector-curvature="0"
           id="path22461"
           style="fill:#4fabdc;fill-opacity:1;fill-rule:nonzero;stroke:none"
           d="m 0,0 c -0.601,0 -0.85,0.249 -0.85,0.85 v 3.969 c 0,0.601 0.249,0.85 0.85,0.85 0.601,0 0.85,-0.249 0.85,-0.85 V 0.85 C 0.85,0.249 0.601,0 0,0" /></g><g
         transform="translate(-69.8062,33.1796)"
         id="g22463"><path
           inkscape:connector-curvature="0"
           id="path22465"
           style="fill:#242021;fill-opacity:1;fill-rule:nonzero;stroke:none"
           d="m 0,0 c -0.601,0 -0.85,0.249 -0.85,0.85 v 3.969 c 0,0.601 0.249,0.85 0.85,0.85 0.601,0 0.85,-0.249 0.85,-0.85 V 0.85 C 0.85,0.249 0.601,0 0,0" /></g><g
         transform="translate(-66.9715,33.1796)"
         id="g22467"><path
           inkscape:connector-curvature="0"
           id="path22469"
           style="fill:#cba855;fill-opacity:1;fill-rule:nonzero;stroke:none"
           d="m 0,0 c -0.601,0 -0.85,0.249 -0.85,0.85 v 3.969 c 0,0.601 0.249,0.85 0.85,0.85 0.601,0 0.85,-0.249 0.85,-0.85 V 0.85 C 0.85,0.249 0.601,0 0,0" /></g><g
         transform="translate(-58.4676,33.1796)"
         id="g22471"><path
           inkscape:connector-curvature="0"
           id="path22473"
           style="fill:#242021;fill-opacity:1;fill-rule:nonzero;stroke:none"
           d="m 0,0 c 0.601,0 0.85,0.249 0.85,0.85 v 3.969 c 0,0.601 -0.249,0.85 -0.85,0.85 -0.601,0 -0.85,-0.249 -0.85,-0.85 V 0.85 C -0.85,0.249 -0.601,0 0,0" /></g><g
         transform="translate(-61.3023,33.1796)"
         id="g22475"><path
           inkscape:connector-curvature="0"
           id="path22477"
           style="fill:#cba855;fill-opacity:1;fill-rule:nonzero;stroke:none"
           d="m 0,0 c 0.601,0 0.85,0.249 0.85,0.85 v 3.969 c 0,0.601 -0.249,0.85 -0.85,0.85 -0.601,0 -0.85,-0.249 -0.85,-0.85 V 0.85 C -0.85,0.249 -0.601,0 0,0" /></g><g
         transform="translate(-64.1369,33.1796)"
         id="g22479"><path
           inkscape:connector-curvature="0"
           id="path22481"
           style="fill:#cba855;fill-opacity:1;fill-rule:nonzero;stroke:none"
           d="m 0,0 c 0.601,0 0.85,0.249 0.85,0.85 v 3.969 c 0,0.601 -0.249,0.85 -0.85,0.85 -0.601,0 -0.85,-0.249 -0.85,-0.85 V 0.85 C -0.85,0.249 -0.601,0 0,0" /></g></g><g
       id="g22664"
       transform="translate(135)"><g
         transform="translate(-41.4567,87.7897)"
         id="g22483"><path
           inkscape:connector-curvature="0"
           id="path22485"
           style="fill:#bdbcbc;fill-opacity:1;fill-rule:nonzero;stroke:none"
           d="m 0,0 c 0,-12.524 -10.153,-22.677 -22.677,-22.677 -12.524,0 -22.677,10.153 -22.677,22.677 0,12.524 10.153,22.677 22.677,22.677 C -10.153,22.677 0,12.524 0,0" /></g><g
         transform="translate(-41.4567,87.7897)"
         id="g22487"><path
           inkscape:connector-curvature="0"
           id="path22489"
           style="fill:none;stroke:#231f20;stroke-width:0.5;stroke-linecap:butt;stroke-linejoin:miter;stroke-miterlimit:10;stroke-dasharray:none;stroke-opacity:1"
           d="m 0,0 c 0,-12.524 -10.153,-22.677 -22.677,-22.677 -12.524,0 -22.677,10.153 -22.677,22.677 0,12.524 10.153,22.677 22.677,22.677 C -10.153,22.677 0,12.524 0,0 Z" /></g><g
         transform="translate(-44.2913,87.7897)"
         id="g22491"><path
           inkscape:connector-curvature="0"
           id="path22493"
           style="fill:#a62f2f;fill-opacity:1;fill-rule:nonzero;stroke:none"
           d="m 0,0 c 0,-10.959 -8.884,-19.843 -19.843,-19.843 -10.958,0 -19.842,8.884 -19.842,19.843 0,10.959 8.884,19.843 19.842,19.843 C -8.884,19.843 0,10.959 0,0" /></g><g
         transform="translate(-44.2913,87.7897)"
         id="g22495"><path
           inkscape:connector-curvature="0"
           id="path22497"
           style="fill:none;stroke:#231f20;stroke-width:0.5;stroke-linecap:butt;stroke-linejoin:miter;stroke-miterlimit:10;stroke-dasharray:none;stroke-opacity:1"
           d="m 0,0 c 0,-10.959 -8.884,-19.843 -19.843,-19.843 -10.958,0 -19.842,8.884 -19.842,19.843 0,10.959 8.884,19.843 19.842,19.843 C -8.884,19.843 0,10.959 0,0 Z" /></g><g
         transform="translate(-52.7953,87.7897)"
         id="g22499"><path
           inkscape:connector-curvature="0"
           id="path22501"
           style="fill:#76201f;fill-opacity:1;fill-rule:nonzero;stroke:none"
           d="m 0,0 c 0,-6.262 -5.076,-11.339 -11.339,-11.339 -6.262,0 -11.338,5.077 -11.338,11.339 0,6.262 5.076,11.339 11.338,11.339 C -5.076,11.339 0,6.262 0,0" /></g><g
         transform="translate(-52.7953,87.7897)"
         id="g22503"><path
           inkscape:connector-curvature="0"
           id="path22505"
           style="fill:none;stroke:#231f20;stroke-width:0.5;stroke-linecap:butt;stroke-linejoin:miter;stroke-miterlimit:10;stroke-dasharray:none;stroke-opacity:1"
           d="m 0,0 c 0,-6.262 -5.076,-11.339 -11.339,-11.339 -6.262,0 -11.338,5.077 -11.338,11.339 0,6.262 5.076,11.339 11.338,11.339 C -5.076,11.339 0,6.262 0,0 Z" /></g><g
         transform="translate(-57.0473,82.1204)"
         id="g22507"><path
           inkscape:connector-curvature="0"
           id="path22509"
           style="fill:#242021;fill-opacity:1;fill-rule:nonzero;stroke:none"
           d="m 0,0 c 0,-0.783 -0.635,-1.417 -1.417,-1.417 -0.783,0 -1.418,0.634 -1.418,1.417 0,0.783 0.635,1.417 1.418,1.417 C -0.635,1.417 0,0.783 0,0" /></g><g
         transform="translate(-68.3858,82.1204)"
         id="g22511"><path
           inkscape:connector-curvature="0"
           id="path22513"
           style="fill:#242021;fill-opacity:1;fill-rule:nonzero;stroke:none"
           d="m 0,0 c 0,-0.783 -0.635,-1.417 -1.417,-1.417 -0.783,0 -1.418,0.634 -1.418,1.417 0,0.783 0.635,1.417 1.418,1.417 C -0.635,1.417 0,0.783 0,0" /></g><g
         transform="translate(-57.0473,93.459)"
         id="g22515"><path
           inkscape:connector-curvature="0"
           id="path22517"
           style="fill:#242021;fill-opacity:1;fill-rule:nonzero;stroke:none"
           d="m 0,0 c 0,-0.783 -0.635,-1.417 -1.417,-1.417 -0.783,0 -1.418,0.634 -1.418,1.417 0,0.783 0.635,1.417 1.418,1.417 C -0.635,1.417 0,0.783 0,0" /></g><g
         transform="translate(-68.3858,93.459)"
         id="g22519"><path
           inkscape:connector-curvature="0"
           id="path22521"
           style="fill:#242021;fill-opacity:1;fill-rule:nonzero;stroke:none"
           d="m 0,0 c 0,-0.783 -0.635,-1.417 -1.417,-1.417 -0.783,0 -1.418,0.634 -1.418,1.417 0,0.783 0.635,1.417 1.418,1.417 C -0.635,1.417 0,0.783 0,0" /></g></g></g></svg>