<?xml version="1.0" encoding="UTF-8" standalone="no"?>
<svg
   xmlns:dc="http://purl.org/dc/elements/1.1/"
   xmlns:cc="http://creativecommons.org/ns#"
   xmlns:rdf="http://www.w3.org/1999/02/22-rdf-syntax-ns#"
   xmlns:svg="http://www.w3.org/2000/svg"
   xmlns="http://www.w3.org/2000/svg"
   xmlns:sodipodi="http://sodipodi.sourceforge.net/DTD/sodipodi-0.dtd"
   xmlns:inkscape="http://www.inkscape.org/namespaces/inkscape"
   viewBox="0 0 59.999249 38.011612"
   version="1.1"
   x="0px"
   y="0px"
   id="svg4353"
   sodipodi:docname="cloud.svg"
   inkscape:version="0.92.3 (2405546, 2018-03-11)"
   width="59.999249"
   height="38.011612">
  <metadata
     id="metadata4359">
    <rdf:RDF>
      <cc:Work
         rdf:about="">
        <dc:format>image/svg+xml</dc:format>
        <dc:type
           rdf:resource="http://purl.org/dc/dcmitype/StillImage" />
        <dc:title>007 - Weather</dc:title>
      </cc:Work>
    </rdf:RDF>
  </metadata>
  <defs
     id="defs4357" />
  <sodipodi:namedview
     pagecolor="#ffffff"
     bordercolor="#666666"
     borderopacity="1"
     objecttolerance="10"
     gridtolerance="10"
     guidetolerance="10"
     inkscape:pageopacity="0"
     inkscape:pageshadow="2"
     inkscape:window-width="1440"
     inkscape:window-height="847"
     id="namedview4355"
     showgrid="false"
     inkscape:zoom="9.2571429"
     inkscape:cx="29.999247"
     inkscape:cy="21"
     inkscape:window-x="-8"
     inkscape:window-y="-8"
     inkscape:window-maximized="1"
     inkscape:current-layer="svg4353"
     fit-margin-top="0"
     fit-margin-left="0"
     fit-margin-right="0"
     fit-margin-bottom="0" />
  <title
     id="title4325">007 - Weather</title>
  <desc
     id="desc4327">Created with Sketch.</desc>
  <path
     style="fill:none;fill-rule:evenodd;stroke:#000000;stroke-width:2;stroke-linecap:round;stroke-linejoin:round"
     d="m 48.999247,17.01161 c -1.470689,0.0013 -2.922787,0.328741 -4.25165,0.95886 0.777577,-3.060643 -0.320159,-6.292144 -2.801109,-8.2458706 -2.48095,-1.953726 -5.879751,-2.263208 -8.672771,-0.789709 -1.544785,-4.297713 -5.396789,-7.344748 -9.9347,-7.858606 C 18.801105,0.56242644 14.365299,2.6709774 11.898634,6.5144464 9.4319682,10.357915 9.3627825,15.268879 11.720197,19.18031 8.3610778,18.525363 4.9212096,19.832541 2.8447855,22.553036 0.76836142,25.273532 0.41484971,28.936377 1.9326686,32.003764 3.4504876,35.07115 6.576874,37.012055 9.9992466,37.01161 H 48.999247 c 5.522847,0 10,-4.477153 10,-10 0,-5.522847 -4.477153,-10 -10,-10 z"
     id="path4329"
     inkscape:connector-curvature="0" />
</svg>
