<svg xmlns="http://www.w3.org/2000/svg" xmlns:xlink="http://www.w3.org/1999/xlink" viewBox="0 0 75 93.75" version="1.1" x="0px" y="0px"><g><path style="" d="M 28.023438 5.859375 L 34.273438 5.859375 L 34.273438 69.726562 L 28.023438 69.726562 Z M 28.023438 5.859375 " stroke="none" fill-rule="nonzero" fill="rgb(0%,0%,0%)" fill-opacity="1"/><path style="" d="M 40.722656 5.859375 L 46.972656 5.859375 L 46.972656 69.726562 L 40.722656 69.726562 Z M 40.722656 5.859375 " stroke="none" fill-rule="nonzero" fill="rgb(0%,0%,0%)" fill-opacity="1"/><path style="" d="M 12.988281 7.546875 L 0 7.546875 L 0 13.796875 L 12.988281 13.796875 C 14.972656 13.796875 16.589844 15.414062 16.589844 17.398438 C 16.589844 19.382812 14.972656 21 12.988281 21 L 12.988281 27.558594 C 14.972656 27.558594 16.589844 29.171875 16.589844 31.15625 C 16.589844 33.144531 14.972656 34.761719 12.988281 34.761719 L 12.988281 41.136719 C 14.972656 41.136719 16.589844 42.753906 16.589844 44.738281 C 16.589844 46.722656 14.972656 48.339844 12.988281 48.339844 L 12.988281 54.589844 C 14.972656 54.589844 16.589844 56.203125 16.589844 58.191406 C 16.589844 60.175781 14.972656 61.792969 12.988281 61.792969 L 0 61.792969 L 0 68.042969 L 12.988281 68.042969 C 18.421875 68.042969 22.839844 63.625 22.839844 58.191406 C 22.839844 55.585938 21.820312 53.226562 20.164062 51.464844 C 21.820312 49.699219 22.839844 47.335938 22.839844 44.738281 C 22.839844 42.105469 21.796875 39.71875 20.109375 37.949219 C 21.796875 36.179688 22.839844 33.789062 22.839844 31.15625 C 22.839844 28.484375 21.765625 26.054688 20.023438 24.28125 C 21.761719 22.5 22.839844 20.078125 22.839844 17.398438 C 22.839844 11.964844 18.421875 7.546875 12.988281 7.546875 Z M 12.988281 7.546875 " stroke="none" fill-rule="nonzero" fill="rgb(0%,0%,0%)" fill-opacity="1"/><path style="" d="M 62.011719 13.796875 L 75 13.796875 L 75 7.546875 L 62.011719 7.546875 C 56.578125 7.546875 52.160156 11.964844 52.160156 17.398438 C 52.160156 20 53.179688 22.363281 54.835938 24.125 C 53.179688 25.886719 52.160156 28.25 52.160156 30.851562 C 52.160156 33.484375 53.203125 35.871094 54.890625 37.640625 C 53.203125 39.410156 52.160156 41.796875 52.160156 44.429688 C 52.160156 47.105469 53.234375 49.53125 54.976562 51.308594 C 53.238281 53.085938 52.160156 55.511719 52.160156 58.1875 C 52.160156 63.621094 56.578125 68.039062 62.011719 68.039062 L 75 68.039062 L 75 61.789062 L 62.011719 61.789062 C 60.027344 61.789062 58.410156 60.171875 58.410156 58.1875 C 58.410156 56.203125 60.023438 54.585938 62.011719 54.585938 L 62.011719 48.03125 C 60.027344 48.03125 58.410156 46.414062 58.410156 44.429688 C 58.410156 42.441406 60.023438 40.828125 62.011719 40.828125 L 62.011719 34.449219 C 60.027344 34.449219 58.410156 32.835938 58.410156 30.847656 C 58.410156 28.863281 60.023438 27.25 62.011719 27.25 L 62.011719 21 C 60.027344 21 58.410156 19.382812 58.410156 17.398438 C 58.410156 15.410156 60.023438 13.796875 62.011719 13.796875 Z M 62.011719 13.796875 " stroke="none" fill-rule="nonzero" fill="rgb(0%,0%,0%)" fill-opacity="1"/></g><text x="0" y="90" fill="#000000" font-size="5px" font-weight="bold" font-family="'Helvetica Neue', Helvetica, Arial-Unicode, Arial, Sans-serif">Created by Lloyd Humphreys</text><text x="0" y="95" fill="#000000" font-size="5px" font-weight="bold" font-family="'Helvetica Neue', Helvetica, Arial-Unicode, Arial, Sans-serif">from the Noun Project</text></svg>