<?xml version="1.0" encoding="UTF-8" standalone="no"?>
<svg
   xmlns:dc="http://purl.org/dc/elements/1.1/"
   xmlns:cc="http://creativecommons.org/ns#"
   xmlns:rdf="http://www.w3.org/1999/02/22-rdf-syntax-ns#"
   xmlns:svg="http://www.w3.org/2000/svg"
   xmlns="http://www.w3.org/2000/svg"
   xmlns:sodipodi="http://sodipodi.sourceforge.net/DTD/sodipodi-0.dtd"
   xmlns:inkscape="http://www.inkscape.org/namespaces/inkscape"
   version="1.1"
   x="0px"
   y="0px"
   viewBox="0 0 100 125"
   style="enable-background:new 0 0 100 100;"
   xml:space="preserve"
   id="svg7036"
   sodipodi:docname="noun_Card Security_782007.svg"
   inkscape:version="0.92.3 (2405546, 2018-03-11)"><metadata
     id="metadata7042"><rdf:RDF><cc:Work
         rdf:about=""><dc:format>image/svg+xml</dc:format><dc:type
           rdf:resource="http://purl.org/dc/dcmitype/StillImage" /></cc:Work></rdf:RDF></metadata><defs
     id="defs7040" /><sodipodi:namedview
     pagecolor="#ffffff"
     bordercolor="#666666"
     borderopacity="1"
     objecttolerance="10"
     gridtolerance="10"
     guidetolerance="10"
     inkscape:pageopacity="0"
     inkscape:pageshadow="2"
     inkscape:window-width="640"
     inkscape:window-height="480"
     id="namedview7038"
     showgrid="false"
     inkscape:zoom="6.864"
     inkscape:cx="26.325758"
     inkscape:cy="62.5"
     inkscape:current-layer="svg7036" /><g
     id="g7030"><g
       id="g7008"><path
         d="M87.4,58c-0.1,0.1-0.2,0.3-0.2,0.5c0,0.2,0.1,0.4,0.2,0.5c0.3,0.3,0.7,0.3,1,0c3.3-3.3,3.3-8.7,0-12c-0.3-0.3-0.7-0.3-1,0    c-0.3,0.3-0.3,0.7,0,1C90.2,50.8,90.2,55.3,87.4,58z"
         id="path7006" /></g><g
       id="g7012"><path
         d="M85.1,56.5c0,0.2,0.1,0.4,0.2,0.5c0.3,0.3,0.7,0.3,1,0c2.2-2.2,2.2-5.7,0-7.9c-0.3-0.3-0.7-0.3-1,0c-0.3,0.3-0.3,0.7,0,1    c1.6,1.6,1.6,4.3,0,5.9C85.2,56.1,85.1,56.3,85.1,56.5z"
         id="path7010" /></g><g
       id="g7016"><path
         d="M83.1,54.4c0,0.2,0.1,0.4,0.2,0.5c0.3,0.3,0.7,0.3,1,0c1-1,1-2.7,0-3.8c-0.3-0.3-0.7-0.3-1,0c-0.3,0.3-0.3,0.7,0,1    c0.5,0.5,0.5,1.3,0,1.8C83.1,54,83.1,54.2,83.1,54.4z"
         id="path7014" /></g><g
       id="g7022"><g
         id="g7020"><path
           d="M74,73.8c2.5,0,4.5-2,4.5-4.5V35.8c0-2.5-2-4.5-4.5-4.5H13.1c-2.5,0-4.5,2-4.5,4.5v33.5c0,2.5,2,4.5,4.5,4.5H74z      M10.2,35.8c0-1.6,1.3-2.9,2.9-2.9H74c1.6,0,2.9,1.3,2.9,2.9v5H10.2V35.8z M10.2,42.4h66.7v6.4H10.2V42.4z M10.2,69.3V50.4h66.7     v18.9c0,1.6-1.3,2.9-2.9,2.9H13.1C11.5,72.2,10.2,70.9,10.2,69.3z"
           id="path7018" /></g></g><g
       id="g7028"><g
         id="g7026"><path
           d="M21.7,66.3c2,0,3.7-1.2,4.4-2.9H28l1.8-1.3l1.8,1.3h1.1l1.8-1.3l1.8,1.3h1.7l2-2l-2-2H26.2c-0.7-1.7-2.5-2.9-4.5-2.9     c-2.7,0-4.9,2.2-4.9,4.9C16.9,64.2,19.1,66.3,21.7,66.3z M20.7,59.9c0.9,0,1.6,0.7,1.6,1.6s-0.7,1.6-1.6,1.6s-1.6-0.7-1.6-1.6     S19.8,59.9,20.7,59.9z"
           id="path7024" /></g></g></g></svg>