<svg xmlns="http://www.w3.org/2000/svg" xmlns:xlink="http://www.w3.org/1999/xlink" xml:space="preserve" version="1.1" style="shape-rendering:geometricPrecision;text-rendering:geometricPrecision;image-rendering:optimizeQuality;" viewBox="0 0 8478 12852.5" x="0px" y="0px" fill-rule="evenodd" clip-rule="evenodd"><defs><style type="text/css">
   
    .fil0 {fill:black;fill-rule:nonzero}
   
  </style></defs><g><path class="fil0" d="M1365 3775l423 0c155,-1150 1141,-2019 2313,-2019 1286,0 2329,1040 2334,2325l777 0c644,0 1172,527 1172,1172 0,644 -528,1171 -1172,1171l-5847 0c-729,0 -1325,-596 -1325,-1324 0,-729 596,-1325 1325,-1325zm484 139l-484 0c-652,0 -1186,534 -1186,1186 0,652 534,1185 1186,1185l5847 0c568,0 1033,-465 1033,-1032 0,-568 -465,-1033 -1033,-1033l-847 0c-40,-1 -70,-33 -69,-71 31,-1238 -960,-2255 -2195,-2255 -1118,0 -2060,842 -2182,1954 -2,36 -33,66 -70,66z"/><path class="fil0" d="M6148 85l51 459c13,123 -179,151 -193,22l-50 -460c-14,-124 178,-150 192,-21z"/><path class="fil0" d="M5111 435l273 373c73,99 -79,219 -156,114l-273 -373c-74,-100 79,-219 156,-114z"/><path class="fil0" d="M4388 1257l423 186c113,49 41,229 -78,177l-423 -186c-114,-50 -41,-230 78,-177z"/><path class="fil0" d="M7454 3956l-273 -373c-73,-99 79,-219 156,-114l273 372c74,101 -79,220 -156,115z"/><path class="fil0" d="M8177 3134l-423 -186c-113,-49 -41,-229 78,-177l423 186c114,50 41,229 -78,177z"/><path class="fil0" d="M8393 2061l-459 50c-123,14 -151,-178 -22,-192l460 -50c124,-14 150,178 21,192z"/><path class="fil0" d="M8043 1024l-373 273c-99,73 -219,-79 -114,-156l373 -273c100,-74 219,79 114,156z"/><path class="fil0" d="M7221 301l-186 423c-49,113 -229,41 -177,-78l186 -423c50,-114 230,-41 177,78z"/><path class="fil0" d="M7239 1116c877,774 513,2246 -651,2494 -37,8 -81,-17 -82,-53 -178,-813 -760,-1485 -1534,-1781 -37,-14 -54,-55 -38,-93 358,-935 1546,-1237 2305,-567z"/><path class="fil0" d="M1065 6848c117,0 187,95 156,211l-160 612c-35,131 -170,218 -282,211 -109,-7 -171,-101 -142,-211l161 -612c30,-116 151,-211 267,-211z"/><path class="fil0" d="M2265 6848c117,0 187,95 156,211l-160 612c-35,131 -170,218 -282,211 -109,-7 -171,-101 -142,-211l161 -612c30,-116 151,-211 267,-211z"/><path class="fil0" d="M3465 6848c117,0 187,95 156,211l-160 612c-35,131 -170,218 -282,211 -109,-7 -171,-101 -142,-211l161 -612c30,-116 151,-211 267,-211z"/><path class="fil0" d="M4665 6848c117,0 187,95 156,211l-160 612c-35,131 -170,218 -282,211 -109,-7 -171,-101 -142,-211l161 -612c30,-116 151,-211 267,-211z"/><path class="fil0" d="M5865 6848c117,0 187,95 156,211l-160 612c-35,131 -170,218 -282,211 -109,-7 -171,-101 -142,-211l161 -612c30,-116 151,-211 267,-211z"/><path class="fil0" d="M7065 6848c117,0 187,95 156,211l-160 612c-35,131 -170,218 -282,211 -109,-7 -171,-101 -142,-211l161 -612c30,-116 151,-211 267,-211z"/><path class="fil0" d="M750 8048c117,0 187,95 156,211l-160 612c-35,131 -170,218 -282,211 -109,-7 -171,-101 -142,-211l161 -612c30,-116 151,-211 267,-211z"/><path class="fil0" d="M1950 8048c117,0 187,95 156,211l-160 612c-35,131 -170,218 -282,211 -109,-7 -171,-101 -142,-211l161 -612c30,-116 151,-211 267,-211z"/><path class="fil0" d="M3150 8048c117,0 187,95 156,211l-160 612c-35,131 -170,218 -282,211 -109,-7 -171,-101 -142,-211l161 -612c30,-116 151,-211 267,-211z"/><path class="fil0" d="M4350 8048c117,0 187,95 156,211l-160 612c-35,131 -170,218 -282,211 -109,-7 -171,-101 -142,-211l161 -612c30,-116 151,-211 267,-211z"/><path class="fil0" d="M5550 8048c117,0 187,95 156,211l-160 612c-35,131 -170,218 -282,211 -109,-7 -171,-101 -142,-211l161 -612c30,-116 151,-211 267,-211z"/><path class="fil0" d="M6750 8048c117,0 187,95 156,211l-160 612c-35,131 -170,218 -282,211 -109,-7 -171,-101 -142,-211l161 -612c30,-116 151,-211 267,-211z"/><path class="fil0" d="M435 9248c116,0 187,95 156,211l-160 612c-35,131 -170,218 -282,211 -109,-7 -171,-101 -142,-211l161 -612c30,-116 150,-211 267,-211z"/><path class="fil0" d="M1635 9248c116,0 187,95 156,211l-160 612c-35,131 -170,218 -282,211 -109,-7 -171,-101 -142,-211l161 -612c30,-116 150,-211 267,-211z"/><path class="fil0" d="M2835 9248c116,0 187,95 156,211l-160 612c-35,131 -170,218 -282,211 -109,-7 -171,-101 -142,-211l161 -612c30,-116 150,-211 267,-211z"/><path class="fil0" d="M4035 9248c116,0 187,95 156,211l-160 612c-35,131 -170,218 -282,211 -109,-7 -171,-101 -142,-211l161 -612c30,-116 150,-211 267,-211z"/><path class="fil0" d="M5235 9248c116,0 187,95 156,211l-160 612c-35,131 -170,218 -282,211 -109,-7 -171,-101 -142,-211l161 -612c30,-116 150,-211 267,-211z"/><path class="fil0" d="M6435 9248c116,0 187,95 156,211l-160 612c-35,131 -170,218 -282,211 -109,-7 -171,-101 -142,-211l161 -612c30,-116 150,-211 267,-211z"/></g><text x="0" y="10297" fill="#000000" font-size="5px" font-weight="bold" font-family="'Helvetica Neue', Helvetica, Arial-Unicode, Arial, Sans-serif">Created by jhonkar</text><text x="0" y="10302" fill="#000000" font-size="5px" font-weight="bold" font-family="'Helvetica Neue', Helvetica, Arial-Unicode, Arial, Sans-serif">from the Noun Project</text></svg>