<?xml version="1.0" encoding="UTF-8" standalone="no"?>
<svg
   xmlns:dc="http://purl.org/dc/elements/1.1/"
   xmlns:cc="http://creativecommons.org/ns#"
   xmlns:rdf="http://www.w3.org/1999/02/22-rdf-syntax-ns#"
   xmlns:svg="http://www.w3.org/2000/svg"
   xmlns="http://www.w3.org/2000/svg"
   xmlns:sodipodi="http://sodipodi.sourceforge.net/DTD/sodipodi-0.dtd"
   xmlns:inkscape="http://www.inkscape.org/namespaces/inkscape"
   version="1.1"
   x="0px"
   y="0px"
   viewBox="0 0 100 100"
   enable-background="new 0 0 100 100"
   xml:space="preserve"
   id="svg126"
   sodipodi:docname="noun_Gauge_8760.svg"
   width="100"
   height="100"
   inkscape:version="0.92.3 (2405546, 2018-03-11)"><metadata
     id="metadata132"><rdf:RDF><cc:Work
         rdf:about=""><dc:format>image/svg+xml</dc:format><dc:type
           rdf:resource="http://purl.org/dc/dcmitype/StillImage" /><dc:title></dc:title></cc:Work></rdf:RDF></metadata><defs
     id="defs130" /><sodipodi:namedview
     pagecolor="#ffffff"
     bordercolor="#666666"
     borderopacity="1"
     objecttolerance="10"
     gridtolerance="10"
     guidetolerance="10"
     inkscape:pageopacity="0"
     inkscape:pageshadow="2"
     inkscape:window-width="1440"
     inkscape:window-height="847"
     id="namedview128"
     showgrid="false"
     fit-margin-top="0"
     fit-margin-left="0"
     fit-margin-right="0"
     fit-margin-bottom="0"
     inkscape:zoom="5.184"
     inkscape:cx="50"
     inkscape:cy="37.5"
     inkscape:window-x="-8"
     inkscape:window-y="-8"
     inkscape:window-maximized="1"
     inkscape:current-layer="svg126" /><path
     d="M 50,100 C 22.431,100 0,77.571 0,50 0,22.431 22.431,0 50,0 c 27.571,0 50,22.431 50,50 0,27.571 -22.429,50 -50,50 z M 50,6.484 C 26.005,6.484 6.484,26.004 6.484,50 6.484,73.992 26.005,93.513 50,93.513 73.992,93.513 93.513,73.992 93.513,50 93.513,26.004 73.992,6.484 50,6.484 Z"
     id="path90"
     inkscape:connector-curvature="0" /><path
     d="M 54.172,55.635 C 54.03,55.451 53.877,55.281 53.716,55.12 53.709,55.112 53.707,55.102 53.7,55.095 L 29.368,29.662 c -0.056,-0.058 -0.123,-0.097 -0.193,-0.125 -0.506,-0.353 -1.216,-0.381 -1.717,0.006 -0.309,0.236 -0.506,0.579 -0.556,0.964 -0.04,0.305 0.021,0.606 0.162,0.87 0.007,0.014 0.008,0.029 0.017,0.043 0,0 18.621,30.481 18.744,30.641 1.003,1.305 2.527,2.053 4.177,2.053 1.169,0 2.279,-0.377 3.207,-1.088 1.118,-0.861 1.828,-2.102 2.016,-3.498 0.179,-1.392 -0.196,-2.776 -1.053,-3.893 z"
     id="path92"
     inkscape:connector-curvature="0" /><g
     id="g96"><path
       d="m 49.997,19.618 c -1.15,0 -2.089,-0.938 -2.089,-2.088 0,-1.15 0.938,-2.089 2.089,-2.089 1.151,0 2.091,0.938 2.091,2.089 0,1.151 -0.941,2.088 -2.091,2.088 z"
       id="path94"
       inkscape:connector-curvature="0" /></g><g
     id="g100"><path
       d="m 60.293,20.973 c -0.186,0 -0.366,-0.023 -0.543,-0.07 -0.536,-0.145 -0.99,-0.491 -1.269,-0.974 -0.278,-0.483 -0.352,-1.047 -0.209,-1.586 0.292,-1.085 1.468,-1.766 2.56,-1.474 1.112,0.295 1.773,1.443 1.476,2.556 -0.246,0.912 -1.072,1.548 -2.015,1.548 z"
       id="path98"
       inkscape:connector-curvature="0" /></g><g
     id="g104"><path
       d="m 39.704,20.973 c -0.944,0 -1.774,-0.636 -2.018,-1.548 -0.144,-0.539 -0.069,-1.101 0.209,-1.583 0.278,-0.483 0.729,-0.829 1.269,-0.972 1.092,-0.292 2.267,0.389 2.558,1.475 0.144,0.539 0.069,1.103 -0.209,1.585 -0.278,0.483 -0.729,0.829 -1.268,0.973 -0.179,0.047 -0.36,0.07 -0.541,0.07 z"
       id="path102"
       inkscape:connector-curvature="0" /></g><g
     id="g108"><path
       d="m 30.113,24.946 c -0.743,0 -1.437,-0.401 -1.811,-1.044 -0.278,-0.483 -0.351,-1.045 -0.206,-1.584 0.145,-0.539 0.49,-0.99 0.973,-1.268 0.963,-0.557 2.299,-0.196 2.852,0.763 0.575,0.999 0.233,2.279 -0.764,2.854 -0.32,0.182 -0.678,0.279 -1.044,0.279 z"
       id="path106"
       inkscape:connector-curvature="0" /></g><g
     id="g112"><path
       d="m 21.875,31.267 c -0.56,0 -1.083,-0.218 -1.478,-0.613 -0.812,-0.814 -0.812,-2.139 0.001,-2.952 0.787,-0.789 2.164,-0.79 2.955,0 0.813,0.814 0.813,2.139 0,2.953 -0.395,0.394 -0.919,0.612 -1.478,0.612 z"
       id="path110"
       inkscape:connector-curvature="0" /></g><g
     id="g116"><path
       d="m 15.552,39.503 c -0.364,0 -0.726,-0.097 -1.042,-0.279 -0.483,-0.281 -0.828,-0.73 -0.972,-1.27 -0.144,-0.539 -0.071,-1.103 0.208,-1.584 0.553,-0.958 1.887,-1.322 2.852,-0.765 1,0.576 1.342,1.856 0.765,2.853 -0.372,0.645 -1.067,1.045 -1.811,1.045 z"
       id="path114"
       inkscape:connector-curvature="0" /></g><path
     d="m 84.314,39.398 c -0.807,0 -1.56,-0.431 -1.966,-1.124 C 79.057,32.697 74.363,28.037 68.759,24.795 68.231,24.49 67.855,23.999 67.7,23.412 c -0.16,-0.588 -0.076,-1.205 0.227,-1.731 0.605,-1.049 2.061,-1.441 3.116,-0.832 6.278,3.635 11.545,8.86 15.232,15.113 0.305,0.523 0.394,1.136 0.241,1.725 -0.149,0.59 -0.526,1.085 -1.05,1.396 -0.35,0.205 -0.749,0.315 -1.152,0.315 z"
     id="path118"
     inkscape:connector-curvature="0" /><path
     d="m 63.672,61.128 c -3.711,0 -5.127,2.754 -6.051,3.954 -1.825,2.373 -4.604,3.589 -7.384,3.52 -2.784,0.069 -5.561,-1.146 -7.389,-3.52 -0.922,-1.2 -2.339,-3.954 -6.051,-3.954 -2.584,0 -17.185,0 -25.818,0 4.851,16.982 20.5,29.454 39.02,29.454 18.52,0 34.168,-12.472 39.019,-29.454 -8.684,0 -22.808,0 -25.346,0 z M 61.141,81.592 H 38.858 c -2.069,0 -3.755,-1.636 -3.755,-3.646 0,-2.015 1.686,-3.65 3.755,-3.65 H 61.14 c 2.071,0 3.753,1.636 3.753,3.65 0.001,2.01 -1.681,3.646 -3.752,3.646 z"
     id="path120"
     inkscape:connector-curvature="0" /></svg>