<?xml version="1.0" encoding="UTF-8" standalone="no"?>
<svg
   xmlns:dc="http://purl.org/dc/elements/1.1/"
   xmlns:cc="http://creativecommons.org/ns#"
   xmlns:rdf="http://www.w3.org/1999/02/22-rdf-syntax-ns#"
   xmlns:svg="http://www.w3.org/2000/svg"
   xmlns="http://www.w3.org/2000/svg"
   xmlns:sodipodi="http://sodipodi.sourceforge.net/DTD/sodipodi-0.dtd"
   xmlns:inkscape="http://www.inkscape.org/namespaces/inkscape"
   viewBox="0 0 73.97 86.8375"
   x="0px"
   y="0px"
   version="1.1"
   id="svg69171"
   sodipodi:docname="noun_IR Infrared_1304446.svg"
   inkscape:version="0.92.3 (2405546, 2018-03-11)">
  <metadata
     id="metadata69177">
    <rdf:RDF>
      <cc:Work
         rdf:about="">
        <dc:format>image/svg+xml</dc:format>
        <dc:type
           rdf:resource="http://purl.org/dc/dcmitype/StillImage" />
      </cc:Work>
    </rdf:RDF>
  </metadata>
  <defs
     id="defs69175" />
  <sodipodi:namedview
     pagecolor="#ffffff"
     bordercolor="#666666"
     borderopacity="1"
     objecttolerance="10"
     gridtolerance="10"
     guidetolerance="10"
     inkscape:pageopacity="0"
     inkscape:pageshadow="2"
     inkscape:window-width="640"
     inkscape:window-height="480"
     id="namedview69173"
     showgrid="false"
     inkscape:zoom="3.5625071"
     inkscape:cx="43.950003"
     inkscape:cy="47.168534"
     inkscape:current-layer="svg69171" />
  <title
     id="title69153">Asset 22</title>
  <g
     data-name="Layer 2"
     id="g69165">
    <g
       data-name="Layer 2"
       id="g69163">
      <path
         d="M51.25,42a3.49,3.49,0,0,1-2.57-1.09,15.6,15.6,0,0,0-23.39,0,3.58,3.58,0,0,1-4.74.35,2.91,2.91,0,0,1-.39-4.34,22.71,22.71,0,0,1,33.64,0,2.91,2.91,0,0,1-.39,4.34A3.54,3.54,0,0,1,51.25,42Z"
         id="path69155" />
      <path
         d="M60.77,31.73a3.49,3.49,0,0,1-2.56-1.08,28.44,28.44,0,0,0-42.44,0A3.58,3.58,0,0,1,11,31a2.91,2.91,0,0,1-.38-4.34,35.56,35.56,0,0,1,52.68,0A2.91,2.91,0,0,1,62.95,31,3.54,3.54,0,0,1,60.77,31.73Z"
         id="path69157" />
      <path
         d="M70.61,21.14a3.49,3.49,0,0,1-2.56-1.08A42.19,42.19,0,0,0,37,6.16,42.19,42.19,0,0,0,5.92,20.06a3.58,3.58,0,0,1-4.74.35A2.91,2.91,0,0,1,.8,16.06a48.78,48.78,0,0,1,72.37,0,2.91,2.91,0,0,1-.38,4.34A3.54,3.54,0,0,1,70.61,21.14Z"
         id="path69159" />
      <path
         d="M28.94,61.93H9.45a2.6,2.6,0,0,0-2.6,2.6v2.35a2.6,2.6,0,0,0,2.6,2.6H64.52a2.6,2.6,0,0,0,2.6-2.6V64.53a2.6,2.6,0,0,0-2.6-2.6H45a8,8,0,0,0-16.09,0Z"
         id="path69161" />
    </g>
  </g>
</svg>
