<?xml version="1.0" encoding="iso-8859-1"?>
<!-- Generator: Adobe Illustrator 18.1.1, SVG Export Plug-In . SVG Version: 6.00 Build 0)  -->
<svg version="1.1" id="Capa_1" xmlns="http://www.w3.org/2000/svg" xmlns:xlink="http://www.w3.org/1999/xlink" x="0px" y="0px"
	 viewBox="0 0 611.999 611.999" style="enable-background:new 0 0 611.999 611.999;" xml:space="preserve">
<g>
	<g id="Battery_-Full-">
		<path d="M562.042,276.876c0-15.841,0-31.683,0-47.524c0-7.982,0.604-15.301-4.517-22.614
			c-4.681-6.687-12.299-10.652-20.461-10.652c-126.654,0-253.309,0-379.963,0c-31.318,0-62.636,0-93.954,0
			c-7.983,0-15.966,0-23.949,0c-4.014,0-8.029,0-12.045,0c-3.958,0-7.687,0.286-11.453,1.798
			c-7.862,3.157-13.587,10.08-15.209,18.395c-0.666,3.41-0.462,20.404-0.462,23.778c0,31.683,0,63.365,0,95.048
			c0,15.841,0,31.683,0,47.524c0,7.982-0.604,15.301,4.517,22.614c4.681,6.687,12.299,10.652,20.461,10.652
			c126.775,0,253.551,0,380.325,0c30.447,0,60.896,0,91.344,0c7.424,0,14.847,0,22.272,0c2.997,0,19.522,0.149,22.547-0.396
			c9.24-1.665,16.764-8.369,19.481-17.355c1.299-4.298,1.069-8.529,1.069-12.86c0-4.454,0-8.909,0-13.362
			C562.042,340.241,562.042,308.558,562.042,276.876z M537.064,390.917H25.006V221.064h512.058V390.917z"/>
		<path d="M587.021,264.776c0,27.476,0,54.953,0,82.429c13.796,0,24.978-11.183,24.978-24.978c0-10.824,0-21.648,0-32.472
			C611.999,275.96,600.816,264.776,587.021,264.776z"/>
		<polygon points="512.086,365.939 512.086,246.042 407.894,246.042 477.116,365.939 		"/>
		<polygon points="84.955,246.042 49.985,246.042 49.985,365.939 154.177,365.939 		"/>
		<polygon points="361.669,246.042 131.151,246.042 200.372,365.939 430.892,365.939 		"/>
	</g>
</g>
<g>
</g>
<g>
</g>
<g>
</g>
<g>
</g>
<g>
</g>
<g>
</g>
<g>
</g>
<g>
</g>
<g>
</g>
<g>
</g>
<g>
</g>
<g>
</g>
<g>
</g>
<g>
</g>
<g>
</g>
</svg>
