<svg xmlns="http://www.w3.org/2000/svg" xmlns:xlink="http://www.w3.org/1999/xlink" version="1.1" x="0px" y="0px" viewBox="0 0 100 125" enable-background="new 0 0 100 100" xml:space="preserve"><path d="M27.1,70.3c0.1,0.1,0.2,0.2,0.4,0.2h50c0.4,0,0.6-0.4,0.4-0.8C74.7,64.1,73,57.4,73,50c0-7.4,1.7-14.1,4.9-19.7  c0.2-0.3-0.1-0.8-0.4-0.8h-50c-0.2,0-0.3,0.1-0.4,0.2C23.7,35.6,22,42.4,22,50C22,57.6,23.7,64.4,27.1,70.3  C27.1,70.3,27.1,70.3,27.1,70.3z M27.8,30.5h48.9C73.6,36.1,72,42.7,72,50s1.6,13.9,4.6,19.5H27.8C24.6,63.9,23,57.3,23,50  S24.6,36.1,27.8,30.5z"/><text x="0" y="115" fill="#000000" font-size="5px" font-weight="bold" font-family="'Helvetica Neue', Helvetica, Arial-Unicode, Arial, Sans-serif">Created by Arthur Shlain</text><text x="0" y="120" fill="#000000" font-size="5px" font-weight="bold" font-family="'Helvetica Neue', Helvetica, Arial-Unicode, Arial, Sans-serif">from the Noun Project</text></svg>