<svg xmlns="http://www.w3.org/2000/svg" xmlns:xlink="http://www.w3.org/1999/xlink" version="1.1" x="0px" y="0px" viewBox="0 0 100 125" enable-background="new 0 0 100 100" xml:space="preserve"><path d="M70,29.5H52.4c-14,0-26.6,7.8-32.8,20.3c-0.1,0.1-0.1,0.3,0,0.4c6.3,12.5,18.8,20.3,32.8,20.3H70c5.8,0,10.5-9.2,10.5-20.5  S75.8,29.5,70,29.5z M70,69.5H52.4C38.8,69.5,26.7,62,20.6,50c6.1-12,18.3-19.5,31.8-19.5H70c5.2,0,9.5,8.7,9.5,19.5  S75.2,69.5,70,69.5z"/><text x="0" y="115" fill="#000000" font-size="5px" font-weight="bold" font-family="'Helvetica Neue', Helvetica, Arial-Unicode, Arial, Sans-serif">Created by Arthur Shlain</text><text x="0" y="120" fill="#000000" font-size="5px" font-weight="bold" font-family="'Helvetica Neue', Helvetica, Arial-Unicode, Arial, Sans-serif">from the Noun Project</text></svg>