<svg xmlns="http://www.w3.org/2000/svg" xmlns:xlink="http://www.w3.org/1999/xlink" version="1.1" x="0px" y="0px" viewBox="0 0 100 125" enable-background="new 0 0 100 100" xml:space="preserve"><path d="M70.4,29.8c-0.1-0.2-0.3-0.3-0.4-0.3H30c-0.2,0-0.4,0.1-0.4,0.3l-10,20c-0.1,0.1-0.1,0.3,0,0.4l10,20  c0.1,0.2,0.3,0.3,0.4,0.3h40c0.2,0,0.4-0.1,0.4-0.3l10-20c0.1-0.1,0.1-0.3,0-0.4L70.4,29.8z M69.7,69.5H30.3L20.6,50l9.8-19.5h39.4  L79.4,50L69.7,69.5z"/><text x="0" y="115" fill="#000000" font-size="5px" font-weight="bold" font-family="'Helvetica Neue', Helvetica, Arial-Unicode, Arial, Sans-serif">Created by Arthur Shlain</text><text x="0" y="120" fill="#000000" font-size="5px" font-weight="bold" font-family="'Helvetica Neue', Helvetica, Arial-Unicode, Arial, Sans-serif">from the Noun Project</text></svg>