<svg xmlns="http://www.w3.org/2000/svg" xmlns:xlink="http://www.w3.org/1999/xlink" version="1.1" x="0px" y="0px" viewBox="0 0 100 125" enable-background="new 0 0 100 100" xml:space="preserve"><path d="M30,70.5h40c0.3,0,0.5-0.2,0.5-0.5V30c0-0.3-0.2-0.5-0.5-0.5H30c-0.3,0-0.5,0.2-0.5,0.5v40C29.5,70.3,29.7,70.5,30,70.5z   M30.5,35.5h4v34h-4V35.5z M35.5,69.5v-34h34v34H35.5z M69.5,34.5h-34v-4h34V34.5z M34.5,30.5v4h-4v-4H34.5z"/><text x="0" y="115" fill="#000000" font-size="5px" font-weight="bold" font-family="'Helvetica Neue', Helvetica, Arial-Unicode, Arial, Sans-serif">Created by Arthur Shlain</text><text x="0" y="120" fill="#000000" font-size="5px" font-weight="bold" font-family="'Helvetica Neue', Helvetica, Arial-Unicode, Arial, Sans-serif">from the Noun Project</text></svg>