<svg xmlns="http://www.w3.org/2000/svg" xmlns:xlink="http://www.w3.org/1999/xlink" version="1.1" x="0px" y="0px" viewBox="0 0 100 125" enable-background="new 0 0 100 100" xml:space="preserve"><path d="M75,74.5H57.1C67.7,71.4,75.5,61.6,75.5,50c0-14.1-11.4-25.5-25.5-25.5S24.5,35.9,24.5,50S35.9,75.5,50,75.5h25  c0.3,0,0.5-0.2,0.5-0.5S75.3,74.5,75,74.5z M25.5,50c0-13.5,11-24.5,24.5-24.5s24.5,11,24.5,24.5S63.5,74.5,50,74.5  S25.5,63.5,25.5,50z"/><text x="0" y="115" fill="#000000" font-size="5px" font-weight="bold" font-family="'Helvetica Neue', Helvetica, Arial-Unicode, Arial, Sans-serif">Created by Arthur Shlain</text><text x="0" y="120" fill="#000000" font-size="5px" font-weight="bold" font-family="'Helvetica Neue', Helvetica, Arial-Unicode, Arial, Sans-serif">from the Noun Project</text></svg>