<svg xmlns="http://www.w3.org/2000/svg" xmlns:xlink="http://www.w3.org/1999/xlink" version="1.1" x="0px" y="0px" viewBox="0 0 100 125" enable-background="new 0 0 100 100" xml:space="preserve"><path d="M75,29.5H25c-3.6,0-5.5,10.6-5.5,20.5s1.9,20.5,5.5,20.5h50c3.6,0,5.5-10.6,5.5-20.5S78.6,29.5,75,29.5z M20.5,50  c0-11.5,2.4-19.5,4.5-19.5h48.2c-2.4,2.9-3.7,11.4-3.7,19.5s1.3,16.6,3.7,19.5H25C22.9,69.5,20.5,61.5,20.5,50z M75,69.5  c-2.1,0-4.5-8-4.5-19.5s2.4-19.5,4.5-19.5s4.5,8,4.5,19.5S77.1,69.5,75,69.5z"/><text x="0" y="115" fill="#000000" font-size="5px" font-weight="bold" font-family="'Helvetica Neue', Helvetica, Arial-Unicode, Arial, Sans-serif">Created by Arthur Shlain</text><text x="0" y="120" fill="#000000" font-size="5px" font-weight="bold" font-family="'Helvetica Neue', Helvetica, Arial-Unicode, Arial, Sans-serif">from the Noun Project</text></svg>