<svg xmlns="http://www.w3.org/2000/svg" xmlns:xlink="http://www.w3.org/1999/xlink" version="1.1" x="0px" y="0px" viewBox="0 0 100 125" enable-background="new 0 0 100 100" xml:space="preserve"><path d="M80,29.5H20c-0.3,0-0.5,0.2-0.5,0.5v35c0,0.2,0.1,0.3,0.2,0.4c4.4,3.4,9.5,5.1,15.3,5.1s10.9-1.7,15.3-5.1  c4.2-3.2,9.2-4.9,14.7-4.9s10.5,1.6,14.7,4.9c0.3,0.2,0.8,0,0.8-0.4V30C80.5,29.7,80.3,29.5,80,29.5z M79.5,64  c-4.2-3-9.1-4.5-14.5-4.5c-5.8,0-10.9,1.7-15.3,5.1c-4.2,3.2-9.2,4.9-14.7,4.9c-5.5,0-10.3-1.6-14.5-4.7V30.5h59V64z"/><text x="0" y="115" fill="#000000" font-size="5px" font-weight="bold" font-family="'Helvetica Neue', Helvetica, Arial-Unicode, Arial, Sans-serif">Created by Arthur Shlain</text><text x="0" y="120" fill="#000000" font-size="5px" font-weight="bold" font-family="'Helvetica Neue', Helvetica, Arial-Unicode, Arial, Sans-serif">from the Noun Project</text></svg>